<?xml version="1.0" encoding="UTF-8" standalone="no"?>
<!--
  Copyright © 2026 Chloe Bolland
  contact chloe@mammoththoughts.com if you wish to use, publish or reproduce this game or any part of it in any way
-->
<!-- Created with Inkscape (http://www.inkscape.org/) -->

<svg
   width="1000"
   height="1000"
   viewBox="0 0 264.58333 264.58333"
   version="1.1"
   id="svg1"
   xml:space="preserve"
   inkscape:version="1.3.2 (091e20e, 2023-11-25, custom)"
   sodipodi:docname="mine1.svg"
   xmlns:inkscape="http://www.inkscape.org/namespaces/inkscape"
   xmlns:sodipodi="http://sodipodi.sourceforge.net/DTD/sodipodi-0.dtd"
   xmlns="http://www.w3.org/2000/svg"
   xmlns:svg="http://www.w3.org/2000/svg"><sodipodi:namedview
     id="namedview1"
     pagecolor="#ffffff"
     bordercolor="#000000"
     borderopacity="0.25"
     inkscape:showpageshadow="2"
     inkscape:pageopacity="0.0"
     inkscape:pagecheckerboard="0"
     inkscape:deskcolor="#d1d1d1"
     inkscape:document-units="mm"
     inkscape:zoom="0.40511539"
     inkscape:cx="670.17943"
     inkscape:cy="-12.342163"
     inkscape:window-width="3484"
     inkscape:window-height="1943"
     inkscape:window-x="4075"
     inkscape:window-y="70"
     inkscape:window-maximized="0"
     inkscape:current-layer="layer1" /><defs
     id="defs1"><inkscape:path-effect
       effect="fill_between_many"
       method="originald"
       linkedpaths="#path4661,0,1|"
       id="path-effect4663" /></defs><g
     inkscape:label="mine"
     inkscape:groupmode="layer"
     id="layer1"><path
       id="path4664"
       style="opacity:1;fill:#ff5555;stroke-width:0.199"
       inkscape:transform-center-x="0.70627955"
       inkscape:transform-center-y="5.4732763"
       d="m 233.15886,202.46288 -52.08388,16.8085 -44.01425,32.52694 L 91.445547,221.55743 38.57252,207.42592 33.775201,152.90765 11.857866,102.759 51.49089,65.016716 77.033448,16.613882 l 54.218892,7.454417 53.76838,-10.208697 27.97683,47.037789 41.50552,35.672797 -19.33236,51.200742 z"
       inkscape:label="c" /><path
       id="path4665"
       style="opacity:1;fill:#7a55ff;stroke-width:0.155135"
       inkscape:transform-center-x="0.55059689"
       inkscape:transform-center-y="4.2668211"
       d="m 211.27666,185.90726 -40.60322,13.10346 -34.31234,25.35714 -35.56039,-23.57499 -41.218408,-11.01655 -3.739863,-42.501 -17.086173,-39.09456 30.896855,-29.422882 19.912301,-37.733566 42.267618,5.811266 41.9164,-7.95843 21.80999,36.669414 32.35661,27.809568 -15.071,39.91474 z"
       inkscape:label="b" /><path
       id="path4666"
       style="opacity:1;fill:#f6ff55;stroke-width:0.0674054"
       inkscape:transform-center-x="0.23923057"
       inkscape:transform-center-y="1.8539116"
       d="m 167.51225,152.79603 -17.64188,5.69338 -14.90853,11.01754 -15.4508,-10.2432 -17.90917,-4.78664 -1.624952,-18.46645 -7.42385,-16.98637 13.424512,-12.78409 8.65179,-16.395028 18.36505,2.524963 18.21245,-3.457894 9.47633,15.932659 14.05877,12.08311 -6.54827,17.34274 z"
       inkscape:label="a" /></g></svg>
