<?xml version="1.0" encoding="UTF-8" standalone="no"?>
<!--
  Copyright © 2026 Chloe Bolland
  contact chloe@mammoththoughts.com if you wish to use, publish or reproduce this game or any part of it in any way
-->
<!-- Created with Inkscape (http://www.inkscape.org/) -->

<svg
   width="1000"
   height="1000"
   viewBox="0 0 264.58333 264.58333"
   version="1.1"
   id="svg1"
   xml:space="preserve"
   inkscape:version="1.3.2 (091e20e, 2023-11-25, custom)"
   sodipodi:docname="saucer2.svg"
   xmlns:inkscape="http://www.inkscape.org/namespaces/inkscape"
   xmlns:sodipodi="http://sodipodi.sourceforge.net/DTD/sodipodi-0.dtd"
   xmlns="http://www.w3.org/2000/svg"
   xmlns:svg="http://www.w3.org/2000/svg"><sodipodi:namedview
     id="namedview1"
     pagecolor="#ffffff"
     bordercolor="#000000"
     borderopacity="0.25"
     inkscape:showpageshadow="2"
     inkscape:pageopacity="0.0"
     inkscape:pagecheckerboard="0"
     inkscape:deskcolor="#d1d1d1"
     inkscape:document-units="mm"
     inkscape:zoom="0.40511539"
     inkscape:cx="670.17943"
     inkscape:cy="-12.342163"
     inkscape:window-width="3484"
     inkscape:window-height="1943"
     inkscape:window-x="4075"
     inkscape:window-y="70"
     inkscape:window-maximized="0"
     inkscape:current-layer="layer1" /><defs
     id="defs1"><inkscape:path-effect
       effect="fill_between_many"
       method="originald"
       linkedpaths="#path4661,0,1|"
       id="path-effect4663" /></defs><g
     inkscape:label="ship"
     inkscape:groupmode="layer"
     id="layer1"><path
       style="display:inline;opacity:0.272059;fill:#d40000;stroke-width:0.408347"
       d="m 50.43182,115.68624 c 1.112714,-5.99598 6.321809,-14.30247 11.965992,-18.632209 11.702687,-8.977343 25.124821,-15.170802 40.505408,-17.598402 9.58862,-1.513437 21.55135,-3.231712 33.57442,-2.087435 12.02304,1.144277 31.44137,1.875575 42.36114,4.91064 10.91977,3.035065 18.31818,5.059848 25.74474,10.29471 7.42654,5.234862 10.68115,8.343056 14.74933,13.597176 4.06817,5.25412 5.4452,12.60345 3.54675,19.88059 -1.89847,7.27712 -11.84467,20.42932 -32.16232,29.66962 -20.31765,9.24028 -67.58265,11.46053 -81.9701,7.00463 C 94.359739,158.26967 72.857997,150.61128 66.386434,145.23 48.800012,130.60631 49.079991,122.97072 50.43182,115.68624 Z"
       id="path4658"
       sodipodi:nodetypes="zzzzzzzzzzzz"
       inkscape:label="insidesaucer" /><path
       style="display:inline;opacity:1;fill:#d40000;stroke-width:0.408347"
       d="m 10.251699,126.02453 -4.0709967,29.53373 9.6589607,27.85862 20.742898,21.11891 38.273032,21.24411 57.871397,11.26658 64.18845,-12.99918 34.60475,-20.68513 17.24301,-21.42402 7.06742,-16.72911 1.36256,-17.97928 -1.57506,-12.43686 -8.7037,25.68492 -26.29086,22.60048 -37.93281,14.00104 -48.08686,5.44076 -48.479038,-4.75088 -37.920467,-15.29981 -26.242058,-21.36368 -9.739757,-24.83462 9.224798,-26.99197"
       id="path4659"
       sodipodi:nodetypes="ccccccccccccccccccccc"
       inkscape:label="mid" /><path
       style="opacity:1;fill:#ff8f00;fill-opacity:1;stroke-width:0.408347"
       d="m 101.4653,240.33641 29.48658,5.47273 31.17728,-3.11848 23.07796,-10.33576 13.01295,-9.59945 -24.93424,6.37564 -29.04842,4.32099 -34.92999,-1.29629 -22.091594,-4.52213 -12.094048,-1.82963"
       id="path4660"
       sodipodi:nodetypes="cccccccccc"
       inkscape:label="bodylower" /><path
       inkscape:original-d="M 0,0"
       inkscape:path-effect="#path-effect4663"
       d="m 256.0048,135.04915 -9.5881,26.42004 -26.1476,21.57488 -38.78208,14.54619 -47.49152,5.33396 -47.491525,-5.33396 -38.782076,-14.54619 -26.147602,-21.57488 -9.588099,-26.42004 9.588093,-26.42005 26.147602,-21.574878 38.782079,-14.54619 47.491528,-5.33396 47.49153,5.33396 38.78208,14.54619 26.1476,21.574878 z"
       id="path4664"
       inkscape:label="mid" /><path
       id="path4661"
       style="display:inline;opacity:1;fill:#ff0000;stroke-width:0.408347"
       inkscape:label="body"
       d="m 256.0048,135.04915 -9.5881,26.42004 -26.1476,21.57488 -38.78208,14.54619 -47.49152,5.33396 -47.491525,-5.33396 -38.782076,-14.54619 -26.147602,-21.57488 -9.588099,-26.42004 9.588093,-26.42005 26.147602,-21.574878 38.782079,-14.54619 47.491528,-5.33396 47.49153,5.33396 38.78208,14.54619 26.1476,21.574878 z"
       sodipodi:nodetypes="ccccccccccccccccc" /><path
       style="display:inline;opacity:1;fill:#ff5555;fill-opacity:1;stroke-width:0.408347"
       d="M 48.322747,120.83673 51.37673,94.58939 59.972503,66.494787 78.002755,37.007966 104.34569,15.833828 l 30.09745,-3.747359 30.09745,3.179877 22.1414,16.083298 17.98506,21.625087 12.98741,32.443162 6.52199,32.904977 -2.64148,8.23194 -23.81568,19.78866 -29.35747,15.63232 -33.10064,3.52865 -34.02428,-3.8604 -30.151037,-13.42901 -20.452906,-18.97079 z"
       id="path4663"
       sodipodi:nodetypes="ccccccccccccccccccc"
       inkscape:label="glass" /></g></svg>
