<?xml version="1.0" encoding="UTF-8" standalone="no"?>
<!--
  Copyright © 2026 Chloe Bolland
  contact chloe@mammoththoughts.com if you wish to use, publish or reproduce this game or any part of it in any way
-->
<!-- Created with Inkscape (http://www.inkscape.org/) -->

<svg
   width="1000"
   height="1000"
   viewBox="0 0 264.58333 264.58333"
   version="1.1"
   id="svg1"
   xml:space="preserve"
   inkscape:version="1.3.2 (091e20e, 2023-11-25, custom)"
   sodipodi:docname="saucer1.svg"
   xmlns:inkscape="http://www.inkscape.org/namespaces/inkscape"
   xmlns:sodipodi="http://sodipodi.sourceforge.net/DTD/sodipodi-0.dtd"
   xmlns="http://www.w3.org/2000/svg"
   xmlns:svg="http://www.w3.org/2000/svg"><sodipodi:namedview
     id="namedview1"
     pagecolor="#ffffff"
     bordercolor="#000000"
     borderopacity="0.25"
     inkscape:showpageshadow="2"
     inkscape:pageopacity="0.0"
     inkscape:pagecheckerboard="0"
     inkscape:deskcolor="#d1d1d1"
     inkscape:document-units="mm"
     inkscape:zoom="0.57291968"
     inkscape:cx="-180.6536"
     inkscape:cy="272.28948"
     inkscape:window-width="3484"
     inkscape:window-height="1943"
     inkscape:window-x="4075"
     inkscape:window-y="70"
     inkscape:window-maximized="0"
     inkscape:current-layer="layer1" /><defs
     id="defs1" /><g
     inkscape:label="ship"
     inkscape:groupmode="layer"
     id="layer1"><path
       style="display:inline;opacity:0.272059;fill:#d40000;stroke-width:0.408347"
       d="m 50.43182,115.68624 c 1.112714,-5.99598 6.321809,-14.30247 11.965992,-18.632209 11.702687,-8.977343 25.124821,-15.170802 40.505408,-17.598402 9.58862,-1.513437 21.55135,-3.231712 33.57442,-2.087435 12.02304,1.144277 31.44137,1.875575 42.36114,4.91064 10.91977,3.035065 18.31818,5.059848 25.74474,10.29471 7.42654,5.234862 10.68115,8.343056 14.74933,13.597176 4.06817,5.25412 5.4452,12.60345 3.54675,19.88059 -1.89847,7.27712 -11.84467,20.42932 -32.16232,29.66962 -20.31765,9.24028 -67.58265,11.46053 -81.9701,7.00463 C 94.359739,158.26967 72.857997,150.61128 66.386434,145.23 48.800012,130.60631 49.079991,122.97072 50.43182,115.68624 Z"
       id="path4658"
       sodipodi:nodetypes="zzzzzzzzzzzz"
       inkscape:label="insidesaucer" /><path
       style="display:inline;opacity:1;fill:#d40000;stroke-width:0.408347"
       d="m 11.868054,126.02453 c -6.9470177,18.3258 -9.5431232,41.30003 3.971609,57.39235 12.298656,15.88947 27.346166,28.0769 47.00872,37.05214 39.496347,21.01607 108.699977,15.22443 145.843357,-1.96351 17.10291,-7.05752 30.4158,-21.13561 40.07146,-36.56736 6.63124,-10.72232 9.40521,-22.31918 8.42998,-34.70839 1.18144,-3.05061 -2.08325,-18.15779 -2.50604,-8.16075 -0.0369,12.09908 -6.04869,21.92587 -15.8545,29.25968 -22.58934,20.33634 -51.97342,27.03837 -80.84903,33.1379 -19.79545,2.73486 -39.45623,1.15303 -59.158825,-1.38829 -16.9571,-3.26428 -33.699108,-7.48154 -48.542229,-16.45435 -11.436721,-5.02934 -16.437002,-8.79497 -23.702071,-16.74552 -9.375392,-11.59998 -16.216532,-23.11847 -14.073129,-37.25645 0.477081,-2.02361 1.604808,-6.57697 2.012776,-8.56654"
       id="path4659"
       sodipodi:nodetypes="cccccccccccccc"
       inkscape:label="mid" /><path
       style="opacity:1;fill:#ff8f00;fill-opacity:1;stroke-width:0.408347"
       d="m 99.387128,239.41278 c 8.328422,3.53626 17.726702,6.11148 26.946592,7.08908 12.9401,0.99837 25.82816,-1.72771 38.33543,-4.73483 7.35565,-1.9198 13.73561,-6.18113 20.53797,-9.41213 4.47331,-2.54721 13.01295,-9.59945 13.01295,-9.59945 0,0 -7.42643,2.48928 -9.69432,3.14293 -18.2167,3.90931 -31.37649,6.09905 -44.28834,7.5537 -13.81739,0.7337 -30.58677,0.0428 -43.01177,-1.29629 -6.012581,-1.02976 -15.62344,-3.45898 -19.782511,-4.52213 -4.159072,-1.06313 -2.362532,-0.28999 -6.321351,-1.82963"
       id="path4660"
       sodipodi:nodetypes="cccccccczc"
       inkscape:label="bodylower" /><ellipse
       style="display:inline;opacity:1;fill:#ff0000;fill-opacity:1;stroke-width:0.408347"
       id="path4661"
       cx="133.9955"
       cy="135.04915"
       rx="122.0093"
       ry="67.875076"
       inkscape:label="body" /><path
       style="display:inline;opacity:1;fill:#ff5555;fill-opacity:1;stroke-width:0.408347"
       d="M 48.322747,120.83673 C 48.556932,102.16938 51.796809,83.398424 59.972503,66.494787 73.065151,37.579682 101.21923,14.589564 133.44008,12.139302 c 13.46776,-1.165931 27.68128,0.593373 38.95138,8.668833 12.60589,8.576644 23.32955,19.889028 32.27559,32.166596 12.50995,19.321014 19.13523,42.397156 19.5094,65.348139 -0.95587,15.04172 -11.93673,27.34644 -24.80864,34.09362 -13.82162,7.67946 -29.97846,9.09919 -45.32228,11.40656 -21.73089,1.30549 -45.78317,1.39724 -66.201288,-6.79717 -14.641648,-5.58255 -30.162817,-12.38964 -37.211285,-27.78164 -1.095775,-2.65325 -2.524413,-5.4608 -2.31021,-8.40751 z"
       id="path4663"
       sodipodi:nodetypes="ccccccccccc"
       inkscape:label="glass" /></g></svg>
