<?xml version="1.0" encoding="UTF-8" standalone="no"?>
<!--
  Copyright © 2026 Chloe Bolland
  contact chloe@mammoththoughts.com if you wish to use, publish or reproduce this game or any part of it in any way
-->
<!-- Created with Inkscape (http://www.inkscape.org/) -->

<svg
   width="1000"
   height="1000"
   viewBox="0 0 264.58333 264.58333"
   version="1.1"
   id="svg1"
   inkscape:version="1.3.2 (091e20e, 2023-11-25, custom)"
   sodipodi:docname="cracks2.svg"
   xmlns:inkscape="http://www.inkscape.org/namespaces/inkscape"
   xmlns:sodipodi="http://sodipodi.sourceforge.net/DTD/sodipodi-0.dtd"
   xmlns="http://www.w3.org/2000/svg"
   xmlns:svg="http://www.w3.org/2000/svg">
  <sodipodi:namedview
     id="namedview1"
     pagecolor="#ffffff"
     bordercolor="#000000"
     borderopacity="0.25"
     inkscape:showpageshadow="2"
     inkscape:pageopacity="0.0"
     inkscape:pagecheckerboard="0"
     inkscape:deskcolor="#d1d1d1"
     inkscape:document-units="mm"
     inkscape:zoom="1.1380955"
     inkscape:cx="494.24674"
     inkscape:cy="591.7781"
     inkscape:window-width="2798"
     inkscape:window-height="1774"
     inkscape:window-x="4251"
     inkscape:window-y="83"
     inkscape:window-maximized="0"
     inkscape:current-layer="layer1" />
  <defs
     id="defs1" />
  <g
     inkscape:label="Layer 1"
     inkscape:groupmode="layer"
     id="layer1">
    <ellipse
       style="display:none;opacity:0.0851649;fill:none;fill-opacity:0.988528;stroke:#000000;stroke-width:1.099"
       id="path1"
       cx="132.0793"
       cy="132.19475"
       rx="132.0793"
       ry="132.42566"
       sodipodi:insensitive="true" />
  </g>
  <g
     inkscape:groupmode="layer"
     id="layer2"
     inkscape:label="Layer 2">
    <path
       id="path76"
       style="opacity:1;fill:#000000;fill-opacity:1;stroke:#000000;stroke-width:1.099"
       d="m 75.530273,152.38088 c 2.6765,6.815 5.276607,14.28856 11.348968,18.96961 3.639141,4.94054 6.122413,11.31724 4.219049,17.38081 0.157042,2.56934 1.714126,-9.26357 0.852188,-12.07177 -4.368229,-6.01174 -9.162584,-11.74173 -12.205533,-18.58205 -1.502245,-1.82898 -2.894375,-3.73324 -4.214672,-5.6966 z m 59.560187,8.70128 c -3.74702,5.70425 -1.55314,12.10138 -1.17046,18.4892 -0.46918,4.21913 1.07788,-6.83363 1.203,-8.18068 -0.23303,-3.4342 0.83154,-6.92249 -0.0325,-10.30852 z m 34.15502,13.75833 c -3.36183,1.47005 -5.10367,10.97902 -5.08486,10.55071 0.53365,-4.18757 3.86183,-6.81513 5.08486,-10.55071 z m -20.44629,18.63452 c -2.49464,5.13805 -4.75653,14.71877 -3.4336,17.90596 3.97811,-5.6773 5.884,-11.01737 3.4336,-17.90596 z m -3.92069,18.57355 c -2.14487,2.36146 -0.37229,1.47842 0,0 z m -1.10795,1.63142 c -5.61697,6.04083 -11.148,10.47423 -19.83806,8.84184 -5.04625,1.32854 -11.35688,0.91058 -9.13795,-5.89063 -0.88395,-3.79739 -0.38358,-8.41283 -1.4056,-2.01641 -4.35257,5.77242 0.0628,16.45031 8.2024,12.88932 7.35019,-1.79579 13.16367,2.10255 17.57285,7.13519 2.51016,-0.29831 14.48393,1.09759 8.93889,4.24745 -6.08382,2.63768 -11.37516,6.73089 -17.25164,9.75338 -3.10963,-5.93117 -11.16185,-4.08183 -14.2384,-10.18749 2.6849,5.32125 7.91012,8.92747 12.23956,12.14034 1.87145,6.81439 -4.14617,11.30054 -7.34681,4.37564 -5.59098,-3.32061 -12.11366,-5.87971 -18.83614,-5.79881 -7.701935,-2.12424 -16.61661,-4.40147 -21.350633,-11.42617 -5.265476,-2.18868 -12.962611,-4.18059 -16.342155,-7.07709 3.848963,7.271 14.392911,4.23422 17.309021,11.97963 6.154113,3.99859 13.730445,4.20409 19.856667,8.184 7.27064,0.22894 12.25771,4.22741 16.21199,9.78454 5.46543,2.88871 6.25069,5.78055 13.57331,4.21153 7.79271,1.43891 13.03233,-5.15205 20.61574,-5.42482 6.05814,-3.33753 12.55731,-2.16963 18.32763,-5.90037 6.06242,-3.26726 9.66171,-9.10441 10.5268,-15.26542 4.24348,-5.55108 10.87764,-8.45936 17.59508,-9.69329 6.30063,-1.08823 11.04377,-6.18766 14.67962,-10.76195 2.45135,-1.80075 5.59719,-7.69624 1.53738,-2.79955 -4.76184,4.91843 -10.82819,8.06211 -16.57759,11.62279 -6.23407,4.33312 -17.05179,1.66712 -19.46236,10.43207 -4.78599,5.37542 -5.68214,12.89133 -13.73135,14.92588 -6.07047,3.60476 -12.28939,5.84064 -19.11415,7.36419 -5.12746,1.25512 -8.84103,3.95238 -13.08244,-0.008 -5.54949,-0.35545 0.55958,-9.25269 3.9351,-11.52146 5.21538,-4.00441 13.5204,-4.21616 16.83607,-10.36109 5.43484,-1.45175 13.98175,-6.2623 15.69465,-9.33845 -5.56983,2.34708 -10.90782,5.71533 -16.51786,6.83989 -4.81869,-3.97088 -14.85186,-3.19983 -15.4637,-12.45402 0.4685,-3.44172 4.66113,-5.52071 6.04408,-8.80259 z m 26.55187,14.08545 c 0.33657,-0.21518 1.53994,-0.69419 0,0 z m 47.20435,-15.33395 c 2.47201,-2.5219 3.45401,-4.27086 0.37517,-0.891 z M 64.678223,230.36682 c -1.835039,-2.06528 -4.385154,-3.60705 0,0 z m 49.387167,-19.8484 c 0.0785,-2.71643 -0.18575,-4.89884 0,0 z m -0.0548,-2.91249 c 0.22756,-2.15043 -0.1008,-12.44071 -0.94138,-9.29075 0.14429,3.11292 0.73083,6.18398 0.94138,9.29075 z m -61.971409,-13.5785 c 2.370604,3.5167 4.471522,14.3749 7.666199,13.2333 -2.475346,-4.51015 -4.863923,-8.86408 -7.666199,-13.2333 z m 7.402649,14.34021 0.09457,0.10956 z m 0,0 c -2.848895,-0.69371 -2.256232,-0.26532 0,0 z m 0.09457,0.10956 c 0.465108,2.71765 7.548588,6.60353 2.383831,1.52617 -0.457492,-1.02688 -1.620304,-0.92982 -2.383831,-1.52617 z m 113.63856,-10.92957 c -2.76601,5.69419 -4.49407,11.80155 -7.85999,17.22531 3.65307,-4.76764 7.86539,-11.15317 7.85999,-17.22531 z m -7.85999,17.22531 c -3.25205,4.01467 -1.12678,4.79184 0,0 z m 32.06988,-6.52364 c -3.27512,1.61911 -10.46218,9.01134 -3.34021,3.39155 1.28343,-0.94668 2.42112,-2.09244 3.34021,-3.39155 z m -7.12204,6.04046 c -3.72971,1.99385 -4.99615,5.95989 -0.95939,1.0343 z M 81.853918,213.07588 c 2.270758,4.50526 10.913388,9.33319 12.746966,9.65748 -1.759328,-5.27645 -8.800794,-6.3526 -12.746966,-9.65748 z m 13.071037,10.63398 c 0.06059,0.3148 0.83477,1.72128 0,0 z m 0.335897,0.76378 c -0.146059,3.0958 6.689978,13.98061 2.752287,5.44153 -0.222485,-2.17192 -1.62083,-3.70482 -2.752287,-5.44153 z m 4.225582,9.37927 c 1.247076,3.08566 2.718786,3.84237 0,0 z m 16.627406,3.82974 c -0.019,0.10612 0.10309,0.33728 0,0 z m 0.032,0.1664 c -0.0238,0.2752 0.69147,0.72114 0,0 z m 0.25373,0.37569 c 0.46832,0.55576 0.0936,0.0446 0,0 z m 84.05689,1.17357 c -2.28112,-0.015 -11.72598,2.86182 -9.04648,3.3662 2.81083,-1.62612 6.09993,-2.43619 9.04648,-3.3662 z m -10.33219,3.63182 c -3.88253,1.16332 -3.82601,2.1474 0,0 z" />
  </g>
</svg>
