<?xml version="1.0" encoding="UTF-8" standalone="no"?>
<!-- Created with Inkscape (http://www.inkscape.org/) -->

<svg
   width="1000"
   height="1000"
   viewBox="0 0 264.58333 264.58333"
   version="1.1"
   id="svg1"
   inkscape:version="1.3.2 (091e20e, 2023-11-25, custom)"
   sodipodi:docname="cracks3.svg"
   xmlns:inkscape="http://www.inkscape.org/namespaces/inkscape"
   xmlns:sodipodi="http://sodipodi.sourceforge.net/DTD/sodipodi-0.dtd"
   xmlns="http://www.w3.org/2000/svg"
   xmlns:svg="http://www.w3.org/2000/svg">
  <sodipodi:namedview
     id="namedview1"
     pagecolor="#ffffff"
     bordercolor="#000000"
     borderopacity="0.25"
     inkscape:showpageshadow="2"
     inkscape:pageopacity="0.0"
     inkscape:pagecheckerboard="0"
     inkscape:deskcolor="#d1d1d1"
     inkscape:document-units="mm"
     inkscape:zoom="1.1446846"
     inkscape:cx="496.64336"
     inkscape:cy="593.61331"
     inkscape:window-width="2798"
     inkscape:window-height="1774"
     inkscape:window-x="4251"
     inkscape:window-y="83"
     inkscape:window-maximized="0"
     inkscape:current-layer="layer2" />
  <defs
     id="defs1" />
  <g
     inkscape:label="Layer 1"
     inkscape:groupmode="layer"
     id="layer1">
    <ellipse
       style="display:none;opacity:0.0851649;fill:none;fill-opacity:0.988528;stroke:#000000;stroke-width:1.099"
       id="path1"
       cx="132.0793"
       cy="132.19475"
       rx="132.0793"
       ry="132.42566"
       sodipodi:insensitive="true" />
  </g>
  <g
     inkscape:groupmode="layer"
     id="layer2"
     inkscape:label="Layer 2">
    <path
       id="path91"
       style="opacity:1;fill:#000000;fill-opacity:1;stroke:#000000;stroke-width:1.099"
       d="m 113.74034,133.88072 0.14935,0.21394 z m 0.14935,0.21394 c 0.22434,8.23006 -0.75008,16.94967 3.80437,24.18043 2.27627,4.3198 6.28672,11.57744 2.85116,2.40595 -2.05915,-8.83915 -5.73714,-17.1489 -6.45353,-26.32593 l -0.20205,-0.26045 z m 8.31835,32.05334 c 0.61311,2.72524 0.4065,0.76944 0,0 z m 0.38241,1.31103 c -0.57358,3.84639 6.81157,14.34577 2.29548,6.27335 -0.949,-2.01835 -1.71979,-4.11885 -2.29548,-6.27335 z m 4.31498,10.10326 c 2.53556,4.24917 5.06489,6.75081 0.75398,1.02779 z m 3.65043,5.1077 c 8.16024,6.01963 13.69236,16.30103 7.02602,25.7525 1.86104,5.62563 -2.93492,19.3652 -1.25207,19.7133 0.48645,-10.04303 5.88338,-19.01657 6.93173,-28.74279 -1.9385,-6.74244 -5.88244,-13.86074 -12.70568,-16.72301 z m 5.06222,46.92788 c -0.002,0.001 0.001,0.002 0,0 z m 64.05087,-74.68381 c -0.74658,2.63717 -0.63603,5.46728 0,0 z m -0.65991,3.14813 c -2.90234,3.26144 -5.61844,17.05781 -1.96986,6.03909 0.68113,-2.00445 1.4047,-3.99765 1.96986,-6.03909 z m -3.90984,11.20448 c 1.56413,3.69296 -6.87093,18.93977 -1.50628,11.63165 0.0339,-4.06111 2.73641,-7.49932 1.50628,-11.63165 z m 53.90162,-9.41545 c -2.96198,9.25204 -12.47814,14.83324 -13.97692,24.60781 -1.99769,2.96854 -6.87992,16.37854 -1.39124,7.22256 6.03802,-7.5061 7.48756,-17.69056 12.71594,-25.80445 1.00358,-1.89746 2.34374,-3.88441 2.65222,-6.02592 z m -18.13067,35.74563 c -2.76054,3.76481 -1.5946,3.90717 0,0 z m -1.63246,2.89904 c -4.66356,4.51299 -2.94538,8.02747 0,0 z M 15.498279,167.2022 c 3.289875,7.49958 5.899307,15.65168 11.23988,22.14141 2.400833,9.9577 14.519259,9.28423 17.063302,18.89743 2.638607,2.78206 9.912982,6.18538 4.310078,0.89464 -7.061513,-5.85678 -8.804234,-15.73581 -17.588338,-20.11724 -6.24983,-5.75956 -10.822908,-13.28126 -14.235339,-21.04645 z m 35.373551,45.16675 c 2.075811,4.70159 3.939881,-0.53774 0,0 z m 1.768368,2.28772 c -0.713943,0.97922 0.354116,0.43327 0,0 z m 12.888619,-44.64224 c 0.697806,4.69897 6.139777,17.68843 7.241802,15.78081 -2.897595,-5.02079 -4.760522,-10.57937 -7.241802,-15.78081 z m 8.166426,17.26406 c 5.353244,6.0487 9.702569,12.86074 14.686959,19.17713 -4.996327,-6.28708 -6.792825,-15.60136 -14.686959,-19.17713 z m 14.686959,19.17713 c 2.288778,3.03228 9.371604,14.21382 8.882201,10.94398 -2.552687,-3.97495 -5.384986,-7.74647 -8.882201,-10.94398 z M 186.3354,189.74707 c -0.90118,0.85182 0.40864,0.11942 0,0 z m -0.22531,0.38499 c -1.81403,3.16936 -8.2603,11.80163 -2.66127,4.54871 0.99426,-1.44778 1.79818,-3.02955 2.66127,-4.54871 z m -5.57537,8.10183 c -3.12105,3.41689 -2.93134,3.38496 0,0 z m -2.29805,2.58124 c -5.18381,4.19183 -11.65927,13.81386 -11.13674,14.63387 4.0098,-4.65127 6.68094,-10.27986 11.13674,-14.63387 z m -12.00702,15.72928 c -2.77803,4.52906 -2.56745,4.71568 0,0 z M 115.3511,196.2118 c -1.05986,12.47123 2.25007,24.75361 2.30925,37.2026 1.51061,4.90848 0.41265,18.68424 -1.5606,16.00607 1.57308,2.80235 1.04371,10.99394 -0.2511,11.13575 -8.19399,-0.92557 -15.55442,-5.11795 -23.612795,-6.67358 -3.483398,-0.93878 -11.027935,-5.61817 -4.03346,-0.67178 8.349166,4.64683 18.127165,4.8512 26.791205,9.45155 8.22713,3.38887 17.36116,1.42316 25.45665,-2.7387 8.7956,-1.68179 17.40699,-4.22362 25.23161,-8.70523 2.27437,-4.02172 17.76113,-11.35438 6.21554,-6.91941 -9.7049,4.55185 -17.80696,13.29169 -29.14649,13.5618 -7.09995,3.77639 0.4656,-8.82919 3.5858,-10.47025 4.99244,-4.72756 14.46718,-14.9872 15.18127,-18.08597 -4.00693,2.86877 -13.0403,16.18361 -8.85504,4.05014 -0.11597,6.5085 -8.43592,12.82365 -16.0811,15.81427 -5.35778,3.16869 -10.10794,6.23885 -10.27753,-2.60888 -3.40674,-8.83716 -5.30279,-19.12285 -3.3054,-28.27085 0.30139,-2.29907 -2.92066,6.70567 -2.6649,-0.54858 -1.82941,-7.12834 -2.4857,-14.58841 -4.98291,-21.52895 z m 7.95455,20.96151 c 2.76211,-2.52858 3.15354,-7.2633 0.53847,-1.33325 z m 2.56522,-4.85965 c 2.71413,-3.2183 5.61879,-14.29853 1.83916,-4.85501 -0.71275,1.57639 -1.38991,3.18085 -1.83916,4.85501 z m 3.97443,-9.45111 c 0.78683,-0.0574 0.32267,-2.51058 0,0 z m 22.90507,29.85658 c 2.67054,-3.84497 -0.0958,-15.64399 0.85158,-5.21155 -0.0789,1.77396 -0.90132,3.42305 -0.85158,5.21155 z m 0.68006,-10.44484 c 1.18602,-5.36823 1.11103,-11.93761 7.00629,-14.36863 -4.95753,3.65297 -4.82741,3.37694 -3.15045,-2.37549 1.36109,-4.79168 1.66143,-8.3354 -0.3777,-1.20117 -1.63554,5.80705 -4.06566,11.83317 -3.47814,17.94529 z m 7.00629,-14.36863 c 4.73953,-2.76821 6.25339,-5.07677 0.91013,-0.67677 z m 5.09788,-3.89847 c 4.31612,-3.6842 4.63669,-5.6105 0,0 z m -50.03881,44.52131 c -5.85527,-3.98419 -6.96148,-16.50391 -14.77461,-13.85691 -7.736397,-2.85382 10.85279,6.97482 14.77461,13.85691 z M 98.435335,234.30818 c -3.813507,-3.79711 -6.113711,-5.49444 -1.306964,-0.64985 l 1.148318,0.60592 0.158646,0.0439 z m -4.988842,-4.22403 c -3.487118,-2.68099 -1.010608,0.24217 0,0 z m -1.694987,-0.92449 c -1.516254,-4.62989 -12.707009,-6.69172 -4.295793,-2.30411 1.389085,0.84574 2.824471,1.61157 4.295793,2.30411 z m -8.32094,-4.824 c -1.023187,-1.06972 -3.865088,2.03348 0,0 z m -1.867586,0.40101 c -4.376995,3.78895 -15.12971,-2.33088 -16.189087,0.44593 3.914892,2.03555 13.037482,3.441 16.189087,-0.44593 z m 128.71824,-24.67653 c -0.85696,0.7064 0.1944,0.27435 0,0 z m -0.25941,0.37207 c -4.52519,1.74585 -7.86403,14.96702 -2.8906,5.3432 1.11203,-1.69887 1.93759,-3.55646 2.8906,-5.3432 z m -5.74229,9.79785 c -2.94978,6.9187 -4.17186,13.34216 -11.62352,15.54251 6.69308,-1.4089 15.2443,-5.74932 19.39313,-8.88421 -4.77282,3.35101 -15.38822,6.77742 -9.32283,-2.18317 0.56748,-1.47256 1.1498,-2.94763 1.55322,-4.47513 z m -11.71815,15.55151 c -3.09197,-0.68802 -4.69443,3.92879 0,0 z m -3.03857,1.50016 c -2.13271,-0.41369 0.15225,1.69814 0,0 z m 41.3954,-9.64592 c -4.79587,3.78707 -14.73469,13.33976 -16.16128,14.2689 5.68439,-4.38474 11.63955,-8.65839 16.16128,-14.2689 z m -43.46349,8.94623 c -0.41576,-0.0868 0.3466,0.41126 0,0 z m 0.0661,0.16433 c -2.95764,2.35754 3.52961,1.20455 0,0 z m -143.40778,3.54965 c 6.65838,3.78084 13.988782,12.10935 22.925212,13.4411 0.04328,-2.64605 -11.197335,-6.39856 -15.811438,-9.78803 -1.950472,-2.01169 -4.231732,-3.52095 -7.113774,-3.65307 z m 16.30133,8.70335 c 5.858396,1.83443 5.75642,0.5276 0,0 z m 180.02984,-5.24051 c -4.34892,1.22559 -8.69783,2.45119 -13.04675,3.67678 4.21769,0.19839 10.13016,-1.69541 13.04675,-3.67678 z m -35.20871,2.47013 c -5.52811,3.99619 -14.40908,5.89849 -14.44324,8.10647 -6.10518,7.74615 8.5302,-5.59974 12.08467,-6.04265 2.77111,-1.09019 -0.24495,-0.79029 2.35857,-2.06382 z m -15.89928,9.08007 c -2.58562,0.003 -2.43449,1.34129 0,0 z" />
  </g>
</svg>
