<?xml version="1.0" encoding="UTF-8" standalone="no"?>
<!-- Created with Inkscape (http://www.inkscape.org/) -->

<svg
   width="1000"
   height="1000"
   viewBox="0 0 264.58333 264.58333"
   version="1.1"
   id="svg1"
   inkscape:version="1.3.2 (091e20e, 2023-11-25, custom)"
   sodipodi:docname="cracks1.svg"
   xmlns:inkscape="http://www.inkscape.org/namespaces/inkscape"
   xmlns:sodipodi="http://sodipodi.sourceforge.net/DTD/sodipodi-0.dtd"
   xmlns="http://www.w3.org/2000/svg"
   xmlns:svg="http://www.w3.org/2000/svg">
  <sodipodi:namedview
     id="namedview1"
     pagecolor="#ffffff"
     bordercolor="#000000"
     borderopacity="0.25"
     inkscape:showpageshadow="2"
     inkscape:pageopacity="0.0"
     inkscape:pagecheckerboard="0"
     inkscape:deskcolor="#d1d1d1"
     inkscape:document-units="mm"
     inkscape:zoom="1.1380955"
     inkscape:cx="494.24674"
     inkscape:cy="591.7781"
     inkscape:window-width="2798"
     inkscape:window-height="1774"
     inkscape:window-x="4251"
     inkscape:window-y="83"
     inkscape:window-maximized="0"
     inkscape:current-layer="layer1" />
  <defs
     id="defs1" />
  <g
     inkscape:label="Layer 1"
     inkscape:groupmode="layer"
     id="layer1">
    <ellipse
       style="display:none;fill:none;fill-opacity:0.988528;stroke:#000000;stroke-width:1.099"
       id="path1"
       cx="132.0793"
       cy="132.19475"
       rx="132.0793"
       ry="132.42566" />
    <path
       id="path29"
       style="fill:#000000;fill-opacity:1;stroke:#000000;stroke-width:1.099"
       d="m 87.051017,110.84853 c -2.335584,9.19697 -6.876266,17.77134 -9.614402,26.89813 -5.439971,5.37577 1.526599,8.43902 -2.460611,14.88283 -1.274336,2.92844 -0.357234,6.43837 -2.388319,4.20737 4.090018,3.96735 10.266599,4.8974 15.058606,8.77121 7.804107,7.95628 -3.695356,-6.17783 -8.061125,-5.75269 -8.231338,-4.70228 0.976258,-13.50775 -0.84636,-20.29028 2.413632,-9.26029 6.390331,-17.99153 8.522536,-27.47423 l 0.08372,-0.83095 -0.294039,-0.41135 z m 3.783232,58.1918 c -0.2787,7.24596 1.663292,4.81384 0,0 z m 0.527099,4.76301 c 1.193425,6.06727 5.521197,11.10391 4.968173,17.78652 6.241339,7.02914 14.424169,11.91693 21.158249,18.64331 -2.64119,5.41995 -8.63982,14.17458 -2.43368,20.44185 0.0815,7.32311 -4.32143,15.12857 -12.27321,9.58566 -7.891528,-4.51963 -1.67131,-18.13875 -13.378068,-18.28353 -5.010009,-1.89641 -8.556518,-11.0669 -11.412889,-11.45525 0.856673,10.37278 13.035721,11.08145 17.994048,16.72947 2.013207,11.78945 -12.148111,9.2689 -19.027663,6.78291 -7.299787,-3.09099 -16.210647,-0.97021 -20.63058,3.44211 8.380362,-3.01466 17.567711,-1.88688 25.656832,2.04223 7.636622,2.1789 15.508836,-4.73309 20.03024,4.52518 7.26664,2.51947 14.64061,4.47979 15.57534,13.53884 1.18875,6.16306 7.901,6.32812 10.10721,7.07273 3.84151,-0.25641 7.68303,-0.51283 11.52455,-0.76924 -8.34961,-10.41047 8.90128,-2.72523 14.10248,-3.7351 9.2379,-0.0886 15.59756,-9.77942 24.54082,-7.58236 4.01177,1.07823 8.47879,0.62554 1.84725,-0.86319 -10.90691,-5.31909 -18.86859,8.78779 -29.77065,6.82299 -5.65499,-0.27217 -16.91977,-1.30597 -7.64464,-7.41261 3.55492,-5.99626 5.20712,-14.98675 13.79452,-15.42007 5.57471,-2.89261 11.61109,-4.15827 17.33567,-5.25407 3.81972,-7.89748 10.58625,-7.97118 18.33605,-8.0298 4.05879,-9.42649 14.73234,-0.78893 22.31699,-3.20242 7.74598,0.24069 14.17121,-4.24621 13.64614,-9.8381 -1.72539,9.83959 -14.32693,8.88946 -21.97019,7.16237 -5.39871,-1.40385 -13.09062,1.06734 -8.83224,-7.15666 0.57117,-5.00421 -8.64666,-8.79231 -1.75151,-2.71649 2.92883,6.10004 -2.44847,20.1952 -11.70835,14.76804 -11.05457,3.45419 6.56153,-17.74909 -3.12282,-6.72612 -1.43491,6.90367 -7.08307,20.62114 -16.05037,14.4294 -7.66278,1.05393 -0.42113,-12.40279 -1.93188,-12.78599 -0.11944,7.11551 -5.32762,18.61216 -13.28118,13.61192 -6.9751,-5.61618 -19.67443,-11.11955 -15.8351,-22.14818 8.09912,-5.5305 3.70415,-12.70373 3.16783,-20.58509 1.20073,-3.962 8.56218,-13.78547 7.64398,-12.88914 -6.11291,3.81759 -6.43641,10.05721 -10.77904,15.60039 2.69567,6.06159 6.73836,11.79387 -0.7254,15.49998 -0.40126,5.03924 -6.08793,5.11276 -7.33647,5.19126 6.83125,3.71962 9.66869,12.6969 16.64414,16.56871 4.78974,1.91891 9.00963,5.66459 2.79274,9.07474 -4.47417,4.10613 -7.51157,9.29985 -11.20563,14.06494 -2.53974,2.98726 -5.07949,5.97451 -7.61923,8.96177 -2.72802,-5.50566 -8.53911,-8.84516 -11.90092,-14.25598 -0.98755,-8.01257 5.18884,-14.52012 0.53878,-23.05289 0.37261,-5.80798 9.38772,-12.54056 0.009,-15.96493 -6.91383,-5.00696 -14.531305,-10.54104 -15.166567,-19.68557 2.073677,0.14408 8.228077,-19.48803 3.892787,-8.40465 -2.80429,4.99068 -3.786355,10.87723 -7.718981,3.47917 -1.960679,-2.19617 -2.839027,-5.02337 -4.116401,-7.60906 z m 53.474772,-0.26148 c 4.66211,-1.38543 7.46564,-1.63376 0.81494,-0.74055 3.41425,-6.0687 1.84496,-1.26002 -1.55698,0.29507 -4.30114,-4.91308 0.0703,1.79049 0.74207,0.44547 z m -2.85719,-3.23288 c -0.29455,-0.55836 -0.97046,-2.0943 0,0 z m 5.79706,-1.24953 c 2.60996,-5.366 0.21166,-8.27923 0,0 z m 1.11725,-5.35265 -0.008,-0.046 z m 1.7787,8.46512 1.27279,-0.12609 z m 1.27279,-0.12609 c 7.23114,0.22127 7.61585,-1.33519 0,0 z m 31.90193,38.72425 0.0408,-0.0755 z m 0.0408,-0.0755 c 0.31325,-0.56388 0.0657,-0.13468 0,0 z m 8.01657,-7.87342 c -1.28711,-1.18122 -0.35789,-0.23364 0,0 z m -0.61702,-0.53072 c -3.46126,-3.23172 -4.66342,-3.42907 0,0 z M 72.181641,156.50466 c -3.121732,-0.30292 -16.086483,-5.16785 -6.745319,-1.17067 2.337422,0.058 4.483964,0.92116 6.745319,1.17067 z m 157.176449,5.10356 c -0.58742,0.62872 0.0927,0.24238 0,0 z m -0.18913,0.32867 c -0.21789,0.37656 -0.17172,0.43867 0,0 z m -0.14108,0.30954 c -2.32057,5.18354 -12.37386,15.67273 -9.85365,17.22892 3.97279,-5.02949 7.39908,-11.22095 9.85365,-17.22892 z m -10.43812,18.48052 -0.28319,1.28313 z m -0.28319,1.28313 c -1.4859,3.61351 -0.83773,2.97856 0,0 z m -0.90072,2.47013 c -1.56042,3.92172 -1.51491,4.04761 0,0 z M 18.937345,170.65883 c 4.386587,6.72729 7.451622,14.75789 13.349465,20.0394 2.608273,6.41983 7.181555,11.46502 12.482034,16.01783 -5.750541,-6.6864 -8.380385,-14.72397 -14.316788,-21.32974 -4.309914,-4.6427 -8.724406,-8.84041 -11.514711,-14.72749 z m 33.47496,12.32948 c 1.22788,4.5504 5.991347,14.10628 7.117395,14.75313 -2.233089,-4.97832 -3.934501,-10.28029 -7.117395,-14.75313 z m 7.205245,15.86002 c 0.813164,3.76456 6.09102,10.05256 1.844848,2.76727 l -0.65408,-1.19096 z m 95.1544,-9.96322 c -2.49165,5.21413 -7.28404,17.6506 -3.86592,19.25412 1.60942,-6.39255 1.15296,-13.09543 3.86592,-19.25412 z m -5.27203,20.16363 0.0393,0.63148 z m 0.0393,0.63148 c -0.57386,4.26878 1.57107,3.29899 0,0 z m -1.24747,23.19135 c -0.13052,0.87724 -1.06231,0.83233 0,0 z m 38.26588,0.88884 c -5.21324,2.66806 -14.46945,7.06165 -16.94367,9.17891 6.10312,-1.21132 11.62077,-5.91884 16.94367,-9.17891 z m -17.81596,9.01289 c -0.71634,1.51886 -0.50474,2.46579 0,0 z m 40.40167,-7.43573 c -7.63588,-0.22806 -10.49766,4.5363 -12.02209,11.50824 1.69846,-6.79256 6.91085,-11.46432 12.73979,-10.6748 -2.44175,0.0597 0.32469,-0.39784 -0.7177,-0.83344 z M 89.314475,252.89464 c 0.800274,0.13276 3.592779,0.59603 0,0 z m 1.669666,0.27699 0.866097,0.32039 z m 0.866097,0.32039 c 4.3747,1.55647 18.949522,0.51059 6.868246,-0.27057 -2.342557,-0.664 -4.553773,0.40793 -6.868246,0.27057 z m 37.228732,3.6897 c -2.58896,3.27994 -4.48707,2.98505 0,0 z" />
  </g>
  <g
     inkscape:groupmode="layer"
     id="layer2"
     inkscape:label="Layer 2" />
</svg>
