<?xml version="1.0" encoding="UTF-8" standalone="no"?>
<!--
  Copyright © 2026 Chloe Bolland
  contact chloe@mammoththoughts.com if you wish to use, publish or reproduce this game or any part of it in any way
-->
<!DOCTYPE svg PUBLIC "-//W3C//DTD SVG 1.1//EN" "http://www.w3.org/Graphics/SVG/1.1/DTD/svg11.dtd">
<svg width="100%" height="100%" viewBox="0 0 1000 1000" version="1.1" xmlns="http://www.w3.org/2000/svg" xmlns:xlink="http://www.w3.org/1999/xlink" xml:space="preserve" xmlns:serif="http://www.serif.com/" style="fill-rule:evenodd;clip-rule:evenodd;stroke-linejoin:round;stroke-miterlimit:2;">
    <g id="Layer1">
        <path d="M461.984,13.42C414.948,15.116 370.653,54.256 443.54,68.834C536.905,87.507 612.793,74.218 620.26,34.89C622.596,22.591 683.891,14.741 529.358,10.533"/>
        <path d="M529.132,10.526C529.238,10.519 529.258,10.314 529.365,10.307C530.073,10.261 548.075,10.867 549.702,10.922C624.538,13.444 636.893,17.077 634.075,22.16C632.102,25.72 621.49,30.118 620.515,34.797C619.566,39.348 615.801,63.01 567.81,73.113C525.942,81.928 474.577,75.44 442.645,68.886C395.541,59.218 398.303,39.1 418.61,25.975C420.444,24.789 436.451,14.247 461.979,13.327C462.22,13.318 461.998,13.511 461.987,13.513C461.963,13.518 442.086,13.699 423.5,23.615C400.493,35.889 393.912,55.842 434.842,66.602C443.138,68.783 469.851,74.178 498.844,76.144C563.12,80.502 613.558,66.877 619.99,35.076C620.576,32.18 622.896,30.266 627.95,26.776C633.142,23.191 636.938,20.6 630.733,18.253C622.576,15.167 597.366,12.646 531.542,10.819L529.352,10.758C529.247,10.745 529.238,10.539 529.132,10.526Z"/>
        <path d="M368.643,13.22C340.411,27.396 353.365,55.47 367.191,74.997C389.941,107.128 390.946,129.69 434.502,125.334C462.12,122.572 457.754,132.627 485.271,135.379C491.024,135.954 490.324,128.046 557.456,131.995C581.296,133.397 659.019,118.981 671.372,65.45C681.499,21.567 698.786,47.59 738.165,68.586C681.897,116.341 577.912,313.257 428.877,194.029C381.345,156.003 349.222,190.97 337.518,135.379C333.183,114.785 223.932,55.78 338.646,27.102C338.77,27.071 338.646,27.102 339.774,25.974"/>
        <path d="M737.652,68.64C720.647,59.377 713.307,53.45 702.839,47.383C687.197,38.318 678.128,37.942 671.766,65.003C670.119,72.01 663.618,101.972 615.445,120.955C592.937,129.824 569.396,132.937 557.441,132.26C530.126,130.713 504.132,130.202 490.709,134.425C487.323,135.49 487.133,135.835 484.605,135.567C459.914,132.947 461.378,124.361 440.429,125.161C433.964,125.408 423.778,127.215 412.982,125.109C389.696,120.567 385.496,101.407 367.006,75.128C339.836,36.511 355.241,21.444 364.599,15.398C366.384,14.244 368.561,13.148 368.601,13.137C368.694,13.111 368.815,13.217 368.685,13.304C367.879,13.84 356.277,18.739 353.005,30.423C347.756,49.163 365.202,71.554 369.95,78.59C390.506,109.045 392.733,129.169 434.478,125.087C459.292,122.661 458.213,130.303 477.351,133.99C479.255,134.357 484.997,135.295 486.506,135.114C491.216,134.548 495.469,128.204 555.91,131.64C555.961,131.643 566.851,132.861 586.607,128.857C603.987,125.335 660.394,111.017 671.097,65.386C675.807,45.309 681.915,38.023 694.393,42.596C704.705,46.375 718.546,57.67 737.385,67.835C738.287,68.322 738.342,68.269 738.431,68.464C738.579,68.784 738.349,68.757 736.027,70.845C679.47,121.69 576.351,311.363 429.53,195.001C421.098,188.317 408.984,179.428 388.035,174.923C362.799,169.497 345.361,173.311 337.328,136.097C336.774,133.528 335.921,130.646 326.691,121.186C301.532,95.403 245.79,51.956 333.991,28.019C336.273,27.4 336.284,27.408 338.555,26.83C338.684,26.692 339.341,25.987 339.374,25.971C339.564,25.879 339.785,25.863 339.976,25.771C339.867,25.952 339.889,26.192 339.78,26.373C339.743,26.434 339.002,27.19 338.933,27.26C338.75,27.447 336.632,27.826 331.025,29.443C233.108,57.676 326.384,110.878 337.054,133.06C338.161,135.361 338.064,137.547 340.108,144.151C353.243,186.599 384.021,158.132 428.54,193.309C444.177,205.666 479.454,232.354 525.453,231.429C623.111,229.467 694.429,105.795 737.312,68.931L737.652,68.64Z"/>
        <path d="M105.368,195.744C160.506,113.805 170.955,115.522 187.281,113.769C200.203,211.254 214.67,206.715 290.147,268.469C371.272,334.844 407.063,282.929 527.003,292.155C605.039,298.158 598.697,263.306 675.884,259.446C710.354,257.723 813.11,144.796 834.205,123.647C861.963,195.527 961.074,211.03 871.008,256.063C831.125,276.004 837.67,285.865 796.568,302.306C746.488,322.338 740.418,307.198 697.314,339.526C693.997,342.014 641.426,384.646 624.001,395.92C530.648,456.326 524.085,466.154 439.028,428.629C370.591,398.436 369.829,402.439 311.577,398.176C241.127,393.021 262.968,277.916 146.906,257.19C96.01,248.102 72.817,240.872 101.79,197.413C106.123,190.913 106.282,191.832 108.557,185.006"/>
        <path d="M834.085,124.233C808.486,150.218 710.083,257.884 675.901,259.764C651.848,261.087 634.827,264.677 614.672,273.761C590.601,284.609 575.253,296.099 526.98,292.464C457.539,287.236 418.265,301.786 379.893,303.022C349.489,304.001 323.465,295.978 289.997,268.653C236.095,224.646 214.098,214.212 200.809,178.687C193.242,158.456 189.633,132.041 187.141,113.933C171.249,115.567 160.721,114.542 109.252,190.174C105.446,195.767 105.45,195.912 105.316,195.822C105.28,195.797 105.268,195.729 105.291,195.692C106.033,194.491 112.149,185.583 112.751,184.707C161.095,114.298 171.521,115.237 187.265,113.62C187.345,113.612 187.419,113.67 187.43,113.749C194.267,164.341 200.965,189.315 220.892,210.832C235.603,226.717 254.517,239.124 290.297,268.285C349.118,316.225 383.293,302.344 444.271,294.405C484.319,289.19 509.394,290.586 528.324,291.942C604.245,297.381 599.084,263.515 674.072,259.225C679.173,258.933 692.204,259.757 740.672,216.342C780.054,181.067 822.974,134.358 833.973,123.417C834.138,123.253 834.421,123.308 834.509,123.529C839.358,135.681 846.859,150.269 867.335,170.931C899.785,203.675 933.46,221.227 881.322,250.96C871.327,256.66 862.359,260.17 850.15,268.541C831.413,281.387 827.719,291.156 791.017,304.824C746.428,321.429 738.986,309.007 698.53,339.064C693.505,342.797 641.982,384.701 624.2,396.226C531.384,456.383 523.916,466.281 440.855,429.846C406.047,414.578 385.921,406.048 363.947,402.724C349.411,400.524 328.275,399.892 311.135,398.527C240.982,392.938 262.445,278.67 147.525,257.637C119.407,252.491 94.767,247.993 89.798,233.629C88.133,228.814 86.727,218.784 102.678,195.613C105.791,191.091 106.218,191.077 108.092,185.536C108.292,184.943 108.277,184.933 108.298,184.92C108.566,184.756 108.546,185.258 108.816,185.092C106.846,190.918 106.639,190.855 103.456,195.449C89.051,216.24 89.382,225.687 89.436,228.118C89.826,245.532 112.71,250.722 146.964,256.866C243.393,274.164 244.62,355.607 282.503,386.514C295.709,397.289 309.325,397.635 314.293,397.988C369.413,401.907 371.688,398.57 437.589,427.581C482.518,447.361 506.697,455.504 534.503,447.001C556.239,440.355 579.957,424.025 623.803,395.615C641.54,384.122 693.077,342.224 698.105,338.491C740.353,307.113 746.902,321.771 796.439,301.983C836.727,285.888 831.186,275.993 869.017,256.686C879.951,251.106 904.012,239.339 907.29,224.744C910.785,209.186 890.531,194.714 869.637,174.16C850.725,155.554 840.681,140.79 834.085,124.233Z"/>
        <path d="M728.505,396.515C692.551,424.288 627.976,466.191 611.595,519.988C580.953,620.616 878.891,463.379 921.068,387.461C950.703,334.117 887.782,350.608 796.568,368.851"/>
        <path d="M796.288,368.907C796.422,368.89 796.491,369.148 796.625,369.131C796.753,369.115 796.75,369.105 800.173,368.419C844.333,359.571 877.303,352.485 899.581,351.762C926.485,350.89 936.13,359.515 920.719,387.267C901.152,422.504 825.835,475.805 753.195,512.584C673.623,552.872 596.084,573.558 611.639,520.639C625.144,474.694 675.129,436.668 709.915,410.65C711.411,409.531 727.855,397.231 728.562,396.589C728.579,396.573 728.628,396.302 728.447,396.441C697.028,420.618 645.788,454.476 621.303,497.31C613.21,511.467 610.547,522.37 609.89,525.812C593.513,611.623 859.83,472.74 916.017,395.989C923.17,386.218 927.312,376.278 928.444,370.241C934.241,339.337 880.864,351.362 809.142,366.011C797.096,368.472 796.604,368.546 796.513,368.571C796.383,368.607 796.418,368.871 796.288,368.907Z"/>
        <path d="M427.15,482.036C360.027,455.701 332.178,429.586 276.612,461.338C224.619,491.048 574.132,608.849 475.12,509.837"/>
        <path d="M474.88,509.597C475.021,509.674 475.221,509.52 475.362,509.598C475.565,509.709 478.405,512.72 478.665,512.995C514.719,551.213 473.791,549.473 463.604,548.867C403.795,545.314 272.421,494.878 271.025,469.18C270.732,463.776 276.061,461.288 279.063,459.648C332.785,430.307 360.538,455.583 427.184,481.949C427.386,482.029 427.149,482.134 427.116,482.123C426.098,481.793 418.656,478.739 417.923,478.439C357.731,453.742 329.511,431.268 276.752,461.582C272.067,464.274 263.522,471.479 289.858,489.012C338.744,521.556 471.897,563.396 490.482,542.992C498.03,534.706 482.958,518.228 475.454,510.654C474.932,510.127 474.915,510.142 474.88,510.078C474.804,509.937 474.956,509.738 474.88,509.597Z"/>
        <path d="M214.63,390.964C191.219,388.155 190.693,328.937 129.987,319.224C93.009,313.308 59.662,280.57 54.698,275.696C52.037,283.584 0.955,373.555 21.71,386.897C95.491,434.328 288.195,462.852 198.788,382.386"/>
        <path d="M54.832,276.329C49.965,288.032 2.487,372.937 21.69,386.42C21.698,386.426 24.849,388.509 29.629,391.219C96.179,428.96 233.173,451.753 220.809,411.126C216.84,398.087 198.802,383.026 198.57,382.629C198.492,382.496 198.623,382.3 198.545,382.167C198.686,382.231 198.867,382.08 199.008,382.144C199.009,382.145 201.29,384.193 203.477,386.287C233.329,414.87 224.741,428.853 199.191,432.434C156.76,438.382 66.598,416.25 21.5,387.222C0.537,373.728 50.574,285.641 54.358,275.578C54.458,275.313 54.772,275.268 54.949,275.439C61.784,282.061 93.669,312.95 130.033,318.942C166.653,324.975 181.012,348.034 192.855,368.083C199.779,379.802 205.389,389.56 214.369,390.835C214.46,390.848 214.556,390.837 214.641,390.871C214.757,390.917 214.75,391.041 214.618,391.057C214.343,391.09 213.126,390.8 212.997,390.769C191.141,385.548 189.12,329.347 130.649,319.622C126.755,318.974 114.935,317.253 97.747,308.179C75.436,296.399 58.367,279.785 54.832,276.329Z"/>
        <path d="M992.03,428.604C916.096,502.955 911.555,496.346 825.893,560.592C764.373,606.732 632.865,651.159 574.374,632.777C520.957,615.988 521.463,609.083 426.621,616.986C299.652,627.567 312.099,555.147 214.579,543.674C196.219,541.514 80.754,527.929 5.923,444.366C2.523,494.683 -20.319,587.922 45.396,596.684C135.715,608.727 258.611,849.604 426.621,769.251C480.335,743.562 488.992,782.097 540.538,753.46C652.182,691.436 661.183,709.951 764.987,637.288C810.793,605.224 901.387,597.074 987.093,546.564C988.788,529.789 990.025,530.721 991.692,513.221C990.564,519.236 989.436,525.251 988.308,531.267C996.514,482.034 986.792,482.103 993.948,432.013"/>
        <path d="M991.194,513.244C991.249,513.144 991.311,513.059 991.388,512.967C991.631,512.675 992.121,512.871 992.086,513.259C990.731,528.322 989.137,530.655 987.565,545.832C987.488,546.57 987.547,546.589 987.425,546.778C987.39,546.833 987.402,546.86 984.275,548.665C899.418,597.635 810.697,605.861 765.209,637.606C704.446,680.01 678.342,690.537 639.167,706.586C609.194,718.864 583.559,730.064 540.721,753.792C489.453,782.19 480.624,744.834 428.648,768.716C418.881,773.203 388.908,788.427 347.491,785.662C219.304,777.107 121.106,607.878 45.874,597.119C35.802,595.679 14.918,591.781 4.931,564.807C-7.522,531.171 3.036,479.116 5.466,445.526C5.551,444.346 5.499,444.331 5.607,444.163C5.736,443.963 6.032,443.929 6.202,444.116C17.936,456.992 62.426,506.629 158.631,532.51C190.334,541.039 212.735,542.96 219.674,543.967C311.715,557.319 302.016,626.752 425.854,616.744C468.006,613.338 497.4,611.624 521.139,616.232C537.268,619.362 551.578,625.366 574.451,632.532C632.865,650.833 763.874,606.769 825.794,560.459C911.726,496.192 916.668,502.042 990.197,430.264C991.951,428.552 991.942,428.537 991.965,428.537C991.977,428.537 992.261,428.496 992.095,428.671C990.893,429.937 981.208,439.256 980.256,440.172C915.983,502.021 906.996,500.074 827.984,559.231C825.122,561.374 795.168,585.393 734.77,608.742C677.169,631.009 611.562,644.667 574.298,633.021C521.986,616.671 521.912,609.539 431.022,616.928C412.31,618.449 376.747,621.496 343.755,608.538C297.05,590.194 283.183,552.152 214.535,544.044C203.12,542.695 152.468,536.813 97.805,511.365C46.748,487.596 18.821,459.147 6.23,445.265C4.064,473.299 -1.421,503.673 -0.1,532.472C1.744,572.675 16.878,592.399 45.445,596.322C92.052,602.722 145.55,667.721 211.553,720.942C275.311,772.353 345.748,807.235 425.968,769.145C442.87,761.12 456.395,757.991 473.482,760.238C493.572,762.881 508.597,770.721 540.354,753.128C613.513,712.598 639.425,707.547 680.475,687.924C717.343,670.3 749.948,647.203 765.306,636.595C811.181,604.907 900.771,596.615 985.889,546.814C986.166,546.651 986.514,546.572 986.721,546.325C986.799,546.232 987.093,540.823 988.74,531.619C988.868,530.904 988.987,530.239 989.098,529.61C988.924,530.527 988.808,531.035 988.702,531.316C988.701,531.321 988.7,531.326 988.7,531.331L988.696,531.331C988.578,531.637 988.472,531.663 988.308,531.663C988.072,531.663 987.878,531.446 987.917,531.202C987.918,531.199 987.918,531.197 987.919,531.194C990.539,514.828 991.906,503.508 991.26,485.47C990.785,472.199 989.638,460.038 993.477,433.135C993.63,432.063 993.613,432.059 993.645,431.971C993.694,431.835 993.942,431.846 993.991,431.71C994,431.854 994.241,431.913 994.25,432.057C994.288,432.634 991.692,447.456 991.533,465.283C991.422,477.732 992.407,485.615 992.198,497.19C992.095,502.858 991.701,508.307 991.194,513.244Z"/>
        <path d="M91.748,790.067C87.351,776.529 66.795,772.3 52.163,719.624C33.706,653.18 144.717,777.151 177.358,779.402C276.701,786.253 294.121,928.637 495.422,838.052C572.559,803.34 575.324,799.675 655.582,824.517C723.056,845.402 805.273,757.381 825.893,759.1C875.856,763.263 872.664,746.67 922.394,738.285C919.576,746.282 906.892,782.282 867.625,829.029C807.705,900.361 781.913,849.891 683.779,898.958C647.453,917.121 598.714,869.128 522.492,878.656C389.728,895.251 388.439,908.35 284.508,878.656C254.3,870.025 173.493,912.689 109.685,804.215"/>
        <path d="M921.84,738.752C894.792,743.488 885.512,749.591 871.618,754.803C857.418,760.13 845.077,760.963 825.865,759.459C805.311,757.85 723.239,845.739 655.481,824.847C577.886,800.923 573.389,803.255 502.572,835.181C477.669,846.408 422.541,871.521 368.217,868.072C279.068,862.413 250.158,785.062 177.924,779.653C173.444,779.317 165.938,777.868 144.055,761.935C105.357,733.76 53.007,683.542 50.355,705.717C50.016,708.545 50.059,713.453 55.094,728.907C69.335,772.624 87.559,777.275 91.785,789.879C91.798,789.92 91.904,790.114 91.778,790.156C91.736,790.169 91.682,790.134 91.659,790.096C91.533,789.885 90.99,787.183 87.411,782.831C79.267,772.925 63.774,761.843 52.034,719.66C48.632,707.438 47.775,695.314 62.747,701.667C90.174,713.306 153.957,777.42 177.184,779.178C195.332,780.552 213.27,785.552 238.145,802.206C295.609,840.678 342.127,906.717 495.292,837.761C571.177,803.597 575.124,799.42 651.977,823.044C661.398,825.94 683.165,833.864 723.93,816.593C770.32,796.939 811.734,757.634 825.921,758.741C846.743,760.364 858.594,759.139 873.005,753.494C884.879,748.843 896.464,742.356 921.752,738.023C921.813,738.013 922.427,737.908 922.52,737.942C922.699,738.007 922.806,738.214 922.739,738.406C911.7,770.251 888.974,804.65 866.509,830.92C807.708,899.678 781.416,851.045 685.092,898.723C679.173,901.653 670.208,905.758 650.815,901.915C618.665,895.543 577.821,872.121 522.538,879.028C390.962,895.468 388.443,908.548 286.829,879.681C281.154,878.068 277.988,876.985 260.43,878.387C222.001,881.456 160.674,890.837 109.84,804.979L109.466,804.344C109.496,804.228 109.453,804.057 109.556,803.996C109.92,803.782 109.87,804.129 112.528,808.447C175.733,911.111 254.673,869.841 284.602,878.32C341.012,894.299 367.594,898.644 407.044,894.471C434.492,891.568 466.56,885.268 522.445,878.283C598.756,868.745 647.281,916.644 683.613,898.621C718.959,881.088 744.01,875.912 771.978,873.457C807.148,870.369 830.906,872.162 867.341,828.79C906.156,782.583 918.928,746.942 921.84,738.752Z"/>
        <path d="M692.535,747.796C778.345,733.185 770.075,704.584 856.346,698.194C957.818,690.677 967.833,660.149 983.109,597.42C952.625,605.041 807.581,653.344 792.056,668.869C734.56,726.365 633.015,755.944 713.104,739.926"/>
        <path d="M982.848,597.684C946.104,607.255 807.639,653.926 792.321,668.954C782.499,678.589 764.784,695.322 723.612,719.453C702.313,731.937 683.565,741.22 683.784,743.447C683.892,744.543 691.375,743.514 692.029,743.424C699.933,742.337 712.932,739.648 713.046,739.64C713.183,739.632 713.253,739.877 713.39,739.869C713.26,739.913 713.29,740.167 713.16,740.211C713.158,740.212 708.616,741.122 704.59,741.879C687.583,745.079 682.729,745.203 683.247,743.174C684.512,738.215 734.069,717.314 774.75,684.093C786.084,674.837 791.368,669.031 792.956,667.732C813.152,651.205 953.625,604.565 983.062,597.235C983.199,597.201 983.327,597.328 983.294,597.465C968.048,660.06 957.922,690.606 857.541,698.246C832.395,700.159 810.793,703.435 787.331,713.803C761.563,725.19 745.239,738.86 692.551,747.889C692.319,747.928 692.503,747.708 692.519,747.704C694.151,747.28 716.622,744.196 740.365,735.358C780.194,720.533 790.169,703.054 856.335,698.053C933.273,692.238 958.046,673.821 972.243,635.143C976.742,622.884 980.248,608.3 982.848,597.684Z"/>
        <path d="M303.682,944.073C301.858,964.623 517.148,1010.57 730.169,941.148C715.746,950.967 603.256,1008.27 472.112,1003.59C301.64,997.501 270.287,950.607 257.38,935.754C263.927,938.183 271.193,938.26 277.74,940.689C280.285,941.634 280.08,941.608 309.321,953.096"/>
        <path d="M727.964,942.177C700.041,951.158 602.937,981.341 469.672,978.124C389.577,976.191 330.401,962.778 311.275,952.139C309.147,950.955 303.388,947.647 303.579,944.189C303.582,944.136 303.567,943.969 303.69,943.98C304.244,944.029 300.989,948.437 320.95,955.989C375.67,976.692 552.891,998.237 728.827,941.264C730.043,940.871 730.044,940.776 730.276,940.864C730.5,940.948 730.545,941.258 730.338,941.4C716.544,950.834 603.97,1008.58 472.102,1003.89C302.377,997.847 270.241,951.127 257.476,936.289C257.442,936.25 257.108,935.861 257.103,935.769C257.093,935.573 257.291,935.429 257.474,935.494C265.52,938.339 270.51,937.642 278.726,940.766C280.572,941.468 284.328,942.978 304.802,951.028C309.372,952.824 309.373,952.821 309.42,952.843C309.536,952.896 309.457,953.142 309.574,953.196C309.452,953.155 309.342,953.389 309.221,953.349C308.359,953.061 278.974,941.351 276.42,940.522C270.283,938.529 264.97,938.545 258.238,936.338C271.889,952.527 305.508,997.005 470.132,1003.22C489.123,1003.94 564.897,1006.81 663.454,971.136C692.964,960.455 716.91,948.917 727.964,942.177Z"/>
    </g>
</svg>
