<?xml version="1.0" encoding="UTF-8" standalone="no"?>
<!--
  Copyright © 2026 Chloe Bolland
  contact chloe@mammoththoughts.com if you wish to use, publish or reproduce this game or any part of it in any way
-->
<!DOCTYPE svg PUBLIC "-//W3C//DTD SVG 1.1//EN" "http://www.w3.org/Graphics/SVG/1.1/DTD/svg11.dtd">
<svg width="100%" height="100%" viewBox="0 0 1000 1000" version="1.1" xmlns="http://www.w3.org/2000/svg" xmlns:xlink="http://www.w3.org/1999/xlink" xml:space="preserve" xmlns:serif="http://www.serif.com/" style="fill-rule:evenodd;clip-rule:evenodd;stroke-linecap:round;stroke-linejoin:round;stroke-miterlimit:1.5;">
    <g id="Layer1">
        <path d="M11.374,603.361C70.487,709.001 208.16,797.167 302.554,768.123C324.628,761.331 424.007,716.253 484.143,761.356C525.714,792.533 533.369,811.67 535.628,817.319C433.926,756.061 427.336,763.433 304.81,794.064C163.756,829.328 49.353,715.973 48.779,715.112C39.756,701.578 15.213,619.765 12.687,611.347" style="stroke:black;stroke-width:1px;"/>
        <path d="M334.967,818.446C340.601,783.718 530.784,807.903 478.504,852.714C455.521,872.414 309.213,849.743 374.738,827.901C375.615,827.608 476.686,841.581 411.959,820.006C365.753,804.604 303.795,846.961 338.646,812.11" style="stroke:black;stroke-width:1px;"/>
        <path d="M297.848,821.583C293.31,824.882 323.853,863.956 347.669,870.76C434.86,895.672 435.982,882.303 514.596,856.098C610.892,823.999 598.905,777.845 697.314,790.681C806.93,804.978 837.188,787.174 942.071,718.232C935.231,733.014 878.793,854.984 801.079,865.121C755.121,871.116 705.62,786.858 566.479,871.888C501.21,911.775 402.764,906.501 388.273,905.725C300.988,901.049 244.697,778.762 298.042,826.773" style="stroke:black;stroke-width:1px;"/>
        <path d="M991.692,490.663C1004.62,658.715 888.548,684.309 813.486,699.322C599.158,742.187 749.291,496.146 837.172,560.592C911.546,615.133 749.713,690.584 758.22,639.544C759.62,631.144 775.534,648.039 802.207,612.475C836.461,566.802 682.547,636.481 737.918,665.485C749.789,671.703 863.349,694.995 887.927,596.684C891.001,584.388 893.942,572.623 990.564,476" style="stroke:black;stroke-width:1px;"/>
        <path d="M688.344,606.199C614.03,758.304 567.423,654.747 481.888,644.055C354.877,628.179 318.663,701.896 250.671,633.904C210.212,593.445 -3.631,579.673 9.303,480.512C11.143,466.408 14.185,356.806 35.245,409.455C77.201,514.345 77.35,534.185 180.742,536.906C202.207,537.471 231.408,573.681 285.635,550.441C383.263,508.6 379.329,564.754 481.888,598.94C514.834,609.922 537.067,638.614 598.06,612.475C620.028,603.06 656.076,543.442 757.092,529.011C773.129,526.72 731.843,549.737 719.872,559.464C693.345,581.017 696.013,582.35 684.907,603.451" style="stroke:black;stroke-width:1px;"/>
        <path d="M830.404,517.732C860.582,547.909 967.016,455.634 987.524,431.561C982.434,401.293 982.605,402.09 979.253,370.866C910.428,460.591 907.386,458.762 807.384,510.684C820.697,511.905 834.01,513.127 847.323,514.348" style="stroke:black;stroke-width:1px;"/>
        <path d="M117.043,655.19C167.892,723.588 250.541,720.513 275.485,723.007C214.882,688.378 217.25,686.231 157.056,650.823C122.211,630.325 118.856,640.913 74.721,620.543C98.395,644.026 97.72,643.839 127.731,659.846" style="stroke:black;stroke-width:1px;"/>
        <path d="M471.618,699.701C547.987,702.501 541.856,731.771 618.362,735.414C671.704,737.954 671.746,733.039 722.127,748.949C638.79,750.981 636.439,774.451 558.584,743.309C490.911,716.24 483.554,708.884 478.504,703.833" style="stroke:black;stroke-width:1px;"/>
        <path d="M132.609,831.441C203.831,867.51 206.631,859.658 276.612,897.83C445.654,990.034 517.952,919.82 567.607,926.027C665.67,938.285 668.622,867.235 795.44,903.469C690.17,911.567 697.987,953.665 591.293,948.585C453.042,942.001 436.661,1018.22 241.648,901.213C217.155,886.518 186.772,888.254 142.394,854.97C124.096,841.246 119.704,823.257 123.22,826.773" style="stroke:black;stroke-width:1px;"/>
        <path d="M955.809,305.677C949.968,327.087 898.447,376.297 874.392,383.514C832.723,396.014 787.496,477.401 677.012,455.698C497.122,420.363 497.431,449.569 322.856,501.942C242.653,526.003 241.964,505.994 159.312,504.198C142.476,503.832 92.599,502.747 20.79,345.692C42.179,277.776 48.946,272.288 56.675,280.876C187.301,426.017 203.781,454.158 393.913,388.025C609.981,312.871 625.838,426.051 749.197,369.979C846.632,325.69 838.017,310.549 940.678,270.875C948.864,308.559 946.991,309.844 952.216,312.457" style="stroke:black;stroke-width:1px;"/>
        <path d="M452.759,511.501C547.625,463.519 652.075,506.824 648.815,516.604C647.856,519.48 567.535,598.412 443.765,521.793C453.465,518.559 463.165,515.326 472.865,512.093" style="stroke:black;stroke-width:1px;"/>
        <path d="M131.115,163.576C135.569,190.934 127.75,224.972 180.742,269.597C187.362,275.172 225.42,307.221 266.542,335.494C166.431,321.25 125.725,274.547 123.22,272.981C74.627,242.61 75.798,231.649 74.815,230.242C103.399,196.568 99.247,194.316 129.987,163.576" style="stroke:black;stroke-width:1px;"/>
        <path d="M343.158,322.608C476.754,312.712 484.159,201.72 640.92,248.167C781.68,289.874 833.497,181.678 881.547,175.646C883.546,180.157 884.021,179.808 908.229,231.249C797.755,257.552 803.858,344.026 657.838,302.306C625.456,293.054 406.257,339.793 342.03,323.736" style="stroke:black;stroke-width:1px;"/>
        <path d="M214.031,204.407C313.435,305.194 463.344,241.559 437.9,180.494C390.578,66.92 185.57,151.677 284.508,192.901C294.176,196.929 351.243,196.843 356.692,180.494C363.601,159.769 314.563,158.078 310.449,157.937C316.95,157.234 398.593,148.407 382.634,196.285C374.258,221.41 241.646,256.903 186.382,104.926C166.522,123.367 167.84,123.157 145.924,140.884C170.669,177.691 183.397,187.482 187.509,190.645C205.028,204.121 210.369,196.136 223.602,214.331" style="stroke:black;stroke-width:1px;"/>
        <path d="M538.282,155.681C594.689,143.805 546.217,127.627 543.921,127.484C503.567,124.961 498.321,167.28 502.19,173.727C515.619,196.109 560.257,172.607 564.688,170.274C561.482,170.569 504.63,175.798 529.259,151.169C536.026,144.402 543.089,151.465 543.921,152.297" style="stroke:black;stroke-width:1px;"/>
        <path d="M557.979,111.054C450.804,78.202 420.098,213.587 522.492,207.564C635.677,200.906 600.462,81.721 733.406,108.31C756.402,112.909 756.445,117.14 778.522,108.31C804.373,97.969 803.677,107.711 822.431,127.406C751.694,131.2 748.708,149.502 716.488,138.762C634.565,111.455 656.227,191.538 557.456,214.331C434.728,242.653 443.174,182.429 442.412,178.238C429.331,106.294 519.724,73.791 547.305,110.565" style="stroke:black;stroke-width:1px;"/>
        <path d="M310.449,33.869C361.518,97.705 417.177,80.889 462.714,66.578C522.475,47.796 572.406,105.862 666.861,42.892C684.239,31.307 584.58,-15.912 453.69,1.16C350.439,14.628 315.892,33.559 314.961,33.869" style="stroke:black;stroke-width:1px;"/>
        <path d="M672.5,203.052C730.2,222.285 792.073,194.49 753.708,171.471C724.59,154 692.065,178.711 656.404,201.639C664.025,202.486 671.647,203.333 679.268,204.18" style="stroke:black;stroke-width:1px;"/>
        <path d="M720.999,50.787C710.536,56.812 700.073,62.837 689.611,68.861C722.899,72.102 722.054,72.828 754.836,80.112C739.884,59.82 740.685,59.593 718.744,47.404" style="stroke:black;stroke-width:1px;"/>
        <path d="M234.985,77.746C224.183,71.103 248.297,90.394 249.543,91.391C251.329,92.82 251.394,92.421 274.528,105.298C258.831,82.625 274.42,75.664 258.566,59.81C254.055,55.299 235.416,73.937 233.753,75.601" style="stroke:black;stroke-width:1px;"/>
    </g>
</svg>
