<?xml version="1.0" encoding="UTF-8" standalone="no"?>
<!--
  Copyright © 2026 Chloe Bolland
  contact chloe@mammoththoughts.com if you wish to use, publish or reproduce this game or any part of it in any way
-->
<!DOCTYPE svg PUBLIC "-//W3C//DTD SVG 1.1//EN" "http://www.w3.org/Graphics/SVG/1.1/DTD/svg11.dtd">
<svg width="100%" height="100%" viewBox="0 0 1000 1000" version="1.1" xmlns="http://www.w3.org/2000/svg" xmlns:xlink="http://www.w3.org/1999/xlink" xml:space="preserve" xmlns:serif="http://www.serif.com/" style="fill-rule:evenodd;clip-rule:evenodd;stroke-linecap:round;stroke-linejoin:round;stroke-miterlimit:1.5;">
    <g id="Layer1">
        <path d="M549.448,40.554C539.004,29.96 450.804,41.811 455.946,59.81C457.62,65.67 534.406,77.968 567.878,53.239C564.948,51.186 562.642,48.328 559.712,46.276C558.748,45.601 559.712,46.276 547.305,38.381" style="stroke:black;stroke-width:1px;"/>
        <path d="M485.837,12.474C468.763,16.013 415.542,33.565 411.959,36.125C327.049,96.775 546.38,108.174 576.63,88.008C673.342,23.533 512.257,21.28 485.837,12.474C508.415,-19.254 495.941,-0.891 499.795,-1.048C667.405,-7.881 666.891,73.373 624.007,96.992C601.735,109.259 548.43,153.353 382.634,101.542C289.446,72.421 366.292,-0.184 495.769,-1.346" style="stroke:black;stroke-width:1px;"/>
        <path d="M302.28,37.257C302.28,44.831 253.331,70.716 276.949,102.769C351.977,204.592 613.576,183.09 663.034,145.57C721.822,100.972 719.16,73.705 701.334,40.28C722.748,54.112 779.101,78.2 748.637,128.974C740.388,142.722 733.079,134.9 708.456,163.04C705.774,166.105 613.919,209.959 558.215,207.588C512.908,205.66 513.316,215.504 468.245,208.462C430.802,202.611 429.412,218.486 394.871,204.094C383.606,199.401 379.062,219.483 246.377,169.155C228.574,162.402 152.466,110.417 246.377,63.462C273.505,49.898 271.046,45.665 300.533,40.751" style="stroke:black;stroke-width:1px;"/>
        <path d="M801.334,104.345C799.29,129.261 792.393,213.347 524.148,248.643C414.584,263.059 149.076,221.962 140.684,149.37C125.729,167.846 126.959,167.939 110.007,185.104C151.258,209.556 211.509,257.574 234.148,264.366C436.719,325.137 667.346,284.757 780.083,205.841C875.915,138.759 811.787,117.197 804.541,104.516" style="stroke:black;stroke-width:1px;"/>
        <path d="M49.047,285.031C61.871,257.217 64.25,259.141 77.766,232.094C100.764,277.653 104.756,278.361 125.834,274.848C138.999,272.653 137.847,293.949 154.66,298.432C272.652,329.897 309.733,466.127 459.51,380.541C581.29,310.952 629.081,373.031 721.559,303.673C729.778,297.508 733.455,303.536 829.872,234.667C836.479,229.947 856.393,226.79 874.42,192.739C884.848,173.043 886.883,191.342 890.143,196.233C901.055,212.601 901.879,211.593 906.314,230.545C838.002,266.929 844.784,276.525 778.336,315.902C772.173,319.554 733.646,366.942 652.552,383.161C599.206,393.83 571.273,364.403 441.166,429.456C308.786,495.646 202.253,362.16 183.485,355.209C121.73,332.337 111.066,323.704 105.744,319.396C88.494,305.432 62.34,328.07 48.967,287.95" style="stroke:black;stroke-width:1px;"/>
        <path d="M376.042,314.876C301.314,284.122 264.732,361.478 336.347,377.047C407.261,392.463 440.09,338.833 414.088,335.119C407.619,334.195 356.709,363.476 338.967,347.348C335.89,344.55 333.996,310.84 375.654,338.613C379.761,328.574 394.283,317.007 371.287,312.408" style="stroke:black;stroke-width:1px;"/>
        <path d="M509.299,427.709C622.205,386.653 647.321,480.299 577.432,511.565C570.006,514.887 464.683,562.005 478.727,487.107C488.398,435.527 603.755,446.808 568.697,481.866C554.533,496.03 532.609,455.631 518.034,481.866C494.395,524.416 656.915,478.152 569.57,439.938C518.381,417.543 477.649,441.982 470.865,446.053C500.393,429.18 498.717,426.695 517.16,423.342" style="stroke:black;stroke-width:1px;"/>
        <path d="M454.269,320.269C456.527,319.842 468.084,308.797 499.691,318.522C507.756,321.004 506.993,319.957 515.414,319.396C510.545,321.051 510.922,321.623 455.078,341.573C454.809,334.763 454.539,327.953 454.269,321.143" style="stroke:black;stroke-width:1px;"/>
        <path d="M594.902,304.546C628.119,309.128 629.996,310.824 655.975,288.484C637.364,292.964 618.753,297.445 600.143,301.926" style="stroke:black;stroke-width:1px;"/>
        <path d="M103.411,218.749C99.834,213.971 96.257,209.194 92.679,204.417C101.624,229.015 98.047,233.172 122.158,242.769C119.518,237.808 119.716,238.445 105.744,216.323" style="stroke:black;stroke-width:1px;"/>
        <path d="M707.095,408.342C616.766,391.51 630.74,496.998 686.619,478.372C727.371,464.788 672.92,453.084 677.01,440.812C680.203,431.233 697.901,435.166 699.721,435.571C703.721,436.46 724.371,423.049 704.962,408.492" style="stroke:black;stroke-width:1px;"/>
        <path d="M749.51,373.553C747.726,376.006 724.272,408.256 744.269,411.113C782.074,416.514 783.344,364.711 756.498,369.185" style="stroke:black;stroke-width:1px;"/>
        <path d="M804.541,345.601C787.19,415.005 819.734,339.883 820.264,338.613" style="stroke:black;stroke-width:1px;"/>
        <path d="M381.769,475.752C419.772,437.748 436.452,541.963 386.136,530.782C365.835,526.271 368.155,480.542 388.757,504.577C391.357,507.61 407.026,507.657 393.124,484.487" style="stroke:black;stroke-width:1px;"/>
        <path d="M318.877,471.384C308.101,460.608 287.847,494.215 306.648,501.957C310.672,503.613 350.556,492.156 315.383,470.511" style="stroke:black;stroke-width:1px;"/>
        <path d="M239.389,443.432C239.217,444.548 235.5,468.707 244.63,456.535C255.588,441.924 247.757,438.008 246.377,437.318" style="stroke:black;stroke-width:1px;"/>
        <path d="M28.003,331.625C64.572,348.247 59.028,355.219 98.756,379.667C220.692,454.705 246.703,667.832 638.576,542.137C769.095,500.273 754.877,475.26 877.914,394.516C885.108,389.796 879.874,383.992 960.738,325.907C973.466,368.921 965.855,370.085 980.113,412.86C986.957,433.389 1032.27,465.65 934.692,500.21C823.769,539.495 733.064,656.986 592.281,672.288C553.673,676.485 430.943,740.53 293.546,656.565C217.564,610.132 236.265,591.129 172.13,529.908C154.899,513.461 138.148,455.887 48.967,402.378C20.281,385.166 15.514,381.518 12.792,379.436C16.601,356.299 20.308,357.952 25.382,335.119" style="stroke:black;stroke-width:1px;"/>
        <path d="M7.666,466.411L3.571,460.074C-5.216,572.405 7.881,573.801 28.003,583.192C33.867,585.928 100.737,617.134 101.376,617.258C179.422,632.364 186.903,671.36 235.021,706.355C182.504,613.574 187.077,609.803 132.822,560.481C118.024,547.028 128.547,522.686 85.653,509.818C66.262,504 25.658,464.238 5.292,468.764" style="stroke:black;stroke-width:1px;"/>
        <path d="M343.123,741.374C370.158,729.837 445.979,784.871 506.679,764.005C570.227,742.161 568.442,738.902 633.335,721.204C824.834,668.977 802.872,613.774 895.384,574.457C978.942,538.945 999.904,511.791 991.469,535.149C981.912,561.614 992.723,570.096 967.011,580.571C934.7,593.735 845.332,655.605 835.113,662.68C801.543,685.921 798.511,680.37 765.233,708.102C740.628,728.606 547.16,826.688 440.293,787.59C440.293,787.59 347.073,740.98 338.967,736.927" style="stroke:black;stroke-width:1px;"/>
        <path d="M31.776,656.814C17.831,662.35 46.978,650.779 199.208,741.294C246.139,769.199 253.12,750.523 381.769,806.807C444.045,834.052 451.68,799.322 534.63,833.885C595.295,859.162 703.451,777.338 758.245,763.132C869.918,734.18 855.31,704.235 978.522,645.104C963.245,670.181 940.999,706.695 669.149,842.62C534.401,909.994 463.316,830.001 364.299,838.252C323.144,841.682 256.537,780.22 181.738,772.74C173.371,771.904 179.829,755.289 83.906,734.306C40.93,724.905 35.011,674.415 32.37,662.68" style="stroke:black;stroke-width:1px;"/>
        <path d="M89.147,775.361C119.636,760.117 497.65,979.869 731.167,853.102C740.203,848.196 740.996,851.309 845.595,794.578C853.868,790.091 852.086,787.448 945.542,732.535C934.289,751.859 764.562,919.391 550.353,929.97C398.851,937.451 366.007,899.788 310.142,902.891C300.606,903.421 141.043,858.966 115.352,827.771C93.864,801.677 98.72,799.661 84.78,769.246" style="stroke:black;stroke-width:1px;"/>
        <path d="M832.283,862.949C795.701,912.343 489.487,1009.43 324.991,965.783C55.28,894.227 453.891,1006.65 456.889,1007.71C553.532,1041.82 645.492,976.23 681.378,967.53C808.838,936.63 806.906,890.044 824.631,872.319" style="stroke:black;stroke-width:1px;"/>
        <path d="M926.83,259.125C914.658,263.689 856.476,321.496 850.677,327.257C906.187,321.917 902.899,312.581 952.162,287.95C964.779,281.641 949.211,259.402 947.794,257.378" style="stroke:black;stroke-width:1px;"/>
    </g>
</svg>
