<?xml version="1.0" encoding="UTF-8" standalone="no"?>
<!DOCTYPE svg PUBLIC "-//W3C//DTD SVG 1.1//EN" "http://www.w3.org/Graphics/SVG/1.1/DTD/svg11.dtd">
<svg width="100%" height="100%" viewBox="0 0 1000 1000" version="1.1" xmlns="http://www.w3.org/2000/svg" xmlns:xlink="http://www.w3.org/1999/xlink" xml:space="preserve" xmlns:serif="http://www.serif.com/" style="fill-rule:evenodd;clip-rule:evenodd;stroke-linecap:round;stroke-linejoin:round;stroke-miterlimit:1.5;">
    <ellipse id="planet-shape" serif:id="planet shape" cx="498.181" cy="499.525" rx="500.278" ry="500.942" style="fill:rgb(11,14,111);fill-opacity:0.18;"/>
    <g id="Layer1">
        <path d="M499.131,12.052C404.72,14.723 408.2,39.818 414.763,42.735C415.532,43.076 553.404,59.362 574.95,37.817C579.439,33.328 580.9,18.199 500.477,10.416" style="stroke:black;stroke-width:1px;"/>
        <path d="M412.656,8.309C389.99,11.547 337.536,46.978 361.368,58.894C461.588,109.004 711.272,72.45 598.924,7.69C645.576,29.091 691.42,38.813 637.479,79.268C627.143,87.02 599.743,107.57 479.4,112.289C465.718,112.826 293.712,94.365 300.244,61.704C307.552,25.163 369.697,15.085 376.824,13.929C378.512,13.656 378.386,13.669 397.902,10.416" style="stroke:black;stroke-width:1px;"/>
        <path d="M205.397,95.428C201.587,99.238 220.832,79.992 264.207,62.603C252.164,89.551 224.507,121.799 300.947,143.203C438.853,181.816 439.98,179.482 527.877,171.305C702.065,155.102 738.008,68.089 716.167,46.248C775.266,73.524 769.406,89.427 767.455,94.725C756.155,125.394 647.921,229.764 570.734,221.188C541.494,217.939 542.284,235.647 471.672,228.214C438.763,224.75 435.064,247.027 353.639,215.567C291.825,191.685 219.845,206.433 187.13,122.828C183.73,114.14 207.936,92.624 210.315,90.51" style="stroke:black;stroke-width:1px;"/>
        <path d="M86.78,223.472C88.918,219.195 123.125,150.782 130.805,183.04C131.84,187.386 115.935,202.492 235.028,278.278C263.927,296.669 284.761,283.23 447.965,318.71C535.424,337.722 777.504,271.977 836.764,134.229C858.247,160.488 857.409,160.057 879.627,186.215C837.293,229.977 846.616,237.15 801.963,279.177C730.708,346.241 729.742,345.062 656.411,378.907C608.182,401.167 606.371,394.827 541.406,380.704C470.276,365.241 472.963,356.914 401.245,342.968C375.61,337.984 217.158,363.223 155.962,308.826C117.324,274.482 105.929,276.007 68.677,247.024C78.677,231.488 78.421,232.123 90.374,217.182" style="stroke:black;stroke-width:1px;"/>
        <path d="M23.887,351.953C14.723,342.789 40.364,310.374 42.769,307.334C87.777,385.967 142.117,373.073 192.8,403.166C313.774,474.994 346.388,415.09 421.011,420.237C510.095,426.381 538.36,481.096 622.269,455.277C660.165,443.617 735.655,459.916 841.496,347.461C885.727,300.465 888.09,303.223 926.851,252.223C939.382,283.552 942.265,281.738 952,314.193C947.191,319.018 914.93,351.383 892.709,375.313C888.142,380.232 884.869,376.601 831.613,432.815C826.812,437.883 730.253,494.901 709.421,497.505C678.752,501.339 655.375,519.626 639.34,521.764C509.665,539.054 516.279,455.4 389.565,479.536C227.146,510.473 188.654,465.565 177.526,452.582C160.821,433.093 10.979,396.314 14.902,381.603C19.193,365.511 19.602,366.26 25.684,351.055" style="stroke:black;stroke-width:1px;"/>
        <path d="M6.816,448.089C16.037,443.479 101.298,490.265 102.952,492.115C124.758,516.486 133.814,497.415 154.165,510.982C329.559,627.912 366.218,552.797 465.036,560.398C516.003,564.319 528.431,626.454 694.147,572.079C768.194,547.782 774.273,559.768 834.308,510.084C873.747,477.445 924.6,446.068 982.434,375.24C988.649,418.878 987.72,418.068 994.298,462.022C897.595,524.517 875.539,600.063 760.633,630.479C743.533,635.006 713.798,661.494 704.928,662.824C562.952,684.121 484.49,707.107 454.255,679.895C453.172,678.921 234.034,657.875 142.485,613.408C63.29,574.942 73.224,555.394 9.567,535.812C6.874,513.262 3.929,513.929 7.714,491.216" style="stroke:black;stroke-width:1px;"/>
        <path d="M9.231,594.089C24.511,595.535 15.522,613.448 177.526,686.184C253.411,720.255 242.771,735.93 314.992,778.727C331.428,788.467 363.306,827.874 462.341,812.869C542.231,800.764 523.524,754.655 706.725,698.763C771.341,679.05 853.949,620.044 865.755,611.611C870.399,608.294 866.515,603.97 919.663,564.891C925.237,560.792 928.042,565.514 993.644,520.103C992.533,528.697 982.974,587.833 981.657,589.15C970.876,599.931 804.057,719.087 788.486,730.21C769.676,743.645 762.635,730.41 532.422,864.082C466.662,902.265 373.829,893.281 359.915,891.934C350.295,891.003 309.684,887.073 248.505,845.214C200.913,812.651 202.789,811.581 152.368,783.219C149.695,781.716 30.517,681.256 28.379,672.707C26.887,666.739 13.619,613.665 19.395,596.337" style="stroke:black;stroke-width:1px;"/>
        <path d="M319.484,711.342C345.488,702.674 364.878,715.115 385.072,720.326C443.267,735.344 443.158,734.115 503.671,732.905C448.6,756.849 438.165,769.287 384.174,746.382C338.849,727.153 332.82,733.662 308.702,709.545L323.078,711.342" style="stroke:black;stroke-width:1px;"/>
        <path d="M638.441,858.691C692.027,831.898 689.154,827.923 743.562,802.986C774.193,788.947 800.113,758.844 852.278,755.367C757.158,869.51 706.559,840.296 642.934,856.894" style="stroke:black;stroke-width:1px;"/>
        <path d="M909.78,706.849C915.478,702.247 979.153,650.817 977.165,644.855C975.078,638.592 980.862,655.946 946.1,721.298C907.533,713.593 908.573,713.517 898.998,712.24" style="stroke:black;stroke-width:1px;"/>
        <path d="M898.1,789.509C763.758,902.639 684.342,883.042 607.893,917.99C581.372,930.114 582.162,914.118 572.853,913.498C557.812,912.495 518.032,933.187 508.163,927.873C472.85,908.859 425.575,980.566 298.819,904.513C285.312,896.409 204.015,847.63 119.113,824.046C170.381,884.788 185.916,863.187 249.403,910.802C399.354,1023.26 630.973,934.859 696.842,926.076C805.876,911.538 901.84,809.603 903.49,793.103" style="stroke:black;stroke-width:1px;"/>
    </g>
</svg>
