<?xml version="1.0" encoding="UTF-8" standalone="no"?>
<!DOCTYPE svg PUBLIC "-//W3C//DTD SVG 1.1//EN" "http://www.w3.org/Graphics/SVG/1.1/DTD/svg11.dtd">
<svg width="100%" height="100%" viewBox="0 0 1000 1000" version="1.1" xmlns="http://www.w3.org/2000/svg" xmlns:xlink="http://www.w3.org/1999/xlink" xml:space="preserve" xmlns:serif="http://www.serif.com/" style="fill-rule:evenodd;clip-rule:evenodd;stroke-linecap:round;stroke-linejoin:round;stroke-miterlimit:1.5;">
    <g id="Layer1">
        <path d="M482.191,19.121C440.75,16.066 419.232,31.674 422.247,39.715C425.466,48.297 444.374,48.421 492.611,50.351L491.793,56.18C497.247,58.328 502.702,60.476 508.156,62.624C450.112,84.39 389.473,49.74 380.52,44.624C368.242,37.608 396.519,1.073 488.52,11.896C484.429,13.806 480.338,15.715 476.247,17.624" style="stroke:black;stroke-width:1px;"/>
        <path d="M514.438,12.729C523.075,17.569 557.332,25.334 561.123,26.193C567.182,32.424 569.388,40.151 586.898,25.446C557.717,10.919 555.494,19.533 525.338,7.806" style="stroke:black;stroke-width:1px;"/>
        <path d="M558.884,43.806C540.548,49.917 541.365,50.726 522.62,57.124C541.441,61.215 543.619,67.828 576.676,46.299C566.961,42.999 567.956,40.452 558.065,41.351" style="stroke:black;stroke-width:1px;"/>
        <path d="M355.975,19.26C316.503,44.635 306.347,40.303 310.157,59.351C311.885,67.993 373.563,97.641 382.157,101.078C332.268,98.52 333.347,94.482 286.429,75.715C255.746,63.441 293.412,51.36 298.702,48.715C300.996,47.568 326.893,26.985 339.611,23.351" style="stroke:black;stroke-width:1px;"/>
        <path d="M423.066,102.715C439.927,104.247 519.689,111.499 632.52,72.442C559.768,132.203 526.861,109.393 459.066,119.078C432.691,122.846 437.557,107.565 424.702,104.351" style="stroke:black;stroke-width:1px;"/>
        <path d="M665.356,34.182C660.956,40.935 656.556,47.689 652.156,54.442C669.239,51.239 668.171,49.816 681.98,38.606C677.637,36.806 673.682,34.151 669.338,32.351C669.089,32.248 669.338,32.351 666.065,31.533" style="stroke:black;stroke-width:1px;"/>
        <path d="M174.058,120.321C171.93,118.639 173.575,117.643 201.083,99.851C201.162,100.228 199.633,125.446 216.884,128.896C231.791,131.878 275.768,172.318 347.793,186.169C384.945,193.314 461.498,193.405 510.853,180.705C478.177,218.827 350.569,222.03 308.52,207.442C278.489,197.023 166.757,142.37 165.339,139.533C157.027,122.91 168.548,125.67 183.339,114.987" style="stroke:black;stroke-width:1px;"/>
        <path d="M549.987,192.796C594.145,148.638 698.115,149.485 748.238,74.302C751.617,69.233 752.123,68.125 757.352,71.263C759.492,72.547 757.853,73.435 780.22,92.465C734.29,127.597 742.008,139.519 685.952,156.336C663.362,163.113 621.29,186.459 555.304,189.758" style="stroke:black;stroke-width:1px;"/>
        <path d="M82.385,226.118C109.312,187.487 109.328,182.62 113.987,186.72C146.78,215.577 146.266,215.772 185.388,235.333C202.167,243.723 201.321,244.887 220.328,246.726C224.596,247.14 249.824,286.231 343.381,281.667C414.285,278.208 416.05,287.692 482.384,261.159C509.806,250.19 552.528,267.916 651.011,238.371C701.577,223.201 587.743,275.591 573.534,275.591C482.686,275.591 487.152,302.543 395.792,308.253C234.442,318.337 239.321,286.253 81.07,230.369C84.446,225.694 87.823,221.019 91.2,216.343" style="stroke:black;stroke-width:1px;"/>
        <path d="M718.614,211.026C734.101,195.539 804.844,173.18 827.394,127.847C885.639,166.588 830.29,174.967 815.081,186.72C777.674,215.624 771.893,202.901 705.28,220.165C711.497,216.612 717.714,213.06 723.931,209.507" style="stroke:black;stroke-width:1px;"/>
        <path d="M28.659,332.844C34.783,309.989 35.237,310.631 49.259,290.834C87.159,321.37 81.688,332.304 129.179,338.636C149.313,341.32 139.213,372.698 278.057,389.528C314.324,393.924 355.306,381.499 400.349,394.845C499.073,424.096 523.733,357.732 654.809,324.963C695.923,314.685 698.223,321.19 732.286,296.859C754.288,281.143 808.243,282.175 850.781,246.726C875.861,225.826 874.225,224.805 897.204,201.818C911.668,220.402 910.739,220.092 917.624,226.977C918.806,228.16 909.788,231.006 924.46,246.726C914.614,252.353 914.666,252.299 913.826,252.803C798.991,321.704 792.9,307.62 669.241,359.145C622.416,378.655 616.278,361.294 561.38,395.604C542.931,407.136 438.824,438.718 379.081,425.228C339.484,416.287 175.166,442.315 72.97,363.702C54.657,349.615 16.944,356.97 35.75,328.761" style="stroke:black;stroke-width:1px;"/>
        <path d="M3.359,429.411C2.256,432.068 1.153,434.725 0.05,437.381C0.391,434.313 5.905,384.688 22.837,406.239C47.894,438.128 58.297,459.729 208.935,497.388C308.872,522.373 313.079,472.347 411.743,501.946C511.436,531.854 606.219,449.92 671.52,466.246C699.617,473.27 747.372,445.6 762.67,443.458C858.758,430.006 852.81,413.663 956.768,337.572C980.427,342.457 969.729,363.291 973.093,382.248C940.052,399.896 939.963,398.914 914.586,426.747C914.138,427.239 800.16,485.051 757.352,482.197C736.423,480.801 657.286,502.945 632.022,496.629C619.831,493.581 479.001,563.067 407.945,518.657C368.975,494.301 241.915,522.724 180.071,507.263C58.805,476.946 45.988,507.465 -1.482,460.226C1.054,449.067 3.59,437.907 6.126,426.747" style="stroke:black;stroke-width:1px;"/>
        <path d="M121.595,556.558C186.79,582.306 332.359,533.086 463.394,585.5C500.582,600.375 708.58,564.081 747.478,554.357C723.616,572.712 509.143,635.687 442.886,607.528C329.446,559.316 323.696,594.486 225.645,583.981C211.158,582.428 167.535,583.447 140.572,567.27C129.677,560.733 131.031,558.031 117.785,558.914" style="stroke:black;stroke-width:1px;"/>
        <path d="M11.423,587.238C9.923,588.335 7.626,584.403 6.126,585.5C3.244,587.609 156.901,635.989 224.886,643.988C325.209,655.79 426.812,662.564 444.405,663.737C478.979,666.042 478.111,683.742 567.457,671.333C466.066,701.476 463.128,679.859 359.332,697.158C339.731,700.425 343.947,687.253 325.151,681.967C235.806,656.838 120.619,673.903 112.468,672.092C94.426,668.083 25.244,637.029 13.028,634.671C11.74,623.598 10.452,612.524 9.165,601.451" style="stroke:black;stroke-width:1px;"/>
        <path d="M654.049,644.747C752.272,638.199 817.745,586.131 869.771,568.789C918.584,552.518 987.847,506.225 997.503,499.771C996.96,502.703 997.383,502.069 991.989,536.634C940.853,560.463 947.793,572.935 894.837,590.817C873.042,598.176 679.599,650.454 657.088,653.103" style="stroke:black;stroke-width:1px;"/>
        <path d="M56.083,724.096C139.885,769.22 526.261,873.329 796.961,737.979C890.579,691.17 890.373,693.615 897.932,688.756C915.08,677.732 934.87,674.037 969.874,648.367C927.156,763.707 741.082,782.534 680.843,814.97C669.823,820.904 83.043,865.66 59.869,726.62" style="stroke:black;stroke-width:1px;"/>
        <path d="M159.579,859.145C322.905,906.782 322.247,916.256 491.522,907.106C710.132,895.289 720.875,890.276 738.902,881.863C893.355,809.785 889.013,803.529 889.99,802.95C788.8,903.67 743.48,926.645 480.163,934.873C308.128,940.249 222.188,941.508 158.316,861.669" style="stroke:black;stroke-width:1px;"/>
        <path d="M389.796,981.119C520.331,1004.44 637.4,972.144 658.125,966.427C645.443,973.282 581.82,1007.67 481.425,1001.77C406.327,997.349 385.303,985.669 377.929,981.573" style="stroke:black;stroke-width:1px;"/>
    </g>
</svg>
