<?xml version="1.0" encoding="UTF-8" standalone="no"?>
<!--
  Copyright © 2026 Chloe Bolland
  contact chloe@mammoththoughts.com if you wish to use, publish or reproduce this game or any part of it in any way
-->
<svg
   width="100%"
   height="100%"
   viewBox="0 0 1000 1000"
   version="1.1"
   xml:space="preserve"
   style="fill-rule:evenodd;clip-rule:evenodd;stroke-linecap:round;stroke-linejoin:round;stroke-miterlimit:1.5;"
   id="svg26"
   sodipodi:docname="moon1.svg"
   inkscape:version="1.3.2 (091e20e, 2023-11-25, custom)"
   xmlns:inkscape="http://www.inkscape.org/namespaces/inkscape"
   xmlns:sodipodi="http://sodipodi.sourceforge.net/DTD/sodipodi-0.dtd"
   xmlns="http://www.w3.org/2000/svg"
   xmlns:svg="http://www.w3.org/2000/svg"><defs
   id="defs26" /><sodipodi:namedview
   id="namedview26"
   pagecolor="#ffffff"
   bordercolor="#000000"
   borderopacity="0.25"
   inkscape:showpageshadow="2"
   inkscape:pageopacity="0.0"
   inkscape:pagecheckerboard="0"
   inkscape:deskcolor="#d1d1d1"
   inkscape:zoom="1.819"
   inkscape:cx="500"
   inkscape:cy="500"
   inkscape:window-width="3840"
   inkscape:window-height="2054"
   inkscape:window-x="-11"
   inkscape:window-y="-11"
   inkscape:window-maximized="1"
   inkscape:current-layer="svg26" />
    <path
   id="path1"
   style="fill:#000000;fill-opacity:1;stroke:#000000;stroke-width:1.06116px"
   d="M 561.85726,3.0665645 C 496.22715,14.645883 579.16949,55.579041 585.18684,54.275597 615.05288,100.2826 698.88993,25.631223 627.99528,14.010693 606.57035,7.5691624 584.21403,3.7084456 561.85726,3.0665645 Z M 380.19422,39.596126 c -23.97265,-3.606645 -92.768,21.288339 -75.70468,36.823149 31.15205,12.029453 95.8125,-18.82577 95.09908,-35.467008 -6.43649,-0.778894 -12.91082,-1.273168 -19.3944,-1.356141 z m 386.58947,22.517226 c -35.43585,31.431316 7.60163,103.086798 50.29864,112.409458 68.85869,27.34469 9.88413,-75.461649 -10.25344,-81.91364 35.13636,15.96961 -30.97157,-36.012607 -40.0452,-30.495818 z M 438.65477,100.11559 c -32.38052,-4.880174 -77.83437,56.64261 -72.46961,62.61296 24.00432,-22.59489 43.3712,32.99653 77.2331,4.65058 49.20102,-14.00406 55.73527,-65.76995 -4.76349,-67.26354 z m 176.31377,14.62266 c -29.28067,1.12447 -69.06715,47.15514 -56.64531,60.14428 14.90722,-22.9125 6.26749,46.88836 40.32027,37.29734 49.41057,16.23321 107.32807,-51.40602 44.77625,-79.19476 -9.22985,-6.24421 -16.37661,-17.62847 -28.45121,-18.24686 z m -380.48956,2.31422 c -63.81784,14.8889 -111.07304,70.86994 -141.939683,126.52595 -32.51466,31.06271 3.288941,53.00942 29.313823,23.82847 30.87624,-36.67285 66.08512,-67.57734 95.26878,-105.68058 8.52894,-10.20158 49.99504,-38.16603 17.35708,-44.67384 z m 677.08578,95.45344 c -44.75474,24.09737 -34.54503,86.47656 -1.35108,116.72104 11.39304,33.90123 38.39424,100.9679 80.24805,57.96815 -12.04177,-41.23792 -8.6241,-88.08492 -30.9245,-127.08422 -12.98885,-26.64642 -30.36901,-42.45604 -47.97247,-47.60497 z m -459.81518,14.43312 c -68.64714,-8.31697 -98.05083,75.19435 -54.8433,122.64717 17.55879,47.74981 85.14978,17.2155 100.7121,-20.73743 20.45024,-38.12474 9.40758,-108.2974 -45.8688,-101.90974 z m -206.17405,9.70677 c -42.00642,5.25412 -65.48434,51.99197 -50.00583,87.15717 1.14237,60.34919 98.31436,14.4053 97.05881,-32.20514 4.46871,-27.8192 -19.20622,-55.36306 -47.05298,-54.95203 z m -53.31336,100.69845 c -6.62569,-26.90489 0.87422,26.23177 0,0 z m 482.3733,-69.75549 c -50.66655,-6.41593 -82.3103,66.97288 -86.83812,94.2703 6.84972,60.8605 86.10595,68.8207 128.62014,41.07513 47.39617,-19.90506 66.59785,-108.50346 8.78879,-126.16602 -16.16522,-5.92961 -33.36923,-9.08917 -50.57081,-9.17941 z m 163.64789,49.72119 c -26.97999,7.64855 -20.21927,49.58459 -25.34453,46.97375 -4.58991,67.96262 93.5804,31.34039 51.0455,-20.1999 -5.33057,-10.94834 -11.93599,-25.34998 -25.70097,-26.77385 z m -712.27263,18.74492 c -40.626146,11.87192 0.2229,86.60663 15.64453,27.01855 14.01086,-19.31952 3.02509,-23.87159 -15.64453,-27.01855 z m -17.74501,20.15927 c 0.0746,-2.48947 -2.81292,9.62852 0,0 z M 34.132648,375.18819 C -2.8736319,396.95127 8.6330176,462.79166 2.3928093,503.66774 5.74369,539.15065 -6.0627126,608.29212 36.036702,617.28009 42.449483,565.95704 26.292963,512.2421 42.291218,460.82707 42.051399,434.40481 54.291299,394.99408 34.132648,375.18819 Z M 505.6816,408.12873 c -24.08239,8.16407 -33.82127,35.70824 -39.99449,46.62322 -1.8384,68.54653 90.6802,55.31479 99.60826,-0.58121 -1.19058,-29.97978 -33.56326,-45.02646 -59.61377,-46.04201 z m -206.14723,16.42862 c -66.7279,-2.04679 -46.65424,80.63645 -9.39356,99.4266 20.26516,15.69691 105.59066,-72.71991 39.80589,-93.87414 -9.72606,-3.54834 -20.05148,-5.61321 -30.41233,-5.55246 z m 671.17765,19.78224 c -64.21828,-2.15194 -31.93219,66.66456 -51.18406,104.28183 -21.364,47.46686 8.33542,97.76942 57.53143,107.44466 29.01041,-38.56618 21.52019,-92.27951 20.82645,-138.09177 -4.84162,-23.05631 -0.2828,-65.57622 -27.17382,-73.63472 z m -825.32511,11.42109 c -33.82265,7.20778 -12.38639,62.85002 -31.38558,65.79922 -4.73216,21.1478 16.23711,60.73421 24.60722,19.04552 4.51687,25.49002 10.06472,36.80305 28.0721,18.48337 49.04212,2.56162 30.08229,-99.5174 -15.81247,-102.36815 z m 615.61238,14.31021 c -19.37775,-7.57297 -103.11444,34.94764 -63.85726,41.68915 -52.34337,7.89656 -32.23563,93.39458 10.53038,105.52458 46.1801,27.25757 105.32111,-3.42526 120.34292,-52.96235 27.79733,-46.35688 -21.1203,-94.82871 -67.01604,-94.25138 z m -322.82088,87.30268 c -47.85143,-1.00053 -82.57728,45.46102 -96.23562,84.43874 -10.996,25.16184 21.82404,84.11151 56.32091,77.56927 44.27207,-1.20455 99.36379,3.22864 117.18004,-49.57892 31.04667,-54.04593 -21.04011,-113.90107 -77.26533,-112.42909 z M 204.24959,694.94943 c -24.87192,11.73856 -20.31255,34.76664 -31.55494,47.67041 12.16472,55.76594 116.12231,21.93467 62.56943,-28.0446 -7.92501,-9.24891 -18.04803,-19.28343 -31.01449,-19.62581 z m -154.172216,6.13444 c -14.808881,1.65043 -10.052325,36.28914 -15.330198,9.56096 8.382032,29.33928 38.218323,78.73787 62.821032,78.73921 0.826717,-34.36172 -11.508145,-76.81351 -47.490834,-88.30017 z m 846.623246,2.05175 c -66.20931,-7.7949 -61.81213,85.12696 -109.62041,108.72714 -30.35919,7.47036 -88.05846,62.19488 -48.38398,82.16969 52.02261,14.90347 93.67167,-19.49382 127.03117,-57.35698 36.68069,-23.62622 65.71358,-53.48345 77.99799,-97.37033 19.97654,-40.6228 -28.27623,36.16166 -10.82675,-16.22161 -0.88621,-18.5876 -22.24731,-20.44425 -36.19802,-19.94791 z M 660.7921,728.82526 c -55.97335,-6.92767 -101.00551,27.26801 -131.87673,65.87606 -29.67762,29.11719 16.00433,57.89066 23.66044,60.88168 -43.37524,20.10635 89.56705,-30.43237 53.77537,-11.5393 47.31837,-9.77947 99.00414,2.69877 120.64881,-52.78753 31.9256,-43.23718 -31.76709,-69.59847 -66.20789,-62.43091 z m -290.5623,96.36996 c -50.1463,3.36039 -52.20136,68.88528 -6.03427,75.54974 62.1786,32.58143 47.54907,-69.28095 6.03427,-75.54974 z m -192.92251,8.02581 c -34.53967,-6.55355 -1.0744,53.94503 -17.79656,35.79634 22.91786,28.77189 96.06365,95.06548 120.30125,50.20757 C 258.8746,880.74628 221.297,841.84962 177.30729,833.22103 Z m 329.45282,85.46755 c -41.69507,2.23116 -87.85631,7.7541 -121.05333,35.28625 -10.77064,21.81889 40.17941,29.35041 1.32767,25.18947 71.05747,18.85044 148.14432,26.8961 220.30696,10.15156 55.89198,-29.6706 -20.52987,-60.10118 -52.04068,-59.72302 -16.12823,-3.86539 -31.62901,-11.50674 -48.54062,-10.90426 z" />
    
    
    
    
    
    
    
    
    
    
    
    
    
    
    
    
    
    
    
    
    
    
    
    
    
</svg>
