<?xml version="1.0" encoding="UTF-8" standalone="no"?>
<!--
  Copyright © 2026 Chloe Bolland
  contact chloe@mammoththoughts.com if you wish to use, publish or reproduce this game or any part of it in any way
-->
<!-- Created with Inkscape (http://www.inkscape.org/) -->

<svg
   width="1000"
   height="1000"
   viewBox="0 0 264.58333 264.58333"
   version="1.1"
   id="svg1"
   inkscape:version="1.3.2 (091e20e, 2023-11-25, custom)"
   sodipodi:docname="moon4.svg"
   xmlns:inkscape="http://www.inkscape.org/namespaces/inkscape"
   xmlns:sodipodi="http://sodipodi.sourceforge.net/DTD/sodipodi-0.dtd"
   xmlns="http://www.w3.org/2000/svg"
   xmlns:svg="http://www.w3.org/2000/svg">
  <sodipodi:namedview
     id="namedview1"
     pagecolor="#ffffff"
     bordercolor="#000000"
     borderopacity="0.25"
     inkscape:showpageshadow="2"
     inkscape:pageopacity="0.0"
     inkscape:pagecheckerboard="0"
     inkscape:deskcolor="#d1d1d1"
     inkscape:document-units="mm"
     inkscape:zoom="1.1999463"
     inkscape:cx="403.3514"
     inkscape:cy="535.44064"
     inkscape:window-width="2798"
     inkscape:window-height="1774"
     inkscape:window-x="4104"
     inkscape:window-y="146"
     inkscape:window-maximized="0"
     inkscape:current-layer="layer3" />
  <defs
     id="defs1" />
  <g
     inkscape:label="Layer 1"
     inkscape:groupmode="layer"
     id="layer1"
     sodipodi:insensitive="true">
    <ellipse
       style="display:none;opacity:0.0968922;fill:none;fill-opacity:0.988528;stroke:#000000;stroke-width:1.099"
       id="path1"
       cx="132.31021"
       cy="132.31021"
       rx="132.31021"
       ry="131.84839"
       sodipodi:insensitive="true" />
  </g>
  <g
     inkscape:groupmode="layer"
     id="layer3"
     inkscape:label="Layer 2">
    <path
       id="path32"
       style="display:none;opacity:1;fill:#000000;fill-opacity:1;stroke:#000000;stroke-width:1.099"
       d="M 140.98984,6.8590129 C 129.2089,6.2543601 109.7039,12.078707 110.19601,25.326628 c 9.35711,8.330178 23.96305,0.982647 34.40976,-2.575863 12.33036,-0.81809 15.05735,-11.397879 2.42091,-14.640149 -1.87709,-0.8984864 -3.97364,-1.2163749 -6.03684,-1.2516031 z M 109.69305,19.772437 c 1.75586,-1.836046 1.8502,-2.568163 0,0 z M 97.989368,7.0424642 C 91.763376,7.3493778 76.129979,12.808432 79.276815,17.184998 82.948765,19.56625 109.02124,9.9282784 97.989368,7.0424642 Z m 77.448502,3.0530438 c -13.33767,4.013392 4.1721,20.513829 12.98034,17.531224 18.61466,-1.372975 -3.83324,-15.252458 -11.13028,-17.359582 l -1.85006,-0.171609 z m -3.29231,1.573547 c 1.9339,1.91996 1.1074,3.505779 0,0 z M 66.687919,21.184753 c -5.506665,1.313606 -20.495208,16.800852 -7.029161,7.627068 2.462365,-1.408584 7.599395,-4.54203 7.029161,-7.627068 z m 6.674528,5.118034 c -7.881932,2.276231 1.185174,1.568621 -7.636242,4.242472 -9.806252,2.45032 -22.605036,23.687802 -3.665837,19.771898 9.148108,-0.56163 25.767528,-15.597092 14.966455,-22.032582 -1.312982,-0.537535 -2.10325,-2.06027 -3.664376,-1.981788 z M 206.1745,35.600928 c -15.15808,2.024789 -4.54411,23.579014 5.26548,26.811665 8.06643,13.124862 28.32528,2.341959 16.83274,-10.632982 C 224.1338,40.340638 215.94391,38.57825 206.1745,35.600928 Z M 158.76447,35.7172 c -10.44932,-0.01114 -26.15191,6.531248 -21.80016,19.536032 1.58124,13.632358 19.24081,16.077566 28.08916,12.196431 -1.92754,-4.570492 14.83221,-3.099951 13.68036,-12.898194 C 180.12392,43.697188 167.65513,37.138766 158.76447,35.7172 Z M 46.001326,36.006071 c -8.90294,1.573313 -15.024487,21.358611 -4.64106,6.865731 1.064413,-2.663892 3.361495,-4.437454 4.64106,-6.865731 z m 60.497604,7.978324 C 92.862399,47.702713 82.009735,57.636407 73.987793,68.703879 62.91719,81.895267 76.417294,100.93482 91.939167,89.976004 105.23349,82.853911 120.70361,69.687706 118.02639,54.346554 115.45151,50.286545 113.73661,43.166441 106.49893,43.984395 Z M 29.782161,54.734644 C 19.840925,55.575472 12.49935,78.541043 18.388117,79.55898 25.221181,74.21343 28.861748,63.958174 30.610535,55.058655 Z m 17.288351,4.23695 C 35.441171,62.232836 33.972111,84.256426 49.509947,82.012397 63.230432,80.397563 61.973464,58.027995 47.070512,58.971594 Z M 195.66196,70.029317 c -18.74073,0.771064 -3.65461,31.301863 10.624,18.758245 11.81486,-4.023658 -4.21334,-19.173337 -10.624,-18.758245 z m -65.80219,7.041431 c -12.51142,-2.03833 -13.9745,16.359544 -3.82195,20.05509 8.26791,11.062472 23.44604,-8.262196 14.10387,-16.499365 -2.47777,-3.075593 -6.61442,-3.556361 -10.28192,-3.555725 z m 110.58292,0.899687 c 3.08876,5.657987 -7.94841,-4.131406 -7.13346,5.39393 -2.71769,12.251188 2.40001,28.852305 15.8724,30.320915 12.20138,-0.2757 4.46112,-21.977906 -1.35424,-28.439499 -1.77234,-2.983783 -3.96341,-6.075423 -7.3847,-7.275346 z m -72.33305,14.699361 c -7.53051,0.586842 -14.30407,8.439264 -9.16637,10.087244 -3.848,15.98298 25.23494,16.56492 22.62174,2.26922 -1.0445,-6.277069 -7.18252,-11.801893 -13.45537,-12.356464 z M 14.107666,96.950671 C 3.4253117,101.31624 5.656186,117.04606 8.5271281,126.04399 17.766806,123.79627 20.093207,102.79568 14.107666,96.950671 Z m 85.504858,3.256649 c -11.334726,0.39406 -16.561588,16.80712 -8.798768,24.3215 11.707554,10.55297 27.805534,-10.72001 16.694764,-20.6723 -2.20657,-1.88961 -4.85921,-3.69402 -7.895996,-3.6492 z m -60.341019,3.2365 c -14.102058,2.86422 -17.669067,20.13476 -16.221672,32.46221 2.713796,14.82812 27.510985,16.46228 35.453447,4.87868 11.02656,-10.92971 1.649519,-26.81496 -8.892871,-33.97777 -3.060439,-1.99251 -6.636607,-3.41188 -10.338904,-3.36312 z m 169.830465,0.4718 c -15.2519,0.82037 -20.20027,19.66543 -17.71975,32.29174 5.50484,17.98271 32.90921,13.89963 34.35341,-4.6665 1.61072,-9.45898 5.99949,-14.17048 -2.15611,-23.29802 -4.76019,-1.45637 -9.43124,-4.14689 -14.47755,-4.32722 z m -73.03172,14.72985 c -10.86828,-1.74604 -22.27007,14.11571 -13.60997,19.54361 5.3268,17.13778 30.19769,7.35047 34.44929,-4.61831 -0.87335,-8.13275 -12.97118,-14.99442 -20.83932,-14.9253 z M 252.21871,130.807 c -13.70399,2.09939 -17.44231,18.81783 -16.42688,30.55473 -3.75101,12.32048 12.18909,23.82989 19.31767,10.2433 5.53449,-11.24431 10.44889,-24.90784 4.18014,-36.93197 -1.20145,-2.76312 -4.27143,-3.8867 -7.07093,-3.86606 z M 7.2341838,137.06295 c -7.43915937,3.32303 4.1721792,26.33871 5.4596152,9.45524 0.258449,-3.54893 -1.164517,-9.10213 -5.4596152,-9.45524 z M 86.0764,138.36933 c -13.141356,1.80073 -15.677343,21.37681 -4.286904,28.33576 11.202624,5.54359 23.171824,-9.23912 16.633258,-19.45931 -2.338682,-4.78036 -6.714433,-8.94474 -12.346354,-8.87645 z m 72.18267,13.00644 c -15.94031,0.22052 -4.80103,25.24704 5.18418,11.22929 5.48396,-4.58391 1.19675,-11.55718 -5.18418,-11.22929 z m 44.21281,7.41557 c -13.78159,3.3593 -29.01413,12.47267 -30.64315,28.0262 -3.3564,15.80206 15.78068,16.98542 24.42361,8.42791 11.2125,-7.57603 19.27836,-19.512 23.52391,-32.22801 -5.20362,8.08024 0.851,-5.70782 -7.95988,-2.40699 -3.1788,-0.3031 -6.13689,-1.76527 -9.34449,-1.81911 z m -154.375074,0.54519 c -12.978412,2.42668 0.150897,24.57146 9.860516,16.71765 5.395951,-6.9957 -2.260401,-16.39303 -9.860516,-16.71765 z m 73.658034,3.08405 c -11.62106,2.8637 -16.86492,13.83842 -8.88358,22.81996 4.50912,9.4121 29.06915,6.19266 25.24853,-6.3981 -3.24175,-7.45359 -6.68266,-16.1948 -16.36495,-16.42186 z m -105.504152,2.49028 c -11.3350446,5.65175 -0.215956,22.39184 5.583917,29.55682 11.351249,11.50148 18.711727,-7.33764 9.819177,-15.71051 -3.140117,-6.80443 -6.208497,-14.72551 -15.403094,-13.84631 z m 60.692936,17.7891 c -9.596256,1.22676 -16.860041,17.06804 -5.16661,21.56612 11.801352,1.34644 20.064833,-19.99289 5.16661,-21.56612 z m -24.895121,4.83743 c -2.529023,5.23296 -4.935771,-3.33134 -3.868802,4.63592 3.848381,8.57887 9.478417,-2.64934 3.868802,-4.63592 z m 187.560647,4.46691 c -8.77672,-0.99595 -21.75111,24.63041 -5.23918,16.00076 3.64498,-2.82479 13.8496,-13.28272 5.23918,-16.00076 z m -140.754202,8.68939 c -8.094176,-0.0122 -10.167394,7.8788 -10.494967,8.44755 -3.997511,15.49464 27.866489,10.30065 17.416509,-4.23747 -1.68729,-2.11588 -4.00243,-4.30437 -6.921542,-4.21008 z m 56.166082,5.04104 c -10.47707,-1.78432 -33.28177,10.2657 -13.67856,16.40294 10.42058,5.83586 33.62103,-13.04057 13.67856,-16.40294 z m -105.557899,0.73639 c -15.925332,-0.30348 -9.120789,17.75338 0.481981,22.02704 8.802158,7.25822 26.744161,3.43562 18.477348,-10.384 -3.794835,-6.82019 -11.893231,-9.7455 -18.959329,-11.64304 z m 163.454109,12.56151 c -10.20031,3.6976 -25.1949,4.54382 -28.36848,17.45772 3.92258,15.44807 24.64697,0.57444 31.72744,-6.16229 4.36728,-2.53118 4.04566,-12.85796 -3.35896,-11.29543 z M 94.518778,230.08311 c -8.968773,1.1942 -16.09881,3.3908 -10.486234,10.5565 4.669022,11.86726 18.017026,15.58837 29.584396,16.82375 11.95882,0.76599 19.20825,-12.45568 8.65569,-20.52251 -7.16278,-7.86233 -18.9132,-4.07761 -27.753852,-6.85774 z m 64.590892,8.56951 c -9.14508,0.23292 -30.18072,0.42268 -23.97582,15.05508 8.35003,11.34151 29.68794,7.69438 37.30937,-1.81817 -0.8651,-6.61547 -5.8081,-14.06562 -13.33355,-13.23691 z" />
    <path
       id="path32-6"
       style="display:inline;fill:#000000;fill-opacity:1;stroke:#000000;stroke-width:1.099"
       d="M 140.08396,6.0161702 C 128.70838,4.9448912 105.5852,12.140314 111.10364,25.866711 124.2849,32.646202 138.25587,22.656526 151.05691,19.73103 160.83967,12.365497 146.82925,5.7998859 140.08396,6.0161702 Z M 97.08348,6.1996216 C 91.731914,5.246913 70.419432,14.58459 82.406707,16.537693 85.773081,15.881038 105.98104,10.925493 97.08348,6.1996216 Z m -5.962944,2.8334188 c 8.632198,2.3025756 -16.525801,8.0555916 0,0 z m 83.411444,0.2196248 c -5.23635,1.8343068 -0.27185,3.8310488 -4.18341,2.8583258 -1.9949,11.28504 14.77724,18.960096 23.67445,12.741596 1.97519,-7.600541 -13.42791,-14.327844 -19.49104,-15.5999218 z m -3.23081,1.7197918 c 0.15107,-0.05031 -0.276,-0.317835 0,0 z m -33.4207,-0.740523 c 10.81806,-1.0798341 9.30353,9.765652 -0.83628,9.163891 -5.80451,3.663573 -26.50525,5.084877 -13.01765,-3.84742 6.43123,-3.200757 8.75891,-2.883376 10.75779,-4.868125 l 2.40885,-0.419408 0.68729,-0.02894 z m 38.81262,3.029272 c 5.00709,-0.107414 16.14782,12.561825 4.24987,7.199561 -3.50066,-1.423761 -7.35381,-3.219686 -4.24987,-7.199561 z m -66.55356,4.016809 -1.35237,1.651579 z m -44.357499,3.063896 c -7.149196,1.80083 -18.401361,16.311976 -4.811744,6.274805 2.070209,-1.504913 5.077569,-3.342301 4.811744,-6.274805 z m 6.674528,5.118034 C 64.544708,30.055891 50.9011,34.850701 51.637285,47.116939 61.044874,55.065891 79.275906,43.611673 79.534522,31.816596 78.757797,28.68785 75.36385,26.334427 72.456559,25.459945 Z m -1.681551,7.096207 c 10.847512,7.103662 -20.192594,18.429154 -11.058676,7.335585 3.782611,-3.14066 13.810192,-6.791084 7.608684,-5.236307 1.407309,-0.08813 1.879893,-2.221149 3.449992,-2.099278 z m 134.493602,2.201933 c -17.87362,6.379691 0.7541,26.91169 10.79895,31.815639 15.05714,5.641605 17.96029,-13.088895 8.56032,-21.122902 -4.27442,-6.606147 -12.3057,-8.576267 -19.35927,-10.692737 z m -47.41003,0.116272 c -13.90314,-1.525815 -29.59633,12.422568 -19.37907,26.056124 8.50096,10.700964 23.48556,8.177692 32.21736,1.187492 13.95004,-4.217249 5.39625,-23.150004 -5.77186,-25.227464 -2.27137,-0.928804 -4.64261,-1.624182 -7.06643,-2.016152 z M 45.095439,35.163228 c -7.855976,-0.06585 -14.024442,19.996445 -4.641061,6.865731 1.036399,-2.622062 3.336192,-4.408105 4.641061,-6.865731 z m 108.130351,6.567041 c 10.77037,1.011362 27.47233,13.348667 10.30066,18.929078 -8.43669,7.443887 -26.32581,-4.112448 -19.59268,-14.737483 2.30131,-2.715595 6.14479,-3.150138 9.29202,-4.191595 z m 56.80738,0.222209 c 9.40472,-0.796172 26.05291,19.177463 11.8106,20.705755 -3.6011,-2.452508 -25.06917,-20.497603 -11.8106,-20.705755 z M 105.59304,43.141553 C 90.308089,47.560437 77.654207,59.31522 70.038082,73.011858 63.332084,89.890935 85.806419,98.359451 96.08087,86.186521 107.13563,79.108402 119.20439,67.962472 117.1205,53.503711 114.56146,49.000668 112.15067,42.090936 105.59304,43.141553 Z M 28.876274,53.891801 C 19.815716,54.548309 10.367782,76.136602 18.726242,77.657829 24.575088,71.741948 29.564135,61.258984 28.876274,53.891801 Z M 103.4433,54.059749 C 119.73236,59.631821 103.23453,79.471757 92.357632,81.632635 80.592638,91.247935 70.709293,73.052556 83.693599,66.921497 87.777964,59.353235 95.90121,56.770129 103.4433,54.059749 Z M 46.164624,58.128752 C 29.277565,62.488669 39.425288,91.53279 54.751139,78.362405 62.049203,71.497363 56.971895,56.710622 46.164624,58.128752 Z M 24.026957,62.19672 c 1.708058,-0.27013 1.516468,9.593623 -4.500347,10.038959 -0.815434,-3.647537 1.791541,-7.807761 4.500347,-10.038959 z m 25.499736,2.437578 c 14.572168,8.504812 -9.497694,15.460573 -5.333008,2.399853 4.616605,-2.72401 -1.863889,0.610773 5.333008,-2.399853 z m 145.229377,4.552177 c -20.17581,2.350568 0.003,32.891655 12.5223,17.879728 7.47307,-6.56357 -6.15417,-17.403021 -12.5223,-17.879728 z m -0.786,5.528344 c 6.27605,0.132725 15.2166,14.153201 4.04151,11.505688 -2.48096,-1.975037 -9.01733,-9.266233 -4.04151,-11.505688 z m -67.23259,1.361674 c -14.14242,2.095002 -7.8148,22.089574 3.56676,23.497615 16.78366,-1.548641 15.06386,-27.026644 -3.56676,-23.497615 z m 112.79932,1.051099 c 0.51869,3.33143 -10.80175,-1.2686 -7.55103,7.737298 -3.94286,11.971203 9.51113,36.01308 22.04364,24.32598 2.48256,-11.605491 -4.99205,-25.746653 -14.49261,-32.063278 z m -108.29572,5.754687 c 14.01691,1.956016 -2.7527,18.706011 -6.48186,5.540314 -0.53697,-4.227738 3.01309,-5.338784 6.48186,-5.540314 z m 110.79531,6.443018 c 8.91187,0.559005 12.05915,24.407973 0.9064,13.257593 -0.52732,-2.864704 -5.39568,-12.725956 -0.9064,-13.257593 z m -74.83264,2.501656 c -20.03571,1.033508 -7.34798,30.378587 8.59163,21.383927 11.51783,-5.58956 0.95061,-21.199224 -8.59163,-21.383927 z M 13.201778,96.107829 C 2.4959402,99.166787 2.66427,124.806 10.759325,123.54543 c 6.384743,-6.77179 8.07091,-19.78403 2.442453,-27.437601 z m 156.320172,2.291333 c 13.4983,1.941978 2.43296,20.076468 -4.91236,8.083748 -0.77421,-6.969952 0.65233,-6.25019 4.91236,-8.083748 z M 98.706637,99.364478 C 84.210572,99.54603 81.073798,125.49781 96.747972,126.54977 112.12738,126.07282 115.91912,100.65183 98.706637,99.364478 Z m -60.34102,3.236492 c -15.823947,3.85696 -21.173231,27.10026 -12.622785,39.41121 12.417711,12.55398 38.609488,2.73844 36.666266,-15.73557 -1.997087,-11.36408 -12.016164,-23.02504 -24.043481,-23.67564 z m 169.830463,0.47181 c -16.52258,1.39995 -22.46,23.89727 -15.63362,36.77364 8.46688,13.30744 31.89754,6.44742 32.26723,-9.14845 6.416,-12.57186 0.26669,-27.24764 -14.75792,-27.44723 z M 12.526884,105.9956 c 6.748262,3.64834 -4.4889206,22.07218 -3.250229,7.55871 0.5111041,-5.88343 -0.6357041,-3.4247 3.250229,-7.55871 z m 86.583345,0.59996 c 20.147371,4.97121 -7.048976,25.55704 -6.906435,5.29789 0.35435,-3.39185 4.135995,-4.60018 6.906435,-5.29789 z m 108.915831,4.72478 c 14.08192,0.69214 16.01236,29.44964 1.60999,30.22702 -12.67746,-2.82899 -13.23104,-26.01999 -1.60999,-30.22702 z M 39.7769,111.73271 c 10.597523,2.83217 20.582452,18.26779 9.166883,26.47384 -10.879336,9.82874 -22.735,-5.40963 -17.333309,-16.12408 1.235289,-4.76262 2.459793,-9.14096 8.166426,-10.34976 z m 166.29889,0.25425 c -0.49535,0.0217 0.59482,0.36287 0,0 z m -72.95058,5.68751 c -12.96657,0.65043 -19.20608,16.75903 -8.73562,24.88454 9.22832,10.05662 34.62971,-0.76666 30.04108,-14.23448 -4.58519,-6.87552 -13.15365,-10.7507 -21.30546,-10.65006 z m 5.76605,8.17883 c 17.55822,0.60656 1.50819,23.25697 -8.54628,11.07173 -9.34105,-8.16453 0.95295,-11.67466 8.54628,-11.07173 z m 112.42157,4.11086 c -16.66357,3.33336 -17.31546,23.77646 -16.64794,37.23936 3.76311,16.13809 22.97442,8.52588 23.40826,-5.26477 3.61374,-9.30163 7.18062,-30.01684 -6.76032,-31.97459 z M 6.3282959,136.22011 c -8.7006072,5.26171 6.2933731,25.15644 5.4753911,8.04451 -0.15667,-3.29431 -1.602496,-7.69372 -5.4753911,-8.04451 z m 78.8422161,1.30638 c -16.253473,1.74492 -14.676843,30.60909 1.968224,29.47428 15.132654,-1.79447 15.658434,-24.18052 2.008009,-28.78838 L 87.22208,137.69222 Z M 8.8097982,141.904 c 5.2508808,7.20107 -4.5288181,4.77325 0,0 z m 241.3521918,0.31161 c 8.95121,5.74841 5.21504,27.20133 -6.70483,26.67572 -5.39058,-7.57009 0.24654,-23.17719 6.06869,-26.55945 z m -164.803893,3.45043 c 13.15824,1.82167 3.618734,21.01549 -3.863065,10.19917 -2.111529,-3.71812 -1.473664,-10.02714 3.863065,-10.19917 z m 71.995093,4.86689 c -16.02796,-0.91184 -3.62305,25.69394 5.18418,11.22929 5.57512,-4.04925 0.92572,-11.9746 -5.18418,-11.22929 z m 1.05678,5.20175 c 4.93122,4.2147 -6.32307,10.04914 -2.32726,0.63044 l 0.94388,-0.49661 1.38338,-0.13384 z m 43.15602,2.21382 c -16.16116,3.25443 -34.12394,17.11936 -30.37613,35.40518 9.36348,14.62061 27.90026,0.58254 35.40783,-9.12468 4.61007,-4.28416 13.27243,-21.34326 10.79803,-19.97331 -0.93949,-6.82033 -9.26685,-4.10477 -15.82973,-6.30719 z m -154.375072,0.54518 c -16.829603,5.10534 9.642657,30.30791 11.664875,11.19959 -0.433089,-5.895 -5.862698,-10.81859 -11.664875,-11.19959 z m 73.658032,3.08405 c -13.85898,1.52754 -16.99063,20.86176 -4.55182,26.80336 12.94996,7.08813 28.61918,-6.95799 16.86711,-18.79319 -2.49921,-4.47937 -6.96974,-8.09356 -12.31529,-8.01017 z m -103.850504,2.42621 c -14.5648154,5.90765 -0.833208,26.59518 7.976201,32.59148 17.544754,0.84233 6.491768,-23.1228 -0.919433,-29.79714 -1.891749,-1.77177 -4.464188,-2.78357 -7.056768,-2.79434 z m 33.790702,1.67845 c 9.493169,1.48249 1.975177,14.63183 -1.860071,3.94944 0.256599,-2.5466 -1.726045,-3.69422 1.860071,-3.94944 z m 153.027872,1.53531 c 11.91028,7.07912 -7.82531,20.59318 -14.51079,26.43841 -15.96796,2.53186 -7.14871,-20.31294 2.30791,-21.40107 1.11603,0.0907 8.05232,-5.19718 12.20288,-5.03734 z m -81.24052,2.63498 c 15.95477,3.37521 3.97659,22.08768 -6.38308,9.75289 -5.19247,-6.9083 3.53604,-7.40374 6.38308,-9.75289 z m -102.383934,3.16363 c 10.610878,0.0851 13.322822,26.9494 1.450013,13.37662 -1.563359,-3.54994 -7.428156,-11.95912 -1.450013,-13.37662 z m 55.84517,8.84081 c -13.983923,0.19504 -14.871186,27.4216 0.969154,20.21069 7.926926,-3.94372 10.889786,-19.53981 -0.969154,-20.21069 z m -24.895121,4.83743 c -6.310693,-0.66753 -4.049177,10.55281 1.612496,6.27999 1.271182,-2.01888 1.043549,-5.45225 -1.612496,-6.27999 z m 26.227339,2.72438 c 8.361282,11.61061 -14.318621,8.65855 -2.762105,1.53892 0.661394,-0.78029 1.676314,-1.55321 2.762105,-1.53892 z m 161.333306,1.74253 c -11.39921,-1.25672 -19.19819,26.21492 -3.61418,14.6135 3.34829,-3.23627 11.55055,-11.60592 3.61418,-14.6135 z m -1.29605,6.7908 c 2.73111,6.16816 -11.48944,12.45636 -3.34078,2.9801 1.76539,-0.45559 1.27017,-2.95968 3.34078,-2.9801 z m -139.45815,1.89859 c -20.881157,1.84879 -4.861681,29.74423 8.04664,13.18438 3.16367,-5.33266 -2.36979,-12.87391 -8.04664,-13.18438 z m 54.0706,4.86379 c -9.74181,-2.14489 -29.0354,12.03834 -11.58275,16.57986 10.97779,6.55188 34.69519,-15.09379 11.58275,-16.57986 z m -53.409658,0.0522 c 12.403218,6.47377 -12.384689,14.56937 -4.931563,2.84359 1.446237,-1.27312 3.291461,-1.87973 4.931563,-2.84359 z m -50.052759,0.86145 c -18.223637,0.4589 -5.714752,23.89412 6.164315,24.94825 16.578294,6.45051 19.328821,-16.68812 4.54219,-20.9729 -3.368934,-1.80725 -7.028328,-2.9849 -10.706505,-3.97535 z m 100.580427,5.14283 c 15.66006,5.51919 -19.61967,10.30041 -5.39916,2.28359 1.54248,-1.21338 3.36768,-2.30034 5.39916,-2.28359 z m -99.908117,2.6014 c 9.851585,-3.97361 20.260905,16.21726 4.86642,11.23555 -3.804344,-0.49689 -11.051929,-9.27335 -4.86642,-11.23555 z m 164.087657,4.65863 c -10.60503,2.84783 -34.00875,6.88595 -27.47508,22.0628 11.24294,6.15219 32.20723,-6.4576 31.89395,-19.12749 -0.62276,-1.80032 -2.49277,-3.09466 -4.41887,-2.93531 z m -2.22674,5.0586 c 9.08544,6.11562 -19.45963,21.69675 -15.10441,9.52214 2.94307,-5.28481 11.24853,-5.88566 9.85515,-7.78241 1.66709,-0.77916 3.38058,-1.60455 5.24926,-1.73973 z m -117.477579,6.15053 c -11.154133,-0.99276 -16.122122,8.82724 -7.013459,16.40994 8.882782,8.70783 26.042378,15.54997 36.888018,6.94038 9.34007,-10.77747 -6.18399,-23.41368 -17.22819,-21.9461 -4.22904,-0.23804 -8.555059,-0.14397 -12.646369,-1.40422 z m 4.89014,6.61768 c 6.917469,-0.0571 26.170239,5.51152 17.357079,13.79503 -7.71354,3.84587 -36.679266,-6.83173 -17.357079,-13.79503 z m 61.081029,1.89085 c -11.11423,-2.2679 -36.77416,4.8342 -21.66817,18.6842 10.69973,9.28511 44.62647,-0.38579 28.2014,-16.04167 -1.79128,-1.58317 -4.12157,-2.60758 -6.53323,-2.64253 z m -0.9462,6.46782 c 14.66395,-2.13474 7.20313,11.64807 -2.52982,10.71849 -8.45469,5.09828 -21.40037,-11.76402 -7.76344,-9.1867 3.48288,-0.14993 6.7862,-1.58272 10.29326,-1.53179 z" />
  </g>
</svg>
