<?xml version="1.0" encoding="UTF-8" standalone="no"?>
<!--
  Copyright © 2026 Chloe Bolland
  contact chloe@mammoththoughts.com if you wish to use, publish or reproduce this game or any part of it in any way
-->
<!-- Created with Inkscape (http://www.inkscape.org/) -->

<svg
   width="1000"
   height="1000"
   viewBox="0 0 264.58333 264.58333"
   version="1.1"
   id="svg1"
   inkscape:version="1.3.2 (091e20e, 2023-11-25, custom)"
   sodipodi:docname="moon2.svg"
   xmlns:inkscape="http://www.inkscape.org/namespaces/inkscape"
   xmlns:sodipodi="http://sodipodi.sourceforge.net/DTD/sodipodi-0.dtd"
   xmlns="http://www.w3.org/2000/svg"
   xmlns:svg="http://www.w3.org/2000/svg">
  <sodipodi:namedview
     id="namedview1"
     pagecolor="#ffffff"
     bordercolor="#000000"
     borderopacity="0.25"
     inkscape:showpageshadow="2"
     inkscape:pageopacity="0.0"
     inkscape:pagecheckerboard="0"
     inkscape:deskcolor="#d1d1d1"
     inkscape:document-units="mm"
     inkscape:zoom="1.1999463"
     inkscape:cx="403.3514"
     inkscape:cy="578.77592"
     inkscape:window-width="2798"
     inkscape:window-height="1774"
     inkscape:window-x="4104"
     inkscape:window-y="146"
     inkscape:window-maximized="0"
     inkscape:current-layer="layer1" />
  <defs
     id="defs1" />
  <g
     inkscape:label="Layer 1"
     inkscape:groupmode="layer"
     id="layer1"
     sodipodi:insensitive="true">
    <ellipse
       style="display:none;opacity:0.0968922;fill:none;fill-opacity:0.988528;stroke:#000000;stroke-width:1.099"
       id="path1"
       cx="132.31021"
       cy="132.31021"
       rx="132.31021"
       ry="131.84839"
       sodipodi:insensitive="true" />
  </g>
  <g
     inkscape:groupmode="layer"
     id="layer3"
     inkscape:label="Layer 2">
    <path
       id="path2"
       style="opacity:1;fill:#000000;fill-opacity:1;stroke:#000000;stroke-width:1.12802"
       d="m 147.55789,3.3733379 c -7.16045,-1.5157188 -23.26032,3.8824963 -10.22073,10.7979051 10.81888,2.583523 24.32203,8.937289 34.26037,1.725093 C 167.9369,5.7721916 156.51592,4.2982769 147.55789,3.3733379 Z M 104.08386,3.7104686 C 92.721013,4.0546957 78.911963,10.871638 75.078107,22.92697 c 7.24502,13.872656 26.917263,7.420317 37.754893,1.160824 14.28116,-7.123868 5.28691,-23.35310016 -8.74914,-20.3773254 z m 81.28468,9.1668184 c -0.77357,0.151896 0.3677,0.368433 0,0 z m 0.0572,0.168026 c -1.13356,6.84037 15.40316,17.16949 9.09091,6.363177 -2.2682,-2.658464 -5.26192,-6.776026 -9.09091,-6.363177 z M 58.723787,26.925479 c -6.616546,1.742245 0.86848,-0.714475 -6.404591,3.745335 -6.894255,3.133719 -12.018637,16.782834 0.557633,11.332945 5.133179,-1.763208 12.361906,-11.151931 5.846958,-15.07828 z m 139.832543,7.266138 c -7.99948,9.387937 7.24262,30.285328 19.84585,27.871719 8.72825,1.587089 1.62,-15.828209 6.0132,-7.315393 0.0743,-3.037628 -9.14944,-15.663875 -4.99111,-8.256999 -5.56556,-6.011532 -12.63491,-11.43856 -20.86794,-12.299327 z m -53.70515,0.412229 c -7.32148,1.075471 -17.19179,4.173246 -16.86904,13.738482 -3.74102,17.236075 16.14997,27.490876 29.25597,19.029645 13.92742,-5.475611 13.76836,-28.142369 -1.71132,-31.266782 -3.45687,-1.061766 -7.07415,-1.533876 -10.67561,-1.501345 z m -64.874132,7.707001 c -9.044739,0.379715 -6.724722,4.015613 -15.147019,5.705453 -9.536636,8.604666 -4.937876,29.554606 8.162755,31.154733 14.10604,2.264223 27.447556,-16.986619 20.308143,-30.048991 -2.989739,-4.47862 -8.034519,-7.203698 -13.323879,-6.811195 z M 36.498339,54.034782 c -7.435711,1.442122 -6.483089,3.372555 -6.824703,4.805191 -5.812906,9.221485 -15.340226,19.789977 -12.163418,31.544911 11.257089,7.630123 21.651647,-8.311972 26.691731,-17.133382 5.091918,-7.394481 0.78922,-17.714007 -7.70361,-19.21672 z m 198.917301,1.653777 c 3.72157,4.898772 -5.02851,0.666199 1.51477,8.122427 2.02547,3.632971 13.43394,20.235483 7.57778,6.119992 -2.85825,-4.763175 -5.15027,-10.435497 -9.09255,-14.242419 z m 2.85042,24.325272 c -8.75627,5.497915 -4.63865,22.001739 -0.47583,30.525969 4.67943,12.51528 25.30878,6.57506 15.34296,-6.27634 -0.60112,13.96673 -0.20894,-11.632252 -4.43917,-14.794108 -1.94727,-4.399773 -5.37749,-9.081752 -10.42796,-9.455521 z m -58.01673,1.710505 c -9.97241,3.127872 -18.27387,8.497177 -19.82469,18.853504 0.37145,12.60101 11.18969,25.54963 23.65048,24.99874 11.02488,-5.28598 13.51955,-20.59181 11.95781,-31.859251 -2.1432,-6.640653 -9.31762,-11.176127 -15.7836,-11.992993 z m -72.32775,6.00244 C 94.881447,88.719758 82.51813,100.89301 80.449114,113.9754 c -1.838265,14.50604 8.805082,30.8438 23.887306,29.41414 14.47281,4.19857 32.35459,-4.53952 38.57333,-18.89546 6.92025,-16.29291 -7.52188,-34.508088 -23.55812,-35.414055 -3.77985,-0.677158 -7.58747,-1.276622 -11.43005,-1.353249 z M 34.541987,104.46823 c -11.940798,5.00071 -16.621415,23.7315 -9.629709,35.30849 2.987984,11.05223 21.678126,18.71482 23.566828,2.54577 3.608703,-10.12085 5.417508,-26.4232 -4.431772,-32.90742 -2.647579,-2.55411 -5.618147,-5.02419 -9.505347,-4.94684 z m -8.750209,9.19707 c -0.611919,0.62855 -2.815099,2.89163 0,0 z m -1.302847,1.33826 -0.456152,0.46841 z m 186.562119,-6.08888 c -17.34069,11.55241 19.23865,26.95971 11.67379,6.6743 -2.58071,-5.85037 -10.65152,-6.99744 -9.3823,-5.77813 l -2.11079,-0.88213 z M 9.2453213,112.14984 c -10.7689688,1.62895 -1.4909244,29.68878 3.5507657,13.27743 0.627994,-4.28078 3.14405,-12.84129 -3.5507657,-13.27743 z M 257.31199,131.30092 c -6.53626,6.40061 -7.63214,7.67776 -7.47324,18.09833 8.65495,12.68154 16.98998,-15.29713 7.47324,-18.09833 z m -101.42151,6.47247 c -8.37724,-0.20994 -7.96085,14.80948 0.70369,6.50598 2.12411,-1.63832 3.10562,-6.48276 -0.70369,-6.50598 z m 72.50842,1.66457 c -3.07164,-1.06804 -15.61482,8.73523 -8.5492,5.46434 -12.47461,18.82417 26.11118,28.3783 21.69586,4.91702 -1.55639,-5.88032 -7.24483,-10.45468 -13.14666,-10.38136 z m -215.023734,8.63088 c -12.3183165,3.27845 -8.2427966,22.62525 -0.334304,29.9722 11.251391,9.77889 14.015276,-14.94859 9.995234,-22.47373 -1.913197,-4.03005 -4.804431,-7.95523 -9.66093,-7.49847 z m -6.7834429,6.46166 c -0.4006264,0.74852 -1.8329782,3.42465 0,0 z m 171.5611669,1.84882 c -9.89305,-0.98499 -20.72249,10.12737 -20.15869,18.88365 -10.06775,12.25908 3.48681,31.97662 18.56377,31.11388 12.90993,1.99904 29.71981,-8.4888 27.12911,-23.91538 -2.47558,-12.60053 -10.32785,-27.8565 -25.53419,-26.08215 z m 71.72631,5.88142 c -6.87955,2.20041 -6.05843,20.28039 1.99437,10.96378 2.5187,-3.15229 2.97155,-10.20098 -1.99437,-10.96378 z m -0.7764,1.55437 c -0.24485,0.0209 -2.27265,0.1938 0,0 z m -0.94407,0.0805 c -2.70426,-0.22453 -3.01431,0.40798 0,0 z m -1.7767,0.15074 -0.0505,0.004 z M 50.661451,163.00956 c -13.607082,-0.52487 -16.275272,18.77584 -6.035725,26.28514 12.601867,12.26301 26.578265,-4.88239 17.672025,-17.85008 -2.099661,-4.41746 -6.933153,-7.88243 -11.6363,-8.43506 z m 60.668779,3.78029 c -11.954051,-4.11987 -24.832448,12.13877 -23.265293,15.62518 -7.927767,8.66092 -4.163404,25.27686 4.685846,31.99974 9.673797,10.66847 23.802967,13.41653 36.607647,8.13618 9.00192,-5.97359 12.63348,-22.42511 8.94474,-32.87939 -8.48174,-6.67356 -7.75802,-24.11089 -22.87908,-22.70735 l -2.05049,-0.15643 z m 118.27467,13.55763 c -13.30117,0.38187 -18.45286,15.64567 -25.40714,24.84195 -6.52518,13.28523 8.33367,28.64893 19.80555,16.67405 12.9327,-4.97144 17.17452,-21.26213 15.93014,-34.16469 -1.34229,-4.75834 -5.59152,-7.68334 -10.32855,-7.35131 z m -203.372592,8.5374 c -13.28779,6.56605 2.366666,28.337 12.749874,30.33528 9.471919,-7.17881 -2.584984,-23.40127 -9.584926,-28.73931 -8.478457,-3.49054 1.936875,1.07621 -3.164948,-1.59597 z m 35.510104,21.87675 c -12.774525,2.35822 -7.113432,24.27809 3.111834,27.59446 11.738078,9.78966 16.564106,-15.12658 8.185222,-21.96429 -2.887322,-3.38619 -7.103652,-4.94206 -11.297056,-5.63017 z m -2.143811,1.24588 c -2.474415,-0.98223 -1.740316,-0.14518 0,0 z m 115.917889,12.72344 c -10.4928,0.79614 -14.3916,4.20744 -8.90324,0.86304 -11.54651,0.15105 -23.14308,4.3916 -33.14008,10.27095 -12.19991,7.31106 -6.92172,17.64007 3.39137,23.23755 9.78955,6.10304 19.72154,-5.55601 30.30463,-4.45285 10.99484,-1.56515 27.71184,0.21891 23.73044,-16.71443 -0.98646,-7.11051 -7.87479,-14.63822 -15.38312,-13.20426 z m -85.897235,18.788 c -15.944194,4.95852 14.775805,21.2228 11.952505,7.12096 -2.213672,-6.4725 -8.656366,-3.37138 -7.508495,-5.23113 -1.293194,-0.98406 -2.783691,-1.88194 -4.44401,-1.88983 z" />
  </g>
</svg>
