<?xml version="1.0" encoding="UTF-8" standalone="no"?>
<!-- Created with Inkscape (http://www.inkscape.org/) -->

<svg
   width="1000"
   height="1000"
   viewBox="0 0 264.58333 264.58333"
   version="1.1"
   id="svg1"
   inkscape:version="1.3.2 (091e20e, 2023-11-25, custom)"
   sodipodi:docname="moon6.svg"
   xmlns:inkscape="http://www.inkscape.org/namespaces/inkscape"
   xmlns:sodipodi="http://sodipodi.sourceforge.net/DTD/sodipodi-0.dtd"
   xmlns="http://www.w3.org/2000/svg"
   xmlns:svg="http://www.w3.org/2000/svg">
  <sodipodi:namedview
     id="namedview1"
     pagecolor="#ffffff"
     bordercolor="#000000"
     borderopacity="0.25"
     inkscape:showpageshadow="2"
     inkscape:pageopacity="0.0"
     inkscape:pagecheckerboard="0"
     inkscape:deskcolor="#d1d1d1"
     inkscape:document-units="mm"
     inkscape:zoom="1.4075579"
     inkscape:cx="440.47922"
     inkscape:cy="515.78695"
     inkscape:window-width="2798"
     inkscape:window-height="1774"
     inkscape:window-x="4104"
     inkscape:window-y="146"
     inkscape:window-maximized="0"
     inkscape:current-layer="layer3" />
  <defs
     id="defs1" />
  <g
     inkscape:label="Layer 1"
     inkscape:groupmode="layer"
     id="layer1"
     sodipodi:insensitive="true">
    <ellipse
       style="display:none;opacity:0.0968922;fill:none;fill-opacity:0.988528;stroke:#000000;stroke-width:1.099"
       id="path1"
       cx="132.31021"
       cy="132.31021"
       rx="132.31021"
       ry="131.84839"
       sodipodi:insensitive="true" />
  </g>
  <g
     inkscape:groupmode="layer"
     id="layer3"
     inkscape:label="Layer 2">
    <path
       id="path102"
       style="opacity:1;fill:#000000;fill-opacity:1;stroke:none;stroke-width:0.199;stroke-dasharray:none"
       d="M 138.99152 2.7347168 C 133.46201 2.4583854 123.46867 5.08107 134.30188 7.8114095 C 140.98568 7.3529499 153.24907 30.445464 149.61412 14.53193 C 142.43568 2.9926298 171.06183 8.9285461 156.5274 4.5862834 C 148.2897 2.6153553 146.86448 5.5191279 138.99152 2.7347168 z M 142.34842 6.5753092 C 149.91412 7.0206353 137.32481 8.1266282 142.34842 6.5753092 z M 94.946659 10.012309 C 83.64305 12.204885 70.823796 18.61129 62.989954 23.340694 C 56.408678 24.489643 45.002245 37.619729 58.152523 29.711365 C 66.801747 27.967334 78.135361 23.200306 79.111967 36.277372 C 84.196215 43.568582 90.623117 63.098709 94.091931 62.676278 C 97.067411 49.139626 85.488593 30.883724 85.024784 22.792407 C 90.547974 23.512702 107.47479 21.290868 93.604622 20.842655 C 87.521066 18.888411 83.092541 12.779826 92.989673 13.073621 C 94.895101 12.964521 100.1217 10.188142 94.946659 10.012309 z M 171.91715 12.927376 C 181.50572 21.710741 191.86349 30.523761 197.56055 42.626855 C 203.12578 50.083677 202.68651 48.894053 197.32904 49.165474 C 190.34736 49.60307 183.16338 48.950331 193.30706 53.939343 C 206.95643 58.206939 184.2121 61.834399 184.68485 71.337248 C 177.79304 81.762197 169.06578 91.770413 163.72644 102.77512 C 172.48544 98.695357 184.55908 81.854441 188.15492 81.19401 C 188.92362 79.667714 203.21362 64.383581 197.67476 79.327974 C 195.77123 86.877573 199.22794 88.132131 202.37266 81.484432 C 206.54138 85.051643 210.51531 73.214507 213.13996 83.871883 C 219.13642 96.208455 220.15067 110.64911 225.74126 122.85762 C 228.60587 118.71575 228.78829 137.84562 229.04493 125.89619 C 227.82612 108.19925 224.02114 90.688119 221.55392 73.236873 C 227.87275 82.222278 222.36436 75.415726 224.2535 72.981075 C 231.48908 71.541345 243.46967 77.157121 250.85807 81.82498 C 249.78568 75.509704 232.44465 69.063866 229.01341 61.664453 C 229.21976 53.79746 217.54502 57.677793 216.22815 49.453312 C 214.24727 39.9633 203.26333 34.749229 195.70588 27.60555 C 187.98007 22.519014 180.77758 15.983638 171.91715 12.927376 z M 79.016366 16.677535 C 81.895727 16.664646 81.51251 17.889803 80.431783 19.806026 C 74.176865 27.37334 69.974463 17.785746 79.016366 16.677535 z M 100.46519 21.020939 C 100.42331 21.024644 100.3146 21.047657 100.2652 21.078817 C 100.48211 21.032837 100.50706 21.017234 100.46519 21.020939 z M 125.57993 22.584151 C 125.51773 29.381676 133.97645 40.529592 124.77585 40.233203 C 116.25014 45.443184 116.72451 48.387639 123.67514 50.582442 C 123.71654 55.38315 120.38179 65.811409 117.10345 73.79963 C 117.61474 79.650798 110.06755 96.002508 118.60878 84.576233 C 124.55221 75.153427 126.62267 63.450078 133.23011 54.778569 C 134.54336 61.875766 138.26215 65.609375 142.66829 61.716646 C 151.42346 67.708038 156.94591 78.395733 164.27524 85.052173 C 160.66508 73.577201 149.72952 61.279855 143.81499 53.787931 C 149.66935 51.693352 165.24666 42.659839 149.9309 45.523319 C 144.11744 47.973096 136.7803 47.186297 145.71514 42.073918 C 149.91832 36.914825 161.20659 30.801746 161.96634 26.954944 C 150.84807 28.975354 135.03578 50.753697 128.74821 31.400151 C 127.24987 28.613965 126.85993 25.426815 125.57993 22.584151 z M 131.01319 44.708899 C 132.76066 45.387146 132.72085 46.267557 131.01319 44.708899 z M 132.6441 45.626156 C 142.39514 47.74215 124.61271 50.280417 132.6441 45.626156 z M 32.077112 50.632568 C 29.711557 57.052492 27.050383 57.821722 23.729301 62.733122 C 20.600269 70.601939 21.767612 73.342138 17.029451 82.35363 C 21.687225 76.574829 20.018545 78.835231 19.681486 83.973169 C 23.908952 74.573709 20.964525 100.12021 24.479643 88.121236 C 25.514897 94.374275 26.907144 81.418155 30.920076 89.996057 C 37.12177 97.019367 37.08119 93.906838 34.013428 87.240153 C 43.996115 97.992495 45.917726 92.559308 44.930074 89.414181 C 35.063013 81.470755 58.803925 82.337026 46.51499 77.182886 C 46.00731 75.797154 53.981184 72.146886 47.083431 70.023116 C 51.470999 65.791957 57.654266 55.382708 47.998621 59.150911 C 53.343098 48.909124 39.745026 61.049999 42.158667 50.646521 C 36.405897 54.841441 37.209188 54.882334 32.077112 50.632568 z M 211.29563 52.305334 C 217.30576 55.14169 225.07633 70.636799 212.14261 68.621134 C 198.67503 69.115262 205.92044 55.36193 211.29563 52.305334 z M 33.257402 59.637703 C 44.78274 61.959403 41.360703 74.141275 35.239193 80.296391 C 25.159788 85.872233 22.940708 72.479518 27.040727 64.678223 C 26.526202 64.836823 26.780822 64.563535 27.332182 64.206934 C 28.707672 61.830133 30.683354 60.035595 33.257402 59.637703 z M 84.271859 72.750598 C 88.374139 81.599599 90.724639 91.124076 93.975142 100.29672 C 93.187364 103.6293 106.87096 124.1084 95.63654 118.86251 C 96.849031 130.16949 74.047669 117.63258 72.927332 120.4929 C 78.940791 125.69533 87.249357 130.26472 93.36381 133.57944 C 91.18412 135.40064 88.849332 137.10222 86.433484 138.76672 C 85.969181 138.71548 85.911095 138.74377 86.308427 138.85044 C 79.326405 143.65166 71.648128 148.14703 64.824984 154.26294 C 50.046201 163.93947 76.140041 154.15641 80.366671 149.9433 C 85.146887 147.55286 97.733012 139.02181 91.182031 151.11532 C 87.253885 160.46456 102.75694 144.29769 100.814 157.61519 C 104.30078 171.26332 104.90712 185.73093 109.27447 199.03901 C 110.75119 185.85408 109.96784 172.38182 111.9265 159.26315 C 119.46724 159.89886 124.15368 159.09194 130.72122 164.17706 C 136.38751 160.49085 149.39181 174.18682 157.30048 177.20624 C 173.32699 185.7332 157.64469 165.17166 151.51427 162.44538 C 146.80291 155.14885 125.10726 148.29703 142.48536 143.77882 C 146.18621 141.77066 164.69257 130.45689 154.3544 130.65921 C 148.80592 136.56132 120.57025 136.14951 135.26461 125.80421 C 138.69617 120.98174 151.85891 111.56166 147.53001 107.30921 C 139.68524 109.22825 127.61879 125.16311 122.04371 118.98602 C 118.92501 115.76396 121.58518 108.89908 116.28799 113.69177 C 107.30432 121.09015 103.91521 99.988915 97.088647 95.507865 C 92.681105 87.977646 88.014445 80.653422 84.271859 72.750598 z M 65.880733 86.858264 C 63.568751 94.840422 60.895698 87.002165 57.500883 89.79762 C 67.243686 96.390487 55.000622 97.213675 51.94515 101.36074 C 61.639802 98.452066 49.070243 110.46863 59.647005 105.4654 C 68.012414 102.9551 78.44928 107.21875 75.692021 94.150842 C 80.178885 81.691829 66.621179 99.409386 65.880733 86.858264 z M 113.11764 89.040043 C 108.76235 89.923639 104.5003 102.22822 110.36639 92.749377 L 111.70429 90.902462 L 113.11764 89.040043 z M 55.75732 89.487561 C 54.506813 89.50014 54.53423 90.230295 57.37686 89.784184 C 56.732975 89.558708 56.174156 89.483368 55.75732 89.487561 z M 8.7436523 94.838139 C 5.0693134 98.17431 2.6619601 108.63248 2.5734863 111.24902 C 5.4877099 106.50635 2.5313647 122.80212 5.4208577 125.92513 C 8.7302854 137.15475 4.6288912 112.11083 11.986865 124.81719 C 8.2844005 120.48604 19.826496 108.88696 10.219014 108.93495 C 10.615078 105.55068 14.288892 98.041347 9.2087402 100.72408 C 9.0001319 99.241326 11.865217 94.622577 8.7436523 94.838139 z M 244.00629 95.862882 C 244.14664 101.09218 244.66759 110.52553 244.62434 100.02594 L 244.50342 98.036393 L 244.00629 95.862882 z M 68.181885 96.073722 C 70.877686 103.90884 59.60552 96.70578 68.181885 96.073722 z M 244.48172 106.05192 C 243.99452 118.55833 240.82692 130.95966 236.30651 142.58613 C 233.20013 148.97766 228.03336 162.91161 221.33584 154.19627 C 211.59794 153.63677 201.39002 148.26607 193.42747 142.17272 C 189.09882 139.12061 167.54689 127.38689 179.70169 138.98945 C 189.73727 148.46436 201.25853 156.416 213.24538 162.8991 C 204.0642 167.15643 204.22942 173.57078 196.08209 179.76267 C 192.16119 184.15172 175.0968 197.93912 189.20757 189.28199 C 196.44263 182.11564 195.97982 193.9023 202.53802 186.19794 C 207.6374 183.17281 216.51696 176.34981 210.05333 186.52505 C 207.63317 196.31021 221.82572 168.9195 223.91553 180.158 C 224.66781 191.08387 226.72368 202.06745 230.08208 212.48109 C 233.12514 204.65777 231.66172 191.97326 232.71034 185.78763 C 233.89631 193.6435 237.31026 182.22015 240.88039 183.518 C 243.06355 178.11554 238.64822 174.28495 247.56783 177.54937 C 257.27116 183.01104 263.72639 162.85489 250.116 167.40632 C 248.64383 165.12412 240.61398 164.90247 248.84579 160.04294 C 252.6021 156.56743 260.65534 146.34173 251.00328 153.8335 C 242.63939 159.6387 237.56594 156.81818 241.47053 145.95233 C 244.8733 132.94231 247.21328 119.41892 244.48172 106.05192 z M 24.652759 108.058 C 17.543397 123.16539 16.345636 140.43773 11.053072 156.04887 C 9.7740184 148.224 7.7300471 161.15866 4.1501343 152.22017 C 3.2051555 146.69484 4.623672 163.42244 5.6828573 166.88077 C 7.2821618 180.1344 17.163732 189.14144 23.830587 199.99141 C 28.425652 205.45455 39.252732 220.38953 40.65695 220.48215 C 34.798107 212.75807 30.591083 203.44557 26.143107 195.25682 C 24.424868 190.13053 17.801886 183.23616 27.297559 188.39367 C 39.618235 188.93527 52.035897 192.23657 64.657552 190.51189 C 69.841591 191.52891 89.333157 189.88534 74.670894 186.74209 C 58.488482 187.52532 42.587027 183.26198 26.665039 181.08249 C 27.510551 179.3141 32.871666 179.39943 24.583512 177.94779 C 23.942463 168.18781 39.987484 161.58212 43.748234 151.31066 C 46.597713 147.64867 56.839393 133.18507 46.833834 142.85898 C 38.900575 151.45455 29.306552 160.05101 20.369816 166.43429 C 20.688864 158.55582 17.5582 169.52871 19.197795 159.54375 C 9.9403858 166.9888 20.075964 147.42271 18.747176 142.84916 C 20.186167 131.20046 23.388093 119.53916 24.652759 108.058 z M 112.69803 123.23796 C 120.75357 123.63065 123.90455 131.87265 127.03462 137.95902 C 130.95357 151.60407 112.52712 155.6452 105.51036 146.16162 C 99.379329 138.30971 100.31574 122.20706 112.69803 123.23796 z M 3.1171224 148.1646 C 3.0601146 147.9216 3.0809191 148.0999 3.3501831 149.42809 C 3.3089501 149.07189 3.1741302 148.4076 3.1171224 148.1646 z M 7.0750203 159.71428 C 8.3887041 160.3527 6.0584527 160.68772 7.0750203 159.71428 z M 228.12716 161.61494 C 231.06268 163.29979 234.48345 163.01235 237.71314 163.37607 C 249.65321 169.24835 229.63253 176.83403 223.91398 169.84958 C 213.0435 162.46296 237.26981 164.9879 228.12716 161.61494 z M 8.6087769 164.78012 C 13.395168 166.23845 13.761324 172.49125 16.209863 176.16031 C 20.399138 192.46641 4.4497226 170.55399 8.6087769 164.78012 z M 254.14676 178.11006 C 254.0302 179.00675 254.98224 178.92639 254.14676 178.11006 z M 71.668494 200.51128 C 66.339785 207.33933 68.508369 219.56715 62.938277 224.92426 C 64.128219 239.97448 46.737555 212.97901 53.964665 227.39336 C 59.08413 235.18016 45.854606 224.1632 53.734188 233.08241 C 57.056809 241.44364 74.351803 250.19268 77.178235 249.10779 C 72.496721 245.75832 89.715902 252.70931 93.739498 251.10457 C 99.839498 252.14196 118.99014 249.20862 103.32083 247.37611 C 92.178239 246.44712 81.551872 245.05109 93.805127 234.98256 C 100.99503 227.01909 108.7393 216.97801 112.31252 207.99092 C 101.46437 215.11842 96.228923 229.67789 83.440902 233.88185 C 79.404326 227.44515 72.225811 242.59355 73.229639 230.12342 C 72.057739 220.31225 72.929404 210.19861 71.668494 200.51128 z M 189.49334 210.38716 C 185.5059 221.00941 180.56403 231.23513 172.24272 235.55978 C 166.75569 244.39562 154.36872 235.57345 147.06854 229.83403 C 143.48303 226.08941 137.19539 222.13913 142.52205 229.86607 C 145.4307 239.254 160.32587 251.39868 143.3034 253.58607 C 137.42218 255.3749 125.48496 264.06455 140.01626 261.57628 C 150.82355 260.59514 162.66583 262.08784 172.16727 257.47679 C 181.32288 251.54197 193.17844 248.61433 202.48066 240.99097 C 210.11936 236.06666 218.24029 222.48004 219.7008 217.80066 C 213.45026 225.59391 200.70929 235.20548 195.30591 237.41083 C 200.16915 228.93779 196.3218 229.31318 191.16663 235.59389 C 188.44765 239.25528 186.10762 234.65854 181.5946 240.41582 C 183.7028 230.33053 186.98008 220.40978 189.49334 210.38716 z M 62.173983 235.55668 C 67.325939 236.68543 71.395469 241.1289 76.666121 241.27881 C 82.424846 250.19175 60.588583 243.81192 62.173983 235.55668 z M 175.30661 242.3418 C 175.81002 242.35143 176.29068 242.41324 176.74167 242.53352 C 178.60186 242.47777 180.28357 243.69783 181.87882 244.44348 C 180.81927 250.36026 167.62071 253.61527 160.63722 255.4087 C 155.08543 253.77793 167.75557 242.19726 175.30661 242.3418 z M 132.17126 261.14272 C 128.98583 261.20612 126.96404 262.83017 132.17126 261.14272 z " />
  </g>
</svg>
