<?xml version="1.0" encoding="UTF-8" standalone="no"?>
<!--
  Copyright © 2026 Chloe Bolland
  contact chloe@mammoththoughts.com if you wish to use, publish or reproduce this game or any part of it in any way
-->
<!-- Created with Inkscape (http://www.inkscape.org/) -->

<svg
   width="1000"
   height="1000"
   viewBox="0 0 264.58333 264.58333"
   version="1.1"
   id="svg1"
   inkscape:version="1.3.2 (091e20e, 2023-11-25, custom)"
   sodipodi:docname="moon5.svg"
   xmlns:inkscape="http://www.inkscape.org/namespaces/inkscape"
   xmlns:sodipodi="http://sodipodi.sourceforge.net/DTD/sodipodi-0.dtd"
   xmlns="http://www.w3.org/2000/svg"
   xmlns:svg="http://www.w3.org/2000/svg">
  <sodipodi:namedview
     id="namedview1"
     pagecolor="#ffffff"
     bordercolor="#000000"
     borderopacity="0.25"
     inkscape:showpageshadow="2"
     inkscape:pageopacity="0.0"
     inkscape:pagecheckerboard="0"
     inkscape:deskcolor="#d1d1d1"
     inkscape:document-units="mm"
     inkscape:zoom="1.4075579"
     inkscape:cx="440.47922"
     inkscape:cy="515.43173"
     inkscape:window-width="2798"
     inkscape:window-height="1774"
     inkscape:window-x="4104"
     inkscape:window-y="146"
     inkscape:window-maximized="0"
     inkscape:current-layer="layer3" />
  <defs
     id="defs1" />
  <g
     inkscape:label="Layer 1"
     inkscape:groupmode="layer"
     id="layer1"
     sodipodi:insensitive="true">
    <ellipse
       style="display:none;opacity:0.0968922;fill:none;fill-opacity:0.988528;stroke:#000000;stroke-width:1.099"
       id="path1"
       cx="132.31021"
       cy="132.31021"
       rx="132.31021"
       ry="131.84839"
       sodipodi:insensitive="true" />
  </g>
  <g
     inkscape:groupmode="layer"
     id="layer3"
     inkscape:label="Layer 2">
    <path
       style="opacity:1;fill:#000000;fill-opacity:1;stroke:none;stroke-width:0.199;stroke-dasharray:none"
       d="m 159.0315,84.948748 c 0.0243,0.04975 0.0487,0.09949 0,0 z"
       id="path102" />
    <path
       style="opacity:1;fill:#000000;fill-opacity:1;stroke:none;stroke-width:0.199;stroke-dasharray:none"
       d="m 25.868834,60.732563 c -1.682493,0.994347 -3.886884,3.986081 -4.230267,5.994808 -0.238169,1.393245 0.894462,0.247803 0.694522,0.937575 -0.415794,1.434446 -1.325905,2.901812 -1.325905,4.432178 0,0.561173 0.820798,-1.431311 0.820798,-0.965989 0,0.699456 -0.983539,2.474603 -1.262766,3.040021 -1.173915,2.377109 -2.630289,4.690387 -3.409469,7.244908 -0.167836,0.550248 -0.307856,0.904893 -0.126276,0.937574 0.783429,0.141015 2.567038,-2.859172 2.904362,-3.380954 0.207046,-0.320267 0.338707,-1.046403 0.694521,-0.909166 0.202189,0.07799 -0.01108,1.059018 -0.252553,2.017209 -0.106403,0.422215 -0.238714,0.837849 -0.37883,1.250101 -0.133643,0.393208 -0.301841,0.773925 -0.441968,1.164868 -0.07041,0.196427 -0.146856,0.392364 -0.189415,0.596641 -0.02639,0.126661 0.151273,1.053388 0.315692,0.880753 0.629566,-0.661025 0.967316,-1.556989 1.578457,-2.244501 0.165159,-0.185798 0.319652,-0.482994 0.568245,-0.482994 0.09485,0 -0.441968,0.894056 -0.441968,0.965989 0,0.133614 0.520684,0.517419 0.568245,0.767106 0.119755,0.6287 0.028,1.0247 0.06314,1.704684 0.09477,1.833795 0.232532,3.689773 0.441968,5.511813 0.02608,0.226894 0.0081,1.445557 0.315692,1.676271 0.214066,0.160546 0.503978,-0.735796 0.505106,-0.738696 0.372685,-0.958302 1.13649,-2.252027 1.13649,-3.295721 0,-0.09701 0.03378,0.191645 0.06314,0.284112 0.07874,0.248028 0.184656,0.487487 0.252553,0.738698 0.219942,0.813758 0.303644,1.960385 0.631383,1.960385 0.165171,0 0.240015,-1.502442 0.252554,-1.562626 0.14346,-0.688589 0.514421,-0.146558 0.757659,-0.511405 0.732961,-1.099408 0.222482,-2.951547 1.389043,-1.534216 0.509235,0.618702 0.972981,1.245005 1.578459,1.789919 0.434385,0.390936 1.102786,0.649547 1.578457,0.994397 1.407392,1.020331 2.761699,2.225895 3.977714,3.466193 0.07906,0.08064 1.561203,1.684035 1.641596,1.647859 0.04279,-0.01926 -0.0949,-0.540663 -0.189415,-0.965986 -0.430265,-1.936133 -1.047607,-3.715406 -1.831012,-5.540224 -0.181845,-0.423579 -0.584515,-1.283348 -0.505105,-1.363747 0.03052,-0.03091 3.461498,2.884001 3.914574,3.238899 1.254516,0.982676 2.627714,1.79351 3.914576,2.727495 0.346879,0.251761 0.649669,0.56375 1.010211,0.79552 0.817052,0.525229 2.804168,0.945401 3.914576,1.278511 0.03757,0.01127 -0.164129,-0.278368 -0.505105,-0.994396 -0.64281,-1.34986 -0.588206,-1.337025 -1.262766,-2.642262 -0.202777,-0.392358 -0.420923,-0.776578 -0.631383,-1.164868 -0.210463,-0.388289 -0.416891,-0.77879 -0.631384,-1.164867 -0.122277,-0.220091 -0.261564,-0.43066 -0.37883,-0.65346 -0.321543,-0.610913 -0.245996,-0.486958 0.06314,-0.227293 0.03037,0.02551 2.05065,1.776396 1.515319,0.539816 -0.264364,-0.610661 -0.568331,-1.204095 -0.883936,-1.789917 -0.169013,-0.313722 -1.777929,-2.795283 -1.641597,-2.954787 0.08425,-0.09857 0.21382,-0.147069 0.315693,-0.227291 0.495239,-0.389987 0.991283,-0.825574 1.578456,-1.079632 1.7057,-0.738021 3.615645,-0.7014 5.240481,-1.676273 0.671996,-0.403185 1.644943,-0.949145 0.757661,-1.647862 -0.890871,-0.701537 -0.452972,-0.203197 -1.57846,-0.909164 -0.755112,-0.473649 -1.465101,-1.016008 -2.209839,-1.505804 -0.346178,-0.227672 -1.029735,-0.631233 -1.010214,-0.710285 0.06924,-0.280424 1.151014,-0.472924 1.325904,-0.539816 1.289301,-0.493144 3.755305,-1.737209 3.535746,-3.466192 -0.16846,-1.326582 -2.353783,-0.532974 -3.156916,-2.159265 -0.04589,-0.09292 -0.179993,-0.195485 -0.126277,-0.284115 0.772266,-1.274201 1.997776,-2.25925 2.904363,-3.437779 1.361157,-1.769454 2.268167,-3.822361 3.156915,-5.85275 0.06572,-0.150143 1.053489,-1.944983 0.757661,-2.2445 -0.803981,-0.814006 -4.470024,1.600176 -5.871863,1.22169 -0.336299,-0.0908 0.188531,-1.04879 0.189415,-1.051221 0.294206,-0.809041 1.460733,-3.711887 0.820798,-4.460589 -1.026414,-1.200867 -4.198434,1.623269 -5.429895,1.875152 -0.850866,0.174035 -1.08035,-4.078512 -1.136489,-4.432178 -0.05452,-0.343469 0.02658,-0.932794 -0.315693,-0.9944 -0.371213,-0.06682 -2.277245,2.356483 -3.093775,2.642259 -0.365768,0.128016 -0.427652,-0.968978 -0.694524,-0.795517 -0.90801,0.59019 -1.234992,1.764921 -2.020424,2.47179 -0.288758,0.259874 -0.308663,-1.694868 -0.441968,-1.988796 -0.816724,-1.800823 -1.597382,0.191794 -2.27298,-0.56823 -0.04605,-0.05181 -1.44169,-2.199669 -1.704734,-1.704684 -0.72086,1.356487 -1.087474,2.965196 -1.704734,4.375356 -0.01124,0.02566 -0.337069,0.965989 -0.568246,0.965989 -0.07349,0 -0.230002,-0.917284 -0.37883,-1.051221 -0.08591,-0.07732 -0.03543,0.228727 -0.06314,0.340936 -0.05874,0.23789 -0.131683,0.472147 -0.189415,0.710285 -0.17131,0.706636 -0.295518,1.474033 -0.694521,2.102443 -0.399266,0.628827 -0.693086,-0.204949 -1.136491,-0.08523 -0.357584,0.09654 -0.47204,0.751779 -0.757658,0.965985 -0.199112,0.149331 -0.375605,0.130416 -0.568245,0.340937 -1.181226,1.290873 1.60542,-1.695902 0,1.363747 -0.269793,0.514178 -0.926028,0.700815 -1.389043,1.051222"
       id="path103" />
    <path
       style="opacity:1;fill:#000000;fill-opacity:1;stroke:none;stroke-width:0.199;stroke-dasharray:none"
       d="m 6.1151928,100.21268 c -0.1245373,0.32371 -0.7605421,0.36255 -0.9470745,0.71029 -0.7642508,1.42474 -1.0153956,3.26845 -1.4521812,4.80152 -0.4714261,1.65466 -1.0564211,3.29798 -1.4521812,4.972 -0.8336078,3.52605 1.0907808,-1.53193 1.7047345,-1.56263 0.1340789,-0.007 0.049646,0.26419 0.063138,0.39776 0.1235123,1.22274 0.060962,0.67639 -0.1262766,2.15927 -0.2131772,1.68831 -0.6866335,3.57803 -0.4419682,5.28452 0.074418,0.51905 0.1362196,0.20031 0.2525532,0.48299 0.2164292,0.52591 0.3056388,1.09574 0.4419682,1.64786 0.5541222,2.24413 0.6452891,4.59589 1.2627663,6.81874 0.136299,0.49066 1.2448508,4.01407 1.3890426,3.94918 0.051818,-0.0233 -0.00723,-0.1141 0,-0.17046 0.055979,-0.43662 0.1336474,-0.87028 0.189415,-1.30693 0.2543561,-1.99155 0.1894149,-3.99209 0.1894149,-5.9948 0,-0.0785 0.054666,0.16665 0.1262766,0.19887 0.2490502,0.11207 0.4792967,-1.5762 0.5682449,-1.67627 0.041122,-0.0463 1.5727758,1.6573 1.7678728,1.84674 0.7186029,0.69778 1.3508019,1.71309 2.3361179,2.04562 0.105969,0.0358 0.315691,0.22549 0.315691,0.11365 0,-1.95538 -1.199628,-3.85864 -1.199628,-5.82434 0,-0.20132 0.965754,0.18607 1.325905,-0.42617 0.762147,-1.29561 0.692332,-3.14546 1.073351,-4.57423 0.333144,-1.24926 1.242795,-2.61095 0.75766,-3.92078 -0.08695,-0.23477 -0.222027,-0.90404 -0.441969,-1.02281 -0.837917,-0.45246 -3.531447,0.95618 -3.598883,-0.22729 -0.0816,-1.43211 0.63555,-2.94137 1.010213,-4.29012 0.283729,-1.0214 0.500689,-1.87622 0.694521,-2.89796 0.02147,-0.1132 0.383178,-1.4147 0.126277,-1.761506 -0.682356,-0.92115 -2.8412239,2.341026 -2.8412239,0.738696 0,-1.366276 1.6388929,-4.749936 0.631383,-5.739106 -0.08672,-0.0851 -0.817568,-0.14185 -0.820798,-0.14205 -0.3580746,-0.023 -0.769526,0.009 -1.0733515,0.22729 -0.5290132,0.38088 -2.3544871,3.63458 -2.2729793,4.14806 0.056866,0.35825 0.2946455,0.66294 0.4419685,0.994396 z"
       id="path105" />
    <path
       style="opacity:1;fill:#000000;fill-opacity:1;stroke:none;stroke-width:0.199;stroke-dasharray:none"
       d="m 7.0752421,159.71412 c 1.3054161,1.40523 -1.7678728,-0.11104 -1.7678728,0.483 0,0.54257 0.3174743,1.25154 0.3788299,1.78992 0.065316,0.57312 0.077221,1.89185 0.063138,2.5002 -0.032295,1.3951 -0.1801209,2.78994 0.063138,4.17647 0.2381575,1.35746 0.9312016,2.60004 1.389042,3.89237 0.559122,1.5782 1.056561,3.1462 1.704735,4.68788 0.78297,1.86229 1.3053528,3.84112 2.3361168,5.59704 0.506342,0.86257 1.110535,0.86732 1.767873,1.4774 0.84897,0.78792 1.363052,1.79527 2.083564,2.67067 0.359924,0.43729 0.683932,0.65842 1.010213,1.19328 1.971376,3.23155 3.758476,6.6636 5.998139,9.7167 1.067407,1.45508 2.384304,2.73179 3.472607,4.17647 1.721829,2.28566 0.590529,1.08403 2.58867,3.55142 1.19076,1.47041 2.431127,2.88253 3.598884,4.37536 2.377011,3.0387 4.883364,5.96044 7.134629,9.09165 0.619102,0.86109 1.246627,1.69908 2.083565,2.35815 0.209598,0.16505 0.853324,0.61213 0.694521,0.39776 -1.667968,-2.2517 -0.05746,0.0623 -2.967501,-4.37536 -1.12632,-1.71759 -2.484869,-3.28774 -3.535746,-5.05723 -2.313673,-3.89581 -4.012525,-8.11097 -6.187554,-12.07485 -0.560723,-1.02189 -1.301014,-1.88957 -1.957287,-2.84113 -0.339365,-0.49207 -0.947073,-1.34417 -0.947073,-1.96039 0,-0.18706 0.292452,0.19055 0.06314,-0.28412 -0.665684,-1.37792 -1.220989,-2.79653 -1.89415,-4.17647 -0.570508,-1.16951 -1.144296,-2.33049 -1.831011,-3.43778 -1.212013,-1.95431 0.526191,0.93359 -0.568245,-0.96599 -0.06907,-0.11989 -0.32509,-0.39648 -0.189415,-0.36935 0.660526,0.13211 1.17731,0.60103 1.767873,0.88076 0.785706,0.37216 1.569487,0.76334 2.399255,1.02281 1.946412,0.60865 3.95484,-0.49848 5.935001,-0.22729 1.693344,0.2319 3.325751,0.76247 4.987927,1.13645 3.043262,0.68472 6.178307,1.27026 9.281332,1.59104 4.437285,0.45871 8.884565,-0.0214 13.322184,-0.19888 1.441494,-0.0577 3.930737,-0.0147 5.303617,0 3.80119,0.0407 7.632224,0.14913 11.428034,-0.11364 1.072761,-0.0743 4.128889,-0.28604 4.987925,-1.13646 0.304896,-0.30184 -0.700802,-0.49751 -1.073351,-0.71029 -4.224446,-2.41273 -6.303288,-1.85424 -11.049203,-1.67627 -2.467751,0.0925 -3.33918,-0.0195 -6.250694,-0.28411 -5.280978,-0.48008 -10.497106,-1.43331 -15.721439,-2.30133 -3.505096,-0.58236 -7.038757,-0.98021 -10.544098,-1.56262 -2.885821,-0.47948 -5.849508,-0.74329 -8.713086,-1.33534 -0.12329,-0.0255 -2.020424,-0.52511 -2.020424,-0.82393 0,-0.31482 3.512235,-0.88376 3.914574,-0.9944 0.137517,-0.0378 0.490878,-0.11064 0.37883,-0.19888 -0.169632,-0.13358 -0.974632,-0.22043 -1.010214,-0.22729 -0.965295,-0.18616 -4.869407,-0.90668 -5.24048,-1.87515 -0.151477,-0.39535 -0.0244,-0.71289 -0.126275,-1.07964 -0.795313,-2.86304 3.24313,-5.22365 5.17734,-6.79032 1.681406,-1.3619 1.324253,-1.06298 2.967501,-2.92637 1.805889,-2.04782 3.655099,-4.09536 5.366758,-6.2221 3.104224,-3.857 5.879343,-7.95177 8.776223,-11.9612 1.535031,-2.12456 2.944419,-4.30204 4.356545,-6.50621 0.0743,-0.11598 1.513895,-2.22679 1.641594,-2.44338 0.06253,-0.10606 0.122113,-0.38505 0,-0.36935 -2.213626,0.2846 -4.964475,3.85773 -6.313829,5.25611 -3.810423,3.94887 -7.680394,7.77699 -11.806864,11.39297 -1.358128,1.19012 -2.648662,2.45817 -4.040852,3.60825 -1.714267,1.41615 -3.579156,2.63026 -5.303618,4.03442 -1.275046,1.03822 -2.283946,2.32947 -3.535745,3.38095 -0.98225,0.82507 -0.75766,-3.56549 -0.75766,-3.77871 0,-0.23116 -0.04696,-0.899 -0.126277,-0.68187 -0.254193,0.69583 -0.409028,1.4242 -0.631383,2.13085 -0.273409,0.8689 -0.590161,1.84978 -0.631383,0.19888 -4.76e-4,-0.0186 0.104794,-2.82407 0.126276,-3.01161 0.07533,-0.65758 0.42722,-1.30797 0.315692,-1.96039 -0.102589,-0.60013 -1.732861,1.0605 -1.831011,1.13646 -0.525975,0.40709 -1.059897,0.73961 -1.641596,1.05122 -0.240597,0.12889 -0.785503,0.40641 -0.820798,0.36935 -0.226298,-0.23761 0.100445,-0.65015 0.189415,-0.96599 0.577685,-2.05072 1.049561,-4.12853 1.452181,-6.22209 1.233197,-6.41243 2.37564,-12.87027 3.409469,-19.31975 0.935483,-5.83597 0.374303,-3.17803 1.325904,-8.29613 0.683655,-3.67698 1.469584,-7.33105 2.209841,-10.99522 0.461872,-2.28619 0.899789,-4.64461 1.199628,-6.96079 0.04264,-0.32938 0.04638,-0.66269 0.06314,-0.9944 0.0043,-0.0851 0.07065,-0.20801 0,-0.2557 -0.280602,-0.1894 -0.478333,0.49355 -0.631384,0.79552 -0.754304,1.48826 -1.32202,3.06655 -1.894148,4.63106 -2.858754,7.81736 -4.24632,15.93832 -6.313831,23.97922 -0.245482,0.95472 -0.570392,1.8877 -0.820798,2.84114 -0.962502,3.6648 -1.619438,7.39071 -2.462394,11.08045 -0.02462,0.10775 -1.060512,5.0639 -1.578458,4.63105 -0.423348,-0.35378 -1.3919818,-4.00119 -1.7047338,-3.92077 -0.306268,0.0787 -0.373143,3.90152 -1.073351,4.11965 -0.27857,0.0868 -0.931524,-0.69366 -1.010213,-0.7671 -0.3932918,-0.36707 -0.7703527,-0.75539 -1.1996278,-1.07964 -0.1506259,-0.11377 -1.165934,-0.29798 -1.1996279,-0.34094 -0.4069773,-0.51888 -1.7678725,-5.19164 -1.7678725,-5.90957 0,-0.0433 0.0543,0.0712 0.063138,0.11365 0.054762,0.26285 0.081592,0.53077 0.1262766,0.79552 0.2895838,1.71573 0.6157714,3.42291 0.8839361,5.14246 0.1955229,1.25375 0.2836508,2.50994 0.3156916,3.77872 0.029844,1.18179 -0.1738043,2.52065 0.063138,3.69348 0.3519191,1.74195 0.9646301,3.449 1.1364897,5.2277"
       id="path106" />
    <path
       style="opacity:1;fill:#000000;fill-opacity:1;stroke:none;stroke-width:0.199;stroke-dasharray:none"
       d="m 56.245568,236.65825 c 0.211757,1.47882 1.682274,2.28487 2.778085,3.15366 2.766714,2.19355 5.634477,4.30334 8.776227,5.93799 1.49181,0.77618 3.040464,1.43837 4.545957,2.18767 2.297864,1.14368 1.161804,0.69627 3.662021,1.7331 0.683646,0.2835 1.354547,0.63953 2.083564,0.76711 0.107368,0.0188 0.348674,0.0187 0.315693,-0.0852 -0.173532,-0.5466 -2.198013,-1.96835 -2.714947,-2.41497 -0.632228,-0.54623 -0.803265,-0.66135 -0.757661,-0.68187 0.154508,-0.0695 0.34282,0.008 0.505108,0.0568 2.335106,0.70052 4.394501,2.20867 6.755799,2.84114 2.372773,0.63555 1.878891,-0.37225 3.409469,-0.39776 1.49317,-0.0249 2.973966,0.73507 4.419681,1.02281 2.468338,0.49128 4.954808,0.28412 7.45032,0.28412 3.158446,0 6.246846,0.12097 9.344466,-0.62505 0.38864,-0.0936 3.2036,-0.55157 3.97771,-1.33534 0.13897,-0.1407 -0.37462,-0.13026 -0.56824,-0.17047 -1.46736,-0.30475 -1.31015,-0.39211 -3.15692,-0.79552 -4.9848,-1.08888 -10.043045,-1.84973 -15.090049,-2.58543 -0.455419,-0.0664 -5.100648,-0.56416 -5.61931,-0.93758 -0.05856,-0.0422 1.694693,-2.36496 1.957289,-2.69908 2.419686,-3.07876 4.808474,-6.22837 7.38718,-9.17689 2.810058,-3.21304 5.60539,-6.42939 8.0817,-9.91557 2.70632,-3.81001 5.02378,-7.81524 7.32405,-11.87597 1.17464,-2.07364 0.53439,-0.9546 1.38904,-2.55703 0.0816,-0.15294 0.32708,-0.29808 0.25255,-0.45458 -0.0639,-0.1341 -0.30539,-0.002 -0.44197,0.0568 -0.51374,0.21962 -1.7952,1.15759 -2.08356,1.39215 -3.3259,2.70542 -6.03043,6.16251 -8.83936,9.37576 -0.80634,0.9224 -1.577767,1.8754 -2.399257,2.78432 -2.857817,3.162 -9.435401,10.41387 -13.195905,11.76232 -1.266518,0.45415 -3.431157,1.06291 -4.735375,0.0568 -0.665975,-0.51373 -0.427419,-2.16682 -1.262766,-1.73309 -2.000491,1.03869 -2.400676,3.2713 -5.051066,4.09124 -0.162054,0.0501 -0.485581,0.18927 -0.69452,0.17047 -0.218506,-0.0197 -0.245674,-0.78265 -0.252553,-0.82393 -0.272571,-1.63537 -0.430731,-3.29052 -0.568246,-4.94358 -0.622395,-7.48187 -0.855792,-15.02571 -1.01021,-22.53024 -0.0024,-0.11387 0.262027,-7.68257 -0.631384,-7.04603 -1.214583,0.86536 -2.495385,5.97592 -2.841225,7.10285 -1.197494,3.90206 -2.072357,7.88246 -2.904363,11.87596 -0.400166,1.92075 -0.388554,2.2511 -0.883936,4.03442 -0.575865,2.07306 -1.329827,-0.13355 -2.020424,1.36375 -0.713111,1.5461 -0.0343,3.65667 -1.199629,5.00041 -0.565015,0.65151 -2.263529,-0.28408 -2.714948,-0.68188 -1.100082,-0.96942 -1.822487,-2.29478 -2.714948,-3.43778 -1.024659,-1.31231 -2.28284,-2.18666 -3.725158,-2.98319 -0.197782,-0.10923 -0.687877,-0.43041 -1.010214,-0.45459 -0.232867,-0.0175 0.144346,0.44653 0.252553,0.65346 0.232481,0.44461 0.462507,0.89049 0.694521,1.33534 1.065241,2.04243 1.88056,4.00189 2.714947,6.16527 0.06862,0.17793 0.380111,0.53982 0.189416,0.53982 -1.07572,0 -3.290409,-2.78237 -4.545957,-2.44338 -0.318482,0.086 1.173675,2.31603 1.325903,2.52862 0.958869,1.33907 2.110304,2.5257 3.030638,3.89236 1.096756,1.62863 0.869257,1.69474 2.27298,3.12525 0.555308,0.56591 1.287055,0.87202 1.89415,1.36375"
       id="path107" />
    <path
       style="opacity:1;fill:#000000;fill-opacity:1;stroke:none;stroke-width:0.199;stroke-dasharray:none"
       d="m 87.618101,138.94915 c -0.378831,0.0284 -0.768739,-0.0101 -1.136492,0.0852 -1.906706,0.494 -6.802863,3.89627 -8.271118,4.91518 -2.699983,1.87366 -1.902571,1.47827 -4.545957,3.4946 -4.914651,3.74881 -0.999784,0.60083 -4.987928,3.72189 -1.297312,1.01526 -2.541277,2.09821 -3.851436,3.09684 -1.32693,1.01142 -2.738445,2.0007 -4.230267,2.75591 -1.715918,0.86866 -0.286737,0.0384 -1.515319,0.7387 -0.172011,0.098 -0.636645,0.16454 -0.505105,0.31252 0.546314,0.61459 1.653643,0.62505 2.399255,0.62505 4.750149,0 8.897683,-2.98407 12.817078,-5.28452 4.283707,-2.51427 8.852474,-4.44846 13.195905,-6.84715 0.434981,-0.24022 5.515679,-3.47227 5.998139,-2.04562 0.408842,1.20897 -2.136148,7.39458 -2.27298,7.84155 -0.21083,0.6887 -0.565232,2.24248 -0.126275,2.9832 0.112461,0.18977 0.743387,-0.21588 1.325904,-0.68188 2.551525,-2.04116 2.684171,-2.61917 5.998138,-3.01161 0.428911,-0.0508 0.907929,-0.18524 1.199629,0.22729 0.707372,1.0004 1.404678,4.51489 1.704738,5.73911 1.22712,5.00649 2.04928,10.15757 2.9675,15.22851 0.71104,3.9268 1.41897,7.85575 2.08356,11.79073 0.56359,3.33696 1.0681,6.70131 1.83101,10.00081 0.18538,0.80174 0.37638,1.60418 0.63139,2.38656 0.20891,0.64096 0.47115,1.26492 0.75765,1.87515 0.0335,0.0714 0.12174,0.18266 0.18942,0.14206 0.44359,-0.26615 0.47822,-4.76493 0.50511,-5.36976 0.41082,-9.24324 0.82992,-18.48969 1.3259,-27.72952 0.11044,-2.05746 0.18264,-4.14597 0.63138,-6.16527 0.0394,-0.17746 0.01,-0.48445 0.18942,-0.51141 0.25659,-0.0385 0.23987,0.33196 0.63138,0.17047 0.80693,-0.33285 1.15391,-1.03359 2.14671,-0.56823 0.74583,0.3496 1.35173,1.13045 2.1467,1.36375 1.29949,0.38136 2.22783,-0.80996 2.9675,-0.62505 0.44749,0.11187 0.5534,0.79205 1.01021,0.96599 1.06523,0.40559 1.14491,-1.96115 2.02043,-1.44899 2.29039,1.33984 4.41253,4.23806 6.69266,5.08564 2.84319,1.0569 -0.44381,-3.16299 2.71495,-1.9888 2.85314,1.0606 5.47375,3.27106 8.0817,4.82994 4.31758,2.58081 8.82952,4.79489 13.00649,7.61426 2.16711,1.46276 9.01481,6.25557 11.87,4.77311 0.33255,-0.17266 -0.03,-0.76893 -0.18941,-1.10804 -1.55176,-3.30091 -1.58382,-3.53474 -3.66203,-6.27892 -1.03492,-1.36657 -3.01646,-3.66603 -4.23026,-4.82994 -2.39081,-2.29255 -3.2319,-2.69457 -5.61931,-4.77311 -1.09389,-0.95237 -2.12634,-1.97381 -3.22006,-2.92638 -2.4693,-2.15062 -2.73855,-2.15466 -5.17734,-4.26171 -2.51181,-2.17014 -1.9033,-1.91875 -4.54596,-3.97759 -1.21234,-0.94452 -2.55708,-1.88031 -3.85143,-2.7275 -0.21246,-0.13905 -0.63139,-0.17225 -0.63139,-0.42617 0,-0.0821 0.50072,-0.0532 1.07336,-0.2557 0.74353,-0.26289 2.49936,-1.12795 2.9675,-1.39216 1.4877,-0.83965 2.8796,-1.84064 4.35654,-2.69908 2.03344,-1.1819 4.09444,-2.26907 5.99814,-3.66507 1.32752,-0.97349 2.355,-1.90545 3.66202,-2.92638 1.52731,-1.19299 5.33411,-3.18265 5.935,-5.11405 0.4056,-1.30366 -0.30493,-2.27174 -1.70473,-2.04562 -1.47587,0.2384 -2.5886,0.93348 -3.97771,1.53421 -1.84499,0.79788 -3.21871,1.34808 -5.17735,1.93198 -3.4639,1.03265 -6.89719,0.94207 -10.48095,0.90917 -2.34791,-0.0216 -3.00645,-0.0689 -4.92479,-1.36375 -0.45318,-0.30589 -0.99935,-0.53887 -1.32591,-0.9944 -1.20831,-1.68554 0.33468,-2.38143 1.45218,-3.29572 0.59912,-0.49017 1.1925,-0.98798 1.76787,-1.50581 4.19399,-3.77447 8.01717,-8.07178 11.49118,-12.50101 0.90629,-1.15549 1.96885,-2.20663 2.77808,-3.43778 0.52204,-0.79422 1.83962,-2.83543 1.19963,-3.86395 -0.60064,-0.9653 -2.72126,0.38728 -3.22005,0.68187 -1.48395,0.87643 -2.89912,1.86447 -4.35655,2.78432 -1.81819,1.14755 -3.69258,2.20575 -5.49303,3.38095 -3.86886,2.52532 -1.16273,1.08428 -5.1142,3.49461 -0.86208,0.52585 -7.83538,5.0764 -8.71309,3.46619 -0.54571,-1.00114 0.10256,-3.63137 -0.56824,-4.20489 -0.49162,-0.42032 -0.95161,0.0264 -1.45218,-0.19888 -0.81366,-0.36613 -0.32227,-3.9803 -0.37883,-4.85835 -0.0195,-0.30235 -0.033,-0.96137 -0.31569,-0.85234 -0.74505,0.28737 -0.94088,1.85853 -1.38905,2.44338 -0.51978,0.67829 -1.65306,-0.29696 -2.65181,0.34093 -0.78269,0.4999 -2.56393,2.89784 -3.4726,2.67068 -0.99072,-0.24767 -2.57812,-2.94183 -3.03064,-3.60825 -1.27817,-1.88234 -2.37045,-3.85682 -3.59889,-5.76751 -2.5876,-4.02472 -5.788138,-7.645235 -8.334252,-11.705502 -0.566796,-0.903859 -1.040292,-1.863127 -1.57846,-2.784319 -1.145349,-1.960509 -5.289915,-8.669464 -5.55617,-9.120057 -1.57911,-2.672395 -2.884435,-5.478262 -4.293404,-8.239308 -0.29477,-0.577635 -0.583444,-1.158417 -0.883939,-1.733095 -0.120481,-0.230415 -0.249475,-0.456319 -0.378828,-0.681873 -0.03907,-0.06812 -0.161049,-0.26929 -0.126277,-0.19888 1.833533,3.712795 3.135024,7.54406 4.419682,11.478205 1.297022,3.972009 2.591839,7.94113 3.914574,11.904376 3.59238,10.763683 -1.36366,-3.62582 2.904362,8.495013 1.456579,4.13656 2.841837,8.28807 4.230267,12.44419 0.230923,0.69124 1.136485,2.35415 1.136485,3.29572 0,0.2467 -0.4737,-0.14569 -0.69452,-0.2557 -0.648919,-0.32329 -4.064775,-2.35979 -4.545954,-1.2501 -0.532307,1.2276 0.680532,3.35776 -0.315693,4.40377 -0.585494,0.61475 -2.248273,-0.11377 -2.778085,-0.22729 -3.606004,-0.7727 -7.294393,-0.31799 -10.922929,-0.90917 -1.986047,-0.32358 -3.859757,-1.02868 -5.745585,-1.70469 -0.325824,-0.11679 -3.410347,-1.42009 -4.040852,-1.07963 -0.324064,0.17499 2.420086,2.15611 2.462395,2.18768 2.50956,1.87293 4.936985,3.84991 7.576598,5.54022 2.575242,1.6491 5.332166,3.00033 7.955425,4.57424 1.095444,0.65724 3.851437,1.73512 3.851437,1.81833 0,0.11184 -0.215295,0.0644 -0.315691,0.11364 -0.830082,0.40749 -1.666229,0.91471 -2.399255,1.4774 -0.606864,0.46584 -1.108498,1.11779 -1.767874,1.5058 -0.509413,0.29976 -1.161851,0.33727 -1.578456,0.79552 -0.10033,0.11036 -0.252553,0.2202 -0.252553,0.36935 0,0.41584 0.603202,0.99815 0.252553,1.22169 -0.502082,0.32007 -1.178582,-0.17047 -1.767875,-0.2557"
       id="path108" />
    <path
       style="opacity:1;fill:#000000;fill-opacity:1;stroke:none;stroke-width:0.199;stroke-dasharray:none"
       d="m 57.501128,89.797426 c 1.017807,0.750432 1.419431,1.897393 2.146702,2.869552 0.45584,0.609335 0.974791,1.168902 1.452181,1.761505 0.196374,0.243769 0.827056,0.729547 0.568243,1.108046 -0.444687,0.650338 -0.885573,0.526881 -1.578456,0.710285 -0.486783,0.128849 -1.077844,0.353999 -1.515319,0.56823 -1.438227,0.704286 -2.864242,1.496483 -4.230267,2.329733 -0.255331,0.155747 -2.909213,1.855493 -2.714948,2.074033 0.07666,0.0862 0.208029,0.10053 0.315691,0.14206 1.147185,0.44247 2.575676,0.17843 3.788298,0.14205 0.932614,-0.028 1.270067,-0.0805 1.199629,0.0568 -0.338394,0.65984 -4.161681,4.63756 -1.957287,5.05722 0.906328,0.17255 2.239378,-0.3308 2.967501,-0.56822 2.296027,-0.74869 4.462415,-1.68209 6.882074,-1.9888 2.111806,-0.26769 4.265594,-0.11912 6.376969,0.0568 0.185661,0.0155 2.576542,0.5013 2.9675,0.36935 0.446278,-0.15061 0.583973,-1.29235 0.631384,-1.59104 0.613195,-3.863008 0.644802,-7.790372 1.262766,-11.648671 0.07754,-0.484106 0.169942,-0.965716 0.252553,-1.448983 0.04367,-0.255437 0.08261,-0.51167 0.126277,-0.767107 0.01947,-0.113927 0.141664,-0.256132 0.06314,-0.340936 -0.19531,-0.210932 -0.845029,0.26077 -0.883936,0.284112 -1.115071,0.669023 -4.770908,3.564784 -5.745586,3.523014 -1.706837,-0.07315 -2.654871,-3.18897 -3.220053,-4.460589 -0.07399,-0.166478 -0.362365,-1.068782 -0.694521,-1.164868 -0.859361,-0.248592 -1.839817,3.190663 -2.904363,4.091242 -1.359902,1.150442 -2.228879,-3.020486 -3.725161,-2.500204 -1.655151,0.575527 -2.225746,2.696625 -4.419682,1.051224"
       id="path109" />
    <path
       style="opacity:1;fill:#000000;fill-opacity:1;stroke:none;stroke-width:0.199;stroke-dasharray:none"
       d="m 132.1498,261.1307 c 0.3552,0.1918 0.70079,0.40261 1.06562,0.57542 0.70464,0.33376 1.88887,0.0488 2.62854,0.0639 2.99173,0.0612 5.36362,-0.33324 8.31185,-0.73526 1.04398,-0.14235 2.39609,-0.6361 3.48104,-0.60738 1.15624,0.0306 2.19824,0.66783 3.33895,0.83116 2.43969,0.34931 5.02806,0.19026 7.45937,-0.15984 1.2086,-0.17403 2.40362,-0.48762 3.62311,-0.57542 0.87772,-0.0632 1.7688,0.10268 2.62854,-0.15984 2.13399,-0.65161 3.64556,-3.10498 5.89645,-3.38858 1.30294,-0.16417 1.83167,1.25646 3.26791,0.73526 2.45081,-0.88938 3.71207,-3.51802 5.75436,-4.955 0.80424,-0.56588 1.67279,-1.04119 2.5575,-1.47052 1.69047,-0.82035 3.67541,-0.005 5.39915,-0.63935 3.18134,-1.17128 5.74165,-3.7282 8.45395,-5.6583 1.11365,-0.79248 2.48529,-1.18202 3.62312,-1.95003 0.95883,-0.64719 1.87276,-1.39194 2.84166,-2.04593 1.22766,-0.82865 2.6063,-1.5552 3.62311,-2.65333 1.29228,-1.39561 2.1865,-3.10135 3.48104,-4.50745 0.4731,-0.51387 1.69199,-1.65061 2.20229,-2.10987 0.43345,-0.3901 1.16421,-0.8266 1.49187,-1.34265 0.36724,-0.57839 0.39351,-1.33047 0.63937,-1.95003 0.23244,-0.58572 0.72332,-1.3911 1.06563,-1.91807 0.61342,-0.94431 1.35438,-1.83748 1.91812,-2.81316 0.16053,-0.27783 0.27854,-0.57826 0.42625,-0.86313 0.0263,-0.0507 0.14208,-0.0388 0.14208,-0.0959 0,-0.0682 -0.11162,-0.13702 -0.071,-0.19181 0.26947,-0.36377 0.65257,-0.59313 0.8525,-1.02296 0.50912,-1.09459 0.32936,-0.97644 0.92354,-2.04594 0.34329,-0.6179 0.75778,-1.19346 1.13666,-1.79019 0.13259,-0.20881 0.66316,-0.67846 0.42625,-0.60739 -1.08234,0.32469 -3.65787,3.67548 -4.26249,4.31565 -1.75777,1.86111 -3.69802,3.54817 -5.61228,5.24271 -1.86538,1.65127 -3.67739,3.34587 -5.68332,4.82713 -0.77219,0.57021 -1.59267,1.13685 -2.48646,1.50248 -0.32734,0.13391 -0.67297,0.15608 -0.99458,0.31968 -1.2036,0.61225 -1.66796,1.11751 -2.77062,2.10987 -0.45131,0.40616 -3.54808,3.74382 -3.90729,3.42055 -0.0933,-0.0839 0.17828,-1.03132 0.28417,-1.40658 0.66301,-2.34946 1.919,-4.44256 2.69958,-6.7452 0.24325,-0.71755 -0.16216,-0.96556 -0.78146,-0.57542 -0.65119,0.41024 -1.95604,1.69646 -2.34437,2.04594 -1.68308,1.51473 -3.33802,3.0253 -4.90186,4.66729 -0.42393,0.44512 -0.81324,1.02587 -1.34979,1.37461 -0.25077,0.163 0.18234,-1.75263 -0.21313,-1.88609 -0.8223,-0.27752 -1.91291,0.56331 -2.48645,0.991 -0.38217,0.28498 -3.96021,3.33443 -4.33354,3.13284 -0.37206,-0.20091 0.84011,-4.44524 0.99459,-4.955 1.70767,-5.63516 3.2159,-11.26498 4.68874,-16.97488 0.48616,-1.88476 1.06716,-3.74406 1.56291,-5.62632 0.20392,-0.77422 0.91661,-3.05455 0.56833,-2.33365 -0.76839,1.59054 -1.0625,3.36372 -1.77604,4.98697 -1.4569,3.31436 -3.225,6.38862 -5.11498,9.46245 -1.2735,2.07118 -2.64917,4.70555 -4.2625,6.7452 -1.30055,1.64422 0.28349,-2.2443 -1.77604,-0.0959 -1.0801,1.12671 -1.85597,2.51643 -3.05478,3.54841 -0.98668,0.84939 -1.52726,0.002 -1.91812,0.54346 -1.06987,1.4813 -1.72476,4.10601 -3.7652,4.60335 -1.32791,0.32367 -1.67736,-2.10426 -2.69958,-2.49348 -0.67815,-0.25821 -1.66837,0.549 -2.27333,0.73526 -1.45265,0.44725 -2.83232,-0.0715 -4.19145,-0.67133 -1.03473,-0.45666 -1.89294,-1.23839 -2.84167,-1.85413 -2.99986,-1.94696 -5.91751,-3.90086 -8.66706,-6.20174 -1.17914,-0.98672 -5.37252,-4.90785 -6.96207,-5.0509 -0.46517,-0.0419 0.42438,0.83212 0.63937,1.24674 1.62355,3.13103 0.0794,0.28132 1.77604,3.83613 1.1483,2.25724 1.43304,2.77903 2.48645,4.98697 1.26734,2.65631 2.49309,5.29601 4.04937,7.80013 0.35898,0.57762 0.73185,1.14781 1.13666,1.69429 0.10508,0.14184 0.96144,0.73954 1.06563,0.92706 0.35811,0.64459 0.68777,2.16969 0.8525,2.74923 0.0349,0.12295 0.56741,1.60253 0.49729,1.91806 -0.0417,0.18755 -0.37787,0.0707 -0.56834,0.0959 -0.75638,0.10011 -1.47302,0.25791 -2.20228,0.51148 -2.27836,0.79223 -4.35499,2.03277 -6.53582,3.03694 -1.22261,0.56295 -2.51656,0.97107 -3.7652,1.47051 -0.53649,0.21459 0,0.0281 0,0.28772 0,0.47949 -0.79162,1.01169 -1.06563,1.21477 -1.3451,0.99693 -3.14156,0.90216 -4.47561,1.91806 -0.2345,0.17857 -0.37279,0.41526 -0.4973,0.63936 -0.16765,0.30177 -1.08827,0.59913 -1.34978,1.11887 -0.74355,1.47775 1.80789,0.84753 -1.705,1.59839 -0.39533,0.0845 -0.97971,-0.0606 -1.42083,-0.15984"
       id="path111" />
    <path
       style="opacity:1;fill:#000000;fill-opacity:1;stroke:none;stroke-width:0.199;stroke-dasharray:none"
       d="m 205.35964,170.63513 c -0.37889,0.30903 -0.78361,0.58883 -1.13666,0.92707 -3.16992,3.03689 -6.18791,6.2716 -9.30644,9.36655 -3.02363,3.00075 -6.19066,5.88504 -9.30645,8.79113 -0.91263,0.85121 -1.75664,1.63627 -2.69958,2.42955 -0.23647,0.19894 -0.94801,0.65589 -0.63937,0.67132 1.02558,0.0513 2.70833,-1.09102 3.48104,-1.50248 2.33097,-1.24121 4.56277,-2.86694 6.96207,-3.964 0.73049,-0.33402 1.49215,-0.61222 2.27333,-0.7992 2.95008,-0.70611 0.28457,3.66016 2.20229,2.94104 1.25521,-0.47069 2.33917,-1.52069 3.48103,-2.20578 2.47611,-1.48562 5.02104,-2.8252 7.45936,-4.37958 1.08478,-0.69153 3.2555,-2.43549 4.47562,-2.74923 0.33683,-0.0866 0.1158,0.4747 -0.42625,1.69429 -0.93916,2.11306 -2.02817,4.06658 -2.69958,6.29765 -0.3872,1.28665 -0.80325,2.69475 0.63937,0.79919 2.40775,-3.16368 4.9061,-6.0369 7.81457,-8.75916 0.45061,-0.42176 2.06161,-1.8984 2.69958,-2.30168 0.35589,-0.22496 1.96857,-1.5692 2.5575,-0.57541 0.92339,1.55817 0.72371,4.07963 0.8525,5.81812 0.12496,1.68694 0.32043,3.51411 0.56833,5.17878 0.92824,6.23331 0.16015,0.73689 1.13666,6.00993 0.7449,4.02232 1.44475,8.04027 2.41541,12.01988 0.13968,0.57265 1.56243,6.16067 1.91813,6.13781 0.70089,-0.0451 1.16678,-3.82476 1.2077,-4.18778 0.71599,-6.35167 1.0579,-12.64047 1.13667,-19.02081 0.009,-0.76717 0,-1.53445 0,-2.30168 0,-0.43689 -0.0177,-0.87414 0,-1.31068 0.006,-0.15092 -0.0667,-0.50953 0.071,-0.44754 0.18652,0.0839 0.15746,0.3786 0.21312,0.57542 0.17325,0.61255 0.66447,3.70432 1.34979,3.67629 0.68363,-0.028 2.14814,-3.92345 2.91271,-4.89107 1.43455,-1.81555 1.16061,1.0359 2.20228,0.67133 0.62593,-0.21907 1.02324,-1.14803 1.34979,-1.66233 0.3487,-0.54918 0.18495,0.26611 0.35521,-0.0639 0.57394,-1.11254 0.93212,-1.7143 1.27875,-2.84513 0.59791,-1.95064 -1.84356,-3.20471 -1.34979,-4.31565 0.0895,-0.20144 4.62423,0.89864 5.25707,0.991 1.99327,0.2909 4.02313,0.49572 6.03853,0.54345 0.22225,0.005 1.89109,0.0892 1.98917,0.15984 0.36046,0.25953 0.11111,0.2 0.28416,0.51149 0.0539,0.097 0.31942,0.28762 0.21313,0.25574 -0.45793,-0.13738 -0.65317,-0.30774 -0.42625,-0.76723 0.45918,-0.92981 1.32103,-1.48824 1.84708,-2.33364 0.8503,-1.36652 2.55749,-5.1709 2.55749,-6.77717 0,-0.13479 -0.2187,-0.16988 -0.28416,-0.2877 -0.89695,-1.61446 -3.24976,-0.70306 -4.75979,-0.63936 -0.25626,0.0108 -3.40999,-0.0847 -3.40999,-0.60739 0,-0.37824 1.64986,-0.72619 -0.28416,-1.34264 -0.95535,-0.30451 -2.00275,-0.18028 -2.98375,-0.31968 -0.85004,-0.12079 -0.85033,-0.60229 -1.49187,-0.92707 -0.26528,-0.13429 -0.63725,0.0219 -0.92354,-0.0639 -0.0981,-0.0294 0.15181,-0.18831 0.85249,-0.95903 0.43158,-0.47473 0.84969,-0.96155 1.27875,-1.43855 1.45049,-1.61256 3.11925,-3.00813 4.54666,-4.63533 1.2075,-1.3765 2.16469,-2.8914 3.26791,-4.34761 0.48335,-0.7408 1.09995,-1.37703 1.63396,-2.0779 0.1017,-0.13349 0.18427,-0.28074 0.28416,-0.41558 0.019,-0.0256 0.1027,-0.0604 0.071,-0.0639 -0.71919,-0.0809 -1.9375,0.83213 -2.41541,1.11887 -1.99281,1.19566 -3.88157,2.64564 -5.96748,3.67629 -0.90001,0.4447 -2.25518,1.09235 -3.33896,0.76723 -0.46091,-0.13827 -0.0462,-0.76723 -0.14208,-0.76723 -0.31783,0 -3.68621,2.82232 -3.83624,2.04594 -0.19416,-1.00472 0.2757,-2.05509 0.21312,-3.06891 -0.0658,-1.06554 -0.77398,-1.61685 -0.63937,-2.81316 0.0544,-0.48311 0.65967,-3.28385 0.71041,-3.51645 0.6717,-3.07924 1.44153,-6.13264 2.13125,-9.20671 1.53124,-6.82477 2.72305,-13.63365 2.62853,-20.65117 -0.0285,-2.11397 -0.0366,-3.26406 -0.28416,-5.30664 -0.20374,-1.68084 -0.58477,-3.33727 -0.78146,-5.01894 -0.27332,-2.33681 -0.34528,-4.71489 -0.42625,-7.06487 -0.0499,-1.447069 -0.0791,-2.901817 -0.14208,-4.347612 -0.0116,-0.267195 -0.31494,-0.689446 -0.071,-0.799195 0.18339,-0.08252 0.39266,1.043845 0.49729,2.173809 0.354,3.823148 -0.0253,7.780198 -0.21312,11.604288 -0.142,2.89135 -0.34287,5.72791 -0.92355,8.56736 -0.49285,2.40999 -1.2928,4.72267 -1.91812,7.09684 -0.51657,1.96131 -0.74122,3.97606 -1.2077,5.946 -0.45124,1.90555 -1.09586,3.86579 -1.705,5.72223 -0.42392,1.29195 -1.00076,2.91092 -1.56291,4.18777 -0.84629,1.92223 -1.92341,3.72729 -2.48646,5.75419 -0.0363,0.13053 -0.22487,0.22897 -0.28416,0.31968 -1.21222,1.85463 -2.37611,3.7768 -3.55208,5.65829 -0.18078,0.28925 -2.02436,3.70005 -2.84166,4.25171 -0.0404,0.0273 -0.032,-0.0986 -0.071,-0.12787 -0.14873,-0.11154 -0.25558,-0.0679 -0.42625,0.032 -0.25601,0.14976 -0.71662,0.69171 -1.06563,0.63936 -0.14648,-0.022 -1.98932,-1.79455 -2.48645,-2.07791 -0.39353,-0.2243 -1.19369,-0.11841 -1.34979,-0.22377 -0.33234,-0.22432 0.0426,-1.16366 -0.42625,-1.37461 -0.42121,-0.18954 -0.87939,0.51148 -1.27875,0.51148 -0.11393,0 -0.22027,-0.0959 -0.3552,-0.0959 -0.97846,0 -1.61226,0.46027 -2.62854,0.0639 -1.20741,-0.47088 -2.26934,-1.25136 -3.48104,-1.72626 -3.64194,-1.42736 -7.556,-2.21844 -11.08248,-3.964 -2.84797,-1.4097 -5.02906,-3.62044 -7.67248,-5.33861 -2.71118,-1.76221 -5.56552,-3.3383 -8.3829,-4.92304 -2.97927,-1.67578 -6.01841,-3.35164 -9.2354,-4.53941 -1.03596,-0.3825 -1.26984,-0.47619 -2.20229,-0.63936 -0.20994,-0.0367 -0.63938,-0.21312 -0.63938,0 0,0.45822 1.2003,1.78604 1.34979,1.982 2.21553,2.90418 4.28786,4.55004 7.10416,6.80913 0.86059,0.69032 3.2001,2.71503 3.83624,3.32465 2.08021,1.99347 1.10333,1.50324 3.40999,3.19677 2.13968,1.57093 2.07827,1.29218 4.12041,2.62136 2.03925,1.32729 3.83772,2.92239 5.82541,4.31564 2.40784,1.68776 5.15678,3.15425 7.81457,4.41155 1.59776,0.75585 3.83144,1.20614 4.75978,2.8771 0.2103,0.37852 -3.01247,2.07593 -3.40999,2.26971 -1.16303,0.56696 -2.49732,1.07788 -3.41,2.04593 -0.31586,0.33503 -0.61184,0.69435 -0.8525,1.08691 -0.10101,0.16477 -0.23895,0.70619 -0.3552,0.86313 -0.0359,0.0485 -0.35029,0.0306 -0.35521,0.032 -0.19573,0.056 -0.37889,0.14918 -0.56833,0.22377"
       id="path112" />
    <path
       style="opacity:1;fill:#000000;fill-opacity:1;stroke:none;stroke-width:0.199;stroke-dasharray:none"
       d="m 190.08263,62.943312 c -1.02872,1.423252 -2.16101,2.764303 -3.05479,4.283678 -0.46402,0.788816 -0.80318,1.647637 -1.27875,2.42955 -1.49773,2.462538 -2.60721,3.880342 -4.19145,6.137807 -3.54044,5.044979 -7.20289,9.999808 -10.72727,15.05681 -2.89444,4.153124 -0.25915,0.389398 -3.12583,4.986974 -1.04505,1.67604 -2.25439,3.22313 -3.26791,4.923029 -0.0349,0.0586 -1.38827,1.87532 -0.71041,2.01396 1.14061,0.23331 3.15942,-1.83443 3.83624,-2.39758 0.73142,-0.608569 4.02197,-3.437329 4.54666,-3.932029 4.70622,-4.43716 8.95924,-9.319375 13.63997,-13.778096 0.66897,-0.637236 1.35663,-1.255337 2.06021,-1.854132 0.38648,-0.328919 0.78915,-0.640064 1.20771,-0.927063 0.0824,-0.05654 0.32313,-0.187967 0.28416,-0.0959 -0.0419,0.09887 -2.5882,3.047235 -1.27875,1.790192 2.10367,-2.019459 3.67114,-4.482894 5.75437,-6.521421 0.72328,-0.707763 3.03415,-3.125073 4.54666,-3.004968 0.86592,0.06876 0.23479,2.290334 0.21312,2.397583 -0.64456,3.190462 -1.27521,6.541029 -1.13667,9.814097 0.28326,6.69169 3.38948,-2.353678 4.97291,-2.781195 1.36171,-0.367649 1.13879,2.519498 2.84166,1.086906 0.61914,-0.520872 3.20887,-4.16515 3.41,-4.187777 0.73169,-0.08231 1.88474,1.306441 2.20229,1.694291 1.88758,2.305481 2.93139,5.179436 4.04936,7.896034 0.5368,1.304372 1.24826,2.792029 1.705,4.123839 0.25619,0.74702 1.33153,4.35021 1.56291,5.37058 0.56006,2.46975 0.8699,4.970969 1.56292,7.416519 0.56954,2.00981 0.7104,2.00383 1.34979,3.83613 0.98873,2.83343 1.75595,5.75537 2.48645,8.66326 0.44128,1.75656 0.93072,3.50613 1.63396,5.17877 0.53391,1.26991 2.16568,-1.62079 2.20228,-0.86313 0.0571,1.18294 -0.0789,2.36802 0.071,3.54842 0.16203,1.276 0.64148,2.36223 0.99458,3.58039 0.0722,0.2491 0.25776,1.42667 0.56833,1.56642 0.27634,0.12435 0.16781,-1.49116 0.14208,-2.23774 -0.10372,-3.01058 -0.4028,-6.04481 -0.63937,-9.04687 -0.24259,-3.07834 -0.56744,-6.22562 -1.06562,-9.27065 -0.36303,-2.21895 -0.97726,-4.3962 -1.34979,-6.61732 -0.40854,-2.43582 -0.57879,-4.870939 -0.8525,-7.320619 -0.46838,-4.19185 -0.27961,-2.08525 -0.99458,-5.945997 -0.8112,-4.380354 -1.37453,-8.80269 -2.27333,-13.170712 -0.0389,-0.189124 -0.92567,-3.773154 -0.42625,-3.548422 0.55737,0.250811 2.54588,3.51447 2.9127,4.219744 0.14739,0.283369 0.41683,1.164701 0.63938,1.214773 0.21299,0.04792 -0.0816,-0.429569 -0.14209,-0.639355 -0.11395,-0.395576 -0.21382,-0.796184 -0.3552,-1.182806 -0.50256,-1.374259 -1.24312,-2.684786 -1.56292,-4.123838 -0.0876,-0.394301 0.86208,0.344614 1.20771,0.255741 0.31773,-0.0817 0.60123,-1.607757 0.92354,-1.438548 0.77113,0.404834 0.54068,0.543999 1.34979,0.703289 0.997,0.196281 1.35244,-0.423161 2.48645,0.06394 0.98294,0.422206 1.86584,1.031409 2.84166,1.470514 1.08685,0.489066 2.27206,0.719452 3.40999,1.054936 2.29005,0.675148 4.54519,1.451242 6.81999,2.173809 1.96449,0.623993 3.60992,1.248285 5.39916,2.365613 0.81255,0.507415 1.47664,1.226256 2.27333,1.758225 0.27896,0.186269 1.87416,1.350243 2.34437,0.927066 0.21474,-0.193265 -3.4273,-3.481182 -3.62312,-3.676293 -2.53948,-2.530338 -5.27805,-5.036302 -8.16978,-7.160773 -1.71121,-1.257187 -3.70358,-1.497481 -5.47019,-2.557421 -0.17067,-0.102399 -2.047,-1.344903 -2.13125,-1.534453 -0.74771,-1.682292 -1.55336,-3.639362 -2.62854,-5.178774 -0.74833,-1.071446 -1.06562,0.509561 -1.06562,-0.287711 0,-0.672058 0.10701,-1.148498 -0.35521,-1.726258 -0.3885,-0.485616 -0.94666,0.318185 -0.8525,0.06394 0.14178,-0.382768 0.99896,-1.114283 0.56834,-1.566421 -0.19176,-0.201332 -0.63654,-0.253188 -0.8525,-0.447548 -1.11704,-1.005303 -1.44226,-2.581148 -3.12583,-2.973001 -1.37555,-0.320162 -4.0449,1.105902 -5.11499,0.383614 -0.50607,-0.341588 -0.88658,-2.619137 -0.99458,-2.877098 -0.3266,-0.780044 -1.15988,-0.873196 -1.63396,-1.470517 -0.73193,-0.922205 -0.11412,-2.273834 -0.8525,-3.196775 -0.34318,-0.428974 -1.41006,-0.0523 -1.49187,-0.383612 -0.47145,-1.909315 0.20918,-2.711526 -0.56833,-5.082873 -0.72128,-2.199846 -3.80172,-2.872605 -5.4702,-4.059904 -1.8086,-1.287015 -3.09471,-2.918105 -4.75978,-4.347612 -1.7964,-1.542254 -3.70804,-2.945202 -5.54124,-4.443518 -1.53535,-1.254874 -2.98242,-2.61746 -4.54666,-3.836131 -1.93929,-1.510866 -1.99447,-1.216361 -4.04937,-2.52545 -3.55725,-2.266186 -6.84805,-4.849006 -10.37206,-7.160777 -1.52384,-0.999646 -3.2782,-1.685436 -4.97291,-2.333645 -0.39764,-0.152094 -0.80327,-0.282589 -1.20771,-0.415581 -0.30344,-0.09978 -1.11367,-0.512421 -0.92354,-0.255742 0.45697,0.616887 1.17462,1.23828 1.705,1.758226 1.52267,1.492719 2.30594,2.158155 4.26249,3.804163 1.86095,1.565574 3.97217,2.948869 5.61229,4.763193 1.75932,1.946196 3.30094,4.081082 5.04394,6.041906 1.57817,1.775386 1.64142,1.54409 3.26791,3.644323 2.60502,3.363765 4.31797,7.390321 6.60687,10.964937 1.10188,1.720829 2.38133,3.297819 3.69416,4.859096 0.19059,0.226664 1.06562,1.055172 1.06562,1.31068 0,0.0131 -0.51055,-0.165161 -1.63396,-0.703292 -1.14381,-0.547909 -2.31411,-1.070758 -3.55207,-1.374613 -2.01884,-0.495517 -0.1586,1.062866 -0.63938,1.086903 -2.06725,0.103362 -4.10773,0.483915 -6.18061,0.543454 -1.68419,0.04837 -1.87272,-0.006 -3.55208,-0.127873 -0.18924,-0.01373 -0.56833,-0.22171 -0.56833,-0.03197 0,0.287433 1.55932,1.276228 1.56292,1.27871 2.06261,1.423162 4.16987,2.808946 6.32269,4.091871 1.44699,0.862304 3.01167,1.521331 4.40458,2.461517 0.20861,0.140806 -0.46935,0.183425 -0.71042,0.255743 -0.91461,0.274376 -1.7596,0.551733 -2.62854,0.959033 -0.89176,0.418005 -2.12737,0.963787 -2.84166,1.694288 -0.4199,0.42944 -0.52619,1.12652 -0.99458,1.502484 -0.61344,0.492398 -1.37347,0.767229 -2.0602,1.15084 z"
       id="path113" />
    <path
       style="opacity:1;fill:#000000;fill-opacity:1;stroke:none;stroke-width:0.199;stroke-dasharray:none"
       d="m 124.77603,40.23341 c -1.37344,0.326062 -1.74199,1.317638 -2.62854,2.301676 -1.14941,1.275818 -2.49927,2.422713 -3.7652,3.580389 -0.0883,0.08078 -1.54196,1.078844 -1.2077,1.630355 0.82421,1.359903 6.68348,0.630595 6.81998,1.982002 0.11089,1.097751 -2.34437,2.491665 -2.34437,2.621354 0,1.188653 2.34253,0.448831 2.41542,1.662324 0.0961,1.60061 -1.37967,2.755794 -1.705,4.219741 -0.0234,0.105471 0.1987,0.197308 0.21312,0.255741 0.14914,0.603975 -0.0382,1.257126 -0.21312,1.854132 -0.58565,1.998466 -1.87893,3.789132 -2.69958,5.690258 -1.06238,2.461096 -1.96332,5.155208 -2.5575,7.768162 -0.4544,1.998286 -0.87357,4.009564 -1.13666,6.041905 -0.0883,0.681739 -0.10226,1.691987 0,2.397581 0.0581,0.400954 0.28857,0.694523 0.21313,1.118872 -0.48957,2.753712 -2.95139,5.458161 -4.47562,7.544392 -0.8969,1.22759 -1.77108,2.47242 -2.69958,3.67629 -0.46942,0.60863 -0.99326,1.17327 -1.49187,1.75822 -0.16445,0.19293 -0.45755,0.8258 -0.49729,0.57542 -0.0579,-0.36483 0.2653,-0.69047 0.42624,-1.02296 0.36039,-0.74451 0.73497,-1.48274 1.13667,-2.20578 0.96337,-1.73401 1.95095,-3.446175 3.69416,-4.507453 0.68808,-0.418906 1.31106,0.139809 2.06021,-0.159837 1.05584,-0.422328 1.93094,-1.334111 2.62853,-2.173809 2.23701,-2.692725 4.36537,-6.909935 5.75437,-10.133774 0.48853,-1.133872 0.96042,-2.274972 1.42083,-3.420549 1.03819,-2.583191 1.85928,-5.251418 2.98374,-7.800131 0.71355,-1.617324 1.73193,-3.023497 2.5575,-4.571389 0.65546,-1.228952 1.34979,-2.056014 1.34979,-3.324646 0,-0.05194 0.0919,0.07747 0.14208,0.06394 0.08,-0.02159 0.15808,-0.06595 0.21312,-0.127873 0.26161,-0.294294 1.76938,-2.77545 1.84708,-2.749225 0.11391,0.03844 1.0487,2.640399 1.06563,2.685291 0.62358,1.654077 1.63452,5.038876 3.05478,6.23371 2.24899,1.892028 3.04517,-2.946617 4.04937,-2.877097 0.65625,0.04543 1.89825,1.650994 2.48646,2.077905 1.09396,0.793983 2.35192,1.388403 3.33895,2.333643 1.84435,1.766271 3.13174,3.924507 4.83082,5.818132 1.44421,1.609574 2.9753,3.140345 4.40458,4.763193 2.2539,2.559159 3.84711,5.607296 6.03853,8.215712 0.43946,0.523089 1.73394,1.704864 1.77604,1.022969 0.10081,-1.633212 -1.01547,-3.119411 -1.705,-4.603355 -1.59553,-3.43376 -3.59971,-6.458469 -5.75437,-9.558359 -2.2579,-3.248427 -2.68382,-3.856051 -4.83082,-6.873065 -1.55531,-2.185549 -2.9838,-4.530895 -4.90187,-6.425518 -0.47597,-0.470156 -0.99156,-0.898469 -1.49187,-1.342646 -0.95455,-0.847461 -1.04514,-0.840092 -1.77604,-1.662322 -0.40776,-0.458721 -0.76405,-0.942729 -0.71041,-0.990999 0.18232,-0.164084 0.46602,0.170857 0.71041,0.191804 0.80855,0.0693 1.43822,-0.01172 2.20229,-0.383611 2.46367,-1.199118 4.39889,-3.155239 6.60686,-4.731226 1.13354,-0.809086 2.19895,-1.409169 3.48104,-1.950035 0.53203,-0.224444 1.08828,-0.386538 1.63395,-0.575419 0.0982,-0.03397 0.37557,-0.07852 0.28417,-0.12787 -3.77358,-2.037673 -9.00708,-0.226941 -12.85852,0.575418 -0.39212,0.08169 -3.91469,1.151052 -4.26249,0.15984 -0.3426,-0.97637 1.70612,-2.008359 2.0602,-2.301679 0.6025,-0.499097 1.18428,-1.02268 1.77604,-1.534451 0.2706,-0.234018 5.50068,-4.758655 5.68333,-4.923033 0.84122,-0.757084 3.51213,-3.371501 4.40457,-4.091871 1.52516,-1.231101 3.1207,-2.372424 4.68874,-3.54842 0.22672,-0.170032 4.07124,-2.708643 3.69416,-3.132841 -0.45366,-0.510352 -2.00967,-0.192487 -2.55749,-0.03197 -7.20496,2.111158 -12.47015,7.818123 -18.96809,11.252647 -1.47353,0.778843 -3.47904,1.904931 -5.25708,1.822162 -1.10074,-0.05124 -1.63975,-1.368306 -2.41541,-1.950032 -0.58295,-0.437203 -1.36639,-0.302647 -1.91812,-0.799196 -1.26953,-1.142537 -1.85941,-3.086412 -2.5575,-4.571386 -1.20521,-2.563741 -0.3981,-0.489788 -1.49187,-3.196775 -1.14793,-2.841045 -0.59573,-1.413243 -1.34979,-4.059904 -0.40268,-1.413365 -0.44175,-1.575152 -0.8525,-2.653324 -0.0597,-0.156821 -0.23925,-0.577273 -0.28416,-0.415581 -0.14652,0.52746 1.15467,5.251717 1.27875,5.754196 0.82135,3.326381 1.66516,6.647817 2.48645,9.973936 0.0548,0.222063 0.0925,0.448041 0.14208,0.671322 0.0214,0.09643 0.12224,0.203232 0.071,0.287711 -0.20089,0.331467 -2.68179,-1.034518 -3.62311,-0.799192 -0.79129,0.197813 -0.89731,1.08001 -1.13667,1.726258 z"
       id="path114" />
    <path
       style="opacity:1;fill:#000000;fill-opacity:1;stroke:none;stroke-width:0.199;stroke-dasharray:none"
       d="m 65.725957,24.377554 c -0.338886,0.162328 0.92497,-0.732685 0.710414,-1.118871 -0.241178,-0.434108 -1.633593,-0.249974 -1.84708,-0.223774 -4.337875,0.53236 -8.099231,3.42275 -11.011437,6.457486 -0.311898,0.325019 -2.953498,3.055083 -2.770621,3.164805 0.403932,0.242351 1.643287,-0.452432 1.704999,-0.479515 2.732056,-1.199036 4.858014,-2.249757 7.601442,-3.196775 1.593046,-0.549912 3.468391,-1.144156 5.186034,-1.086903 0.850572,0.02835 1.238187,0.770739 2.060205,0.799193 1.426366,0.04937 2.683679,-1.13365 3.978325,-1.566418 0.866563,-0.289672 1.520015,-0.337125 2.415413,-0.15984 0.408784,0.02744 0.679267,0.434215 1.065623,0.511484 0.774861,0.154967 1.338961,-0.191807 0.994582,-0.191807 -0.245087,0 -0.03534,0.492734 0,0.735259 0.178233,1.223097 0.524539,1.887455 0.994582,3.100871 1.817555,4.692026 4.371813,9.031042 6.677903,13.49039 2.501598,4.837403 4.978686,9.688883 7.317279,14.609259 1.530538,3.220244 2.770336,6.579519 2.912703,5.946003 0.723829,-3.22094 0.475813,-6.931168 0.213125,-10.165744 -0.617482,-7.603218 -2.410034,-14.992998 -5.541241,-21.961843 -1.005427,-2.237687 -2.318919,-4.292626 -3.267911,-6.553387 -0.290211,-0.691364 -0.606033,-1.959887 -1.136663,-2.589389 -0.413747,-0.490839 -1.11905,-0.851823 -1.065625,-0.895097 0.425426,-0.344586 3.771617,-0.16346 4.262493,-0.159839 3.262297,0.02407 6.515105,0.119133 9.73269,-0.543452 0.502764,-0.103531 2.10304,-0.683966 2.628537,-0.895096 0.265052,-0.106491 0.517662,-0.242074 0.781462,-0.351646 0.0448,-0.01862 0.18807,-0.04749 0.14208,-0.03197 -4.959771,1.673872 -8.921515,-0.729567 -12.574352,-3.964001 -0.235892,-0.208871 -1.880598,-1.346253 -1.562915,-1.918065 0.256913,-0.462431 1.64643,-0.790472 1.776039,-0.831162 1.897243,-0.595628 8.099801,-1.619295 9.093317,-3.228742 0.316727,-0.513084 -0.893049,-0.952395 -1.491872,-1.022968 -2.035186,-0.239854 -3.977047,0.556053 -5.825408,1.27871 -1.695842,0.663027 -2.583119,1.115094 -4.262493,1.662323 -3.481448,1.134439 -7.151158,1.674113 -10.443104,3.356613 -3.198312,1.634645 -7.226623,5.477307 -10.869356,5.626324"
       id="path115" />
    <path
       style="opacity:1;fill:#000000;fill-opacity:1;stroke:none;stroke-width:0.199;stroke-dasharray:none"
       d="m 146.85539,5.324776 c -4.0322,-3.6218182 -9.58952,-2.666688 -14.49247,-1.758226 -0.67058,0.1242496 -3.19195,0.2859579 -3.7652,1.0229677 -0.36727,0.4721908 1.91607,1.5053255 2.27333,1.6942909 2.224,1.1763465 4.65129,1.8430398 6.81999,3.1648069 2.40292,1.4645255 4.71859,3.4081995 6.60686,5.4984525 1.31301,1.453462 3.98668,5.679727 6.03853,6.233711 0.2511,0.0678 0.16822,-0.508452 0.14208,-0.767226 -0.28815,-2.852607 0.0437,0.01644 -0.56833,-4.059904 -0.35897,-2.390661 -0.96369,-4.960566 -0.56833,-7.3845495 0.39194,-2.4030459 8.85257,-2.0065688 10.22998,-2.1098717 0.74867,-0.056149 2.29126,-0.1284824 2.34437,-0.3196772 0.11503,-0.4141092 -1.59251,-1.0177256 -2.77062,-1.3426456 -1.91031,-0.52686 -3.31811,-0.7612155 -5.25708,-1.0229678 -1.94511,-0.2625825 -3.95865,-0.2241663 -5.68332,-1.3106778"
       id="path116" />
  </g>
</svg>
