<?xml version="1.0" encoding="UTF-8" standalone="no"?>
<!DOCTYPE svg PUBLIC "-//W3C//DTD SVG 1.1//EN" "http://www.w3.org/Graphics/SVG/1.1/DTD/svg11.dtd">
<svg width="100%" height="100%" viewBox="0 0 1000 1000" version="1.1" xmlns="http://www.w3.org/2000/svg" xmlns:xlink="http://www.w3.org/1999/xlink" xml:space="preserve" xmlns:serif="http://www.serif.com/" style="fill-rule:evenodd;clip-rule:evenodd;stroke-linecap:round;stroke-linejoin:round;stroke-miterlimit:1.5;">
    <path d="M46.58,373.574C25.267,352.261 1.5,588.495 46.58,599.765C69.243,605.43 42.089,527.662 54.768,476.946C60.645,453.441 70.57,348.56 43.51,375.621" style="fill:rgb(11,14,111);stroke:black;stroke-width:1px;"/>
    <path d="M92.637,280.436C129.291,170.476 247.791,105.575 252.301,137.148C254.389,151.764 224.011,161.16 186.798,216.98C183.779,221.509 179.046,216.662 138.694,265.084C114.037,294.672 100.19,280.825 97.755,278.39" style="fill:rgb(11,14,111);stroke:black;stroke-width:1px;"/>
    <path d="M298.358,85.974C325.615,70.398 344.331,49.667 404.06,58.728C397.33,64.359 345.113,108.059 298.358,88.021" style="fill:rgb(11,14,111);stroke:black;stroke-width:1px;"/>
    <path d="M51.698,685.738C52.287,690.453 46.937,692.696 82.402,739.982C101.034,764.825 104.714,760.223 111.06,763.583C111.359,757.293 113.447,713.309 86.496,688.808C56.37,661.42 56.895,687.916 54.768,698.019" style="fill:rgb(11,14,111);stroke:black;stroke-width:1px;"/>
    <path d="M185.777,845.413C177.692,839.997 178.357,840.606 169.864,834.236C200.542,872.532 257.577,908.752 281.982,892.482C298.673,881.355 236.962,817.133 203.174,804.462C160.698,788.533 167.781,826.868 178.61,841.308" style="fill:rgb(11,14,111);stroke:black;stroke-width:1px;"/>
    <path d="M385.355,937.515C438.362,956.791 619.739,969.284 613.592,926.257C609.377,896.75 596.422,908.093 518.408,883.271C478.368,870.531 324.848,909.837 403.777,938.539" style="fill:rgb(11,14,111);stroke:black;stroke-width:1px;"/>
    <path d="M330.086,842.331C415.981,909.138 406.157,832.82 401.73,829.026C397.172,825.119 386.871,781.187 356.697,796.274C342.442,803.402 323.016,807.233 337.251,839.261" style="fill:rgb(11,14,111);stroke:black;stroke-width:1px;"/>
    <path d="M186.456,702.555C162.343,739.732 251.88,762.435 255.372,720.536C257.459,695.483 198.187,630.638 190.892,707.231" style="fill:rgb(11,14,111);stroke:black;stroke-width:1px;"/>
    <path d="M126.412,501.51C126.541,504.738 127.82,536.692 132.553,541.426C143.379,552.252 141.751,539.606 150.066,526.301C158.745,553.422 157.691,555.611 161.211,554.731C162.453,554.421 161.961,553.814 171.343,542.347C174.428,542.627 196.769,551.196 199.08,537.332C213.42,451.293 170.145,456.13 166.328,451.359C153.357,435.145 127.664,466.512 136.647,468.758C148.474,471.715 131.915,504.833 130.506,507.651" style="fill:rgb(11,14,111);stroke:black;stroke-width:1px;"/>
    <path d="M198.056,328.54C205.613,358.766 251.795,358.624 281.982,322.399C329.377,265.526 247.408,205.841 212.385,267.131C207.204,276.198 204.99,273.58 199.08,281.46C197.33,283.793 194.778,287.195 206.858,317.077C200.767,329.259 201.771,328.697 200.103,342.869" style="fill:rgb(11,14,111);stroke:black;stroke-width:1px;"/>
    <path d="M121.295,353.104C128.688,427.033 161.564,343.046 159.164,341.846C136.439,330.483 129.714,330.208 120.271,356.175" style="fill:rgb(11,14,111);stroke:black;stroke-width:1px;"/>
    <path d="M381.261,162.735C395.232,213.964 520.345,149.887 462.116,120.772C415.848,97.638 388.512,131.389 358.744,176.041" style="fill:rgb(11,14,111);stroke:black;stroke-width:1px;"/>
    <path d="M566.512,62.434C569.667,66.94 595.776,104.24 635.086,67.551C672.419,32.706 556.934,20.306 548.089,22.518C494.044,36.029 557.905,63.038 567.535,72.669" style="fill:rgb(11,14,111);stroke:black;stroke-width:1px;"/>
    <path d="M794.11,109.841C770.753,83.851 737.764,65.745 734.364,86.997C723.844,152.749 783.744,193.834 826.68,185.908C807.698,106.127 787.968,116.74 780.421,105.42" style="fill:rgb(11,14,111);stroke:black;stroke-width:1px;"/>
    <path d="M891.981,221.074C947.574,258.137 950.908,354.805 951.343,367.433C951.533,372.926 962.34,381.765 953.39,386.879C892.714,421.551 906.624,346.254 860.253,299.883C837.904,277.533 871.054,193.266 893.004,226.192" style="fill:rgb(11,14,111);stroke:black;stroke-width:1px;"/>
    <path d="M949.894,447.334C966.165,453.616 976.523,611.46 944.179,634.563C943.115,635.323 878.459,613.781 883.793,571.107C891.9,506.248 899.705,508.127 899.145,502.533C896.382,474.899 895.027,475.129 900.428,447.842C936.147,433.842 951.239,425.35 956.461,463.641" style="fill:rgb(11,14,111);stroke:black;stroke-width:1px;"/>
    <path d="M918.792,698.217C884.064,780.246 877.762,776.261 874.582,777.851C823.107,803.589 788.991,877.078 740.505,857.683C721.337,850.016 711.698,866.737 707.753,853.59C693.26,805.279 761.227,786.571 778.374,771.711C795.09,757.223 818.513,681.438 847.971,679.597C886.774,677.171 910.359,676.704 900.169,717.466" style="fill:rgb(11,14,111);stroke:black;stroke-width:1px;"/>
    <path d="M530.69,828.002C545.749,818.967 634.57,799.284 672.956,803.8C708.943,755.043 739.919,743.278 690.354,707.231C684.174,702.736 557.968,688.853 536.831,752.264C532.599,764.959 521.255,758.74 513.291,770.687C511.39,773.539 503.636,817.767 549.113,817.767" style="fill:rgb(11,14,111);stroke:black;stroke-width:1px;"/>
    <path d="M336.227,628.422C339.657,635.771 361.738,700.696 390.472,694.949C450.751,682.893 464.97,710.058 499.985,659.127C564.426,565.395 411.07,493.066 365.908,583.389C364.011,587.185 363.813,586.15 352.603,593.624C346.985,597.369 344.666,617.076 344.415,619.211" style="fill:rgb(11,14,111);stroke:black;stroke-width:1px;"/>
    <path d="M290.17,514.815C319.225,518.447 396.974,440.656 324.969,420.654C260.552,402.761 229.064,464.525 295.288,508.674" style="fill:rgb(11,14,111);stroke:black;stroke-width:1px;"/>
    <path d="M399.683,338.775C390.602,411.423 540.83,352.915 487.703,246.661C482.372,235.999 441.829,223.542 407.871,240.52C340.646,274.133 395.321,347.054 402.754,360.269" style="fill:rgb(11,14,111);stroke:black;stroke-width:1px;"/>
    <path d="M555.254,175.017C545.7,261.001 715.862,205.037 634.062,148.407C609.296,131.261 608.767,118.366 582.888,134.078C552.626,152.451 550.033,152.585 543.995,187.299" style="fill:rgb(11,14,111);stroke:black;stroke-width:1px;"/>
    <path d="M575.502,358.7C587.363,453.586 773.984,412.539 733.406,298.922C725.146,275.793 641.305,256.654 617.234,283.132C578.984,325.207 575.266,354.953 574.374,362.084" style="fill:rgb(11,14,111);stroke:black;stroke-width:1px;"/>
    <path d="M460.458,435.396C452.794,492.871 518.013,519.922 552.944,450.059C558.612,438.723 545.109,414.342 522.492,407.199C484.768,395.287 480.92,403.389 467.225,439.908" style="fill:rgb(11,14,111);stroke:black;stroke-width:1px;"/>
    <path d="M679.064,499.253C673.966,498.897 642.385,496.69 652.198,557.208C659.192,600.338 769.834,655.408 808.975,532.395C824.309,484.201 737.2,417.972 663.477,496.302" style="fill:rgb(11,14,111);stroke:black;stroke-width:1px;"/>
    <path d="M792.666,355.415C777.039,364.673 803.841,424.74 843.939,384.642C854.684,373.896 816.636,256.765 783.033,357.572" style="fill:rgb(11,14,111);stroke:black;stroke-width:1px;"/>
</svg>
