<?xml version="1.0" encoding="UTF-8" standalone="no"?>
<!-- Created with Inkscape (http://www.inkscape.org/) -->

<svg
   width="1000"
   height="1000"
   viewBox="0 0 264.58333 264.58333"
   version="1.1"
   id="svg1"
   inkscape:version="1.3.2 (091e20e, 2023-11-25, custom)"
   sodipodi:docname="moon3.svg"
   xmlns:inkscape="http://www.inkscape.org/namespaces/inkscape"
   xmlns:sodipodi="http://sodipodi.sourceforge.net/DTD/sodipodi-0.dtd"
   xmlns="http://www.w3.org/2000/svg"
   xmlns:svg="http://www.w3.org/2000/svg">
  <sodipodi:namedview
     id="namedview1"
     pagecolor="#ffffff"
     bordercolor="#000000"
     borderopacity="0.25"
     inkscape:showpageshadow="2"
     inkscape:pageopacity="0.0"
     inkscape:pagecheckerboard="0"
     inkscape:deskcolor="#d1d1d1"
     inkscape:document-units="mm"
     inkscape:zoom="1.1999463"
     inkscape:cx="403.3514"
     inkscape:cy="578.77592"
     inkscape:window-width="2798"
     inkscape:window-height="1774"
     inkscape:window-x="4104"
     inkscape:window-y="146"
     inkscape:window-maximized="0"
     inkscape:current-layer="layer3" />
  <defs
     id="defs1" />
  <g
     inkscape:label="Layer 1"
     inkscape:groupmode="layer"
     id="layer1"
     sodipodi:insensitive="true">
    <ellipse
       style="display:none;opacity:0.0968922;fill:none;fill-opacity:0.988528;stroke:#000000;stroke-width:1.099"
       id="path1"
       cx="132.31021"
       cy="132.31021"
       rx="132.31021"
       ry="131.84839"
       sodipodi:insensitive="true" />
  </g>
  <g
     inkscape:groupmode="layer"
     id="layer3"
     inkscape:label="Layer 2">
    <path
       id="path32"
       style="opacity:1;fill:#000000;fill-opacity:1;stroke:#000000;stroke-width:1.099"
       d="M 140.98984,6.8590129 C 129.2089,6.2543601 109.7039,12.078707 110.19601,25.326628 c 9.35711,8.330178 23.96305,0.982647 34.40976,-2.575863 12.33036,-0.81809 15.05735,-11.397879 2.42091,-14.640149 -1.87709,-0.8984864 -3.97364,-1.2163749 -6.03684,-1.2516031 z M 109.69305,19.772437 c 1.75586,-1.836046 1.8502,-2.568163 0,0 z M 97.989368,7.0424642 C 91.763376,7.3493778 76.129979,12.808432 79.276815,17.184998 82.948765,19.56625 109.02124,9.9282784 97.989368,7.0424642 Z m 77.448502,3.0530438 c -13.33767,4.013392 4.1721,20.513829 12.98034,17.531224 18.61466,-1.372975 -3.83324,-15.252458 -11.13028,-17.359582 l -1.85006,-0.171609 z m -3.29231,1.573547 c 1.9339,1.91996 1.1074,3.505779 0,0 z M 66.687919,21.184753 c -5.506665,1.313606 -20.495208,16.800852 -7.029161,7.627068 2.462365,-1.408584 7.599395,-4.54203 7.029161,-7.627068 z m 6.674528,5.118034 c -7.881932,2.276231 1.185174,1.568621 -7.636242,4.242472 -9.806252,2.45032 -22.605036,23.687802 -3.665837,19.771898 9.148108,-0.56163 25.767528,-15.597092 14.966455,-22.032582 -1.312982,-0.537535 -2.10325,-2.06027 -3.664376,-1.981788 z M 206.1745,35.600928 c -15.15808,2.024789 -4.54411,23.579014 5.26548,26.811665 8.06643,13.124862 28.32528,2.341959 16.83274,-10.632982 C 224.1338,40.340638 215.94391,38.57825 206.1745,35.600928 Z M 158.76447,35.7172 c -10.44932,-0.01114 -26.15191,6.531248 -21.80016,19.536032 1.58124,13.632358 19.24081,16.077566 28.08916,12.196431 -1.92754,-4.570492 14.83221,-3.099951 13.68036,-12.898194 C 180.12392,43.697188 167.65513,37.138766 158.76447,35.7172 Z M 46.001326,36.006071 c -8.90294,1.573313 -15.024487,21.358611 -4.64106,6.865731 1.064413,-2.663892 3.361495,-4.437454 4.64106,-6.865731 z m 60.497604,7.978324 C 92.862399,47.702713 82.009735,57.636407 73.987793,68.703879 62.91719,81.895267 76.417294,100.93482 91.939167,89.976004 105.23349,82.853911 120.70361,69.687706 118.02639,54.346554 115.45151,50.286545 113.73661,43.166441 106.49893,43.984395 Z M 29.782161,54.734644 C 19.840925,55.575472 12.49935,78.541043 18.388117,79.55898 25.221181,74.21343 28.861748,63.958174 30.610535,55.058655 Z m 17.288351,4.23695 C 35.441171,62.232836 33.972111,84.256426 49.509947,82.012397 63.230432,80.397563 61.973464,58.027995 47.070512,58.971594 Z M 195.66196,70.029317 c -18.74073,0.771064 -3.65461,31.301863 10.624,18.758245 11.81486,-4.023658 -4.21334,-19.173337 -10.624,-18.758245 z m -65.80219,7.041431 c -12.51142,-2.03833 -13.9745,16.359544 -3.82195,20.05509 8.26791,11.062472 23.44604,-8.262196 14.10387,-16.499365 -2.47777,-3.075593 -6.61442,-3.556361 -10.28192,-3.555725 z m 110.58292,0.899687 c 3.08876,5.657987 -7.94841,-4.131406 -7.13346,5.39393 -2.71769,12.251188 2.40001,28.852305 15.8724,30.320915 12.20138,-0.2757 4.46112,-21.977906 -1.35424,-28.439499 -1.77234,-2.983783 -3.96341,-6.075423 -7.3847,-7.275346 z m -72.33305,14.699361 c -7.53051,0.586842 -14.30407,8.439264 -9.16637,10.087244 -3.848,15.98298 25.23494,16.56492 22.62174,2.26922 -1.0445,-6.277069 -7.18252,-11.801893 -13.45537,-12.356464 z M 14.107666,96.950671 C 3.4253117,101.31624 5.656186,117.04606 8.5271281,126.04399 17.766806,123.79627 20.093207,102.79568 14.107666,96.950671 Z m 85.504858,3.256649 c -11.334726,0.39406 -16.561588,16.80712 -8.798768,24.3215 11.707554,10.55297 27.805534,-10.72001 16.694764,-20.6723 -2.20657,-1.88961 -4.85921,-3.69402 -7.895996,-3.6492 z m -60.341019,3.2365 c -14.102058,2.86422 -17.669067,20.13476 -16.221672,32.46221 2.713796,14.82812 27.510985,16.46228 35.453447,4.87868 11.02656,-10.92971 1.649519,-26.81496 -8.892871,-33.97777 -3.060439,-1.99251 -6.636607,-3.41188 -10.338904,-3.36312 z m 169.830465,0.4718 c -15.2519,0.82037 -20.20027,19.66543 -17.71975,32.29174 5.50484,17.98271 32.90921,13.89963 34.35341,-4.6665 1.61072,-9.45898 5.99949,-14.17048 -2.15611,-23.29802 -4.76019,-1.45637 -9.43124,-4.14689 -14.47755,-4.32722 z m -73.03172,14.72985 c -10.86828,-1.74604 -22.27007,14.11571 -13.60997,19.54361 5.3268,17.13778 30.19769,7.35047 34.44929,-4.61831 -0.87335,-8.13275 -12.97118,-14.99442 -20.83932,-14.9253 z M 252.21871,130.807 c -13.70399,2.09939 -17.44231,18.81783 -16.42688,30.55473 -3.75101,12.32048 12.18909,23.82989 19.31767,10.2433 5.53449,-11.24431 10.44889,-24.90784 4.18014,-36.93197 -1.20145,-2.76312 -4.27143,-3.8867 -7.07093,-3.86606 z M 7.2341838,137.06295 c -7.43915937,3.32303 4.1721792,26.33871 5.4596152,9.45524 0.258449,-3.54893 -1.164517,-9.10213 -5.4596152,-9.45524 z M 86.0764,138.36933 c -13.141356,1.80073 -15.677343,21.37681 -4.286904,28.33576 11.202624,5.54359 23.171824,-9.23912 16.633258,-19.45931 -2.338682,-4.78036 -6.714433,-8.94474 -12.346354,-8.87645 z m 72.18267,13.00644 c -15.94031,0.22052 -4.80103,25.24704 5.18418,11.22929 5.48396,-4.58391 1.19675,-11.55718 -5.18418,-11.22929 z m 44.21281,7.41557 c -13.78159,3.3593 -29.01413,12.47267 -30.64315,28.0262 -3.3564,15.80206 15.78068,16.98542 24.42361,8.42791 11.2125,-7.57603 19.27836,-19.512 23.52391,-32.22801 -5.20362,8.08024 0.851,-5.70782 -7.95988,-2.40699 -3.1788,-0.3031 -6.13689,-1.76527 -9.34449,-1.81911 z m -154.375074,0.54519 c -12.978412,2.42668 0.150897,24.57146 9.860516,16.71765 5.395951,-6.9957 -2.260401,-16.39303 -9.860516,-16.71765 z m 73.658034,3.08405 c -11.62106,2.8637 -16.86492,13.83842 -8.88358,22.81996 4.50912,9.4121 29.06915,6.19266 25.24853,-6.3981 -3.24175,-7.45359 -6.68266,-16.1948 -16.36495,-16.42186 z m -105.504152,2.49028 c -11.3350446,5.65175 -0.215956,22.39184 5.583917,29.55682 11.351249,11.50148 18.711727,-7.33764 9.819177,-15.71051 -3.140117,-6.80443 -6.208497,-14.72551 -15.403094,-13.84631 z m 60.692936,17.7891 c -9.596256,1.22676 -16.860041,17.06804 -5.16661,21.56612 11.801352,1.34644 20.064833,-19.99289 5.16661,-21.56612 z m -24.895121,4.83743 c -2.529023,5.23296 -4.935771,-3.33134 -3.868802,4.63592 3.848381,8.57887 9.478417,-2.64934 3.868802,-4.63592 z m 187.560647,4.46691 c -8.77672,-0.99595 -21.75111,24.63041 -5.23918,16.00076 3.64498,-2.82479 13.8496,-13.28272 5.23918,-16.00076 z m -140.754202,8.68939 c -8.094176,-0.0122 -10.167394,7.8788 -10.494967,8.44755 -3.997511,15.49464 27.866489,10.30065 17.416509,-4.23747 -1.68729,-2.11588 -4.00243,-4.30437 -6.921542,-4.21008 z m 56.166082,5.04104 c -10.47707,-1.78432 -33.28177,10.2657 -13.67856,16.40294 10.42058,5.83586 33.62103,-13.04057 13.67856,-16.40294 z m -105.557899,0.73639 c -15.925332,-0.30348 -9.120789,17.75338 0.481981,22.02704 8.802158,7.25822 26.744161,3.43562 18.477348,-10.384 -3.794835,-6.82019 -11.893231,-9.7455 -18.959329,-11.64304 z m 163.454109,12.56151 c -10.20031,3.6976 -25.1949,4.54382 -28.36848,17.45772 3.92258,15.44807 24.64697,0.57444 31.72744,-6.16229 4.36728,-2.53118 4.04566,-12.85796 -3.35896,-11.29543 z M 94.518778,230.08311 c -8.968773,1.1942 -16.09881,3.3908 -10.486234,10.5565 4.669022,11.86726 18.017026,15.58837 29.584396,16.82375 11.95882,0.76599 19.20825,-12.45568 8.65569,-20.52251 -7.16278,-7.86233 -18.9132,-4.07761 -27.753852,-6.85774 z m 64.590892,8.56951 c -9.14508,0.23292 -30.18072,0.42268 -23.97582,15.05508 8.35003,11.34151 29.68794,7.69438 37.30937,-1.81817 -0.8651,-6.61547 -5.8081,-14.06562 -13.33355,-13.23691 z" />
  </g>
</svg>
