<?xml version="1.0" encoding="UTF-8" standalone="no"?>
<!DOCTYPE svg PUBLIC "-//W3C//DTD SVG 1.1//EN" "http://www.w3.org/Graphics/SVG/1.1/DTD/svg11.dtd">
<svg width="100%" height="100%" viewBox="0 0 1000 1000" version="1.1" xmlns="http://www.w3.org/2000/svg" xmlns:xlink="http://www.w3.org/1999/xlink" xml:space="preserve" xmlns:serif="http://www.serif.com/" style="fill-rule:evenodd;clip-rule:evenodd;stroke-linecap:round;stroke-linejoin:round;stroke-miterlimit:1.5;">
    <g id="Layer1">
        <path d="M14.565,433.954C-20.254,441.335 1.896,556.864 27.953,550.35" style="stroke:black;stroke-width:1px;"/>
        <path d="M29.106,549.196C39.953,521.475 47.479,520.288 37.178,509.987C30.416,503.225 55.629,493.835 54.477,475.39C52.494,443.669 12.961,470.03 12.961,438.487" style="stroke:black;stroke-width:1px;"/>
        <path d="M305.879,598.785C277.784,645.61 335.921,636.87 349.702,643.761C436.001,686.91 369.613,541.201 357.774,550.35C328.027,573.336 323.763,570.884 313.952,606.857" style="stroke:black;stroke-width:1px;"/>
        <path d="M214.775,265.504C283.318,327.519 315.383,256.891 297.807,249.358C290.898,246.398 319.791,152.679 296.653,173.246C271.723,195.406 276.563,197.738 265.658,230.53C227.967,208.49 184.404,225.83 218.234,256.278" style="stroke:black;stroke-width:1px;"/>
        <path d="M492.646,137.066C495.1,123.885 503.849,102.13 480.016,90.214C477.359,88.885 452.414,51.365 510,68.302L517.883,64.43C555.381,111.657 555.072,112.891 553.822,117.891C546.1,148.78 494.631,140.653 489.242,139.802" style="stroke:black;stroke-width:1px;"/>
        <path d="M211.215,891.198C208.729,891.896 211.494,897.924 209.008,898.623C191.257,903.611 94.318,867.47 179.025,843.268C183.635,841.951 275.139,815.807 209.008,895.163" style="stroke:black;stroke-width:1px;"/>
        <path d="M525.09,991.077C544.139,1014.58 620.156,966.317 565.354,932.066C560.827,929.237 546.843,881.413 523.838,915.921C503.644,946.213 514.181,949.447 523.653,967.737C492.494,1010.03 534.707,991.971 536.524,990.881" style="stroke:black;stroke-width:1px;"/>
        <path d="M507.693,879.018C537.391,871.157 550.426,879.463 546.903,854.8C546.837,854.338 491.078,827.677 508.846,872.099" style="stroke:black;stroke-width:1px;"/>
        <path d="M484.629,874.405C486.446,879.857 485.131,897.972 490.395,903.236C513.459,926.3 475.674,924.077 473.541,923.952C448.816,873.618 475.977,876.884 485.782,877.865" style="stroke:black;stroke-width:1px;"/>
        <path d="M719.886,820.204C740.172,840.489 752.28,835.003 754.483,806.365C755.691,790.663 746.362,798.628 744.636,796.984C743.53,794.176 717.079,752.401 711.814,815.591" style="stroke:black;stroke-width:1px;"/>
        <path d="M755.636,787.913C768.679,813.999 782.21,792.775 779.854,780.994C778.249,772.972 759.744,775.028 757.942,775.228" style="stroke:black;stroke-width:1px;"/>
        <path d="M795.35,831.331C785.901,824.937 796.347,819.289 814.748,776.956C819.91,776.52 819.475,776.278 851.354,768.309C862.146,765.611 860.271,770.595 885.649,798.026C860.404,841.049 869.634,851.471 822.523,869.792C810.99,874.277 793.521,845.918 801.765,829.429" style="stroke:black;stroke-width:1px;"/>
        <path d="M881.508,482.213C892.857,538.259 932.315,492.524 915.934,463.858C907.117,448.428 867.182,426.247 880.184,486.922" style="stroke:black;stroke-width:1px;"/>
        <path d="M871.867,484.351L860.515,483.31C860.793,479 870.174,333.59 836.362,435.027C828.881,457.469 848.099,453.148 855.966,484.616" style="stroke:black;stroke-width:1px;"/>
        <path d="M884.797,425.801C923.207,429.141 939.278,428.418 944.014,428.205C958.229,402.481 978.258,401.634 957.45,380.826C948.809,372.185 933.067,407.044 890.563,413.116" style="stroke:black;stroke-width:1px;"/>
        <path d="M86.767,293.181C101.519,314.489 104.04,313.355 105.218,311.632C107.448,308.374 111.889,301.883 122.957,265.583C121.576,265.688 103.043,257.709 92.533,272.423" style="stroke:black;stroke-width:1px;"/>
        <path d="M333.557,63.69C345.959,96.763 359.181,62.718 354.315,56.77C352.835,54.962 314.459,8.058 325.484,52.157" style="stroke:black;stroke-width:1px;"/>
        <path d="M718.733,75.222C727.102,91.96 764.06,85.03 767.999,84.292C752.238,63.502 755.051,60.457 731.418,51.004" style="stroke:black;stroke-width:1px;"/>
        <path d="M289.734,647.22C293.646,648.264 309.892,652.596 333.212,673.13C318.353,684.422 297.142,719.53 278.202,670.285C275.044,662.075 255.153,678.518 253.984,666.825C250.84,635.386 272.3,655.383 272.436,655.293" style="stroke:black;stroke-width:1px;"/>
        <path d="M259.75,623.003C292.118,614.911 265.544,603.805 240.145,582.64C189.121,540.119 233.686,599.083 234.653,600.192L231.964,619.262C234.556,619.838 264.363,626.462 264.363,626.462" style="stroke:black;stroke-width:1px;"/>
    </g>
</svg>
