<?xml version="1.0" encoding="UTF-8" standalone="no"?>
<!--
  Copyright © 2026 Chloe Bolland
  contact chloe@mammoththoughts.com if you wish to use, publish or reproduce this game or any part of it in any way
-->
<!DOCTYPE svg PUBLIC "-//W3C//DTD SVG 1.1//EN" "http://www.w3.org/Graphics/SVG/1.1/DTD/svg11.dtd">
<svg width="100%" height="100%" viewBox="0 0 1000 1000" version="1.1" xmlns="http://www.w3.org/2000/svg" xmlns:xlink="http://www.w3.org/1999/xlink" xml:space="preserve" xmlns:serif="http://www.serif.com/" style="fill-rule:evenodd;clip-rule:evenodd;stroke-linecap:round;stroke-linejoin:round;stroke-miterlimit:1.5;">
    <g id="Layer1">
        <path d="M-13.593,386.458C-23.124,348.461 36.48,165.355 116.751,197.463C145.916,209.13 104.399,252.645 100.606,326.624C98.78,362.228 67.617,430.746 55.63,435.027C2.335,454.061 -6.87,389.623 -7.797,383.132" style="stroke:black;stroke-width:1px;"/>
        <path d="M68.892,706.254C62.875,727.455 69.135,737.959 138.26,815.501C152.807,818.305 283.32,864.285 203.242,777.534C162.413,733.303 153.83,742.078 122.517,689.889C120.16,685.961 88.102,632.532 70.622,714.107" style="stroke:black;stroke-width:1px;"/>
        <path d="M302.42,768.309C316.628,777.127 406.978,821.126 417.742,817.897C464.548,803.855 464.383,807.077 512.306,801.752C531.843,799.581 547.342,768.583 549.209,764.849C563.718,735.831 574.439,739.664 572.274,707.188C568.879,656.273 595.757,648.563 558.435,612.624C490.848,547.54 509.992,517.631 418.895,500.761C411.387,499.371 403.131,497.842 334.71,545.737C285.432,580.231 335.42,606.118 283.968,687.583C253.115,736.434 281.989,742.194 313.952,782.147" style="stroke:black;stroke-width:1px;"/>
        <path d="M673.757,867.486C682.515,870.989 746.691,896.659 791.386,859.413C799.825,852.38 801.797,870.156 814.45,861.72C833.251,849.186 964.476,791.352 971.289,716.414C975.725,667.615 934.637,695.684 907.505,655.658L888.864,653.821C854.881,614.698 883.61,608.403 881.337,557.269C879.275,510.857 860.158,462.265 855.723,444.676C834.265,441.853 766.552,420.341 813.297,484.616C831.742,509.978 793.721,540.828 824.829,533.051C865.054,522.995 845.656,550.33 849.047,591.866C849.42,596.439 854.161,654.51 820.216,641.454C784.953,627.891 784.098,649.105 746.41,642.607C719.218,637.919 692.367,658.057 688.477,660.975C716.301,672.238 751.474,697.875 771.781,688.736C808.77,672.091 820.636,685.373 828.289,680.664C847.824,668.642 853.176,669.157 861.908,689.499C919.46,712.519 870.933,729.201 845.027,767.916C741.186,797.261 628.031,756.804 661.072,806.365C685.477,842.973 670.924,848.137 688.749,888.244" style="stroke:black;stroke-width:1px;"/>
        <path d="M692.209,401.584C718.431,345.642 731.212,357.913 748.717,345.076C781.367,321.132 785.115,287.288 785.764,281.432C762.805,283.681 767.386,290.244 748.158,311.115C720.064,303.815 724.675,320.557 697.975,331.237C620.233,362.334 671.653,383.882 676.064,385.439C694.615,391.986 687.938,397.175 684.136,415.422" style="stroke:black;stroke-width:1px;"/>
        <path d="M367.158,613.858C312.354,588.158 322.883,576.736 283.968,530.745C273.642,518.541 197.271,506.198 209.008,524.979C255.319,599.075 296.466,558.172 355.468,636.841" style="stroke:black;stroke-width:1px;"/>
        <path d="M146.94,258.02C147.56,261.506 159.365,327.887 190.557,265.504C210.33,225.957 169.263,203.786 154.807,244.746" style="stroke:black;stroke-width:1px;"/>
        <path d="M232.073,129.423C260.979,193.017 266.726,130.135 266.556,127.377C266.556,127.377 248.624,122.894 247.065,122.504" style="stroke:black;stroke-width:1px;"/>
        <path d="M297.807,102.899C334.191,116.893 326.303,95.859 325.484,93.673C317.907,73.467 309.211,75.254 296.653,92.52" style="stroke:black;stroke-width:1px;"/>
        <path d="M295.537,175.246C291.681,182.267 287.824,189.289 283.968,196.31" style="stroke:black;stroke-width:1px;"/>
        <path d="M275.895,183.625C288.34,225.108 327.61,219.216 332.403,192.851C337.088,167.083 296.613,173.829 293.194,174.399" style="stroke:black;stroke-width:1px;"/>
        <path d="M84.46,572.261C88.898,601.848 95.657,609.797 120.21,594.172C130.876,587.385 127.749,525.334 86.767,552.656" style="stroke:black;stroke-width:1px;"/>
        <path d="M597.645,864.026C618.739,828.869 589.073,831.03 583.806,839.808" style="stroke:black;stroke-width:1px;"/>
        <path d="M704.894,595.325C718.32,599.353 776.311,597.882 768.321,621.849C767.854,623.253 770.894,614.132 780.553,607.985C755.737,592.15 757.881,586.752 729.476,588.527C725.464,584.584 721.358,565.022 700.281,586.099" style="stroke:black;stroke-width:1px;"/>
        <path d="M865.133,359.732C864.669,363.851 861.304,393.702 879.031,409.656C882.219,412.526 927.062,361.304 879.324,389.087C876.275,346.933 871.532,342.19 868.652,339.31C855.109,325.766 856.533,340.584 846.741,356.608" style="stroke:black;stroke-width:1px;"/>
        <path d="M871.408,240.61C867.366,265.281 868.074,269.128 891.716,275.883C913.818,282.197 905.332,267.658 910.168,245.899L901.645,260.103C908.369,202.949 877.385,248.367 873.265,257.431" style="stroke:black;stroke-width:1px;"/>
    </g>
</svg>
