<?xml version="1.0" encoding="UTF-8" standalone="no"?>
<!--
  Copyright © 2026 Chloe Bolland
  contact chloe@mammoththoughts.com if you wish to use, publish or reproduce this game or any part of it in any way
-->
<!DOCTYPE svg PUBLIC "-//W3C//DTD SVG 1.1//EN" "http://www.w3.org/Graphics/SVG/1.1/DTD/svg11.dtd">
<svg width="100%" height="100%" viewBox="0 0 1000 1000" version="1.1" xmlns="http://www.w3.org/2000/svg" xmlns:xlink="http://www.w3.org/1999/xlink" xml:space="preserve" xmlns:serif="http://www.serif.com/" style="fill-rule:evenodd;clip-rule:evenodd;stroke-linecap:round;stroke-linejoin:round;stroke-miterlimit:1.5;">
    <g id="Layer1">
        <path d="M87.104,772.84C89.162,778.554 113.285,859.419 165.186,807.518C192.587,780.117 125.809,725.644 93.686,770.615" style="stroke:black;stroke-width:1px;"/>
        <path d="M85.614,492.688C90.714,515.642 83.896,549.19 128.283,523.825C134.228,520.428 175.362,526.403 149.041,486.922C141.16,475.101 149.511,419.674 108.678,441.947C104.134,444.425 104.648,452.833 79.848,494.995" style="stroke:black;stroke-width:1px;"/>
        <path d="M237.839,249.358C238.608,250.127 239.377,250.896 240.145,251.665" style="stroke:black;stroke-width:1px;"/>
        <path d="M266.67,238.979C276.729,249.039 292.087,265.716 301.266,262.044C346.552,243.93 369.655,126.607 307.032,176.705C302.227,180.549 312.986,226.115 290.887,215.915C269.426,206.01 262.723,211.403 264.363,234.367" style="stroke:black;stroke-width:1px;"/>
        <path d="M105.218,248.205C102.165,219.194 99.405,218.284 116.751,195.157C118.161,193.276 119.091,198.915 145.764,190.459C201.899,217.371 152.297,226.008 149.437,226.456C140.633,241.874 145.998,287.273 99.452,245.899" style="stroke:black;stroke-width:1px;"/>
        <path d="M501.927,887.091C530.976,902.732 532.384,896.99 562.92,911.052C577.356,893.65 584.263,914.167 604.564,903.236C611.753,899.365 647.508,820.788 596.77,860.209C584.077,854.755 584.341,855.149 571.268,861.862C557.233,848.65 558.839,848.343 544.947,835.531C541.134,836.416 538.039,845.529 507.875,837.183C494.284,849.306 486.6,848.252 493.854,865.179" style="stroke:black;stroke-width:1px;"/>
        <path d="M842.128,717.567C869.014,720.928 900.408,685.689 858.273,657.599C839.563,645.126 784.585,697.522 840.975,714.107" style="stroke:black;stroke-width:1px;"/>
        <path d="M941.039,481.297C941.538,477.882 951.47,409.871 911.321,450.019C878.57,482.771 933.553,480.152 936.692,480.003" style="stroke:black;stroke-width:1px;"/>
        <path d="M832.996,141.189C828.804,126.686 828.085,128.314 823.604,113.237C744.38,76.714 745.671,147.136 770.628,172.093C773.968,175.432 817.473,182.231 821.37,143.262" style="stroke:black;stroke-width:1px;"/>
        <path d="M571,443.117C567.198,452.289 532.531,476.454 580.346,493.842C634.499,513.533 629.685,397.401 576.887,439.64" style="stroke:black;stroke-width:1px;"/>
        <path d="M406.21,346.229C438.741,349.482 448.023,323.462 443.113,318.552C419.92,295.359 404.704,303.95 407.363,335.85" style="stroke:black;stroke-width:1px;"/>
        <path d="M391.218,41.778C393.815,41.665 433.214,39.952 420.048,26.786C408.431,15.169 407.24,20.289 391.218,22.174" style="stroke:black;stroke-width:1px;"/>
        <path d="M260.903,68.302C287.655,84.354 290.287,59.122 289.734,57.923C279.692,36.165 264.351,60.71 263.21,62.536" style="stroke:black;stroke-width:1px;"/>
        <path d="M333.557,936.679C336.374,927.482 339.192,918.284 342.01,909.086C363.972,939.059 373.203,940.616 363.54,947.058C343.916,960.141 337.616,954.164 334.71,930.913" style="stroke:black;stroke-width:1px;"/>
        <path d="M15.267,641.454C17.244,643.127 55.489,675.488 47.557,643.761C42.783,624.662 39.966,624.096 21.033,626.462" style="stroke:black;stroke-width:1px;"/>
        <path d="M364.097,607.596C354.698,631.672 388.911,626.289 388.911,618.39C388.911,597.508 373.583,586.436 361.234,598.785" style="stroke:black;stroke-width:1px;"/>
        <path d="M609.718,70.327C608.123,69.839 690.706,86.47 626.475,57.923C621.862,55.873 614.802,56.658 613.79,56.77C613.401,56.813 613.79,56.77 610.33,60.23" style="stroke:black;stroke-width:1px;"/>
        <path d="M520.379,19.867C524.4,22.739 539.391,34.033 544.596,21.02C550.325,6.7 539.339,13.377 523.838,10.641" style="stroke:black;stroke-width:1px;"/>
        <path d="M62.549,358.915C91.327,349.322 60.134,327.041 57.936,325.471C57.717,325.314 4.449,345.496 61.396,365.834" style="stroke:black;stroke-width:1px;"/>
        <path d="M913.646,250.384C962.59,265.112 955.02,301.253 951.684,301.253C941.044,301.253 922.433,270.378 920.547,268.963" style="stroke:black;stroke-width:1px;"/>
        <path d="M963.216,669.131C978.817,637.93 979.502,638.693 979.134,609.668C975.788,612.568 949.095,635.703 958.603,661.059" style="stroke:black;stroke-width:1px;"/>
        <path d="M755.636,911.308C762.871,846.197 798.879,866.292 800.612,887.091C801.527,898.074 785.128,886.445 786.773,896.316C787.353,899.795 789.259,899.597 786.773,902.082" style="stroke:black;stroke-width:1px;"/>
        <path d="M771.781,323.165C780.282,348.667 824.189,327.553 798.305,324.318C796.686,324.115 800.535,321.378 784.467,309.326" style="stroke:black;stroke-width:1px;"/>
        <path d="M482.322,117.891C480.024,120.19 491.099,128.366 498.467,130.576C504.595,132.415 506.667,120.767 513.43,111.593C499.154,108.782 497.996,102.218 486.935,113.278" style="stroke:black;stroke-width:1px;"/>
        <path d="M157.113,146.722C160.576,125.078 154.494,106.109 172.105,120.197C183.529,129.336 176.358,130.937 166.339,140.955" style="stroke:black;stroke-width:1px;"/>
        <path d="M285.121,795.986L285.121,808.671C279.469,780.412 274.849,778.896 282.815,772.922C288.782,768.446 288.89,773.208 319.718,801.752L280.508,797.139" style="stroke:black;stroke-width:1px;"/>
    </g>
</svg>
