<?xml version="1.0" encoding="UTF-8" standalone="no"?>
<!--
  Copyright © 2026 Chloe Bolland
  contact chloe@mammoththoughts.com if you wish to use, publish or reproduce this game or any part of it in any way
-->
<!DOCTYPE svg PUBLIC "-//W3C//DTD SVG 1.1//EN" "http://www.w3.org/Graphics/SVG/1.1/DTD/svg11.dtd">
<svg width="100%" height="100%" viewBox="0 0 1000 1000" version="1.1" xmlns="http://www.w3.org/2000/svg" xmlns:xlink="http://www.w3.org/1999/xlink" xml:space="preserve" xmlns:serif="http://www.serif.com/" style="fill-rule:evenodd;clip-rule:evenodd;stroke-linecap:round;stroke-linejoin:round;stroke-miterlimit:1.5;">
    <g id="Layer1">
        <path d="M354.95,16.038C278.093,41.657 271.722,18.28 251.471,34.129C221.003,57.973 213.285,90.943 179.108,113.728C175.44,116.173 120.037,153.108 166.083,167.276C200.106,177.745 202.407,163.032 234.828,176.683C244.097,180.586 296.273,183.298 299.954,181.749C346.034,162.347 333.435,146.114 375.935,118.793C378.118,117.39 427.12,44.887 412.84,37.747C388.642,25.648 390.448,19.396 362.91,20.38C360.942,20.45 361.087,20.433 338.306,21.103" style="stroke:black;stroke-width:1px;"/>
        <path d="M32.565,699.115C58.586,742.877 103.587,842.989 187.097,885.937C222.915,904.358 299.948,802.984 333.557,797.139C416.281,782.752 462.153,694.66 489.859,676.998C539.068,582.999 579.676,547.885 519.225,538.817C441.561,527.168 424.129,548.25 281.662,500.761C169.919,463.513 186.601,567.936 115.597,609.164C31.798,657.821 39.208,686.003 33.719,717.567" style="stroke:black;stroke-width:1px;"/>
        <path d="M733.725,928.607C774.431,908.254 735.385,801.938 747.563,778.688C769.829,736.181 782.347,739.038 777.547,691.043C775.853,674.097 775.329,550.416 904.402,647.22C907.086,649.234 984.743,634.152 971.289,689.889C968.77,700.323 870.301,890.385 779.854,920.534C777.739,921.239 767.004,924.817 754.483,932.066C711.849,956.749 738.786,913.506 740.644,905.542" style="stroke:black;stroke-width:1px;"/>
        <path d="M666.035,72.312C538.683,51.527 687.861,109.951 701.435,116.738C722.851,127.446 739.843,38.586 657.612,65.996C652.23,64.843 646.849,63.69 641.467,62.536" style="stroke:black;stroke-width:1px;"/>
        <path d="M475.353,860.501C402.512,848.968 388.822,943.238 435.04,930.913C456.881,925.089 463.416,906.431 488.088,937.832C501.44,954.825 581.718,939.422 553.822,883.631C534.014,844.014 468.014,856.789 460.411,858.26" style="stroke:black;stroke-width:1px;"/>
    </g>
</svg>
