<?xml version="1.0" encoding="UTF-8" standalone="no"?>
<!--
  Copyright © 2026 Chloe Bolland
  contact chloe@mammoththoughts.com if you wish to use, publish or reproduce this game or any part of it in any way
-->
<!DOCTYPE svg PUBLIC "-//W3C//DTD SVG 1.1//EN" "http://www.w3.org/Graphics/SVG/1.1/DTD/svg11.dtd">
<svg width="100%" height="100%" viewBox="0 0 1000 1000" version="1.1" xmlns="http://www.w3.org/2000/svg" xmlns:xlink="http://www.w3.org/1999/xlink" xml:space="preserve" xmlns:serif="http://www.serif.com/" style="fill-rule:evenodd;clip-rule:evenodd;stroke-linecap:round;stroke-linejoin:round;stroke-miterlimit:1.5;">
    <g id="Layer1">
        <path d="M-3.184,440.793C-15.03,452.639 -4.092,564.869 26.799,566.495C69.601,568.747 75.104,537.119 80.131,513.678C123.628,506.172 105.78,463.911 101.759,462.705C68.017,452.582 65.755,452.886 52.17,421.189C50.053,416.249 18.243,370.857 -3.184,459.245" style="stroke:black;stroke-width:1px;"/>
        <path d="M38.332,633.382C50.833,667.76 61.805,659.724 81.001,689.889C86.505,698.539 117.868,687.529 78.694,628.769C58.037,597.782 42.974,632.927 41.791,635.688" style="stroke:black;stroke-width:1px;"/>
        <path d="M125.974,762.607C125.989,778.916 195.158,805.2 199.783,809.825C205.5,815.542 234.431,801.726 236.686,800.599C263.595,787.145 246.963,750.813 251.654,701.775C210.765,647.256 241.451,609.916 196.323,614.93C173.936,617.417 203.013,713.168 200.936,746.397C199.863,763.567 124.429,742.909 132.896,768.309" style="stroke:black;stroke-width:1px;"/>
        <path d="M271.052,689.913C268.442,642.027 250.974,628.247 281.662,624.156C315.367,619.662 372.766,632.857 391.218,634.535C382.727,682.651 352.024,676.957 338.169,659.906C311.702,627.331 300.831,681.689 300.113,685.277C299.534,688.173 297.868,696.501 263.21,684.123" style="stroke:black;stroke-width:1px;"/>
        <path d="M211.315,566.495C249.037,527.132 273.477,518.532 233.226,481.156C206.378,456.225 214.05,427.477 182.726,446.586C146.274,355.457 134.477,455.543 134.004,459.548C173.769,492.761 196.224,487.285 182.484,537.664C165.317,600.613 217.655,562.813 220.541,560.729" style="stroke:black;stroke-width:1px;"/>
        <path d="M303.342,451.822C316.936,501.785 355.182,458.384 385.452,500.761C401.62,523.397 528.402,597.819 530.758,595.325C553.148,571.618 563.122,556.514 530.758,550.35C498.396,544.185 475.315,487.564 473.058,474.056C427.709,424.72 499.567,407.482 460.399,315.25C439.388,354.801 426.903,348.312 418.895,392.358C413.368,422.754 405.977,417.531 381.779,435.938C361.743,408.54 356.147,416.212 329.072,395.433C328.726,399.588 326.637,424.648 334.405,447.27C310.944,456.034 308.178,461.568 307.032,463.858" style="stroke:black;stroke-width:1px;"/>
        <path d="M464.182,845.993C449.992,886.639 492.586,861.065 497.314,872.099C516.568,917.024 481.278,911.983 484.629,912.461C508.45,915.865 462.893,983.811 443.113,957.437C441.058,954.697 433.388,917.098 385.452,947.058C359.812,963.083 338.45,943.225 331.25,940.139C276.09,916.499 378.995,902.027 390.685,895.429C412.514,891.418 412.66,894.761 431.58,883.631C436.031,881.013 444.414,876.082 474.25,835.196" style="stroke:black;stroke-width:1px;"/>
        <path d="M60.243,235.52C82.897,197.181 102.985,124.686 156.957,182.215C157.31,229.666 141.949,224.398 123.67,267.81C103.526,315.653 72.917,243.588 67.162,241.286" style="stroke:black;stroke-width:1px;"/>
        <path d="M241.299,130.576C253.666,100.895 263.522,106.262 271.283,75.222C272.054,72.135 374.894,15.175 363.54,83.294C354.803,135.717 341,128.284 302.648,169.512C285.774,163.242 286.023,162.461 269.327,168.984C248.889,150.53 239.35,151.414 248.218,124.81" style="stroke:black;stroke-width:1px;"/>
        <path d="M470.79,53.311C494.713,17.426 538.732,13.376 551.516,32.553C552.675,34.291 709.14,19.858 620.709,65.996C564.42,95.364 542.798,42.901 505.387,93.673C496.188,106.157 457.927,51.004 465.024,51.004" style="stroke:black;stroke-width:1px;"/>
        <path d="M862.991,794.679C951.18,810.48 996.479,606.994 970.135,559.575C948.895,521.342 950.986,521.067 937.845,480.003C932.246,462.505 892.79,434.009 888.257,430.735C890.89,379.973 872.7,387.434 816.757,343.923C797.705,329.104 717.278,354.149 799.458,406.197C835.199,428.833 809.027,468.866 840.975,478.85C919.91,503.517 788.143,555.179 790.233,557.269C793.812,560.848 802.749,569.785 763.8,614.748C804.564,617.593 874.204,616.88 884.797,634.535C906.355,670.466 884.244,706.094 881.001,711.32C885.238,714.322 892.092,711.105 896.329,714.107C914.137,726.723 841.412,777.444 838.668,782.147C833.068,791.748 841.541,788.756 868.652,795.986C891.432,802.061 888.326,813.702 890.563,817.897" style="stroke:black;stroke-width:1px;"/>
    </g>
</svg>
