<?xml version="1.0" encoding="UTF-8" standalone="no"?>
<!--
  Copyright © 2026 Chloe Bolland
  contact chloe@mammoththoughts.com if you wish to use, publish or reproduce this game or any part of it in any way
-->
<!DOCTYPE svg PUBLIC "-//W3C//DTD SVG 1.1//EN" "http://www.w3.org/Graphics/SVG/1.1/DTD/svg11.dtd">
<svg width="100%" height="100%" viewBox="0 0 1000 1000" version="1.1" xmlns="http://www.w3.org/2000/svg" xmlns:xlink="http://www.w3.org/1999/xlink" xml:space="preserve" xmlns:serif="http://www.serif.com/" style="fill-rule:evenodd;clip-rule:evenodd;stroke-linecap:round;stroke-linejoin:round;stroke-miterlimit:1.5;">
    <g id="Layer1">
        <path d="M51.14,281.081C33.839,288.534 -13.782,401.946 13.992,453.382C80.67,454.825 79.225,463.561 145.581,467.318C182.211,469.391 180.675,461.703 200.191,431.453C215.148,428.758 236.954,443.462 245.912,378.519C246.375,375.156 238.981,381.796 217.081,347.382C185.699,298.067 155.147,373.093 113.291,331.237C92.195,310.141 85.757,316.998 68.952,342.646C68.151,337.99 60.071,291.03 55.63,285.108" style="stroke:black;stroke-width:1px;"/>
        <path d="M191.71,106.359C193.068,105.951 261.755,36.656 295.5,75.222C314.385,96.804 265.681,149.247 293.194,185.931C341.521,250.368 314.194,265.695 367,326.624C417.524,384.922 372.009,466.813 303.573,421.189C276.488,403.132 278.952,397.339 292.554,368.193C266.153,365.462 266.956,366.653 242.051,360.777C255.876,336.317 253.024,333.867 278.202,319.705C281.359,317.929 327.055,266.459 247.362,286.559C187.986,260.498 73.045,344.92 135.202,262.044C154.7,236.047 91.661,254.815 81.001,222.834C76.129,208.218 136.458,166.224 152.501,150.181C166.44,136.242 188.972,102.054 221.694,78.681" style="stroke:black;stroke-width:1px;"/>
        <path d="M7.195,500.761C32.065,502.751 31.957,500.379 55.63,508.834C95.509,523.076 177.924,540.039 234.379,489.229C292.893,436.567 318.628,503.851 349.702,489.229C385.898,472.195 395.455,554.923 393.524,558.422C330.814,672.084 399.985,725.068 315.105,742.938C301.939,745.71 307.664,793.069 260.903,799.446C226.989,804.07 214.174,779.49 188.417,822.804C106.762,808.92 78.033,836.613 55.63,754.47C54.249,749.405 -20.341,623.445 4.888,497.301" style="stroke:black;stroke-width:1px;"/>
        <path d="M232.793,901.735L222.847,904.389" style="fill:none;stroke:black;stroke-width:1px;"/>
        <path d="M193.769,889.823C214.715,883.449 264.31,940.993 345.089,943.598C373.911,944.528 424.668,1010.87 447.726,1004.72C483.563,995.163 505.314,934.559 465.024,936.679C439.836,938.005 349.976,856.953 330.097,865.179C294.277,880.001 294.465,883.074 256.291,876.712C226.8,871.796 226.978,867.054 198.629,875.558" style="stroke:black;stroke-width:1px;"/>
        <path d="M399.29,746.397C364.636,793.047 361.365,790.016 360.081,794.833C341.686,863.811 401.334,839.255 431.58,867.486C438.007,873.484 552.882,921.482 480.016,834.042C452.611,801.156 512.787,785.709 480.016,759.083C442.967,728.981 434.089,710.513 402.75,747.551" style="stroke:black;stroke-width:1px;"/>
        <path d="M547.127,1001.61C541.568,1000.82 512.805,996.733 537.677,932.066C555.556,885.581 554.427,885.766 556.276,835.846C509.888,797.877 565.075,774.404 528.451,726.793C484.438,669.575 486.601,669.354 482.354,664.87C480.666,603.575 458.044,593.21 488.088,580.333C521.789,565.89 501.224,510.25 569.967,521.519C622.887,530.194 608.127,566.683 661.072,568.801C674.346,569.332 687.885,583.333 691.056,588.406C705.978,612.281 709.895,606.8 734.503,618.669C753.539,665.325 772.773,657.593 776.613,708.154L794.496,710.927L798.305,723.333C951.511,687.704 914.783,779.839 903.249,791.373C851.738,842.884 800.227,894.394 748.717,945.905C734.682,959.94 675.144,957.636 624.169,990.881C587.503,1014.79 536.79,997.889 529.604,995.494" style="stroke:black;stroke-width:1px;"/>
        <path d="M948.224,700.268C944.394,672.182 937.4,661.133 914.781,679.51C877.495,709.805 872.505,658.998 814.45,671.438C793.411,675.946 804.99,617.371 829.442,603.398C848.282,592.632 923.261,609.538 931.229,611.334C975.203,564.353 965.951,559.497 975.229,531.723C926.388,536.956 930.041,562.237 882.491,550.35C812.841,532.937 817.789,585.722 790.233,587.253C769.719,588.392 725.131,557.79 741.797,541.124C750.664,532.257 751.075,535.289 823.528,517.922C830.802,494.323 836.88,487.078 813.297,480.003C806.999,478.114 800.104,493.375 784.467,491.535C719.843,483.932 718.362,509.714 700.281,518.059C696.42,519.842 697.22,513.97 647.418,512.394C548.103,423.822 513.65,490.558 476.556,474.237C429.898,453.707 447.298,430.808 465.024,426.955C614.078,394.552 498.059,227.836 608.024,207.842C647.282,200.704 555.046,349.165 621.862,399.277C656.367,425.156 736.444,345.48 741.797,275.883C743.176,257.96 751.53,263.274 751.023,262.044C731.042,213.518 675.757,230.868 701.435,185.931C755.328,91.617 935.535,234.371 859.426,331.237C855.748,335.918 805.779,367.825 812.144,403.89C815.724,424.18 861.456,433.979 866.345,435.027C893.559,440.859 880.773,478.85 892.87,478.85C908.398,478.85 906.981,480.453 922.096,482.17C928.581,479.157 991.97,449.714 1007.04,509.987C1031.35,607.222 942.53,716.26 932.079,717.567" style="stroke:black;stroke-width:1px;"/>
        <path d="M928.619,271.27C933.889,329.236 864.604,352.99 913.628,414.269C927.431,431.523 947.222,394.454 978.208,422.342C983.16,426.798 1016.27,413.389 996.66,387.745C948.254,324.445 999.775,255.833 915.934,267.81" style="stroke:black;stroke-width:1px;"/>
        <path d="M653.639,258.478C638.228,275.379 640.702,342.235 664.531,331.237C677.683,325.167 682.351,255.962 657.612,243.592" style="stroke:black;stroke-width:1px;"/>
        <path d="M422.25,261.227L415.435,272.423C451.702,340.277 446.108,353.403 466.177,347.382C541.441,324.803 439.324,182.043 596.491,166.326C673.255,158.65 683.447,142.797 687.596,136.343C711.351,99.391 800.034,58.788 691.056,40.625C673.097,37.632 673.487,39.656 643.773,41.778C612.528,44.01 615.404,31.05 583.269,28.666C554.821,-36.257 509.86,155.119 459.258,93.673C432.648,61.362 470.093,-21.729 360.081,17.561C302.526,38.116 357.288,75.661 352.008,130.576C347.368,178.836 346.335,183.617 386.605,211.302C439.516,247.678 424.156,260.907 422.355,289.721" style="stroke:black;stroke-width:1px;"/>
    </g>
</svg>
