<?xml version="1.0" encoding="UTF-8" standalone="no"?>
<!DOCTYPE svg PUBLIC "-//W3C//DTD SVG 1.1//EN" "http://www.w3.org/Graphics/SVG/1.1/DTD/svg11.dtd">
<svg width="100%" height="100%" viewBox="0 0 1000 1000" version="1.1" xmlns="http://www.w3.org/2000/svg" xmlns:xlink="http://www.w3.org/1999/xlink" xml:space="preserve" xmlns:serif="http://www.serif.com/" style="fill-rule:evenodd;clip-rule:evenodd;stroke-linecap:round;stroke-linejoin:round;stroke-miterlimit:1.5;">
    <g id="Layer1">
        <path d="M155.96,869.792C164.631,878.463 248.795,962.627 304.726,906.695C342.321,869.1 309.473,833.721 377.379,816.744C380.078,816.069 428.697,843.386 446.572,768.309C464.837,691.596 467.614,667.689 546.903,677.204C589.26,682.287 597.73,707.027 649.54,709.494C678.575,710.877 665.764,730.04 691.056,744.091C721.144,760.807 668.943,825.97 757.942,825.97C771.678,825.97 733.961,733.721 754.483,703.728C774.848,673.964 746.679,617.768 687.596,627.615C660.295,632.166 659.501,590.852 618.403,604.551C580.376,617.226 587.193,586.376 536.524,573.414C326.653,519.726 301.486,527.719 256.291,604.551C216.121,672.84 428.356,684.396 327.79,764.849C279.188,803.731 326.912,833.643 278.202,872.099C266.492,881.343 267.154,906.377 225.228,893.638L223.581,906.276C193.935,878.655 194.18,858.56 159.42,861.72" style="stroke:black;stroke-width:1px;"/>
        <path d="M827.136,138.649C820.771,87.728 784.233,104.05 739.104,71.815C711.087,77.449 697.865,73.721 689.902,76.375C685.695,77.777 687.984,81.455 643.203,106.24C539.615,95.782 539.5,90.734 524.991,99.439C413.246,166.486 420.139,47.834 459.258,37.165C548.735,12.763 390.389,-17.721 399.29,26.786C413.807,99.368 381.63,114.157 377.76,125.131L394.278,122.186C360.311,188.501 359.72,194.555 398.137,258.584C412.059,281.787 495.361,208.903 499.621,221.681C500.974,225.743 505.289,229.294 545.995,194.97L563.636,194.983C598.001,221.537 604.786,209.584 636.854,238.979C796.187,385.034 752.063,201.991 748.717,197.463C719.67,158.165 745.829,157.682 772.934,130.576C793.041,110.47 796.164,125.571 823.676,134.036" style="stroke:black;stroke-width:1px;"/>
    </g>
</svg>
