<?xml version="1.0" encoding="UTF-8" standalone="no"?>
<!DOCTYPE svg PUBLIC "-//W3C//DTD SVG 1.1//EN" "http://www.w3.org/Graphics/SVG/1.1/DTD/svg11.dtd">
<svg width="100%" height="100%" viewBox="0 0 1000 1000" version="1.1" xmlns="http://www.w3.org/2000/svg" xmlns:xlink="http://www.w3.org/1999/xlink" xml:space="preserve" xmlns:serif="http://www.serif.com/" style="fill-rule:evenodd;clip-rule:evenodd;stroke-linecap:round;stroke-linejoin:round;stroke-miterlimit:1.5;">
    <g id="Layer1">
        <path d="M7.195,594.172C55.977,838.087 148.368,785.712 266.67,855.954C313.391,883.694 324.926,867.423 356.621,911.308C358.353,913.707 391.582,929.447 394.677,930.913C458.94,961.353 473.168,928.678 515.766,971.276C533.171,988.681 567.328,977.041 571.12,978.195C580.946,981.186 646.337,1001.09 695.668,947.058C721.507,918.759 616.793,942.459 594.185,885.937C577.137,843.317 567.705,848.744 524.991,724.486C512.322,687.629 494.262,708.681 485.782,696.809C406.274,585.498 381.559,634.68 378.532,643.761C378.498,643.865 347.335,665.551 363.54,697.962C373.223,717.327 464.831,722.753 477.709,761.389C483.221,777.925 523.104,780.979 476.556,837.502C475.258,839.078 472.713,831.991 452.338,845.575C422.672,865.352 424.101,831.359 388.911,832.889C325.605,835.642 287.221,781.433 316.258,754.47C316.272,754.457 330.696,754.692 326.637,714.107C323.755,685.281 293.372,746.841 264.363,737.172C238.748,728.633 238.865,737.369 164.519,754.913C139.225,737.228 126.96,760.184 109.831,733.712C106.368,728.359 63.183,695.741 60.243,686.43C57.683,678.325 29.452,588.925 11.807,591.866" style="stroke:black;stroke-width:1px;"/>
        <path d="M937.845,433.874C933.202,382.793 940.303,381.911 921.7,333.544C920.05,329.253 927.564,223.922 852.044,219.202C840.586,178.093 839.103,174.585 749.87,136.343C694.416,112.577 684.394,124.014 680.724,128.204C508.724,128.356 515.587,181.141 528.451,182.472C573.848,187.168 604.117,176.573 610.33,174.399C633.784,166.19 684.367,201.269 620.709,225.141C598.173,233.592 601.101,243.159 576.887,240.133C526.795,233.871 449.605,289.774 491.548,354.302C503.629,372.887 505.91,369.955 527.298,371.6C536.181,372.283 516.979,382.122 557.282,478.85C571.34,512.589 605.709,479.604 590.725,454.632C577.3,432.256 582.419,425.28 607.598,422C617.157,346.226 617.171,346.284 617.391,344.125C661.646,343.636 661.265,343.278 674.506,343.956C685.783,368.766 686.528,367.877 687.67,395.355C758.618,419.339 760.958,415.382 763.709,421.189C766.55,427.187 779.119,453.722 807.638,491.569C813.206,492.877 835.509,503.096 837.515,497.301C846.697,470.776 853.396,422.443 858.393,398.708L885.503,381.839C898.226,416.911 905.109,477.309 935.539,440.793" style="stroke:black;stroke-width:1px;"/>
        <path d="M121.364,235.52C139.27,181.799 132.864,173.26 184.189,150.081C223.921,95.729 221.346,89.956 285.506,71.297C283.153,81.184 273.434,122.003 206.702,170.939C168.481,198.968 176.062,289.956 136.355,234.367" style="stroke:black;stroke-width:1px;"/>
    </g>
</svg>
