<?xml version="1.0" encoding="UTF-8" standalone="no"?>
<!DOCTYPE svg PUBLIC "-//W3C//DTD SVG 1.1//EN" "http://www.w3.org/Graphics/SVG/1.1/DTD/svg11.dtd">
<svg width="100%" height="100%" viewBox="0 0 1000 1000" version="1.1" xmlns="http://www.w3.org/2000/svg" xmlns:xlink="http://www.w3.org/1999/xlink" xml:space="preserve" xmlns:serif="http://www.serif.com/" style="fill-rule:evenodd;clip-rule:evenodd;stroke-linecap:round;stroke-linejoin:round;stroke-miterlimit:1.5;">
    <g id="Layer1">
        <path d="M23.135,742.754L21.033,742.938" style="fill:none;stroke:black;stroke-width:1px;"/>
        <path d="M24.493,726.793C46.97,789.728 56.366,823.499 107.828,779.756C149.227,779.995 138.116,739.104 169.799,729.099C210.24,716.328 194.326,698.015 226.883,670.573C215.948,671.436 136.398,677.717 92.533,697.962C61.067,712.485 15.669,692.247 26.799,725.639" style="stroke:black;stroke-width:1px;"/>
        <path d="M93.225,575.525C110.711,627.827 184.062,565.678 219.387,584.946C232.022,591.838 256.337,567.746 264.363,572.261C290.011,586.688 291.457,582.931 317.411,569.954C276.024,550.35 269.456,553.915 224.255,549.94C203.704,505.414 117.473,539.099 72.928,552.656C42.252,561.992 95.397,580.477 98.299,581.487" style="stroke:black;stroke-width:1px;"/>
        <path d="M255.137,473.084C250.404,477.817 251.915,467.538 296.653,400.431C302.302,391.957 308.19,383.126 316.654,274.712C276.497,337.437 241.419,365.55 243.605,444.253L251.952,432.886C251.616,436.926 249.371,463.858 255.137,483.463" style="stroke:black;stroke-width:1px;"/>
        <path d="M187.097,407.35C192.268,376.324 191.069,377.414 198.058,349.088C163.362,338.048 161.488,310.718 135.202,337.003C131.993,340.212 158.248,374.343 160.573,377.366C174.268,395.169 188.783,402.427 191.71,403.89" style="stroke:black;stroke-width:1px;"/>
        <path d="M230.803,296.353C261.565,274.973 290.923,273.026 260.903,250.512C240.684,235.347 192.561,277.114 244.758,292.028" style="stroke:black;stroke-width:1px;"/>
        <path d="M529.604,684.123C530.543,689.284 539.178,736.778 566.508,738.325C716.194,746.798 735.918,750.171 749.411,685.403C731.116,697.795 726.114,699.809 724.499,693.349C718.841,670.717 713.34,665.038 693.362,678.357C675.493,690.27 600.746,540.686 533.064,676.051" style="stroke:black;stroke-width:1px;"/>
        <path d="M482.322,824.817C486.382,820.573 533.064,771.768 533.064,771.768C536.75,769.38 542.551,773.877 546.237,771.489C581.786,721.835 594.323,741.126 648.386,770.615C651.696,772.421 650.468,803.16 638.007,813.284C612.918,833.669 614.068,837.093 582.443,838.891C562.364,869.108 559.294,866.038 557.282,864.026C555.372,862.117 524.402,868.462 490.395,858.26C490.168,857.73 478.912,844.177 482.322,827.123" style="stroke:black;stroke-width:1px;"/>
        <path d="M293.194,932.066C327.933,1022.39 416.586,974.122 426.288,968.84C463.251,988.186 445.168,929.108 439.653,927.453C409.305,918.349 355.782,822.361 308.186,944.752" style="stroke:black;stroke-width:1px;"/>
        <path d="M13.188,239.846C12.09,234.097 -2.427,158.027 48.274,175.646C100.441,151.934 63.846,271.347 61.396,279.342C59.3,286.183 58.376,285.193 21.505,359.386C3.252,256.48 2.57,250.801 1.428,241.286" style="stroke:black;stroke-width:1px;"/>
        <path d="M394.677,77.528C435.475,159.123 508.194,116.04 513.459,84.448C519.503,48.186 475.324,69.74 471.943,32.553C470.386,15.42 412.582,7.04 378.532,22.174C334.203,41.875 413.078,91.325 420.048,97.133" style="stroke:black;stroke-width:1px;"/>
        <path d="M746.41,177.859C802.231,171.292 793.49,192.513 804.071,210.149C821.071,238.481 838.073,223.36 867.91,277.962C924.214,296.626 933.379,290.172 955.723,342.985C990.962,345.476 947.286,357.388 945.918,357.761C920.051,364.816 923.13,353.48 903.054,337.054C886.952,340.38 883.033,354.845 864.039,335.85C855.154,326.966 831.574,348.198 807.583,368.805C805.162,300.28 834.703,303.197 824.829,273.576C818.953,255.948 773.037,287.602 781.112,241.845C764.947,231.457 778.809,225.345 769.475,207.842C761.688,193.243 761.158,195.109 748.717,183.625" style="stroke:black;stroke-width:1px;"/>
        <path d="M976.696,449.226C983.866,472.369 1004.95,608.181 972.442,635.688C945.792,658.238 965.848,674.898 952.837,674.898C948.199,674.898 942.851,674.898 907.916,711.559C907.81,611.262 953.125,612.117 929.773,559.575C910.674,516.603 932.656,514.79 926.125,467.345C962.063,463.858 970.135,459.822 973.595,458.092" style="stroke:black;stroke-width:1px;"/>
        <path d="M523.712,336.213C494.306,364.594 530.97,471.586 601.104,426.955C618.431,415.929 624.036,269.957 530.758,319.705" style="stroke:black;stroke-width:1px;"/>
    </g>
</svg>
