<?xml version="1.0" encoding="UTF-8" standalone="no"?>
<!--
  Copyright © 2026 Chloe Bolland
  contact chloe@mammoththoughts.com if you wish to use, publish or reproduce this game or any part of it in any way
-->
<!DOCTYPE svg PUBLIC "-//W3C//DTD SVG 1.1//EN" "http://www.w3.org/Graphics/SVG/1.1/DTD/svg11.dtd">
<svg width="100%" height="100%" viewBox="0 0 1000 1000" version="1.1" xmlns="http://www.w3.org/2000/svg" xmlns:xlink="http://www.w3.org/1999/xlink" xml:space="preserve" xmlns:serif="http://www.serif.com/" style="fill-rule:evenodd;clip-rule:evenodd;stroke-linecap:round;stroke-linejoin:round;stroke-miterlimit:1.5;">
    <g id="Layer1">
        <path d="M16.42,366.987C17.815,361.663 18.427,361.992 35.632,300.925C77.969,338.852 78.289,339.732 134.049,349.689C223.491,365.66 215.835,333.848 272.436,288.568C282.148,280.798 300.711,244.191 350.855,294.334C351.204,294.683 387.747,352.07 385.452,368.14C381.487,395.894 381.675,394.64 384.298,423.495C385.153,432.902 344.684,486.346 343.936,507.68C343.389,523.269 338.191,671.398 322.024,701.422C290.11,760.692 280.6,754.986 275.895,752.164C255.514,739.935 241.393,747.174 247.065,724.486C259.248,675.752 244.734,657.877 243.605,652.986C263.95,631.512 273.005,639.66 283.968,611.47C317.965,524.048 342.446,514.305 324.331,498.455C295.201,472.966 105.562,576.997 132.896,494.995C140.528,472.099 222.031,398.869 188.25,381.979C152.221,363.964 161.883,416.395 123.395,409.397C93.861,429.51 95.035,429.535 60.885,441.533C53.422,438.472 45.959,435.411 38.496,432.35C34.393,410.575 33.054,408.6 11.807,407.35C8.756,407.17 8.694,405.446 15.267,369.294" style="stroke:black;stroke-width:1px;"/>
        <path d="M793.513,897.001C748.416,935.15 866.639,803.768 812.144,827.123C765.045,847.308 788.223,806.999 796.425,722.511C789.391,732.851 728.371,837.267 748.717,723.333C752.44,702.482 734.732,714.823 732.572,708.341C718.163,665.116 698.162,678.607 680.677,635.688C655.221,573.207 668.557,558.384 605.405,533.691C610.63,567.271 610.671,566.301 622.114,598.459C595.285,632.616 589.926,622.526 576.887,624.156C567.689,625.305 573.231,629.123 580.809,659.956C498.041,725.341 458.67,700.698 448.735,801.652C525.666,807.254 535.214,803.099 530.758,813.284C527.022,821.822 518.582,816.427 475.04,915.584C505.713,924.567 531.371,932.278 545.749,902.082C555.128,882.387 558.158,883.966 579.861,886.25C606.62,859.751 610.61,868.72 647.785,874.725C635.053,837.424 643.189,831.731 617.249,814.438C562.933,778.227 645.379,735.598 654.152,757.93C657.789,767.188 688.25,844.722 734.878,852.494C748.076,854.694 699.938,929.048 737.184,922.84C742.768,921.91 740.164,915.753 804.071,899.776" style="stroke:black;stroke-width:1px;"/>
    </g>
</svg>
