<?xml version="1.0" encoding="UTF-8" standalone="no"?>
<!--
  Copyright © 2026 Chloe Bolland
  contact chloe@mammoththoughts.com if you wish to use, publish or reproduce this game or any part of it in any way
-->
<!DOCTYPE svg PUBLIC "-//W3C//DTD SVG 1.1//EN" "http://www.w3.org/Graphics/SVG/1.1/DTD/svg11.dtd">
<svg width="100%" height="100%" viewBox="0 0 1000 1000" version="1.1" xmlns="http://www.w3.org/2000/svg" xmlns:xlink="http://www.w3.org/1999/xlink" xml:space="preserve" xmlns:serif="http://www.serif.com/" style="fill-rule:evenodd;clip-rule:evenodd;stroke-linecap:round;stroke-linejoin:round;stroke-miterlimit:1.5;">
    <g id="Layer1">
        <path d="M10.654,377.366C7.604,409.396 6.448,408.782 11.363,439.991C50.325,407.828 91.287,410.717 55.63,375.06C11.47,330.9 12.156,373.319 10.654,380.826" style="stroke:black;stroke-width:1px;"/>
        <path d="M134.049,234.367C157.959,291.751 232.242,271.524 197.476,219.375C193.444,213.326 205.491,179.8 159.42,195.157C143.461,200.477 136.007,241.473 135.202,245.899" style="stroke:black;stroke-width:1px;"/>
        <path d="M413.129,180.165C458.643,233.265 446.757,243.727 504.295,283.739C503.19,246.171 504.217,246.995 494.873,209.541C525.283,165.44 557.954,158.807 516.6,124.751C512.747,129.612 475.482,176.624 467.409,184.685C459.134,182.659 450.858,180.633 442.583,178.607C432.39,171.257 415.752,144.647 407.363,189.391L421.201,182.472" style="stroke:black;stroke-width:1px;"/>
        <path d="M655.306,222.834C704.722,232.718 701.611,160.009 686.443,147.875C664.265,130.133 702.098,111.217 705.14,109.696C721.245,136.802 722.333,135.13 738.964,161.49C747.637,162.646 855.539,177.033 822.523,232.06C806.271,259.147 817.854,260.33 820.216,283.955C823.989,321.681 815.24,327.184 777.087,323.232C761.386,303.045 748.146,332.615 733.725,312.786C710.231,280.482 795.338,174.925 725.652,222.834C714.42,230.556 714.643,210.178 706.047,214.762C705.274,215.174 683.386,235.923 671.451,223.988" style="stroke:black;stroke-width:1px;"/>
        <path d="M589.572,45.238C603.972,64.781 603.605,76.775 624.169,63.69C625.059,63.123 624.169,63.69 635.25,70.86C641.262,31.472 625.914,17.371 594.185,41.778" style="stroke:black;stroke-width:1px;"/>
        <path d="M531.211,28.482C519.076,82.427 560.419,34.567 562.047,32.683C547.637,30.671 548.357,29.41 534.217,32.553" style="stroke:black;stroke-width:1px;"/>
        <path d="M454.235,51.542C450.614,65.931 466.569,84.599 483.475,55.617C484.652,53.599 481.243,36.05 454.645,60.23" style="stroke:black;stroke-width:1px;"/>
        <path d="M287.428,55.617C289.944,73.233 285.24,98.409 310.492,86.754C325.085,80.019 325.398,84.401 325.484,85.601C329.469,141.393 398.666,74.333 370.46,60.23C356.843,53.421 346.507,4.611 295.5,55.617" style="stroke:black;stroke-width:1px;"/>
        <path d="M55.63,598.785C69.354,604.667 64.135,622.833 84.46,626.462C105.703,630.256 106.356,627.6 122.517,643.761C131.272,652.515 165.331,574.445 129.436,561.882C105.734,553.586 127.176,538.322 120.21,526.132C109.775,507.871 107.443,525.06 92.245,540.259C59.062,539.553 77.076,567.803 63.702,572.261C50.518,576.656 58.958,598.824 59.09,599.938" style="stroke:black;stroke-width:1px;"/>
        <path d="M91.38,722.18C92.253,726.894 100.99,774.075 121.364,774.075C141.931,774.075 129.985,762.273 135.56,725.242C116.194,714.882 114.537,713.507 98.299,726.793" style="stroke:black;stroke-width:1px;"/>
        <path d="M219.02,756.651C236.46,789.395 248.689,750.014 282.815,761.389C297.953,766.435 376.352,669.995 285.5,701.217C266.192,684.076 261.271,673.862 244.758,694.502C234.741,707.024 230.48,687.847 219.387,694.502C199.134,706.655 211.193,712.076 217.081,754.47" style="stroke:black;stroke-width:1px;"/>
        <path d="M238.992,467.318C255.795,500.922 266.012,495.652 283.024,478.64C304.513,516.244 298.215,442.227 279.355,429.261C253.198,411.278 242.182,466.359 241.299,470.777" style="stroke:black;stroke-width:1px;"/>
        <path d="M282.815,313.939C327.805,353.93 345.46,279.082 342.782,278.189C333.474,275.086 322.501,297.193 318.565,273.576C315.919,257.7 268.793,296.457 287.428,315.092" style="stroke:black;stroke-width:1px;"/>
        <path d="M372.766,325.471C398.392,305.54 384.13,300.406 381.992,300.1C368.633,298.192 370.202,302.322 361.234,312.786" style="stroke:black;stroke-width:1px;"/>
        <path d="M373.919,267.81C392.736,297.379 396.75,274.29 396.984,272.423C398.105,263.457 371.554,266.407 369.306,266.657" style="stroke:black;stroke-width:1px;"/>
        <path d="M354.303,225.185C340.496,238.894 356.051,251.373 357.774,250.512C369.548,244.625 379.922,212.692 377.379,210.149C363.54,196.31 351.764,231.641 350.855,234.367" style="stroke:black;stroke-width:1px;"/>
        <path d="M417.742,350.842C431.26,371.119 435.717,357.017 447.726,337.003C518.264,219.439 417.155,347.51 415.435,349.689" style="stroke:black;stroke-width:1px;"/>
        <path d="M358.129,376.378C360.811,422.296 378.966,387.165 379.685,385.439C391.067,358.122 362.561,360.973 360.081,361.221" style="stroke:black;stroke-width:1px;"/>
        <path d="M297.807,358.915C293.607,375.714 310.629,374.697 311.645,373.906C329.244,360.218 314.369,352.78 312.799,351.995" style="stroke:black;stroke-width:1px;"/>
        <path d="M227.743,351.79C240.85,372.242 251.036,331.5 251.678,328.931C249.703,329.965 227.46,341.616 226.307,340.463" style="stroke:black;stroke-width:1px;"/>
        <path d="M170.355,359.884C170.088,363.234 166.309,410.673 181.331,400.431C183.624,398.867 224.801,370.792 190.557,366.987C169.512,364.649 164.2,376.046 164.033,376.213" style="stroke:black;stroke-width:1px;"/>
        <path d="M176.718,466.164C197.527,459.922 206.509,478.755 214.775,458.092C221.747,440.662 199.53,405.097 180.178,453.479" style="stroke:black;stroke-width:1px;"/>
        <path d="M70.622,290.874C68.548,284.654 70.332,284.887 85.4,240.788C93.366,251.244 96.613,244.391 107.525,251.665C109.561,253.022 107.063,253.787 101.028,281.549C78.114,269.845 78.073,267.278 74.081,271.27" style="stroke:black;stroke-width:1px;"/>
        <path d="M243.605,249.358C250.991,266.593 258.09,260.966 267.823,244.746C269.077,242.655 277.976,227.823 241.299,229.754" style="stroke:black;stroke-width:1px;"/>
        <path d="M566.508,476.543C584.651,514.846 593.587,530.19 623.015,500.761C638.202,485.574 626.721,482.744 606.87,474.237C583.721,464.316 581.798,465.762 564.201,484.616" style="stroke:black;stroke-width:1px;"/>
        <path d="M836.362,467.318C833.723,498.981 858.853,506.802 867.499,476.543C872.687,458.383 841.332,446.202 832.902,454.632" style="stroke:black;stroke-width:1px;"/>
        <path d="M897.482,381.979C897.972,384.101 903.887,409.734 913.628,403.89C921.353,399.255 904.71,378.072 903.249,376.213" style="stroke:black;stroke-width:1px;"/>
        <path d="M900.942,295.487C901.576,298.022 919.607,370.148 925.16,317.399C927.458,295.561 907.793,307.898 904.402,294.334" style="stroke:black;stroke-width:1px;"/>
        <path d="M877.878,247.052C882.777,256.851 905.083,271.898 903.249,260.891C899.955,241.129 900.621,240.364 883.644,229.754" style="stroke:black;stroke-width:1px;"/>
        <path d="M862.886,197.463C870.196,208.429 871.289,205.902 881.879,213.629C875.548,205.165 869.217,196.701 862.886,188.238" style="stroke:black;stroke-width:1px;"/>
        <path d="M786.627,117.212C800.129,136.248 803.499,151.128 807.531,136.343C815.774,106.118 779.444,112.724 776.394,113.278" style="stroke:black;stroke-width:1px;"/>
        <path d="M737.655,91.555C740.031,90.9 727.89,92.022 730.265,91.367C730.977,91.171 762.043,79.493 730.265,82.141" style="stroke:black;stroke-width:1px;"/>
        <path d="M175.711,139.204C148.525,164.072 194.726,145.799 203.242,123.657C212.837,98.71 194.654,128.256 168.646,134.036" style="stroke:black;stroke-width:1px;"/>
        <path d="M42.111,487.711C28.79,477.772 39.194,492.106 45.251,507.68C43.329,496.917 41.407,486.153 39.485,475.39L38.332,485.769" style="stroke:black;stroke-width:1px;"/>
        <path d="M24.493,579.18C27.568,596.478 30.643,613.777 33.719,631.075C31.726,586.238 36.168,573.069 25.646,581.487C13.831,590.938 20.157,593.118 21.033,608.011" style="stroke:black;stroke-width:1px;"/>
        <path d="M76.544,700.756C79.405,700.238 66.608,696.173 69.469,695.656C80.529,693.655 89.52,705.245 85.614,694.502C81.28,682.585 66.738,676.71 66.009,681.817C63.816,697.165 68.687,695.06 77.541,708.341" style="stroke:black;stroke-width:1px;"/>
        <path d="M212.592,839.426C212.373,854.338 206.42,841.405 196.195,830.455C224.371,874.188 230.747,872.616 232.073,868.639C234.51,861.329 174.164,795.244 191.71,847.881" style="stroke:black;stroke-width:1px;"/>
        <path d="M240.145,903.236C279.19,929.266 283.699,927.011 287.428,925.147C290.011,923.855 298.219,905.925 255.137,909.002" style="stroke:black;stroke-width:1px;"/>
        <path d="M353.161,937.832C361.547,962.988 398.338,952.808 379.685,942.445C370.973,937.605 340.148,949.695 372.766,958.59" style="stroke:black;stroke-width:1px;"/>
        <path d="M556.129,918.228C565.159,921.238 565.641,924.86 572.274,918.228" style="stroke:black;stroke-width:1px;"/>
        <path d="M629.46,822.015C637.103,856.58 648.759,847.219 689.053,868.791C697.437,857.757 746.867,802.472 748.717,791.373C751.491,774.729 741.634,789.327 732.483,803.083C732.576,779.83 727.606,775.336 704.645,782.388C669.798,773.096 665.346,791.61 636.854,823.663" style="stroke:black;stroke-width:1px;"/>
        <path d="M845.587,787.913C847.716,790.894 869.269,816.143 880.184,757.93C887.449,719.181 849.743,794.594 847.894,798.292" style="stroke:black;stroke-width:1px;"/>
        <path d="M932.01,693.578C918.631,733.457 945.964,679.926 936.692,673.744C936.052,673.318 934.96,673.234 934.386,673.744C932.349,675.554 933.19,675.965 918.24,703.728L922.853,692.196" style="stroke:black;stroke-width:1px;"/>
        <path d="M949.15,622.41C944.935,624.088 940.386,625.682 942.458,639.148C944.963,655.43 955.658,609.594 956.297,606.857L950.531,620.696" style="stroke:black;stroke-width:1px;"/>
        <path d="M957.72,537.956C952.633,540.934 947.545,543.912 942.458,546.89" style="stroke:black;stroke-width:1px;"/>
        <path d="M619.512,928.156C624.421,958.387 657.307,924.678 649.54,907.849C633.17,872.382 617.003,934.355 616.096,937.832" style="stroke:black;stroke-width:1px;"/>
        <path d="M439.653,959.744C457.76,955.72 458.524,957.437 470.79,942.445" style="stroke:black;stroke-width:1px;"/>
        <path d="M112.138,317.399C105.374,349.525 108.307,350.842 110.985,350.842C154.48,350.842 188.711,355.687 204.396,324.318C209.333,314.444 198.405,283.022 179.239,318.159C170.641,312.049 169.979,305.053 158.267,315.092C144.919,326.533 143.654,317.509 138.367,318.383C128.914,282.145 122.241,285.384 120.21,287.415C107.619,300.006 101.563,300.542 110.985,316.245" style="stroke:black;stroke-width:1px;"/>
        <path d="M230.92,200.923C287.847,205.873 259.646,172.629 265.516,164.02C306.653,103.686 320.489,158.158 340.476,159.407C387.689,162.358 331.062,211.237 325.484,217.068C326.322,203.313 327.16,189.558 327.999,175.804L314.437,175.188L304.667,157.521C300.742,170.603 296.817,183.685 292.892,196.767C275.35,209.993 280.72,216.843 259.75,222.834C257.241,223.551 257.444,223.493 236.686,199.77" style="stroke:black;stroke-width:1px;"/>
        <path d="M410.314,111.714C422.455,72.803 427.825,74.423 430.427,76.375C431.147,76.915 438.019,131.393 451.185,124.81C481.165,109.821 453.21,103.825 451.54,103.467C434.747,90.855 433.699,93.969 432.734,92.52" style="stroke:black;stroke-width:1px;"/>
        <path d="M565.354,142.109C588.57,197.828 604.937,134.658 603.411,132.883C597.514,126.022 585.718,126.324 579.822,119.464L587.266,135.189C568.837,76.832 554.267,141.057 554.975,146.722" style="stroke:black;stroke-width:1px;"/>
        <path d="M568.814,279.342C582.763,300.265 575.761,317.258 598.798,307.02C604.47,304.499 611.583,340.81 617.249,327.778C624.286,311.593 632.984,276.042 603.638,303.416C600.602,274.571 591.58,272.62 565.354,285.108" style="stroke:black;stroke-width:1px;"/>
        <path d="M243.605,595.325C246.603,625.3 258.204,616.162 287.428,610.317C290.321,609.738 289.865,586.03 287.428,584.946C281.704,582.403 261.445,598.181 256.291,594.172C250.213,589.445 250.411,582.867 247.065,589.559" style="stroke:black;stroke-width:1px;"/>
        <path d="M97.051,431.357C88.39,477.346 114.645,458.047 115.597,455.785C129.697,422.298 97.57,427.653 94.839,428.108" style="stroke:black;stroke-width:1px;"/>
        <path d="M26.961,489.849C17.213,481.244 15.401,529.844 27.953,522.672C33.172,519.69 44.794,486.462 26.799,483.463" style="stroke:black;stroke-width:1px;"/>
        <path d="M59.09,322.011L71.775,342.769C70.767,324.619 72.611,324.854 62.549,310.479" style="stroke:black;stroke-width:1px;"/>
        <path d="M931.857,493.209L929.773,521.519L929.773,477.697L921.7,498.455" style="stroke:black;stroke-width:1px;"/>
        <path d="M455.459,764.593C450.116,796.611 467.596,782.415 468.484,780.994C473.218,773.419 478.45,719.545 455.798,764.849" style="stroke:black;stroke-width:1px;"/>
    </g>
</svg>
