<?xml version="1.0" encoding="UTF-8" standalone="no"?>
<!--
  Copyright © 2026 Chloe Bolland
  contact chloe@mammoththoughts.com if you wish to use, publish or reproduce this game or any part of it in any way
-->
<!DOCTYPE svg PUBLIC "-//W3C//DTD SVG 1.1//EN" "http://www.w3.org/Graphics/SVG/1.1/DTD/svg11.dtd">
<svg width="100%" height="100%" viewBox="0 0 1000 1000" version="1.1" xmlns="http://www.w3.org/2000/svg" xmlns:xlink="http://www.w3.org/1999/xlink" xml:space="preserve" xmlns:serif="http://www.serif.com/" style="fill-rule:evenodd;clip-rule:evenodd;stroke-linecap:round;stroke-linejoin:round;stroke-miterlimit:1.5;">
    <g id="Layer1">
        <path d="M2.169,510.619C3.306,553.383 -3.614,581.741 27.953,578.027C37.334,576.923 74.623,524.232 55.63,521.519C30.687,517.956 17.044,475.826 2.582,519.213" style="stroke:black;stroke-width:1px;"/>
        <path d="M28.95,677.39C23.799,694.293 53.664,735.88 64.856,706.035C71.05,689.517 134.929,679.332 139.815,620.696C141.091,605.382 162.88,613.442 162.88,569.954C162.88,567.845 150.587,476.86 140.968,553.809C135.406,598.306 15.556,575.202 62.549,603.398C92.105,621.131 104.558,627.299 80.857,653.131C74.405,683.669 51.351,684.21 36.025,671.438" style="stroke:black;stroke-width:1px;"/>
        <path d="M343.936,778.688C365.966,800.718 373.927,784.116 373.874,753.659C427.036,741.175 395.53,694.803 400.443,689.889C423.227,667.106 385.589,659.717 377.379,602.245C376.997,599.57 387.833,560.471 410.193,610.212C452.312,619.028 451.287,634.501 492.435,620.785L494.38,631.76C497.402,628.73 687.014,414.851 518.072,583.793C492.986,608.879 487.651,593.97 453.322,601.148C416.815,542.284 282.145,560.862 281.814,560.888C275.332,603.023 321.906,573.079 335.863,612.624C343.036,632.946 374.16,644.592 375.073,678.357C376.016,713.261 383.215,729.052 358.927,745.244C345.292,754.334 350.262,779.184 350.855,782.147" style="stroke:black;stroke-width:1px;"/>
        <path d="M698.631,611.873C694.802,630.811 698.336,631.104 715.273,641.454C722.389,645.803 714.302,656.331 750.385,668.729L756.184,689.136C757.22,690.73 769.36,689.234 767.168,706.035C760.499,757.166 733.963,759.269 756.789,785.607C769.427,800.189 769.13,806.537 785.62,798.292C822.583,809.844 828.394,805.958 899.789,725.639C934.075,687.067 915.615,679.314 932.079,629.922C938.927,609.379 931.631,610.419 919.792,591.887C840.906,584.807 902.846,709.114 860.579,717.567C843.616,720.959 850.349,736.852 830.596,748.704C819.541,755.336 819.442,752.158 799.843,752.121C759.209,783.725 795.916,718.967 793.692,694.502C791.458,669.922 841.317,695.545 847.178,697.405C843.772,678.058 845.234,673.866 824.829,672.591C821.014,672.353 826.39,660.185 780.532,654.682C791.509,602.515 796.988,603.015 787.898,549.997C772.952,585.324 783.103,587.674 766.015,621.849C748.914,656.051 738.349,612.68 700.281,618.39" style="stroke:black;stroke-width:1px;"/>
        <path d="M531.911,142.109C534.489,205.274 540.085,203.881 542.243,266.912C556.893,204.469 539.055,124.465 638.007,110.972C640.228,110.669 642.098,109.001 643.773,107.512C646.637,104.966 645.601,104.471 668.442,66.454C666.64,63.24 655.955,68.66 661.072,53.311C678.475,1.102 630.543,52.109 611.483,46.391C605.65,44.641 437.646,-5.76 535.37,47.544C577.561,70.557 633.586,63.413 587.266,99.439C546.903,130.832 530.956,124.146 536.524,159.407" style="stroke:black;stroke-width:1px;"/>
        <path d="M772.7,397.301C821.745,417.302 827.147,399.378 837.035,348.065C830.847,356.245 824.66,364.425 818.472,372.604C791.245,379.423 786.066,371.241 774.088,391.205" style="stroke:black;stroke-width:1px;"/>
        <path d="M496.161,993.187C481.093,963.051 505.641,958.895 508.846,948.211C511.474,939.452 497.125,938.968 514.612,834.042C521.701,907.293 522.604,910.904 581.679,954.813C578.415,955.762 558.861,961.443 539.27,957.526C538.524,959.559 530.339,981.829 529.604,982.808C517.167,999.392 514.404,994.167 495.008,987.421" style="stroke:black;stroke-width:1px;"/>
    </g>
</svg>
