<?xml version="1.0" encoding="UTF-8" standalone="no"?>
<!DOCTYPE svg PUBLIC "-//W3C//DTD SVG 1.1//EN" "http://www.w3.org/Graphics/SVG/1.1/DTD/svg11.dtd">
<svg width="100%" height="100%" viewBox="0 0 1000 1000" version="1.1" xmlns="http://www.w3.org/2000/svg" xmlns:xlink="http://www.w3.org/1999/xlink" xml:space="preserve" xmlns:serif="http://www.serif.com/" style="fill-rule:evenodd;clip-rule:evenodd;stroke-linecap:round;stroke-linejoin:round;stroke-miterlimit:1.5;">
    <g id="Layer1">
        <path d="M890.69,803.994C899.56,801.841 889.596,794.023 956.297,710.647C972.812,690.004 1020.41,575.19 967.829,552.656C939.983,540.722 950.685,500.652 910.168,513.446C860.57,529.109 757.747,429.983 691.824,487.307C596.66,473.984 638.784,583.142 561.895,586.099C482.71,589.145 487.966,605.554 433.636,663.817C481.432,689.497 481.104,694.977 535.37,689.889C577.748,685.917 645.683,803.258 643.773,813.284C636.944,849.139 626.33,850.274 643.773,882.478C662.162,916.426 605.428,965.169 659.919,970.123C672.586,971.274 811.318,920.372 868.652,858.26C887.617,837.715 896.008,789.804 906.708,784.454" style="stroke:black;stroke-width:1px;"/>
        <path d="M107.525,346.229C104.746,304.549 119.652,278.913 142.122,223.988C157.952,185.292 158,175.59 226.108,172.112C264.694,187.802 263.021,154.767 303.573,160.56C368.368,169.817 317.052,222.059 304.726,225.141C171.386,258.476 217.586,448.29 152.501,423.495C98.544,402.94 146.632,352.79 91.38,337.003" style="stroke:black;stroke-width:1px;"/>
        <path d="M623.185,121.03C629.015,122.754 693.665,141.867 699.128,123.657C708.366,92.866 689.493,100.017 657.453,104.402C651.996,102.275 647.253,85.591 624.169,97.133" style="stroke:black;stroke-width:1px;"/>
    </g>
</svg>
