<?xml version="1.0" encoding="UTF-8" standalone="no"?>
<!DOCTYPE svg PUBLIC "-//W3C//DTD SVG 1.1//EN" "http://www.w3.org/Graphics/SVG/1.1/DTD/svg11.dtd">
<svg width="100%" height="100%" viewBox="0 0 1000 1000" version="1.1" xmlns="http://www.w3.org/2000/svg" xmlns:xlink="http://www.w3.org/1999/xlink" xml:space="preserve" xmlns:serif="http://www.serif.com/" style="fill-rule:evenodd;clip-rule:evenodd;stroke-linecap:round;stroke-linejoin:round;stroke-miterlimit:1.5;">
    <g id="Layer1">
        <path d="M30.753,316.041C30.853,322.678 30.953,329.314 31.053,335.951C30.32,297.798 28.333,289.394 27.401,285.452C49.98,253.833 82.548,265.193 109.561,247.905C153.371,219.866 166.298,248.553 204.944,213.42C205.809,212.634 220.665,203.271 236.494,189.941C245.481,182.374 274.278,112.974 274.647,101.895C277.487,16.716 303.196,26.396 328.943,29.257C335.247,29.957 326.894,33.744 331.877,108.498C333.315,130.067 320.101,136.711 323.807,177.468C330.557,251.718 282.463,255.319 244.565,282.389C242.824,283.633 181.205,305.048 169.726,305.868C119.643,309.446 118.803,305.322 73.609,326.413C46.563,339.034 40.909,337.657 31.787,330.815" style="stroke:black;stroke-width:1px;"/>
        <path d="M94.722,211.2C89.688,216.688 91.846,205.177 91.952,204.615C93.335,197.24 93.635,170.347 105.159,181.87C105.256,181.968 159.339,183.886 181.465,148.853C184.164,144.58 192.645,116.954 204.211,93.824C225.647,50.952 237.776,72.414 237.962,75.481C239.863,106.847 215.331,197.552 133.04,203.882C114.888,205.278 115.903,211.278 97.822,209.018" style="stroke:black;stroke-width:1px;"/>
        <path d="M7.098,386.539C1.244,392.394 -12.128,453.537 35.165,436.196C99.674,412.543 101.531,433.644 116.486,430.439C175.652,417.761 186.9,402.762 190.801,397.562C113.31,383.778 113.189,378.908 85.541,385.82C42.604,396.554 11.341,341.042 4.219,394.456" style="stroke:black;stroke-width:1px;"/>
        <path d="M273.989,355.234C370.442,370.578 345.43,248.16 406.51,242.607C463.433,237.432 460.32,250.97 492.15,270.674C549.694,306.296 481.149,389.095 455.447,387.259C432.514,385.621 432.977,386.128 411.548,393.016C409.582,393.648 373.603,372.707 352.536,382.221C310.873,401.037 308.428,389.279 275.532,357.753" style="stroke:black;stroke-width:1px;"/>
        <path d="M425.222,179.277C433.439,154.075 431.966,154.554 436.017,128.9C436.613,125.124 466.943,81.169 481.355,76.365C506.346,68.035 506.753,20.128 531.732,17.353C541.529,16.264 540.964,-18.649 564.116,2.959C603.293,39.525 535.809,49.751 531.012,107.31C530.229,116.708 467.868,182.479 461.924,182.875C460.673,182.958 459.558,178.761 431.843,192.488C430.836,185.686 429.828,178.883 428.82,172.08" style="stroke:black;stroke-width:1px;"/>
        <path d="M101.229,509.817C94.898,491.59 174.259,448.725 235.231,456.347C270.151,460.712 279.149,442.009 286.327,463.543C294.292,487.439 314.547,452.817 340.301,479.376C348.98,488.326 400.625,541.585 368.368,632.664C368.042,633.584 309.904,694.372 292.084,700.312C272.513,706.836 261.161,693.342 243.867,703.911C153.336,759.235 131.755,707.401 116.486,700.312C81.655,684.141 83.841,680.034 72.587,643.459C66.635,624.116 83.322,601.171 85.541,598.12C87.466,595.473 112.165,574.469 112.172,629.189C175.801,700.031 266.48,659.138 278.41,640.58C283.808,632.184 295.903,597.958 296.402,595.961C313.528,527.456 217.123,474.176 142.394,523.995C141.574,524.542 68.791,589.227 103.533,508.162" style="stroke:black;stroke-width:1px;"/>
        <path d="M166.863,558.539C166.61,559.012 165.676,558.785 165.423,559.258C137.553,611.515 212.588,623.642 226.595,609.635C254.79,581.44 210.009,510.362 169.741,559.258" style="stroke:black;stroke-width:1px;"/>
        <path d="M162.236,866.046C163.488,855.4 165.133,814.328 189.944,818.839C214.704,823.341 223.408,784.161 256.651,822.944C258.546,825.155 295.403,831.671 305.911,845.521C322.134,866.907 322.281,865.871 345.934,879.388C363.191,889.248 350.547,995.551 264.861,947.12C208.954,915.521 180.226,927.748 163.262,859.889" style="stroke:black;stroke-width:1px;"/>
        <path d="M445.737,708.544C421.936,705.315 370.845,758.011 431.113,775.736C464.783,785.639 556.883,887.176 586.077,875.283C616.29,862.974 695.06,874.882 771.828,721.345C808.831,647.34 736.145,717.19 735.909,717.24C659.269,733.375 672.176,822.717 560.421,800.366C464.585,781.199 527.457,694.17 481.399,701.846C458.25,705.705 457.679,697.851 436.244,708.004C435.72,708.252 436.244,708.004 429.061,706.978" style="stroke:black;stroke-width:1px;"/>
        <path d="M461.262,897.316C413.806,904.188 427.338,920.841 430.087,922.49C446.431,932.297 449.993,927.407 458.97,945.414C485.048,955.145 476.882,969.585 503.977,974.829C536.11,981.048 535.737,981.954 558.368,1006.64C558.879,1007.2 661.363,985.716 667.151,955.33C674.907,914.607 554.551,925.943 544.525,926.887C526.779,911.803 526.455,913.654 504.725,907.913C476.81,877.46 453.89,898.601 430.087,908.123" style="stroke:black;stroke-width:1px;"/>
        <path d="M534.764,683.374C533.004,722.092 529.87,742.066 567.604,730.581C580.906,726.533 600.739,759.428 654.836,724.424C661.465,720.134 705.538,655.748 647.099,644.061C627.194,614.203 553.019,637.04 541.948,681.321" style="stroke:black;stroke-width:1px;"/>
        <path d="M956.553,680.295C1002.29,568.023 978.038,559.634 998.629,530.463C1048.69,459.54 923.365,293.139 914.477,417.575C910.551,472.534 914.627,471.842 923.713,526.358C934.946,593.752 915.726,593.1 920.634,661.823C924.246,712.378 867.988,812.989 911.398,769.579C939.547,741.43 957.944,690.839 960.658,683.374" style="stroke:black;stroke-width:1px;"/>
        <path d="M828.282,796.61C803.092,792.864 784.056,835.057 819.036,841.416C825.856,842.656 866.656,815.947 868.296,804.471C868.82,800.8 871.123,777.152 822.114,800.366" style="stroke:black;stroke-width:1px;"/>
        <path d="M782.162,88.232C777.89,75.417 717.293,40.66 725.108,79.735C731.642,112.407 784.424,147.824 788.231,159.246C789.941,164.374 809.392,222.729 810.689,222.976C828.533,226.375 843.068,228.611 845.892,229.046C864.011,231.833 860.649,241.013 878.668,242.399C913.024,245.042 932.834,276.476 930.259,243.006C929.98,239.375 930.417,235.719 930.259,232.081C929.533,215.391 920.071,220.906 910.837,205.375C885.795,163.26 872.429,172.358 867.743,152.569C846.697,63.711 802.754,99.626 780.341,80.948C779.855,80.544 772.528,76.473 771.843,76.093" style="stroke:black;stroke-width:1px;"/>
        <path d="M777.571,562.424L791.134,553.177" style="fill:none;stroke:black;stroke-width:1px;"/>
        <path d="M674.841,126.588C658.902,115.038 637.289,85.925 623.754,137.81C610.374,189.101 655.433,164.901 679.22,186.62C697.576,203.38 719.87,281.335 744.299,225.815C753.393,205.148 700.87,131.841 665.908,120.801" style="stroke:black;stroke-width:1px;"/>
        <path d="M909.216,291.634C862.917,272.57 883.666,319.586 904.04,321.216C924.697,322.868 958.8,334.323 963.203,307.904C969.114,272.434 947.824,287.937 912.175,287.937" style="stroke:black;stroke-width:1px;"/>
        <path d="M722.929,379.852C650.489,313.957 546.865,487.248 568.289,506.101C616.929,548.904 594.763,569.898 620.796,578.576C668.293,594.408 673.618,578.558 714.717,606.678C742.447,625.651 817.935,603.152 832.304,554.91C873.971,415.028 804.052,389.602 790.89,384.816C767.053,376.148 751.494,353.836 696.229,375.942" style="stroke:black;stroke-width:1px;"/>
    </g>
</svg>
