<?xml version="1.0" encoding="UTF-8" standalone="no"?>
<!--
  Copyright © 2026 Chloe Bolland
  contact chloe@mammoththoughts.com if you wish to use, publish or reproduce this game or any part of it in any way
-->

<!-- Created with Inkscape (http://www.inkscape.org/) -->

<svg
   width="1000"
   height="1000"
   viewBox="0 0 264.58333 264.58333"
   version="1.1"
   id="svg1"
   inkscape:version="1.3.2 (091e20e, 2023-11-25, custom)"
   sodipodi:docname="unstable1.svg"
   xmlns:inkscape="http://www.inkscape.org/namespaces/inkscape"
   xmlns:sodipodi="http://sodipodi.sourceforge.net/DTD/sodipodi-0.dtd"
   xmlns="http://www.w3.org/2000/svg"
   xmlns:svg="http://www.w3.org/2000/svg">
  <sodipodi:namedview
     id="namedview1"
     pagecolor="#ffffff"
     bordercolor="#000000"
     borderopacity="0.25"
     inkscape:showpageshadow="2"
     inkscape:pageopacity="0.0"
     inkscape:pagecheckerboard="0"
     inkscape:deskcolor="#d1d1d1"
     inkscape:document-units="mm"
     inkscape:zoom="0.74307264"
     inkscape:cx="471.69009"
     inkscape:cy="564.54777"
     inkscape:window-width="1909"
     inkscape:window-height="1212"
     inkscape:window-x="4993"
     inkscape:window-y="708"
     inkscape:window-maximized="0"
     inkscape:current-layer="layer3"
     showgrid="false" />
  <defs
     id="defs1" />
  <g
     inkscape:label="Layer 1"
     inkscape:groupmode="layer"
     id="layer1"
     sodipodi:insensitive="true"
     style="display:inline">
    <ellipse
       style="display:none;opacity:0.0968922;fill:none;fill-opacity:0.988528;stroke:#000000;stroke-width:1.099"
       id="path1"
       cx="132.31021"
       cy="132.31021"
       rx="132.31021"
       ry="131.84839"
       sodipodi:insensitive="true" />
  </g>
  <g
     inkscape:groupmode="layer"
     id="layer3"
     inkscape:label="Layer 2"
     style="display:inline">
    <path
       id="path2"
       style="fill:#000000;fill-opacity:1;stroke-width:0.199"
       d="m 134.80883,2.3151042 c -4.6921,0.8460483 -18.19101,21.2523168 -7.11013,9.7745818 0.35025,-2.6665159 12.25088,-10.0436264 7.11013,-9.7745818 z M 104.0567,4.0974243 C 94.663378,4.0544386 110.15417,29.18569 103.27658,12.501566 102.7839,9.6536422 103.15037,6.81649 104.0567,4.0974243 Z m 1.11052,15.4946617 c -0.3297,0.989101 -1.51615,4.548501 0,0 z m -0.70176,2.105298 c -1.21606,3.648168 -0.24466,0.733992 0,0 z M 140.84928,4.5971354 c 5.72635,5.7291956 22.85007,8.5199326 24.47308,3.8758367 -7.94877,-3.0864779 -16.59235,0.3339014 -24.47308,-3.8758367 z M 78.939884,12.615767 C 67.342011,13.520365 68.618029,38.29027 68.374121,36.398295 69.128675,27.002466 75.20123,20.277958 78.939884,12.615767 Z M 67.986031,39.17487 c -0.09956,0.617033 0.02371,2.307737 0,0 z M 94.26298,12.691732 c -9.059772,1.048597 -11.414767,7.462431 -1.220618,2.916166 1.108269,-0.03037 3.939929,-3.013252 1.220618,-2.916166 z m -9.679512,4.65708 c -10.152181,1.671533 -8.921889,5.468727 0,0 z m 97.440562,-4.472079 c -1.48521,4.981203 -16.79928,9.711962 -10.80036,9.120284 5.18503,1.506037 8.67854,-5.557335 10.80036,-9.120284 z m 10.40505,7.328235 c 11.93857,7.960364 15.32798,26.20566 32.52446,24.512631 10.27842,9.339862 2.62506,26.814796 15.23858,35.330811 9.51635,5.806537 15.47403,13.808097 7.14162,23.9039 -11.92386,6.53351 6.95058,25.55158 9.15035,22.22345 -10.56009,-9.17409 -8.95007,-22.66733 -0.92276,-34.057346 -6.48974,-10.906881 -24.51966,-18.043388 -21.1467,-33.763836 -0.59251,-15.728169 -16.57868,-17.857292 -26.64437,-24.343217 -6.29983,-3.452684 -8.236,-11.291042 -15.34118,-13.806393 z m -71.12589,0.751376 c 5.09367,10.916658 16.04673,16.432823 9.21689,29.583486 -0.66733,9.538715 1.18199,22.176124 -12.95409,19.727529 -12.87807,0.319633 -6.80255,4.988702 2.19659,1.731349 13.42652,-4.343859 -8.57967,26.652863 4.11039,9.074869 3.08851,-15.575887 20.65391,-9.582337 28.91956,-6.070675 4.55033,7.56592 13.53389,10.080065 4.2108,1.176948 -5.50783,-6.273802 14.49895,-16.519889 10.40401,-17.865059 -8.22342,6.594347 -15.13174,16.957725 -26.22344,8.611095 -19.83853,-1.387134 5.04976,-28.098747 -10.61694,-35.201042 -4.07174,-2.753919 -5.22577,-7.937835 -9.26377,-10.7685 z m -0.4594,66.950435 -0.11886,0.223759 z m 40.40322,-63.843132 c -9.59071,-3.676096 -33.76975,17.690555 -13.96349,6.468339 1.25942,-5.517981 29.87692,-3.113221 13.96349,-6.468339 z m -58.10602,3.770313 c -0.42301,0.479129 -0.96432,1.802252 0,0 z m -0.52038,0.855762 c -4.34488,8.019644 -23.864189,13.90448 -22.384779,17.685141 9.37514,-4.517078 19.051653,-5.814961 22.384779,-17.685141 z m 74.34068,0.473356 c -8.14416,4.154049 -2.29663,16.982972 -8.04757,24.469824 4.73553,-6.654793 8.09494,-16.863891 8.04757,-24.469824 z M 41.778845,35.612813 c -7.227415,6.693266 -2.169177,23.808517 -3.65094,31.464746 3.745055,-9.64464 4.451545,-21.439706 3.65094,-31.464746 z M 95.729041,43.00616 C 91.616137,47.742644 94.703049,64.622102 99.89106,70.761056 98.994616,61.391401 96.994736,52.29135 95.729041,43.00616 Z m -27.49393,3.201355 c -8.545933,3.601 -17.946746,1.960642 -25.450642,8.108549 9.986618,-3.228842 30.039063,-0.859077 32.94502,-6.417784 -2.428993,-0.903714 -5.097244,-0.692303 -7.494378,-1.690765 z m 9.617501,2.066024 c 1.508219,0.361636 7.230773,-1.133339 0,0 z m 3.280937,-0.290421 c 2.315451,0.08262 0.681751,-0.153093 0,0 z m -38.34908,6.332946 -1.484664,0.201022 z M 208.95314,46.419906 c -10.11097,8.923981 -17.90071,26.24799 -33.1711,14.490071 9.52744,3.868438 19.53377,14.459866 24.46052,0.472323 3.63512,-4.369801 8.04338,-9.414888 8.71058,-14.962394 z m -33.1711,14.490071 c -3.40869,7.87e-4 -4.3327,1.008628 0,0 z M 67.263078,52.517725 C 57.13281,59.911914 82.055234,78.242671 80.453487,76.946208 77.683757,67.469309 67.718773,62.968177 67.263078,52.517725 Z m -42.641325,7.891508 c -8.184355,1.599377 -6.7805,18.494129 -1.368909,3.264917 l 0.763802,-1.090859 z m 212.089377,5.57537 c 7.28701,3.394712 6.16762,0.395993 0,0 z m 5.49476,1.123446 0.42633,0.08733 z m 0.42633,0.08733 0.34106,0.332279 z m 0.34106,0.332279 c 4.22308,10.07451 8.2052,4.522763 0,0 z m -49.0554,3.240629 c -4.57534,3.701274 8.53777,13.897442 0.64772,2.248722 z m 3.54862,8.687325 c 5.68741,7.709247 12.86833,15.013314 19.86649,21.710818 C 211.66817,92.891557 206.7078,84.332604 197.4665,79.455612 Z M 36.70732,71.680896 36.444804,72.852401 Z m -0.262516,1.171505 c -0.08782,11.663106 -21.650867,15.256991 -20.957625,19.078197 8.134057,-2.745131 15.360305,-8.773905 18.644587,2.631986 13.801983,12.187886 -8.024013,-8.622185 0.451437,-15.823095 0.630476,-1.962002 1.690555,-3.785815 1.861601,-5.887088 z m 54.421484,-1.091407 c -0.116802,0.613712 1.940233,0.406563 0,0 z m 0.68523,0.382406 c 0.410911,-1.153143 -19.958388,14.221316 -11.023914,24.422263 1.147883,5.062527 6.352752,25.705367 7.839612,20.303687 -3.648243,-11.12383 -13.08824,-35.1691 2.102188,-40.122263 8.033853,0.677032 23.631456,-4.230612 7.894618,-2.36248 -2.610929,0.523349 -4.68149,-1.329259 -6.812504,-2.241207 z m 19.825142,0.371037 c 5.99984,1.530658 1.31776,0.336184 0,0 z m 119.71983,6.290572 c -5.89835,9.043015 -4.60812,24.228331 -14.43633,30.294271 -6.77936,-0.40749 -29.57838,15.87026 -12.21714,7.93618 18.73422,-1.23875 21.93474,-15.9853 26.16642,-30.972944 0.65811,-2.006692 3.33312,-5.995615 0.48705,-7.257507 z m -51.50952,3.089217 c -14.51846,-1.653756 16.59906,14.856922 9.08265,6.131926 -2.74943,-2.462611 -4.79695,-6.323083 -9.08265,-6.131926 z m -19.79776,2.718697 c -3.28294,5.525514 -6.02193,16.020267 -0.81388,4.959894 0.84673,-0.95873 2.49309,-3.749339 0.81388,-4.959894 z m -4.42867,11.21792 c -2.94806,2.316752 0.21805,5.620907 0,0 z M 70.94399,87.058769 c -9.811561,0.909906 -26.802416,0.552602 -29.449007,8.652156 9.107443,-5.73228 21.281848,-2.859125 33.543331,-7.831019 L 73.649768,87.505252 70.94399,87.058768 Z m -60.392179,5.329907 c -6.6497602,1.552176 -1.9608095,5.478119 0,0 z M 6.7277547,94.634017 6.4378499,95.02159 Z M 6.4378499,95.02159 c -2.4867065,2.078225 -0.3542864,5.37234 0,0 z m -1.047998,2.799829 c -1.2707731,0.354613 0.9122763,3.415651 0,0 z M 154.94972,100.38974 c -6.09257,6.53949 -9.67422,16.98872 -15.60895,21.93467 10.20711,-6.46556 14.29438,-22.22095 27.65627,-11.58543 15.08455,0.21737 -13.84355,-5.01646 -12.04732,-10.34924 z m 16.1866,8.8315 c 3.31859,2.02126 -2.2058,-3.71474 0,0 z m -32.00166,11.65252 c -1.87385,-1.4451 -6.47415,2.2627 0,0 z m -98.529387,-17.93689 -0.01033,0.22117 z m -0.01033,0.22117 c 4.872762,10.94505 -2.034572,10.61719 -10.544166,8.42648 -18.275103,1.77481 18.711234,2.53086 24.716428,9.72074 -6.604494,-5.51295 -10.573041,-10.74679 -14.172262,-18.14722 z m 138.271657,0.50075 c 5.39022,11.37458 18.06564,22.47421 12.32154,36.4797 -0.54796,14.82901 -8.55537,26.10566 -22.74549,30.46059 -8.91397,6.61934 -17.26749,7.196 -21.39323,-4.02268 -8.76385,-1.57721 -21.85063,-24.16408 -13.44104,-5.45807 9.7291,7.06203 22.98013,17.01782 16.80888,31.23182 -1.43919,7.60626 -3.094,22.63378 0.83488,6.55832 0.30518,-12.18525 3.02053,-25.66854 18.13838,-25.08688 9.12051,-6.15884 24.46404,-9.90524 20.79632,-23.72171 5.02957,-13.19245 9.8882,-30.27318 -4.93734,-38.41078 -2.0737,-2.71571 -3.80439,-5.73017 -6.3829,-8.03031 z m -48.99649,48.21669 c -3.03438,-3.41336 -4.12705,-2.86614 0,0 z m -2.77348,-2.2965 c -2.29499,-2.32776 -0.71013,-0.31989 0,0 z m -1.13274,-0.99477 c -0.6643,-0.65063 -3.03905,-2.97648 0,0 z m -8.39122,-44.30169 c -4.17571,4.34894 -22.806583,17.16171 -6.01979,10.46032 7.06592,3.94754 16.50497,13.02815 6.95574,1.48051 -6.34315,-3.53517 -2.21668,-7.63126 -0.93595,-11.94083 z m -13.79968,11.29906 c 0.93275,-1.44054 -4.3248,2.35383 0,0 z m -1.54667,0.52089 c -6.126397,3.42436 -1.38179,0.77235 0,0 z m -95.9248958,-11.55846 0.5302001,1.54047 z m 0.5302001,1.54047 c 3.3591987,6.14193 5.3133167,24.91667 4.9828477,24.43057 -4.5941994,-8.8704 11.994829,-20.88552 -2.1482343,-19.29246 -1.2162402,-1.58359 -1.0379915,-3.86231 -2.8346134,-5.13811 z m 214.6726857,6.951 c -0.75056,8.26138 25.01653,8.96636 16.62185,4.19595 -5.00459,-4.30316 -12.33909,3.12824 -16.62185,-4.19595 z m -141.274065,6.88743 c -8.248137,0.11162 -22.91076,5.04306 -6.461621,3.44475 1.408436,0.29252 14.336115,-3.53376 6.461621,-3.44475 z m 16.931783,3.46904 c -2.059562,6.05413 20.711742,19.16765 20.910922,18.78551 -5.9352,-7.19572 -14.5568,-12.48025 -20.910922,-18.78551 z m 22.385712,20.35018 0.0822,0.0775 z M 3.1176392,125.61662 c -0.8925055,8.70326 11.7549718,8.26462 1.3885457,2.18643 L 3.726429,126.8471 Z m 55.1092978,0.56328 c 6.487199,11.53794 4.013722,27.89842 -12.085567,27.08826 10.119435,4.54293 16.918139,-13.38582 26.942541,-0.63923 5.525084,1.58036 23.285168,16.05804 9.32477,4.98628 -10.672672,-7.99156 -19.253243,-14.47802 -21.667496,-28.16111 -1.039794,-0.9344 -1.602471,-2.2423 -2.514248,-3.2742 z m 30.689599,36.1797 0.45837,0.24908 z M 46.14137,153.26816 c -0.478603,-1.24142 -3.294348,1.75933 0,0 z m -1.505335,0.23927 c -2.384387,1.27452 -0.608712,0.32537 0,0 z M 162.9668,126.47858 c 0,5.46239 0,1.19781 0,0 z m 0,2.52233 c -7.14539,3.05857 -8.2075,23.52496 -0.94206,10.13326 -0.12839,-3.62744 2.96373,-6.27819 0.94206,-10.13326 z m -152.351427,6.11177 c -1.3119589,8.05815 -0.194189,4.98397 0,0 z m -0.6614586,5.01727 c -6.1183168,4.78198 -7.5389677,25.56802 -5.0312175,22.22293 -2.5601332,-9.25016 8.2738301,-13.16033 5.0312175,-22.22293 z M 255.01234,135.62221 c -3.9903,0.42888 -0.0575,1.47204 0,0 z m -1.58802,0.69143 -0.43046,0.21704 z m -0.43046,0.21704 c -6.26806,5.14022 -3.71592,10.73214 0,0 z m -4.1429,6.1526 c -4.32793,7.23749 -15.41592,12.24759 -16.98449,19.64325 4.27789,4.10911 8.19062,24.6827 11.84217,20.10416 -10.70125,-12.30242 -9.89469,-28.06077 3.9026,-37.66489 l 1.23972,-2.08256 z M 11.725899,137.11204 c 0.03643,7.26442 0.409389,5.14984 0,0 z m 0.278019,5.68545 c -2.2461906,11.21229 33.890064,12.16923 11.296373,7.28793 -5.936514,0.371 -7.011991,-5.25651 -11.296373,-7.28793 z m 241.393532,3.30057 c -6.82845,3.22953 0.59498,17.14392 -4.30316,24.83559 2.16483,7.62221 7.81322,-13.88722 4.1688,-17.93214 l 0.10826,-3.45106 z m -130.03805,0.70797 c -10.06067,5.6195 -25.662866,13.28702 -31.109217,20.23804 17.392857,-8.74851 22.321877,-13.74648 31.109217,-20.23801 z m -31.109217,20.23804 -0.110071,0.23823 z m -0.110071,0.23823 c -1.922442,9.15752 -7.398489,19.10102 -9.062496,25.9426 7.492483,-2.17899 10.026059,-19.28499 9.062496,-25.9426 z M 35.299654,153.18341 c 6.809113,12.29476 -6.763203,28.34521 10.913141,33.91222 10.413337,12.1212 -8.349613,-9.54268 -5.618737,-14.4961 1.958883,-7.09952 -2.707632,-13.23413 -5.294404,-19.41612 z m 184.186176,0.72606 c 7.97459,6.66911 8.49447,5.99204 0,0 z m 6.72879,5.02605 c -8.89181,-8.27749 -23.93042,-0.79504 -32.05271,-0.92495 9.99059,4.93382 22.07002,2.08882 32.05271,0.92495 z M 61.640165,163.9316 c -1.657439,7.85998 -3.413378,17.58206 -3.503194,20.55794 7.061648,7.52442 2.752921,-11.34562 3.83079,-16.04072 -0.225525,-1.47588 0.178504,-3.07823 -0.327596,-4.51722 z m 130.823535,3.44785 c -0.77493,16.13451 13.96406,24.49528 10.53977,39.30697 -3.87634,9.32403 -36.41417,19.05512 -19.305,16.47774 6.34929,-5.30646 16.90824,-8.38322 19.15843,-2.58002 -6.51194,-14.03523 14.20404,-13.14426 16.57221,-15.77752 -17.00228,3.6995 -15.82341,-13.54025 -19.96964,-24.57064 -2.04758,-4.42383 -5.42196,-8.2148 -6.99577,-12.85653 z M 7.7829875,168.39902 c 3.8648005,7.76441 10.2130455,10.14577 1.2598189,1.77303 z m 216.6312225,2.86701 c -4.45905,7.57635 -9.90913,14.92962 -8.04437,24.15338 0.10419,-0.34252 10.88291,-17.05006 8.04437,-24.15338 z m -191.715431,4.15582 c -4.550404,4.81674 -26.8178841,-3.05826 -11.222904,3.46458 4.17627,-2.17475 13.868299,3.55426 11.222904,-3.46458 z m -5.628597,5.67562 c -2.934117,5.84243 0.806882,28.93631 0.653707,8.90278 -1.349406,-2.64652 1.182334,-6.99189 -0.653707,-8.90278 z m 87.255138,1.37098 c 2.83706,7.46568 6.93724,22.88648 8.40517,25.51627 7.30606,-6.7368 -7.7833,-14.99659 -6.72879,-23.55567 l -1.61488,-1.93786 -0.0615,-0.0227 z m 6.65541,26.30382 c -1.83645,-3.00531 -2.88755,-3.54599 0,0 z m 126.37626,-21.83071 c -6.85134,10.8442 -25.90534,9.73156 -22.15885,26.078 -10.97673,5.38587 4.20853,-3.96296 -0.47355,5.03848 -0.82356,15.51727 3.3375,-6.27113 1.23033,-7.81126 1.5209,-12.30376 17.29123,-11.77539 21.40207,-23.30522 z m -20.34501,25.57983 0.55242,-0.23047 z M 15.712219,188.7523 c 3.693484,5.91649 18.016052,22.43712 16.884758,20.26078 -6.549571,-6.0897 -10.058855,-14.47509 -16.884758,-20.26078 z m 39.027075,0.46871 c -1.543805,4.2078 -0.430825,2.49662 0,0 z m -0.684196,2.58744 c 4.67574,5.85947 28.664553,2.07188 22.724103,-0.50297 -7.646479,-0.74356 -15.146474,0.17325 -22.724103,0.50297 z m 116.851262,-2.53473 c 5.69924,2.80469 0.70462,19.15332 6.30671,6.6081 0.74133,-5.98008 -1.25159,-5.68351 -6.30671,-6.6081 z m -84.543156,5.30665 c 3.255569,16.98864 17.980726,24.9544 34.136926,24.45213 7.39918,0.86245 13.26709,0.39058 2.14536,-0.36123 -11.02636,-6.40067 -25.070023,-3.86739 -30.70751,-17.94338 -2.037265,-1.81378 -4.422009,-3.59016 -5.574776,-6.14752 z m -36.28254,1.34514 c -8.173355,1.02726 -17.087268,23.21939 -9.030348,15.4341 1.725035,-5.47825 6.691509,-10.54053 9.030348,-15.4341 z m 166.662696,6.65489 c -3.60159,0.0626 -0.75852,0.0132 0,0 z m -69.45984,7.77007 c -1.56856,8.49042 15.38774,10.82893 20.37808,17.30695 -4.811,-9.43267 -12.44812,-13.07819 -20.37808,-17.30695 z m 20.37808,17.30695 c 1.63762,1.95775 3.26431,1.44161 0,0 z M 97.498442,214.71248 c -4.090792,14.21661 -14.160971,21.44788 -28.658199,23.35929 -13.16046,6.5928 14.220579,1.11786 18.481559,-2.95692 7.025231,-3.07857 7.292955,24.41725 11.635982,23.3474 -4.742076,-15.21936 -8.007869,-28.76406 -1.368909,-43.7379 l -0.09043,-0.0119 z m -48.377926,0.29662 c 4.361469,4.68175 3.304419,3.28695 0,0 z m 3.444234,3.65301 c 0.083,6.8573 18.030089,13.93882 6.068011,4.30891 -1.753264,-1.88219 -4.684278,-1.98206 -6.068011,-4.30891 z m 10.823112,9.48469 c 8.327614,7.47471 5.879271,-0.0472 0,0 z M 41.507544,216.162 c -4.744747,9.41798 15.467768,25.3462 15.801881,23.11784 C 52.075598,231.573 46.58075,224.00095 41.507544,216.162 Z m -0.602547,5.69526 c 0.504949,3.67743 0.104145,0.75846 0,0 z m 0.22841,1.66346 c 0.250382,3.14179 0.886456,3.91384 0,0 z m 86.427803,-3.44061 c 1.5878,7.02451 -1.3223,28.71567 3.02048,26.92445 0.2983,-8.68857 0.90941,-18.98515 -3.02048,-26.92445 z m 79.91501,4.11447 c -6.3938,2.57545 -9.30502,18.15279 -2.14767,4.45193 6.05965,-1.95945 22.95832,-4.02876 7.29961,-3.50147 l -1.7196,-0.38557 z m -34.40616,3.08711 c -7.7355,3.73178 -19.95258,29.77285 -7.85275,12.7615 0.17202,-5.60042 8.36684,-7.89308 7.85275,-12.7615 z m 28.36519,10.23917 c -13.57145,0.7642 2.72191,5.39206 0,0 z m -5.86217,1.94562 -0.82786,0.27492 z m -87.90058,2.30012 c -8.095821,-0.93562 -13.330289,3.46848 -2.94721,2.55962 7.43086,0.50081 15.62279,-2.20605 2.94721,-2.55961 z m 19.02519,5.40639 c -6.02884,-0.35407 -22.74649,16.83346 -8.71058,8.02431 9.16513,-9.8475 15.23026,-3.19556 21.76439,4.45949 12.24875,6.13629 19.8007,-14.74836 31.06625,-2.55221 7.38081,0.88558 15.24791,-8.40588 3.32098,-3.45101 -9.22719,0.98639 -16.74338,-8.82157 -24.11416,3.08453 -8.1061,7.562 -15.66782,-8.85342 -23.32688,-9.56511 z m -15.28123,11.16882 -0.95912,0.55191 z m -0.95912,0.55191 c -2.72966,-0.98515 -3.4809,-0.69395 0,0 z"
       sodipodi:nodetypes="cccccccccccccccccccccccccccccccccccccccccccccccccccccccccccccccccccccccccccccccccccccccccccccccccccccccccccccccccccccccccccccccccccccccccsccccsccccccccccccccccccccccccccccccccccccccccccccccccccccccccccccccccccccccccccccccccccccccccccccccccccccccsccccsccccccccccccscccccccccccccccccccccccccccccccccccccccccccccccccccccccccccccccccccccccccccccccccscccccsccccccccccccccccccccccccccccccscsscccccccccccc" />
  </g>
</svg>
