<?xml version="1.0" encoding="UTF-8" standalone="no"?>
<!--
  Copyright © 2026 Chloe Bolland
  contact chloe@mammoththoughts.com if you wish to use, publish or reproduce this game or any part of it in any way
-->

<!-- Created with Inkscape (http://www.inkscape.org/) -->

<svg
   width="1000"
   height="1000"
   viewBox="0 0 264.58333 264.58333"
   version="1.1"
   id="svg1"
   inkscape:version="1.3.2 (091e20e, 2023-11-25, custom)"
   sodipodi:docname="unstable3.svg"
   xmlns:inkscape="http://www.inkscape.org/namespaces/inkscape"
   xmlns:sodipodi="http://sodipodi.sourceforge.net/DTD/sodipodi-0.dtd"
   xmlns="http://www.w3.org/2000/svg"
   xmlns:svg="http://www.w3.org/2000/svg">
  <sodipodi:namedview
     id="namedview1"
     pagecolor="#ffffff"
     bordercolor="#000000"
     borderopacity="0.25"
     inkscape:showpageshadow="2"
     inkscape:pageopacity="0.0"
     inkscape:pagecheckerboard="0"
     inkscape:deskcolor="#d1d1d1"
     inkscape:document-units="mm"
     inkscape:zoom="0.83870053"
     inkscape:cx="396.44663"
     inkscape:cy="479.90908"
     inkscape:window-width="1909"
     inkscape:window-height="2041"
     inkscape:window-x="5122"
     inkscape:window-y="0"
     inkscape:window-maximized="0"
     inkscape:current-layer="layer3"
     showgrid="false" />
  <defs
     id="defs1" />
  <g
     inkscape:label="Layer 1"
     inkscape:groupmode="layer"
     id="layer1"
     sodipodi:insensitive="true"
     style="display:inline">
    <ellipse
       style="display:none;opacity:0.0968922;fill:none;fill-opacity:0.988528;stroke:#000000;stroke-width:1.099"
       id="path1"
       cx="132.31021"
       cy="132.31021"
       rx="132.31021"
       ry="131.84839"
       sodipodi:insensitive="true" />
  </g>
  <g
     inkscape:groupmode="layer"
     id="layer3"
     inkscape:label="Layer 2"
     style="display:inline">
    <path
       id="path108"
       style="fill:#000000;fill-opacity:1;stroke-width:0.199"
       d="M 126.74524,4.4390055 C 121.59867,8.9614258 155.11792,20.889326 138.42928,11.413257 135.02184,8.159919 129.713,8.0388488 126.74524,4.4390055 Z m -15.49932,0.3756877 c -9.2203,9.0894338 -24.44943,7.2596908 -36.364186,10.4613808 2.74889,3.76394 21.570981,-1.694301 29.733426,-4.062141 9.3922,1.173511 7.25537,21.606708 -2.72784,23.238086 -4.746078,4.773796 3.25344,27.050755 1.53503,10.465938 -3.42519,-11.899686 13.26679,-17.149012 6.75025,-30.392741 -1.10704,-3.370916 0.07,-6.5416578 1.07332,-9.7105228 z m 47.85186,3.1806844 c -3.09334,3.6420694 0.53116,1.2618097 0,0 z m -0.99632,1.8624186 c -3.28098,6.5071408 -2.40359,9.3488248 0,0 z m -2.31355,6.6404218 c -5.04634,7.95428 23.56506,15.78201 3.42739,20.282885 -5.35838,14.00719 -27.85254,-8.765137 -25.22142,10.963906 -0.56302,7.176108 -0.50726,17.821524 0.69837,4.123746 -0.0488,-18.601284 22.60878,0.35959 27.46441,-13.894151 20.84791,-9.156085 -5.9314,-11.367969 -6.36875,-21.476386 z m 26.39735,-2.670638 c -4.66918,4.076585 -13.10771,14.781884 -1.97809,5.738338 2.67267,-7.106178 12.05827,10.607916 5.33172,-2.146498 l -1.08813,-1.821406 z M 68.354484,17.725016 C 59.779666,25.79004 51.975564,33.707924 41.070876,38.77541 54.150442,39.025996 61.922841,27.764026 68.273957,18.287869 l 0.08053,-0.562854 z m 134.099306,8.71058 c -3.0904,0.20841 -4.65769,4.145836 0,0 z m -2.63653,2.02985 c -7.63382,5.312097 -15.12592,10.278261 -11.6706,20.503141 -7.72616,6.188223 -17.2801,9.531273 -10.76868,20.915737 0.66563,4.117261 3.71804,10.137638 -2.82326,10.094253 17.55699,2.832404 -4.81512,-19.396774 8.34574,-23.767025 8.56003,-12.133819 16.28165,11.603679 25.75295,-2.146122 -14.92547,7.575488 -25.94095,-12.682788 -11.56466,-21.298959 -0.33373,-2.186188 2.54586,-2.512226 2.72851,-4.301025 z m -25.4124,51.526571 -1.38493,0.135909 z m -1.38493,0.135909 c -5.34447,0.04937 -22.63449,-3.855966 -8.36472,0.06542 2.82599,0.01181 5.56792,0.714264 8.36472,-0.06542 z M 59.859395,31.210498 c 6.100154,5.298664 12.294797,9.647468 11.326441,18.240747 7.504148,5.418214 15.781946,13.753191 3.338297,20.172929 -4.350417,2.571552 -8.900903,14.124323 -1.705563,4.731215 9.047253,-5.776642 16.972843,-18.736346 2.525591,-23.498248 -4.952817,-5.361982 3.810756,-15.304265 -8.705735,-15.256527 -2.781412,-0.614384 -4.248788,-3.303682 -6.779031,-4.390116 z m 152.847515,5.317505 c 2.76949,3.12076 2.65893,1.745427 0,0 z m 2.44688,2.15439 c 4.18016,3.714106 12.45365,14.794808 6.13761,2.9962 -1.56471,-1.8484 -4.13711,-1.902186 -6.13761,-2.9962 z m -178.066648,4.81366 c 2.893653,0.716967 3.929608,0.244708 0,0 z m 3.099552,0.536918 c -1.391827,5.187397 3.184363,18.979309 1.615038,6.081798 -0.990553,-2.135194 -1.363957,-3.826214 -1.615038,-6.081798 z m 61.098076,9.442835 c -7.7123,1.266491 -20.970703,6.148318 -6.01565,3.164664 1.426294,-0.258025 10.96513,-0.128999 6.01565,-3.164664 z m 124.32575,2.59364 c -6.44218,9.46023 -10.49582,29.531828 -25.7073,22.580655 -11.3204,-0.647513 -4.38336,23.825099 -8.09581,23.422249 6.11201,-8.205897 1.07172,-27.281646 16.90285,-20.838516 14.23143,2.688087 8.91825,-19.886056 18.8712,-20.578072 10.71014,4.062684 11.3205,19.851152 19.91299,21.411613 -10.08553,-7.126835 -4.51624,-22.748188 -21.88393,-25.997929 z m 22.38106,26.475903 0.89194,1.084688 z M 45.238582,57.686401 c -4.268002,5.443803 -15.730906,13.823823 -17.838553,15.007623 1.776743,4.428373 3.410009,27.506086 2.976428,9.537507 -3.293291,-10.067698 9.03585,-16.582788 14.956922,-20.762117 5.855168,7.739417 21.506077,14.771836 15.418985,25.755236 -4.100319,5.617641 -14.958424,29.07388 -4.931321,12.018665 7.964559,-9.68584 12.878983,-20.852381 2.718211,-30.77889 C 54.435927,64.53006 50.252353,60.440346 45.238582,57.686401 Z M 25.873356,72.460693 c -2.785127,-0.61461 -0.754913,0.414377 0,0 z m -1.333252,-0.07803 c -8.670414,-1.497184 -11.390791,-0.935421 0,0 z m -8.244458,-1.56838 c 0.989906,-2.075873 0.613996,-2.92303 0,0 z M 107.21878,57.736011 c -1.76788,1.934917 11.39581,13.100298 3.31142,3.202905 -1.1907,-0.812594 -1.58354,-3.101798 -3.31142,-3.202905 z m 23.2084,3.665409 c -12.1767,5.104784 -13.50375,15.162384 -11.27019,26.726178 -12.6703,9.960406 -28.387828,2.24617 -42.205427,-1.506942 -4.468503,0.05759 14.709819,6.49722 18.913903,7.46766 8.876104,3.997895 -12.29176,10.618724 -15.236791,15.800384 -5.93805,9.36042 24.533585,11.08152 9.346399,23.26344 -9.420724,13.63587 15.772906,-12.8391 -0.710062,-14.89848 -15.981909,-9.13647 9.253434,-13.78616 13.992248,-21.536564 9.31099,-2.562722 25.8102,-1.598466 19.07636,-16.416569 -3.76133,-8.624658 7.49971,-12.271928 8.09356,-18.899107 z M 74.372205,86.162699 c -2.83093,-3.056453 -5.074284,-0.472812 0,0 z m -3.262334,-1.908927 -0.16278,-0.09043 z m -0.16278,-0.09043 c -4.003864,-2.623599 -6.482461,0.21057 0,0 z m -47.14751,-0.605131 c -2.77926,4.926714 -16.2524761,23.751769 -5.696434,11.310766 0.675384,-4.266184 6.550623,-6.804778 5.696434,-11.310766 z M 236.79071,86.09449 c -2.70917,0.615663 -0.94933,3.821728 0,0 z m -0.9157,1.879989 c -2.6683,4.856213 -19.48181,27.125251 -7.66827,15.234721 3.36779,-7.01788 15.73666,1.8929 5.36505,-6.760303 0.49828,-2.887904 3.4033,-5.363953 2.30322,-8.474418 z m 18.91306,5.241541 c -4.20511,12.72327 -7.69111,26.59117 4.51497,36.05051 5.10585,14.93427 0.45357,-7.94101 -6.36757,-11.04429 -2.3203,-8.24928 4.49961,-16.58602 1.8526,-25.00622 z m -126.73129,3.07216 c 11.34984,3.82426 25.22527,13.3569 8.82272,20.92327 -7.01073,8.90651 11.10937,-9.4509 16.81086,-11.10527 5.71652,-3.08681 13.07095,-8.144053 2.38435,-3.11195 -11.07941,9.4614 -17.00432,-5.53189 -28.01793,-6.70605 z m 75.35096,7.08174 c -9.18142,0.88414 16.77117,9.82764 14.3809,7.57092 -3.73895,-4.18875 -11.57249,-2.65946 -14.3809,-7.57092 z M 3.131075,103.85981 c 9.364384,12.08737 2.8601937,25.58633 -2.80741914,37.60092 2.06405154,6.54076 0.0461637,-8.5051 5.89973684,-8.28542 5.1893313,-3.48065 5.0295333,-27.45132 8.9317423,-11.7036 2.283896,8.61912 14.979916,20.60911 18.274866,23.3215 -7.602583,-11.62918 -17.360059,-22.16051 -22.344373,-35.58181 0.297994,8.82255 -3.8353538,-6.87328 -7.954553,-5.35159 z m 19.991028,4.21215 c -8.468807,1.63874 15.333387,6.78293 21.43912,4.4569 6.849422,-3.15263 -15.232903,0.49093 -19.134213,-4.35458 z m 144.587037,3.19153 c -1.36676,0.7494 10.97198,29.95777 6.01101,12.27884 -0.0884,-4.77623 -2.35593,-9.34802 -6.01101,-12.27884 z m -103.815882,0.76895 c -10.711253,0.66932 -3.99757,3.53744 2.403987,1.05471 -0.119724,-1.07607 -1.718899,-0.95622 -2.403987,-1.05471 z m -15.644523,5.87871 c -5.401633,13.98847 12.348415,22.68338 5.788793,35.84226 3.909595,5.79431 6.999096,19.61053 -4.449249,14.19716 -8.666912,-1.33027 -15.351933,6.33385 -21.947072,-2.68366 -8.513639,-2.32003 -18.0085739,1.9936 -18.5239341,12.45092 -2.6779191,9.2749 24.5106181,22.12232 8.7989461,10.10688 -17.87362034,-10.96744 5.864581,-27.85071 15.875,-14.57249 1.860872,12.2493 8.008029,23.12482 18.447404,27.81164 -7.189675,-7.22468 -15.389871,-15.91973 -14.872428,-27.722 9.682391,-8.61768 23.710017,0.36574 34.500219,2.60501 9.484055,0.76169 17.594495,9.58783 23.964946,-2.18849 4.86854,3.15779 27.02103,10.00151 11.86297,2.01064 -14.312587,-3.49505 -15.920441,-26.96268 -18.346295,-33.73687 -5.9347,12.70172 15.729225,27.18847 -0.0016,35.16303 -8.285622,-1.9194 -21.393203,-4.28582 -29.983604,-8.85456 -3.554826,-10.74196 -0.712743,-21.17079 -3.241663,-31.72675 -7.514586,-4.05585 -5.429946,-11.88494 -7.872387,-18.70272 z M 9.2335449,174.8007 c -3.1071721,-0.8593 -2.2551616,-0.12309 0,0 z M 228.5075,119.05578 c -2.85801,11.19898 -13.35727,17.50692 -19.18873,25.50441 6.80452,6.22118 14.9741,19.75014 -0.43508,20.42031 -9.47575,5.11539 -14.86539,17.44747 -27.84306,9.66207 -8.59232,-3.37614 -25.76462,6.51096 -18.40818,-9.53378 -1.58152,-9.79419 12.76019,-21.17948 13.67624,-25.70283 -6.68695,12.96473 -18.46336,20.23366 -31.6223,11.50736 -14.35059,0.60573 -14.0094,-13.87125 -17.13294,-23.99082 1.70424,13.60172 3.77105,27.4818 -0.34726,40.89517 -1.78798,6.34898 -1.08655,15.14744 0.75882,3.29292 3.02231,-9.04873 -0.40405,-29.08639 12.94298,-17.80901 14.85469,-1.79661 23.45073,9.4669 18.36704,23.37292 -0.014,7.84385 13.64477,-2.58877 19.33422,0.57257 5.56677,-0.0646 11.71274,3.13735 16.50295,3.45821 -3.43666,12.12244 -0.27142,27.31979 15.68217,22.6942 3.65382,8.84146 -0.75594,20.27572 2.04949,28.42824 1.62892,-10.6503 5.41324,-30.9568 -9.31125,-31.71163 -11.15841,-6.47168 -2.34089,-25.68508 5.37071,-32.10064 9.69115,-3.19877 16.69648,-12.01105 6.52182,-19.94231 -5.1205,-11.55228 15.00145,-16.64369 13.08241,-28.60084 v -0.41651 z m -15.66364,112.77193 0.0341,0.58963 z M 158.99908,123.23072 c 0.60203,0.77255 2.77206,3.55722 0,0 z m -55.72166,2.88406 c -10.892787,-0.084 22.58209,4.34739 6.52155,0.67643 -2.17762,-0.18149 -4.31997,-0.79527 -6.52155,-0.67643 z m 91.06886,11.91969 c -12.26125,0.50304 3.08447,4.07151 1.71011,0.56096 l -1.71011,-0.561 z m -127.19689,0.76171 c -17.480647,2.24911 22.705751,3.95819 12.84448,0.2564 -4.287957,0.22272 -8.56109,-0.15285 -12.84448,-0.2564 z m 194.53179,3.07165 c -9.37364,6.41439 -8.51187,16.50072 -12.56615,25.89816 6.28348,-6.91421 4.63733,-17.76156 12.43874,-24.43067 l 0.18064,-1.46129 -0.0532,-0.006 z M 4.9495687,144.37465 c -3.5905791,6.08406 14.1675043,28.08024 6.3675703,11.51299 -2.403338,-3.68816 -4.1949667,-7.69106 -6.3675703,-11.51299 z M 236.54008,162.22627 c 4.4603,3.49659 16.03177,15.6254 16.09106,13.42951 -2.31196,-7.0216 -10.68372,-8.88933 -16.09106,-13.42951 z m -86.06503,18.47278 c 6.58031,10.67342 13.16061,21.34685 19.74092,32.02027 -6.58027,-10.67344 -13.16065,-21.34682 -19.74092,-32.02027 z m -21.06951,12.33361 -0.0341,0.19792 z m -0.0341,0.19792 c -1.12739,7.44012 -5.97785,21.84908 -5.63841,25.01659 2.20583,10.63499 18.09932,17.47512 12.30901,29.29801 -0.10852,5.41793 -1.59777,17.37494 5.75138,14.20218 -6.71527,-7.27937 -6.4859,-24.89077 6.59908,-23.96391 10.16136,-2.26637 21.06115,-8.56175 28.47992,1.97972 -10.30818,-8.63729 -1.70879,-23.40499 -2.54662,-32.35203 -6.86879,10.75594 -1.90515,29.79071 -20.9389,26.42739 -15.45008,8.71676 -30.17479,-9.58584 -26.64372,-24.60424 1.66681,-5.17637 1.82761,-10.66209 2.62826,-16.00371 z m 12.85813,68.77307 0.37414,0.16071 z m -5.76192,-0.25632 c -0.98482,-2.09949 -2.0882,-2.84702 0,0 z m -14.78773,-44.07845 c -7.14528,-1.94873 -17.63891,5.59946 -4.01253,0.90265 l 2.59246,-0.68918 1.42007,-0.21343 z m -11.84269,2.55075 c -5.64312,0.9343 -2.2812,0.7498 0,0 z m -3.29644,0.66715 c -0.99232,0.16939 -4.41084,0.98813 0,0 z m 139.56409,-26.29142 c -6.55092,-0.38916 -32.97724,10.48715 -14.04917,7.01787 5.1427,-1.8648 11.71398,-0.76589 14.04917,-7.01787 z m -89.86996,1.01957 c -13.63744,-0.66051 8.01901,5.94678 0,0 z m -5.00176,1.60197 c -3.91868,-0.61916 -0.94358,0.74249 0,0 z m -63.35686,1.31258 c 1.666696,16.80866 -12.010198,16.27988 -23.741755,11.24611 -2.378102,6.20594 -6.978333,34.07735 -12.875645,16.13157 -1.872054,-3.63981 -5.180241,-17.49969 -2.662886,-5.41827 0.461646,7.26494 9.562166,27.67966 9.956498,10.41952 6.083065,-7.26268 5.450997,-21.27047 18.176669,-15.31638 9.366808,-5.14228 18.172745,11.96014 22.343855,9.01289 C 91.678144,214.65659 81.866899,214.3694 87.8763,198.52948 Z m -40.620776,16.27498 -0.04858,-0.0982 z m -3.507797,-12.75995 c -7.91832,1.41803 -16.673645,13.26465 -4.096999,4.04998 1.378015,-1.33906 3.101241,-2.35415 4.096999,-4.04998 z m -11.68094,8.19382 c -1.958485,2.60991 -0.14152,0.8646 0,0 z m 151.215573,4.8364 c 1.64874,3.77862 4.0194,4.19113 0,0 z m -82.81975,15.67553 c -0.687434,6.24213 -8.544701,20.91769 -6.819494,20.60641 2.844088,-8.77482 12.290134,-6.93615 7.629784,-17.06399 l -0.34727,-2.0314 z m -8.567434,22.08909 c -1.164938,2.6946 1.817632,-1.29309 0,0 z m -0.147795,0.93017 c -1.493798,1.4473 0.4128,0.62844 0,0 z m 91.630069,-12.99507 c 1.64015,7.16909 10.14749,6.43003 2.02675,1.01958 z m -23.07921,4.84673 c -15.55197,1.61437 15.65086,0.42276 0,0 z m -49.92254,0.11731 c 0.45777,0.47761 2.56799,1.0504 0,0 z m 1.15445,0.57826 c 3.47356,2.01253 0.86219,0.23484 0,0 z m 1.62678,0.84336 c 1.72229,4.92056 22.77655,10.58219 9.8689,4.19304 -3.33591,-1.5072 -6.26661,-3.32879 -9.8689,-4.19304 z m 194.94055,11.71091 c 4.85045,3.3941 2.67583,1.654 0,0 z m -95.31201,4.92476 c 5.11886,2.77244 1.12901,0.61149 0,0 z" />
  </g>
</svg>
