<?xml version="1.0" encoding="UTF-8" standalone="no"?>
<!--
  Copyright © 2026 Chloe Bolland
  contact chloe@mammoththoughts.com if you wish to use, publish or reproduce this game or any part of it in any way
-->

<!-- Created with Inkscape (http://www.inkscape.org/) -->

<svg
   width="1000"
   height="1000"
   viewBox="0 0 264.58333 264.58333"
   version="1.1"
   id="svg1"
   inkscape:version="1.3.2 (091e20e, 2023-11-25, custom)"
   sodipodi:docname="unstable2.svg"
   xmlns:inkscape="http://www.inkscape.org/namespaces/inkscape"
   xmlns:sodipodi="http://sodipodi.sourceforge.net/DTD/sodipodi-0.dtd"
   xmlns="http://www.w3.org/2000/svg"
   xmlns:svg="http://www.w3.org/2000/svg">
  <sodipodi:namedview
     id="namedview1"
     pagecolor="#ffffff"
     bordercolor="#000000"
     borderopacity="0.25"
     inkscape:showpageshadow="2"
     inkscape:pageopacity="0.0"
     inkscape:pagecheckerboard="0"
     inkscape:deskcolor="#d1d1d1"
     inkscape:document-units="mm"
     inkscape:zoom="0.76040231"
     inkscape:cx="562.2024"
     inkscape:cy="417.54213"
     inkscape:window-width="1909"
     inkscape:window-height="1212"
     inkscape:window-x="4993"
     inkscape:window-y="708"
     inkscape:window-maximized="0"
     inkscape:current-layer="layer3"
     showgrid="false" />
  <defs
     id="defs1" />
  <g
     inkscape:label="Layer 1"
     inkscape:groupmode="layer"
     id="layer1"
     sodipodi:insensitive="true"
     style="display:inline">
    <ellipse
       style="display:none;opacity:0.0968922;fill:none;fill-opacity:0.988528;stroke:#000000;stroke-width:1.099"
       id="path1"
       cx="132.31021"
       cy="132.31021"
       rx="132.31021"
       ry="131.84839"
       sodipodi:insensitive="true" />
  </g>
  <g
     inkscape:groupmode="layer"
     id="layer3"
     inkscape:label="Layer 2"
     style="display:inline">
    <path
       id="path80"
       style="fill:#000000;fill-opacity:1;stroke-width:0.199"
       d="m 122.61577,3.3300293 -0.60396,1.1523124 z m -0.61546,1.3425537 c -2.0164,8.239173 4.58035,-0.5734339 1.48643,-0.7247423 z m 35.10638,2.6473836 C 140.4992,9.0245185 122.19682,21.59005 106.51283,10.549067 92.636996,4.3301607 86.316814,22.285948 73.350269,21.1261 c -6.967462,0.389701 -24.480233,8.193726 -8.500293,2.823163 14.857512,2.393402 25.790956,-15.5159627 39.333544,-8.562569 12.37531,8.246243 26.39115,0.06149 39.6821,-1.674412 13.75934,-7.6095096 21.29631,10.03832 34.87745,10.295907 6.42849,1.068757 21.02316,1.566984 22.99472,0.619832 -12.4485,-5.962535 -30.31605,-0.466633 -39.12502,-13.333479 -1.25462,-1.834254 -2.94406,-4.2640944 -5.50608,-3.9745754 z m 45.51505,17.8676434 1.11134,1.950478 z m 1.12241,1.969905 0.16489,0.28097 z m 0.16588,0.28112 c 0.93382,3.969265 5.3094,4.444221 1.33906,0.620978 z m 3.15382,3.380672 c 4.03431,10.892391 10.64392,22.113387 21.24742,25.495361 7.54918,12.237965 2.81319,28.705895 11.44905,39.800164 3.59447,4.069578 13.71486,12.940878 15.2106,12.442368 C 244.76813,98.962615 234.92044,88.008449 235.10854,73.037145 235.65699,59.76152 228.33317,48.327285 215.35756,45.324767 211.5708,41.08979 211.26195,34.780129 207.06385,30.819307 Z M 56.748991,26.662972 c -5.534389,0.406523 -9.18897,2.729782 0,0 z M 78.693905,12.205973 c -1.487969,1.060147 -2.609259,1.859044 0,0 z m 56.677675,8.462016 1.78363,0.802682 z m -50.102883,2.248958 c -3.724041,2.476335 1.990728,4.17831 0,0 z m 24.192323,0.160197 c 2.741,6.388406 14.00201,13.726319 19.4098,10.076388 -7.49024,-0.826161 -13.58296,-5.738963 -19.4098,-10.076388 z m 21.53098,10.79159 c 5.44524,-0.266138 8.35707,-2.564437 0,0 z m 5.64824,-1.332219 c 6.54428,-1.132836 18.58223,-4.4242 5.46399,-1.812036 -1.88617,0.374672 -3.73781,0.957681 -5.46399,1.812036 z m 14.25753,-3.451985 c 6.54246,-0.294375 17.42376,-4.635905 5.02661,-1.603905 -1.70471,0.429887 -3.4308,0.842312 -5.02661,1.603905 z m 12.81162,-3.134176 c 6.05555,1.096724 -0.43969,-0.979849 0,0 z m -60.24645,-0.656807 -2.66819,1.185936 z m -2.6908,1.25677 C 92.124032,31.279513 72.627411,37.994131 80.895065,49.396739 79.934221,35.053814 94.655705,34.47126 100.77214,26.550317 Z m -20.401852,25.180376 -0.09489,1.561887 z m -0.09508,1.562695 c -1.457488,5.61181 0.333647,2.898204 0,0 z m 89.751102,-27.940414 0.0372,0.582911 z m 0.0372,0.582911 c -8.4134,15.693663 12.61429,23.391674 21.14239,31.626077 7.11942,1.3256 20.78812,-7.134065 5.85588,-2.548957 -10.38441,-3.431612 -25.07108,-10.916633 -26.72823,-22.193018 -0.11544,-2.29378 -0.0916,-4.593252 -0.27004,-6.884102 z m 36.69027,27.411763 c 5.42113,-0.838849 8.2327,-4.278528 0,0 z M 59.131274,27.675313 c 2.085277,7.805082 26.895632,6.502925 10.342773,2.804121 -3.523034,-0.621878 -6.977914,-1.595503 -10.342773,-2.804121 z m -8.530228,3.151229 C 48.493685,44.879101 26.386037,58.148289 23.108267,62.723187 31.877743,51.536084 45.170778,49.923963 52.988365,62.637455 62.5533,74.948698 38.460837,81.617146 39.850601,95.048411 43.381907,100.70015 50.478399,113.176 52.56835,114.97402 43.970042,98.161987 37.166234,88.524006 51.35141,78.620221 54.812214,68.664175 80.527364,67.449871 78.24087,63.181073 57.615704,71.580271 52.175778,65.829933 46.629058,53.990405 30.034848,52.618119 52.999454,39.292549 50.601046,30.826542 Z m 31.457511,31.009994 2.317956,-0.974252 z M 194.31475,36.108907 c -4.39599,1.626384 -0.076,3.293684 0,0 z m -1.8712,1.068669 c -7.5976,0.172445 -9.15113,2.300623 0,0 z m -70.48562,3.136759 c -1.19299,4.821803 0.15573,3.430735 0,0 z m -0.39429,3.550171 c -0.14823,15.508495 -14.56979,17.467052 -26.959088,17.589506 -5.460047,0.257494 -14.535323,2.408325 -5.118761,4.342068 3.704015,5.281459 -8.517453,21.775055 -3.803061,19.723076 3.305447,-14.270409 12.498609,-26.139699 28.33175,-24.956285 7.29343,-2.108733 6.76994,-10.741486 7.54916,-16.698365 z m 0,0 -2.12644,-0.529534 z m 18.27899,-0.946712 c -5.72735,8.24399 10.53387,1.940837 0,0 z m -40.371699,0.414445 c -4.985494,1.117673 2.807019,4.368032 0,0 z m -36.4262,0.473356 -1.831548,0.910808 z m -1.815393,1.034562 -0.251132,0.493831 z m -0.193787,0.523482 c 0.321338,3.253209 4.087225,-1.323959 0,0 z m 5.428609,-0.197404 c -3.389219,2.356552 -3.438775,2.664174 0,0 z m 99.28438,2.012281 c -2.67124,0.289967 -3.16514,3.369349 0,0 z m -2.9285,2.046903 c -6.33245,14.767161 -22.49583,18.53974 -35.45219,10.156521 -6.15604,2.891314 15.80313,5.448489 20.68305,5.329013 10.24725,0.709141 10.00119,-9.677212 14.76914,-15.485534 z m 68.53173,-1.096574 c -4.61012,-0.02553 4.16842,0.391368 0,0 z m -43.24749,12.067997 c -1.78666,8.199804 3.92738,5.827092 0,0 z m 0.23668,5.483903 c -4.13753,8.064039 -0.44947,10.691208 0,0 z m -1.86294,8.536947 c -2.08072,2.501809 -1.21513,9.00812 -0.15027,2.608318 z m -1.4428,6.077665 c -3.17467,5.52749 -24.12293,21.151773 -8.10894,13.441695 5.07739,-2.423613 9.62324,-7.397469 8.10894,-13.441695 z M 154.04486,67.474951 c -5.3906,6.974152 2.54008,9.042352 0,0 z m -0.34571,6.963916 c -0.68013,5.248429 1.22282,21.515373 0.66082,7.683042 -0.0598,-2.55758 0.61728,-5.292731 -0.66082,-7.683042 z M 20.457149,68.06768 c -5.164311,13.531152 -5.754316,28.627818 -15.9670696,39.68426 2.5585711,13.31675 8.1076036,25.897 0.6260093,38.99193 -1.8512964,6.53691 3.2162194,23.67638 4.6783571,23.09151 C 3.3784847,156.16428 8.6018519,142.38764 11.666481,129.18142 6.2638043,115.86169 5.8760689,94.126495 25.150954,94.139679 37.739159,92.256987 31.151175,90.591388 23.068781,91.443879 10.723384,88.722609 22.096098,75.499546 20.457149,68.06768 Z m 11.552783,2.306836 c -8.412261,10.242992 7.812877,3.250719 0,0 z m 75.614508,1.657263 c 2.62043,2.227148 -9.133273,6.932585 1.18339,6.154146 4.55933,-1.061394 3.41155,-6.144381 -1.18339,-6.154146 z m 108.35824,0.591695 c -2.50651,4.348814 2.81549,2.819816 0,0 z m -42.87903,1.294495 c -4.66531,0.06884 -2.37039,1.258633 0.46874,0.227747 z m -2.76263,0.667659 -2.13875,0.400489 z m -36.54764,0.937411 c 1.3725,4.209548 5.16624,0.824951 0,0 z M 243.33502,79.9021 c 3.41174,2.403084 3.54852,1.084372 0,0 z m 3.13986,1.445389 2.12091,0.890391 z m 2.51509,1.158069 c -3.32514,0.197785 -1.39837,5.391172 0,0 z m -238.151872,0 c -4.8170353,3.226345 -1.1601791,8.900764 0,0 z m 53.521798,0.828373 c -7.380931,3.461723 -1.724275,15.00757 0,0 z m 24.602632,7.86257 c 3.586511,3.153521 20.906412,0.302169 5.825235,0.338309 -1.940511,-0.132864 -3.882448,-0.244605 -5.825235,-0.338309 z m 14.105082,1.419551 c 6.4253,3.469944 9.37778,0.304956 0,0 z m 7.04608,1.793689 c 3.6345,5.961859 3.95891,-3.618745 0,0 z m 27.56163,-1.307414 c -18.27327,-4.000241 -22.8624,18.552773 -31.40419,29.469113 -0.016,13.61199 5.4995,32.50777 19.14976,38.07969 13.1601,-1.25856 31.94137,6.74906 39.13995,-8.32739 12.17615,-12.66968 12.92501,-29.90926 0.5356,-43.14199 -2.60937,-5.81966 -11.66041,-16.777838 -5.30725,-3.66836 10.90727,15.72921 16.64918,29.93709 3.27332,42.88813 -5.00325,15.8443 -22.00629,8.97104 -34.63318,9.01951 -13.49861,-3.78079 -20.36634,-23.41446 -19.19139,-34.36432 6.89046,-14.03485 13.258,-33.545752 33.15234,-27.284625 7.38367,0.05357 14.64709,-3.100595 2.60456,-2.446603 -2.43864,-0.103456 -4.87729,-0.252012 -7.31952,-0.223155 z m 94.61386,0.291456 c -4.12226,0.165744 1.07672,2.359203 0,0 z m -1.97249,0.946712 c -8.81061,1.968529 -29.57718,0.364626 -30.83735,4.45536 10.28214,-1.201218 21.37148,0.708878 30.83735,-4.45536 z M 84.274443,94.488289 c -2.191506,8.992441 7.744358,26.232431 11.07346,25.689021 -5.18948,-7.86354 -7.026221,-17.28402 -11.07346,-25.689021 z m -0.822689,0.189136 c -7.611412,3.019228 -21.943782,13.597655 -23.479358,15.065935 8.154388,-4.30495 18.405783,-6.64309 23.479358,-15.065935 z m 92.554036,4.752165 c 1.28046,3.53039 2.45225,1.90711 0,0 z m 16.96383,3.37292 c -4.20958,6.73473 -14.52577,22.12037 -9.7609,25.2573 2.79203,-7.93512 12.58751,-17.20839 9.7609,-25.2573 z m -167.666255,7.98866 c -2.370683,0.33819 1.11191,4.04879 0,0 z m -0.606164,1.68 c -1.673465,6.88473 9.152158,5.48322 0,0 z m 235.277629,1.36374 c -9.56324,8.972 -22.88893,18.30887 -27.825,29.2743 10.36855,-8.37605 21.37233,-17.9818 27.825,-29.2743 z m -29.82712,31.15314 c -5.93575,3.84992 -3.09132,5.28428 0,0 z M 50.471338,117.70186 c -8.715582,0.24136 -17.057697,28.22628 -7.409732,10.27393 2.665726,-3.24249 6.247835,-6.05744 7.409732,-10.27393 z m 165.774382,3.622 c -6.9324,3.67342 7.29943,4.585 0,0 z m -76.0088,1.30225 -1.45587,2.2937 z m -1.44643,2.42569 0.01,0.0589 z m 0,0 -0.41909,-0.29766 z m -0.41909,-0.29766 c -0.82,-1.21879 -1.52045,0.22632 0,0 z m 0.42891,0.35657 c -3.01693,10.60513 10.13617,-2.02284 0,0 z m -70.36366,-0.17725 c -5.479493,4.96356 5.108087,4.88647 0,0 z m 190.78215,0.40101 c -1.40232,1.57548 0.50108,5.28807 0,0 z m -0.46043,2.77709 c -5.1362,14.8446 -9.5678,30.06456 -15.75555,44.45357 -6.26406,5.53429 -3.04806,-14.37647 -10.60656,-16.9343 -8.07647,-3.78218 6.73598,11.65124 4.5966,16.40453 1.16733,5.90002 -3.30029,26.28738 2.35809,11.13135 7.5007,-12.30177 11.15686,-26.08706 16.50824,-39.22403 1.7681,-5.08422 2.8537,-10.43741 2.89918,-15.83112 z m -23.08283,63.59508 -0.0119,0.0837 z M 3.2111735,125.70292 c -4.5250384,9.12142 7.0646025,9.61469 0,0 z m 10.5295895,0.16743 c 3.62267,6.39883 18.209146,19.75346 20.770319,14.30314 -7.370928,-4.11307 -12.998986,-10.8395 -20.770319,-14.30314 z m 85.017033,0.062 c -7.152682,1.07623 -17.347509,17.88728 -14.728208,16.74991 5.648923,-4.74267 11.705834,-9.87089 14.728208,-16.74991 z m 82.781514,12.85969 c 12.70917,6.54787 30.31308,9.08733 42.86246,9.29393 -12.23024,-6.63032 -29.00657,-6.6373 -42.86246,-9.29393 z m -143.052254,3.51348 c 5.353432,3.36541 5.893064,25.30612 8.268477,19.39403 3.010989,-4.95377 7.431149,-7.20152 -0.243608,-9.1569 -2.641142,-3.43862 -5.656193,-6.59211 -8.024869,-10.23713 z m 14.32109,13.07465 0.235645,-0.0336 z m 0.235645,-0.0336 c 7.59209,-0.95223 24.944818,-3.24285 25.618131,-6.22807 -8.459847,2.37348 -17.961894,1.3013 -25.618131,6.22807 z m -5.820834,10.54303 c 0.589798,7.62145 9.420187,22.07659 12.644432,21.3919 -3.338889,-7.58452 -6.54143,-15.53837 -12.644432,-21.3919 z m 13.759884,24.22849 0.133011,0.12429 z M 18.859831,153.0418 c -1.884029,6.403 6.509719,4.24394 0,0 z m 63.297428,0.1018 c -3.835785,11.89802 12.084483,29.50004 -6.675032,34.84867 -5.994707,9.91899 9.19324,-3.81407 11.973269,-6.39069 2.823543,-9.75936 -6.589604,-17.67751 -5.298237,-28.45798 z m 103.307391,1.54203 c 5.26362,11.64517 21.05735,23.91886 14.94977,36.84446 -2.81774,5.16125 -3.96307,14.08526 0.63784,3.83264 -0.86891,-13.19219 21.81255,-11.7388 21.83958,-11.91509 -14.70456,0.26354 -26.41751,-8.83892 -31.77617,-21.85953 -1.17533,-2.75511 -2.79341,-5.59505 -5.65102,-6.90248 z m 23.16448,25.06152 c 8.35006,5.57122 -1.54563,-2.93446 0,0 z m 8.70282,-19.8329 c 7.2925,2.31394 9.46435,1.61449 0,0 z m 7.50756,1.57303 2.5601,0.53632 z m -122.34396,-1.46296 c -1.26003,2.30531 0.0466,8.22504 0.15949,2.44427 z m 16.17524,0 c -6.50992,10.95939 -1.9148,10.5494 0,0 z m -75.434669,6.55826 c -5.334881,0.64265 -24.700113,2.42539 -20.498915,4.38536 6.765101,-0.43596 14.888696,-1.24969 20.498915,-4.38536 z m -24.8667,3.67419 c -2.612782,-0.4409 -8.5558845,-0.35068 -2.466942,-0.0628 z m 104.125429,-3.27835 c -2.99605,14.28214 -12.75995,25.8375 -19.35895,38.32141 -3.640514,13.27071 16.86199,19.5363 11.97916,30.88293 -5.74894,9.27593 6.21848,-9.29657 9.17288,-12.49602 4.54819,-5.78013 13.59476,-17.54662 3.07478,-6.77168 -6.85696,4.7125 -9.07071,22.5902 -13.38939,7.1575 -9.91733,-8.68259 -12.77984,-22.17275 -0.79702,-30.46329 5.23839,-7.92218 8.33738,-17.20673 9.31854,-26.63085 z m -9.88984,73.37588 c -1.66851,3.91793 -2.48294,7.48056 0,0 z m -2.06705,5.32009 c -3.13499,-0.58768 -3.36148,3.00157 0,0 z m -8.92814,-38.16356 c -7.659177,-9.90301 -34.391437,-11.94711 -38.221144,-11.4423 13.799806,1.50996 24.767186,9.18363 38.221144,11.4423 z m 0,0 0.0389,-0.18585 z m 0.0145,-0.22014 c 0.54888,-1.54735 -0.85534,-1.3132 0,0 z m 20.76204,-40.27248 -1.38999,2.1648 z m -53.860797,0.75344 c -8.461593,1.0404 2.712406,6.06587 0,0 z m 87.160057,2.40916 c -4.43201,0.86302 -2.69339,2.41941 0,0 z m 0.44597,0.29094 c 0.14978,1.73939 0.29493,3.42497 0,0 z m 0.17208,1.99832 c -2.21761,7.97643 3.63854,11.42918 0.39512,1.66558 -0.13171,-0.5552 -0.26341,-1.11039 -0.39512,-1.66558 z m 0.77566,10.38283 c -9.66963,12.99938 1.27495,28.85934 -2.97492,42.86391 4.82834,-13.83142 -1.17412,-28.85734 2.97492,-42.86391 z m -3.15795,44.47584 c -1.57561,6.32412 -0.81231,6.79201 0,0 z m -0.95756,4.86792 -0.008,0.20491 z M 12.152747,172.9729 c 3.690746,5.74146 6.858098,3.71207 0,0 z m 4.911328,4.30517 c 12.626341,5.62204 10.087171,29.46744 10.45262,33.15586 4.368993,-11.92207 3.189343,-27.95847 -10.45262,-33.15586 z m 85.113155,-0.87902 c 0.19004,0.10209 -0.60944,5.83574 4.34462,1.0618 0.11706,-1.81921 -3.60477,-0.69947 -4.34462,-1.0618 z m 148.78523,0.0165 0.004,0.30179 z m 0.004,0.30179 c -2.84754,4.90664 0.94083,3.87545 0,0 z m -56.04775,-0.015 c -4.61172,-0.18903 -21.62899,1.91259 -7.33539,2.01567 2.47859,-0.35208 5.4355,-0.006 7.33539,-2.01567 z m -15.55563,1.33377 c -4.07492,-0.50585 -5.03449,0.77353 0,0 z m -4.1181,0.0537 c -7.2789,-1.18715 -5.73361,1.01479 0,0 z m -5.76554,-0.0274 c -6.21523,-1.47072 -4.7314,1.91872 0,0 z m -31.24202,8.63926 c -2.93648,2.08085 -0.35518,4.79395 0,0 z m -1.71617,3.35225 c -0.62279,-1.74183 -1.81871,5.37643 0,0 z m -0.0982,-0.83922 0.0799,-0.22579 z M 16.098242,186.77103 c -0.650236,8.291 7.800827,9.13504 0,0 z m 19.725411,1.24282 0.05087,2.47172 z m 0.131775,2.54454 c -0.91726,11.34238 10.854615,0.68171 0,0 z m 143.338022,-1.00614 c -6.78351,4.41968 4.85198,3.0501 0,0 z m -122.624041,7.06727 c -7.096183,2.524 -12.545248,20.48646 -3.342688,6.73759 1.487569,-2.01569 2.933231,-4.20799 3.342688,-6.73759 z m -10.009208,14.08803 c -2.993985,3.37858 0.06774,3.27718 0,0 z m -1.016992,3.45457 -0.01033,0.73277 z m -0.01033,0.73277 -1.071582,0.23994 z m -1.309481,0.22118 -1.828306,0.23091 z m 177.668732,-17.30541 -0.088,0.0858 z m -0.0646,0.0853 c -5.19525,3.40716 -0.246,2.19686 0,0 z m -0.0274,0 c -3.60964,1.24448 -6.22927,3.39754 0,0 z m -100.33651,2.84014 c 3.00428,6.09294 8.53674,0.46222 0,0 z m -38.612631,1.89187 c 2.824566,3.98926 3.536231,2.86251 0,0 z m 2.514575,2.44171 v -1.70538 z m 0.02325,0.0837 0.0067,0.43305 z m 0.0067,0.43305 c -2.479487,7.41897 1.417202,9.47127 0,0 z m -0.568441,7.39438 c -3.203994,5.77735 -2.648905,23.4787 0.25392,7.71943 0.51527,-2.5425 0.508512,-5.22323 -0.25392,-7.71943 z m 152.589137,-10.29343 2.4933,1.15002 z m 2.91145,1.42937 c -1.41411,0.36023 -1.0507,0.26766 0,0 z m -1.08934,0.2775 c -15.52108,0.88351 -26.73043,11.60446 -33.23515,24.46513 -4.32407,3.5743 -12.4865,20.73033 -2.24038,8.90699 9.31012,-11.78635 14.78417,-26.58591 30.42217,-31.29829 l 2.46883,-1.15168 z m -68.1979,0.89866 c -5.86906,0.81011 -3.87858,9.35203 -0.65784,1.47897 2.35932,3.68921 4.18119,-1.72462 0.65784,-1.47897 z m -142.313799,6.8032 c 4.800816,3.69004 26.72476,16.94783 14.015595,5.30497 -4.522673,-2.16959 -9.784335,-2.47832 -14.015595,-5.30497 z m 110.884189,3.90725 2.32191,0.81255 z m 2.36836,0.83073 c 4.24472,8.45744 8.92334,4.72967 0,0 z m 63.67312,-0.13694 c -16.41261,1.04569 -29.14186,13.31373 -40.09392,24.04991 11.66628,-5.41603 23.29207,-15.62161 36.12362,-20.74501 0.30724,0.0181 6.41103,-2.6155 3.9703,-3.3049 z m -140.664803,1.70274 c -8.096422,2.03997 7.7825,4.05615 0,0 z m 158.270963,2.02416 c -9.39729,0.57984 -1.87341,11.83706 -1.83595,1.95098 -0.86592,-1.48164 5.21703,-1.86442 1.83595,-1.95098 z m -25.25892,4.64468 0.11328,0.56306 z m -150.196524,0.5824 c 4.603648,3.05152 5.565383,2.48732 0,0 z m 3.909322,2.09858 c 13.909118,3.78326 25.586788,11.26803 35.792081,20.88544 0.603791,-4.75411 -15.061108,-17.91611 -25.116021,-17.73083 -3.61448,-0.87088 -7.273356,-1.61023 -10.67606,-3.15461 z m 45.028776,0.91725 c 2.885438,3.7466 3.099329,3.91557 0,0 z m 2.760036,3.55124 c -3.855048,1.56512 4.7244,3.17549 0,0 z m 36.46702,-2.20659 c -3.46876,1.90754 3.91505,4.09207 0,0 z m -84.0698,0.13488 c -5.046844,2.12776 0.324497,6.27758 0,0 z m 140.57695,0 c -3.84779,6.95378 3.18192,5.6244 0,0 z m -132.292184,8.52093 c 2.962801,8.67963 7.742137,-1.27182 0,0 z m 133.430614,1.71462 c -2.05093,4.03665 0.27766,5.51218 0,0 z m -0.53692,4.39663 -0.12453,1.02216 z m -0.12454,1.02216 -0.5488,0.0636 z m -0.5488,0.0636 c -10.76632,-0.8776 -32.97197,3.7807 -36.29189,6.74202 11.52328,0.81582 22.98035,-1.11323 33.26817,-6.2161 1.00791,-0.17531 2.01581,-0.35061 3.02372,-0.52592 z M 95.7745,243.87334 c -4.564988,4.38921 -3.441295,17.51091 -1.101546,5.1044 0.523692,-1.6556 1.203318,-3.32701 1.101546,-5.1044 z m -2.384868,10.88202 0.163815,-0.17001 z m 55.012138,-5.61516 c -2.4886,6.55874 2.22234,10.92233 0,0 z m -0.77152,6.581 c -0.41253,-1.1521 0.18008,1.94182 0,0 z m -0.031,0.62011 0.26165,2.58891 z m -0.0946,-0.93431 -0.29338,-2.90435 z m -4.60644,-5.49734 c -14.50977,2.44269 -29.4281,0.90752 -43.877365,3.67775 6.932475,4.56147 26.617495,0.40995 38.196605,-0.89631 2.80178,-1.20624 14.07974,2.46714 5.68076,-2.78144 z m -1.6092,5.85908 c -0.73434,1.57633 -1.46261,3.13965 0,0 z"
       sodipodi:nodetypes="ccccccccccccccccccccccccccccccccccccccccccccccccccccccccccccccccccccccccccccccccccccccccccccccccccccccccccccccccccccccccccccccccccccccccccccccccccccccccccccccccccccccccccccccccccccccccccccccccccccccccccccccccccccccccccccccccccccccccccccccccccccccccccccccccccccccccccccccccccccccccccccccccccccccccccccccccccccccccccccccccccccccccccccccccccccccccccccccccccccccccccccccccccccccccccccccccccccccccccccccccccccccccccccccccccccccccccccccccccccccccccccccccccccccccccccccccccccccccccccccccccccccccccccccccccccccccccccc" />
    <path
       style="fill:#000000;fill-opacity:1;stroke-width:0.199"
       d="m 308.09763,258.87089 c 2.61289,1.80202 1.5671,1.24954 2.96527,1.94863"
       id="path108" />
  </g>
</svg>
